%TF.GenerationSoftware,KiCad,Pcbnew,7.0.1*%
%TF.CreationDate,2023-03-23T04:50:53+01:00*%
%TF.ProjectId,Tiamat_v01_badge,5469616d-6174-45f7-9630-315f62616467,rev?*%
%TF.SameCoordinates,Original*%
%TF.FileFunction,Legend,Top*%
%TF.FilePolarity,Positive*%
%FSLAX46Y46*%
G04 Gerber Fmt 4.6, Leading zero omitted, Abs format (unit mm)*
G04 Created by KiCad (PCBNEW 7.0.1) date 2023-03-23 04:50:53*
%MOMM*%
%LPD*%
G01*
G04 APERTURE LIST*
%ADD10C,0.152400*%
G04 APERTURE END LIST*
D10*
X165354000Y-42037000D02*
X168402000Y-42037000D01*
X168402000Y-55245000D01*
X165354000Y-55245000D01*
X165354000Y-42037000D01*
X192532000Y-42037000D02*
X195453000Y-42037000D01*
X195453000Y-55245000D01*
X192532000Y-55245000D01*
X192532000Y-42037000D01*
X193360523Y-41175528D02*
X193360523Y-40362728D01*
X193360523Y-40749776D02*
X193824980Y-40749776D01*
X193824980Y-41175528D02*
X193824980Y-40362728D01*
X194637781Y-41175528D02*
X194173324Y-41175528D01*
X194405552Y-41175528D02*
X194405552Y-40362728D01*
X194405552Y-40362728D02*
X194328143Y-40478843D01*
X194328143Y-40478843D02*
X194250733Y-40556252D01*
X194250733Y-40556252D02*
X194173324Y-40594957D01*
X166436523Y-41556528D02*
X166436523Y-40743728D01*
X166436523Y-41130776D02*
X166900980Y-41130776D01*
X166900980Y-41556528D02*
X166900980Y-40743728D01*
X167249324Y-40821138D02*
X167288028Y-40782433D01*
X167288028Y-40782433D02*
X167365438Y-40743728D01*
X167365438Y-40743728D02*
X167558962Y-40743728D01*
X167558962Y-40743728D02*
X167636371Y-40782433D01*
X167636371Y-40782433D02*
X167675076Y-40821138D01*
X167675076Y-40821138D02*
X167713781Y-40898547D01*
X167713781Y-40898547D02*
X167713781Y-40975957D01*
X167713781Y-40975957D02*
X167675076Y-41092071D01*
X167675076Y-41092071D02*
X167210619Y-41556528D01*
X167210619Y-41556528D02*
X167713781Y-41556528D01*
X158134169Y-148878184D02*
X158919273Y-148667816D01*
X158919273Y-148667816D02*
X158428607Y-149079780D01*
X158428607Y-149079780D02*
X159059519Y-149191219D01*
X159059519Y-149191219D02*
X158274414Y-149401587D01*
X139270364Y-116361780D02*
X139315351Y-116475608D01*
X139315351Y-116475608D02*
X139439746Y-116623855D01*
X139439746Y-116623855D02*
X139519154Y-116658276D01*
X139519154Y-116658276D02*
X139573682Y-116663046D01*
X139573682Y-116663046D02*
X139657860Y-116642938D01*
X139657860Y-116642938D02*
X139717159Y-116593180D01*
X139717159Y-116593180D02*
X139751580Y-116513773D01*
X139751580Y-116513773D02*
X139756350Y-116459244D01*
X139756350Y-116459244D02*
X139736242Y-116375066D01*
X139736242Y-116375066D02*
X139666376Y-116231589D01*
X139666376Y-116231589D02*
X139646267Y-116147411D01*
X139646267Y-116147411D02*
X139651038Y-116092882D01*
X139651038Y-116092882D02*
X139685458Y-116013475D01*
X139685458Y-116013475D02*
X139744757Y-115963717D01*
X139744757Y-115963717D02*
X139828935Y-115943609D01*
X139828935Y-115943609D02*
X139883464Y-115948379D01*
X139883464Y-115948379D02*
X139962871Y-115982799D01*
X139962871Y-115982799D02*
X140087266Y-116131047D01*
X140087266Y-116131047D02*
X140132253Y-116244875D01*
X140178266Y-116660994D02*
X139555625Y-117183452D01*
X140148617Y-116685873D02*
X140228024Y-116720294D01*
X140228024Y-116720294D02*
X140327540Y-116838892D01*
X140327540Y-116838892D02*
X140347648Y-116923070D01*
X140347648Y-116923070D02*
X140342878Y-116977598D01*
X140342878Y-116977598D02*
X140308457Y-117057006D01*
X140308457Y-117057006D02*
X140130560Y-117206280D01*
X140130560Y-117206280D02*
X140046382Y-117226388D01*
X140046382Y-117226388D02*
X139991853Y-117221617D01*
X139991853Y-117221617D02*
X139912446Y-117187197D01*
X139912446Y-117187197D02*
X139812930Y-117068599D01*
X139812930Y-117068599D02*
X139792822Y-116984421D01*
X140459782Y-117839487D02*
X140785928Y-117565819D01*
X140785928Y-117565819D02*
X140820348Y-117486411D01*
X140820348Y-117486411D02*
X140800239Y-117402233D01*
X140800239Y-117402233D02*
X140700724Y-117283635D01*
X140700724Y-117283635D02*
X140621316Y-117249215D01*
X140489432Y-117814608D02*
X140410024Y-117780188D01*
X140410024Y-117780188D02*
X140285630Y-117631940D01*
X140285630Y-117631940D02*
X140265521Y-117547762D01*
X140265521Y-117547762D02*
X140299942Y-117468355D01*
X140299942Y-117468355D02*
X140359241Y-117418597D01*
X140359241Y-117418597D02*
X140443419Y-117398488D01*
X140443419Y-117398488D02*
X140522826Y-117432909D01*
X140522826Y-117432909D02*
X140647221Y-117581156D01*
X140647221Y-117581156D02*
X140726628Y-117615577D01*
X140962131Y-118377950D02*
X140882724Y-118343529D01*
X140882724Y-118343529D02*
X140783208Y-118224931D01*
X140783208Y-118224931D02*
X140763100Y-118140753D01*
X140763100Y-118140753D02*
X140767871Y-118086225D01*
X140767871Y-118086225D02*
X140802291Y-118006817D01*
X140802291Y-118006817D02*
X140980188Y-117857543D01*
X140980188Y-117857543D02*
X141064366Y-117837435D01*
X141064366Y-117837435D02*
X141118895Y-117842206D01*
X141118895Y-117842206D02*
X141198302Y-117876626D01*
X141198302Y-117876626D02*
X141297818Y-117995224D01*
X141297818Y-117995224D02*
X141317926Y-118079402D01*
X141385074Y-118881993D02*
X141305666Y-118847572D01*
X141305666Y-118847572D02*
X141206150Y-118728974D01*
X141206150Y-118728974D02*
X141186042Y-118644796D01*
X141186042Y-118644796D02*
X141220462Y-118565389D01*
X141220462Y-118565389D02*
X141457659Y-118366357D01*
X141457659Y-118366357D02*
X141541837Y-118346249D01*
X141541837Y-118346249D02*
X141621244Y-118380669D01*
X141621244Y-118380669D02*
X141720760Y-118499267D01*
X141720760Y-118499267D02*
X141740868Y-118583445D01*
X141740868Y-118583445D02*
X141706448Y-118662853D01*
X141706448Y-118662853D02*
X141647149Y-118712611D01*
X141647149Y-118712611D02*
X141339061Y-118465873D01*
X104471409Y-102973728D02*
X104742342Y-103786528D01*
X104742342Y-103786528D02*
X105013276Y-102973728D01*
X85493980Y-103709119D02*
X85455276Y-103747824D01*
X85455276Y-103747824D02*
X85339161Y-103786528D01*
X85339161Y-103786528D02*
X85261752Y-103786528D01*
X85261752Y-103786528D02*
X85145638Y-103747824D01*
X85145638Y-103747824D02*
X85068228Y-103670414D01*
X85068228Y-103670414D02*
X85029523Y-103593004D01*
X85029523Y-103593004D02*
X84990819Y-103438185D01*
X84990819Y-103438185D02*
X84990819Y-103322071D01*
X84990819Y-103322071D02*
X85029523Y-103167252D01*
X85029523Y-103167252D02*
X85068228Y-103089843D01*
X85068228Y-103089843D02*
X85145638Y-103012433D01*
X85145638Y-103012433D02*
X85261752Y-102973728D01*
X85261752Y-102973728D02*
X85339161Y-102973728D01*
X85339161Y-102973728D02*
X85455276Y-103012433D01*
X85455276Y-103012433D02*
X85493980Y-103051138D01*
X149291523Y-84101528D02*
X149291523Y-83288728D01*
X149291523Y-83675776D02*
X149755980Y-83675776D01*
X149755980Y-84101528D02*
X149755980Y-83288728D01*
X130540276Y-83200433D02*
X130462866Y-83161728D01*
X130462866Y-83161728D02*
X130346752Y-83161728D01*
X130346752Y-83161728D02*
X130230638Y-83200433D01*
X130230638Y-83200433D02*
X130153228Y-83277843D01*
X130153228Y-83277843D02*
X130114523Y-83355252D01*
X130114523Y-83355252D02*
X130075819Y-83510071D01*
X130075819Y-83510071D02*
X130075819Y-83626185D01*
X130075819Y-83626185D02*
X130114523Y-83781004D01*
X130114523Y-83781004D02*
X130153228Y-83858414D01*
X130153228Y-83858414D02*
X130230638Y-83935824D01*
X130230638Y-83935824D02*
X130346752Y-83974528D01*
X130346752Y-83974528D02*
X130424161Y-83974528D01*
X130424161Y-83974528D02*
X130540276Y-83935824D01*
X130540276Y-83935824D02*
X130578980Y-83897119D01*
X130578980Y-83897119D02*
X130578980Y-83626185D01*
X130578980Y-83626185D02*
X130424161Y-83626185D01*
X110446457Y-83675776D02*
X110175523Y-83675776D01*
X110175523Y-84101528D02*
X110175523Y-83288728D01*
X110175523Y-83288728D02*
X110562571Y-83288728D01*
X90363523Y-83974528D02*
X90363523Y-83161728D01*
X90363523Y-83161728D02*
X90557047Y-83161728D01*
X90557047Y-83161728D02*
X90673161Y-83200433D01*
X90673161Y-83200433D02*
X90750571Y-83277843D01*
X90750571Y-83277843D02*
X90789276Y-83355252D01*
X90789276Y-83355252D02*
X90827980Y-83510071D01*
X90827980Y-83510071D02*
X90827980Y-83626185D01*
X90827980Y-83626185D02*
X90789276Y-83781004D01*
X90789276Y-83781004D02*
X90750571Y-83858414D01*
X90750571Y-83858414D02*
X90673161Y-83935824D01*
X90673161Y-83935824D02*
X90557047Y-83974528D01*
X90557047Y-83974528D02*
X90363523Y-83974528D01*
X70639819Y-84062824D02*
X70755933Y-84101528D01*
X70755933Y-84101528D02*
X70949457Y-84101528D01*
X70949457Y-84101528D02*
X71026866Y-84062824D01*
X71026866Y-84062824D02*
X71065571Y-84024119D01*
X71065571Y-84024119D02*
X71104276Y-83946709D01*
X71104276Y-83946709D02*
X71104276Y-83869300D01*
X71104276Y-83869300D02*
X71065571Y-83791890D01*
X71065571Y-83791890D02*
X71026866Y-83753185D01*
X71026866Y-83753185D02*
X70949457Y-83714481D01*
X70949457Y-83714481D02*
X70794638Y-83675776D01*
X70794638Y-83675776D02*
X70717228Y-83637071D01*
X70717228Y-83637071D02*
X70678523Y-83598366D01*
X70678523Y-83598366D02*
X70639819Y-83520957D01*
X70639819Y-83520957D02*
X70639819Y-83443547D01*
X70639819Y-83443547D02*
X70678523Y-83366138D01*
X70678523Y-83366138D02*
X70717228Y-83327433D01*
X70717228Y-83327433D02*
X70794638Y-83288728D01*
X70794638Y-83288728D02*
X70988161Y-83288728D01*
X70988161Y-83288728D02*
X71104276Y-83327433D01*
X50700819Y-83742300D02*
X51087866Y-83742300D01*
X50623409Y-83974528D02*
X50894342Y-83161728D01*
X50894342Y-83161728D02*
X51165276Y-83974528D01*
X29740980Y-88469119D02*
X29702276Y-88507824D01*
X29702276Y-88507824D02*
X29586161Y-88546528D01*
X29586161Y-88546528D02*
X29508752Y-88546528D01*
X29508752Y-88546528D02*
X29392638Y-88507824D01*
X29392638Y-88507824D02*
X29315228Y-88430414D01*
X29315228Y-88430414D02*
X29276523Y-88353004D01*
X29276523Y-88353004D02*
X29237819Y-88198185D01*
X29237819Y-88198185D02*
X29237819Y-88082071D01*
X29237819Y-88082071D02*
X29276523Y-87927252D01*
X29276523Y-87927252D02*
X29315228Y-87849843D01*
X29315228Y-87849843D02*
X29392638Y-87772433D01*
X29392638Y-87772433D02*
X29508752Y-87733728D01*
X29508752Y-87733728D02*
X29586161Y-87733728D01*
X29586161Y-87733728D02*
X29702276Y-87772433D01*
X29702276Y-87772433D02*
X29740980Y-87811138D01*
X30205438Y-88546528D02*
X30128028Y-88507824D01*
X30128028Y-88507824D02*
X30089323Y-88469119D01*
X30089323Y-88469119D02*
X30050619Y-88391709D01*
X30050619Y-88391709D02*
X30050619Y-88159481D01*
X30050619Y-88159481D02*
X30089323Y-88082071D01*
X30089323Y-88082071D02*
X30128028Y-88043366D01*
X30128028Y-88043366D02*
X30205438Y-88004662D01*
X30205438Y-88004662D02*
X30321552Y-88004662D01*
X30321552Y-88004662D02*
X30398961Y-88043366D01*
X30398961Y-88043366D02*
X30437666Y-88082071D01*
X30437666Y-88082071D02*
X30476371Y-88159481D01*
X30476371Y-88159481D02*
X30476371Y-88391709D01*
X30476371Y-88391709D02*
X30437666Y-88469119D01*
X30437666Y-88469119D02*
X30398961Y-88507824D01*
X30398961Y-88507824D02*
X30321552Y-88546528D01*
X30321552Y-88546528D02*
X30205438Y-88546528D01*
X30824713Y-88004662D02*
X30824713Y-88546528D01*
X30824713Y-88082071D02*
X30863418Y-88043366D01*
X30863418Y-88043366D02*
X30940828Y-88004662D01*
X30940828Y-88004662D02*
X31056942Y-88004662D01*
X31056942Y-88004662D02*
X31134351Y-88043366D01*
X31134351Y-88043366D02*
X31173056Y-88120776D01*
X31173056Y-88120776D02*
X31173056Y-88546528D01*
X31443989Y-88004662D02*
X31753627Y-88004662D01*
X31560103Y-87733728D02*
X31560103Y-88430414D01*
X31560103Y-88430414D02*
X31598808Y-88507824D01*
X31598808Y-88507824D02*
X31676218Y-88546528D01*
X31676218Y-88546528D02*
X31753627Y-88546528D01*
X32024560Y-88546528D02*
X32024560Y-88004662D01*
X32024560Y-88159481D02*
X32063265Y-88082071D01*
X32063265Y-88082071D02*
X32101970Y-88043366D01*
X32101970Y-88043366D02*
X32179379Y-88004662D01*
X32179379Y-88004662D02*
X32256789Y-88004662D01*
X32643837Y-88546528D02*
X32566427Y-88507824D01*
X32566427Y-88507824D02*
X32527722Y-88469119D01*
X32527722Y-88469119D02*
X32489018Y-88391709D01*
X32489018Y-88391709D02*
X32489018Y-88159481D01*
X32489018Y-88159481D02*
X32527722Y-88082071D01*
X32527722Y-88082071D02*
X32566427Y-88043366D01*
X32566427Y-88043366D02*
X32643837Y-88004662D01*
X32643837Y-88004662D02*
X32759951Y-88004662D01*
X32759951Y-88004662D02*
X32837360Y-88043366D01*
X32837360Y-88043366D02*
X32876065Y-88082071D01*
X32876065Y-88082071D02*
X32914770Y-88159481D01*
X32914770Y-88159481D02*
X32914770Y-88391709D01*
X32914770Y-88391709D02*
X32876065Y-88469119D01*
X32876065Y-88469119D02*
X32837360Y-88507824D01*
X32837360Y-88507824D02*
X32759951Y-88546528D01*
X32759951Y-88546528D02*
X32643837Y-88546528D01*
X33379227Y-88546528D02*
X33301817Y-88507824D01*
X33301817Y-88507824D02*
X33263112Y-88430414D01*
X33263112Y-88430414D02*
X33263112Y-87733728D01*
X149446342Y-64029481D02*
X149446342Y-64416528D01*
X149175409Y-63603728D02*
X149446342Y-64029481D01*
X149446342Y-64029481D02*
X149717276Y-63603728D01*
X129363409Y-63603728D02*
X129827866Y-63603728D01*
X129595638Y-64416528D02*
X129595638Y-63603728D01*
X110258980Y-64289528D02*
X109988047Y-63902481D01*
X109794523Y-64289528D02*
X109794523Y-63476728D01*
X109794523Y-63476728D02*
X110104161Y-63476728D01*
X110104161Y-63476728D02*
X110181571Y-63515433D01*
X110181571Y-63515433D02*
X110220276Y-63554138D01*
X110220276Y-63554138D02*
X110258980Y-63631547D01*
X110258980Y-63631547D02*
X110258980Y-63747662D01*
X110258980Y-63747662D02*
X110220276Y-63825071D01*
X110220276Y-63825071D02*
X110181571Y-63863776D01*
X110181571Y-63863776D02*
X110104161Y-63902481D01*
X110104161Y-63902481D02*
X109794523Y-63902481D01*
X90109523Y-63863776D02*
X90380457Y-63863776D01*
X90496571Y-64289528D02*
X90109523Y-64289528D01*
X90109523Y-64289528D02*
X90109523Y-63476728D01*
X90109523Y-63476728D02*
X90496571Y-63476728D01*
X70220114Y-63603728D02*
X70413638Y-64416528D01*
X70413638Y-64416528D02*
X70568457Y-63835957D01*
X70568457Y-63835957D02*
X70723276Y-64416528D01*
X70723276Y-64416528D02*
X70916800Y-63603728D01*
X51281390Y-64493938D02*
X51203980Y-64455233D01*
X51203980Y-64455233D02*
X51126571Y-64377824D01*
X51126571Y-64377824D02*
X51010457Y-64261709D01*
X51010457Y-64261709D02*
X50933047Y-64223004D01*
X50933047Y-64223004D02*
X50855638Y-64223004D01*
X50894342Y-64416528D02*
X50816933Y-64377824D01*
X50816933Y-64377824D02*
X50739523Y-64300414D01*
X50739523Y-64300414D02*
X50700819Y-64145595D01*
X50700819Y-64145595D02*
X50700819Y-63874662D01*
X50700819Y-63874662D02*
X50739523Y-63719843D01*
X50739523Y-63719843D02*
X50816933Y-63642433D01*
X50816933Y-63642433D02*
X50894342Y-63603728D01*
X50894342Y-63603728D02*
X51049161Y-63603728D01*
X51049161Y-63603728D02*
X51126571Y-63642433D01*
X51126571Y-63642433D02*
X51203980Y-63719843D01*
X51203980Y-63719843D02*
X51242685Y-63874662D01*
X51242685Y-63874662D02*
X51242685Y-64145595D01*
X51242685Y-64145595D02*
X51203980Y-64300414D01*
X51203980Y-64300414D02*
X51126571Y-64377824D01*
X51126571Y-64377824D02*
X51049161Y-64416528D01*
X51049161Y-64416528D02*
X50894342Y-64416528D01*
X29999819Y-68314824D02*
X30115933Y-68353528D01*
X30115933Y-68353528D02*
X30309457Y-68353528D01*
X30309457Y-68353528D02*
X30386866Y-68314824D01*
X30386866Y-68314824D02*
X30425571Y-68276119D01*
X30425571Y-68276119D02*
X30464276Y-68198709D01*
X30464276Y-68198709D02*
X30464276Y-68121300D01*
X30464276Y-68121300D02*
X30425571Y-68043890D01*
X30425571Y-68043890D02*
X30386866Y-68005185D01*
X30386866Y-68005185D02*
X30309457Y-67966481D01*
X30309457Y-67966481D02*
X30154638Y-67927776D01*
X30154638Y-67927776D02*
X30077228Y-67889071D01*
X30077228Y-67889071D02*
X30038523Y-67850366D01*
X30038523Y-67850366D02*
X29999819Y-67772957D01*
X29999819Y-67772957D02*
X29999819Y-67695547D01*
X29999819Y-67695547D02*
X30038523Y-67618138D01*
X30038523Y-67618138D02*
X30077228Y-67579433D01*
X30077228Y-67579433D02*
X30154638Y-67540728D01*
X30154638Y-67540728D02*
X30348161Y-67540728D01*
X30348161Y-67540728D02*
X30464276Y-67579433D01*
X30812618Y-68353528D02*
X30812618Y-67540728D01*
X31160961Y-68353528D02*
X31160961Y-67927776D01*
X31160961Y-67927776D02*
X31122256Y-67850366D01*
X31122256Y-67850366D02*
X31044847Y-67811662D01*
X31044847Y-67811662D02*
X30928733Y-67811662D01*
X30928733Y-67811662D02*
X30851323Y-67850366D01*
X30851323Y-67850366D02*
X30812618Y-67889071D01*
X31548008Y-68353528D02*
X31548008Y-67811662D01*
X31548008Y-67540728D02*
X31509304Y-67579433D01*
X31509304Y-67579433D02*
X31548008Y-67618138D01*
X31548008Y-67618138D02*
X31586713Y-67579433D01*
X31586713Y-67579433D02*
X31548008Y-67540728D01*
X31548008Y-67540728D02*
X31548008Y-67618138D01*
X31818942Y-67811662D02*
X32128580Y-67811662D01*
X31935056Y-68353528D02*
X31935056Y-67656843D01*
X31935056Y-67656843D02*
X31973761Y-67579433D01*
X31973761Y-67579433D02*
X32051171Y-67540728D01*
X32051171Y-67540728D02*
X32128580Y-67540728D01*
X32283399Y-67811662D02*
X32593037Y-67811662D01*
X32399513Y-67540728D02*
X32399513Y-68237414D01*
X32399513Y-68237414D02*
X32438218Y-68314824D01*
X32438218Y-68314824D02*
X32515628Y-68353528D01*
X32515628Y-68353528D02*
X32593037Y-68353528D01*
X149893866Y-43791728D02*
X149739047Y-43791728D01*
X149739047Y-43791728D02*
X149661638Y-43830433D01*
X149661638Y-43830433D02*
X149622933Y-43869138D01*
X149622933Y-43869138D02*
X149545523Y-43985252D01*
X149545523Y-43985252D02*
X149506819Y-44140071D01*
X149506819Y-44140071D02*
X149506819Y-44449709D01*
X149506819Y-44449709D02*
X149545523Y-44527119D01*
X149545523Y-44527119D02*
X149584228Y-44565824D01*
X149584228Y-44565824D02*
X149661638Y-44604528D01*
X149661638Y-44604528D02*
X149816457Y-44604528D01*
X149816457Y-44604528D02*
X149893866Y-44565824D01*
X149893866Y-44565824D02*
X149932571Y-44527119D01*
X149932571Y-44527119D02*
X149971276Y-44449709D01*
X149971276Y-44449709D02*
X149971276Y-44256185D01*
X149971276Y-44256185D02*
X149932571Y-44178776D01*
X149932571Y-44178776D02*
X149893866Y-44140071D01*
X149893866Y-44140071D02*
X149816457Y-44101366D01*
X149816457Y-44101366D02*
X149661638Y-44101366D01*
X149661638Y-44101366D02*
X149584228Y-44140071D01*
X149584228Y-44140071D02*
X149545523Y-44178776D01*
X149545523Y-44178776D02*
X149506819Y-44256185D01*
X129993571Y-43791728D02*
X129606523Y-43791728D01*
X129606523Y-43791728D02*
X129567819Y-44178776D01*
X129567819Y-44178776D02*
X129606523Y-44140071D01*
X129606523Y-44140071D02*
X129683933Y-44101366D01*
X129683933Y-44101366D02*
X129877457Y-44101366D01*
X129877457Y-44101366D02*
X129954866Y-44140071D01*
X129954866Y-44140071D02*
X129993571Y-44178776D01*
X129993571Y-44178776D02*
X130032276Y-44256185D01*
X130032276Y-44256185D02*
X130032276Y-44449709D01*
X130032276Y-44449709D02*
X129993571Y-44527119D01*
X129993571Y-44527119D02*
X129954866Y-44565824D01*
X129954866Y-44565824D02*
X129877457Y-44604528D01*
X129877457Y-44604528D02*
X129683933Y-44604528D01*
X129683933Y-44604528D02*
X129606523Y-44565824D01*
X129606523Y-44565824D02*
X129567819Y-44527119D01*
X110142866Y-44189662D02*
X110142866Y-44731528D01*
X109949342Y-43880024D02*
X109755819Y-44460595D01*
X109755819Y-44460595D02*
X110258980Y-44460595D01*
X90032114Y-43918728D02*
X90535276Y-43918728D01*
X90535276Y-43918728D02*
X90264342Y-44228366D01*
X90264342Y-44228366D02*
X90380457Y-44228366D01*
X90380457Y-44228366D02*
X90457866Y-44267071D01*
X90457866Y-44267071D02*
X90496571Y-44305776D01*
X90496571Y-44305776D02*
X90535276Y-44383185D01*
X90535276Y-44383185D02*
X90535276Y-44576709D01*
X90535276Y-44576709D02*
X90496571Y-44654119D01*
X90496571Y-44654119D02*
X90457866Y-44692824D01*
X90457866Y-44692824D02*
X90380457Y-44731528D01*
X90380457Y-44731528D02*
X90148228Y-44731528D01*
X90148228Y-44731528D02*
X90070819Y-44692824D01*
X90070819Y-44692824D02*
X90032114Y-44654119D01*
X70385819Y-43869138D02*
X70424523Y-43830433D01*
X70424523Y-43830433D02*
X70501933Y-43791728D01*
X70501933Y-43791728D02*
X70695457Y-43791728D01*
X70695457Y-43791728D02*
X70772866Y-43830433D01*
X70772866Y-43830433D02*
X70811571Y-43869138D01*
X70811571Y-43869138D02*
X70850276Y-43946547D01*
X70850276Y-43946547D02*
X70850276Y-44023957D01*
X70850276Y-44023957D02*
X70811571Y-44140071D01*
X70811571Y-44140071D02*
X70347114Y-44604528D01*
X70347114Y-44604528D02*
X70850276Y-44604528D01*
X51165276Y-44731528D02*
X50700819Y-44731528D01*
X50933047Y-44731528D02*
X50933047Y-43918728D01*
X50933047Y-43918728D02*
X50855638Y-44034843D01*
X50855638Y-44034843D02*
X50778228Y-44112252D01*
X50778228Y-44112252D02*
X50700819Y-44150957D01*
X30303409Y-47347728D02*
X30767866Y-47347728D01*
X30535638Y-48160528D02*
X30535638Y-47347728D01*
X31387142Y-48160528D02*
X31387142Y-47734776D01*
X31387142Y-47734776D02*
X31348437Y-47657366D01*
X31348437Y-47657366D02*
X31271028Y-47618662D01*
X31271028Y-47618662D02*
X31116209Y-47618662D01*
X31116209Y-47618662D02*
X31038799Y-47657366D01*
X31387142Y-48121824D02*
X31309733Y-48160528D01*
X31309733Y-48160528D02*
X31116209Y-48160528D01*
X31116209Y-48160528D02*
X31038799Y-48121824D01*
X31038799Y-48121824D02*
X31000095Y-48044414D01*
X31000095Y-48044414D02*
X31000095Y-47967004D01*
X31000095Y-47967004D02*
X31038799Y-47889595D01*
X31038799Y-47889595D02*
X31116209Y-47850890D01*
X31116209Y-47850890D02*
X31309733Y-47850890D01*
X31309733Y-47850890D02*
X31387142Y-47812185D01*
X31774189Y-48160528D02*
X31774189Y-47347728D01*
X31774189Y-47657366D02*
X31851599Y-47618662D01*
X31851599Y-47618662D02*
X32006418Y-47618662D01*
X32006418Y-47618662D02*
X32083827Y-47657366D01*
X32083827Y-47657366D02*
X32122532Y-47696071D01*
X32122532Y-47696071D02*
X32161237Y-47773481D01*
X32161237Y-47773481D02*
X32161237Y-48005709D01*
X32161237Y-48005709D02*
X32122532Y-48083119D01*
X32122532Y-48083119D02*
X32083827Y-48121824D01*
X32083827Y-48121824D02*
X32006418Y-48160528D01*
X32006418Y-48160528D02*
X31851599Y-48160528D01*
X31851599Y-48160528D02*
X31774189Y-48121824D01*
X135194523Y-24620776D02*
X135465457Y-24620776D01*
X135581571Y-25046528D02*
X135194523Y-25046528D01*
X135194523Y-25046528D02*
X135194523Y-24233728D01*
X135194523Y-24233728D02*
X135581571Y-24233728D01*
X135929913Y-24504662D02*
X135929913Y-25046528D01*
X135929913Y-24582071D02*
X135968618Y-24543366D01*
X135968618Y-24543366D02*
X136046028Y-24504662D01*
X136046028Y-24504662D02*
X136162142Y-24504662D01*
X136162142Y-24504662D02*
X136239551Y-24543366D01*
X136239551Y-24543366D02*
X136278256Y-24620776D01*
X136278256Y-24620776D02*
X136278256Y-25046528D01*
X136549189Y-24504662D02*
X136858827Y-24504662D01*
X136665303Y-24233728D02*
X136665303Y-24930414D01*
X136665303Y-24930414D02*
X136704008Y-25007824D01*
X136704008Y-25007824D02*
X136781418Y-25046528D01*
X136781418Y-25046528D02*
X136858827Y-25046528D01*
X137439398Y-25007824D02*
X137361989Y-25046528D01*
X137361989Y-25046528D02*
X137207170Y-25046528D01*
X137207170Y-25046528D02*
X137129760Y-25007824D01*
X137129760Y-25007824D02*
X137091056Y-24930414D01*
X137091056Y-24930414D02*
X137091056Y-24620776D01*
X137091056Y-24620776D02*
X137129760Y-24543366D01*
X137129760Y-24543366D02*
X137207170Y-24504662D01*
X137207170Y-24504662D02*
X137361989Y-24504662D01*
X137361989Y-24504662D02*
X137439398Y-24543366D01*
X137439398Y-24543366D02*
X137478103Y-24620776D01*
X137478103Y-24620776D02*
X137478103Y-24698185D01*
X137478103Y-24698185D02*
X137091056Y-24775595D01*
X137826446Y-25046528D02*
X137826446Y-24504662D01*
X137826446Y-24659481D02*
X137865151Y-24582071D01*
X137865151Y-24582071D02*
X137903856Y-24543366D01*
X137903856Y-24543366D02*
X137981265Y-24504662D01*
X137981265Y-24504662D02*
X138058675Y-24504662D01*
X109949342Y-24233728D02*
X110026752Y-24233728D01*
X110026752Y-24233728D02*
X110104161Y-24272433D01*
X110104161Y-24272433D02*
X110142866Y-24311138D01*
X110142866Y-24311138D02*
X110181571Y-24388547D01*
X110181571Y-24388547D02*
X110220276Y-24543366D01*
X110220276Y-24543366D02*
X110220276Y-24736890D01*
X110220276Y-24736890D02*
X110181571Y-24891709D01*
X110181571Y-24891709D02*
X110142866Y-24969119D01*
X110142866Y-24969119D02*
X110104161Y-25007824D01*
X110104161Y-25007824D02*
X110026752Y-25046528D01*
X110026752Y-25046528D02*
X109949342Y-25046528D01*
X109949342Y-25046528D02*
X109871933Y-25007824D01*
X109871933Y-25007824D02*
X109833228Y-24969119D01*
X109833228Y-24969119D02*
X109794523Y-24891709D01*
X109794523Y-24891709D02*
X109755819Y-24736890D01*
X109755819Y-24736890D02*
X109755819Y-24543366D01*
X109755819Y-24543366D02*
X109794523Y-24388547D01*
X109794523Y-24388547D02*
X109833228Y-24311138D01*
X109833228Y-24311138D02*
X109871933Y-24272433D01*
X109871933Y-24272433D02*
X109949342Y-24233728D01*
X89894228Y-24999792D02*
X90049047Y-24999792D01*
X90049047Y-24999792D02*
X90126457Y-24961088D01*
X90126457Y-24961088D02*
X90165161Y-24922383D01*
X90165161Y-24922383D02*
X90242571Y-24806268D01*
X90242571Y-24806268D02*
X90281276Y-24651449D01*
X90281276Y-24651449D02*
X90281276Y-24341811D01*
X90281276Y-24341811D02*
X90242571Y-24264402D01*
X90242571Y-24264402D02*
X90203866Y-24225697D01*
X90203866Y-24225697D02*
X90126457Y-24186992D01*
X90126457Y-24186992D02*
X89971638Y-24186992D01*
X89971638Y-24186992D02*
X89894228Y-24225697D01*
X89894228Y-24225697D02*
X89855523Y-24264402D01*
X89855523Y-24264402D02*
X89816819Y-24341811D01*
X89816819Y-24341811D02*
X89816819Y-24535335D01*
X89816819Y-24535335D02*
X89855523Y-24612745D01*
X89855523Y-24612745D02*
X89894228Y-24651449D01*
X89894228Y-24651449D02*
X89971638Y-24690154D01*
X89971638Y-24690154D02*
X90126457Y-24690154D01*
X90126457Y-24690154D02*
X90203866Y-24651449D01*
X90203866Y-24651449D02*
X90242571Y-24612745D01*
X90242571Y-24612745D02*
X90281276Y-24535335D01*
X70413638Y-24582071D02*
X70336228Y-24543366D01*
X70336228Y-24543366D02*
X70297523Y-24504662D01*
X70297523Y-24504662D02*
X70258819Y-24427252D01*
X70258819Y-24427252D02*
X70258819Y-24388547D01*
X70258819Y-24388547D02*
X70297523Y-24311138D01*
X70297523Y-24311138D02*
X70336228Y-24272433D01*
X70336228Y-24272433D02*
X70413638Y-24233728D01*
X70413638Y-24233728D02*
X70568457Y-24233728D01*
X70568457Y-24233728D02*
X70645866Y-24272433D01*
X70645866Y-24272433D02*
X70684571Y-24311138D01*
X70684571Y-24311138D02*
X70723276Y-24388547D01*
X70723276Y-24388547D02*
X70723276Y-24427252D01*
X70723276Y-24427252D02*
X70684571Y-24504662D01*
X70684571Y-24504662D02*
X70645866Y-24543366D01*
X70645866Y-24543366D02*
X70568457Y-24582071D01*
X70568457Y-24582071D02*
X70413638Y-24582071D01*
X70413638Y-24582071D02*
X70336228Y-24620776D01*
X70336228Y-24620776D02*
X70297523Y-24659481D01*
X70297523Y-24659481D02*
X70258819Y-24736890D01*
X70258819Y-24736890D02*
X70258819Y-24891709D01*
X70258819Y-24891709D02*
X70297523Y-24969119D01*
X70297523Y-24969119D02*
X70336228Y-25007824D01*
X70336228Y-25007824D02*
X70413638Y-25046528D01*
X70413638Y-25046528D02*
X70568457Y-25046528D01*
X70568457Y-25046528D02*
X70645866Y-25007824D01*
X70645866Y-25007824D02*
X70684571Y-24969119D01*
X70684571Y-24969119D02*
X70723276Y-24891709D01*
X70723276Y-24891709D02*
X70723276Y-24736890D01*
X70723276Y-24736890D02*
X70684571Y-24659481D01*
X70684571Y-24659481D02*
X70645866Y-24620776D01*
X70645866Y-24620776D02*
X70568457Y-24582071D01*
X50535114Y-24233728D02*
X51076980Y-24233728D01*
X51076980Y-24233728D02*
X50728638Y-25046528D01*
X29149523Y-27414776D02*
X29420457Y-27414776D01*
X29536571Y-27840528D02*
X29149523Y-27840528D01*
X29149523Y-27840528D02*
X29149523Y-27027728D01*
X29149523Y-27027728D02*
X29536571Y-27027728D01*
X29846209Y-27801824D02*
X29923618Y-27840528D01*
X29923618Y-27840528D02*
X30078437Y-27840528D01*
X30078437Y-27840528D02*
X30155847Y-27801824D01*
X30155847Y-27801824D02*
X30194551Y-27724414D01*
X30194551Y-27724414D02*
X30194551Y-27685709D01*
X30194551Y-27685709D02*
X30155847Y-27608300D01*
X30155847Y-27608300D02*
X30078437Y-27569595D01*
X30078437Y-27569595D02*
X29962323Y-27569595D01*
X29962323Y-27569595D02*
X29884913Y-27530890D01*
X29884913Y-27530890D02*
X29846209Y-27453481D01*
X29846209Y-27453481D02*
X29846209Y-27414776D01*
X29846209Y-27414776D02*
X29884913Y-27337366D01*
X29884913Y-27337366D02*
X29962323Y-27298662D01*
X29962323Y-27298662D02*
X30078437Y-27298662D01*
X30078437Y-27298662D02*
X30155847Y-27337366D01*
X30891237Y-27801824D02*
X30813828Y-27840528D01*
X30813828Y-27840528D02*
X30659009Y-27840528D01*
X30659009Y-27840528D02*
X30581599Y-27801824D01*
X30581599Y-27801824D02*
X30542894Y-27763119D01*
X30542894Y-27763119D02*
X30504190Y-27685709D01*
X30504190Y-27685709D02*
X30504190Y-27453481D01*
X30504190Y-27453481D02*
X30542894Y-27376071D01*
X30542894Y-27376071D02*
X30581599Y-27337366D01*
X30581599Y-27337366D02*
X30659009Y-27298662D01*
X30659009Y-27298662D02*
X30813828Y-27298662D01*
X30813828Y-27298662D02*
X30891237Y-27337366D01*
X31587923Y-27840528D02*
X31587923Y-27414776D01*
X31587923Y-27414776D02*
X31549218Y-27337366D01*
X31549218Y-27337366D02*
X31471809Y-27298662D01*
X31471809Y-27298662D02*
X31316990Y-27298662D01*
X31316990Y-27298662D02*
X31239580Y-27337366D01*
X31587923Y-27801824D02*
X31510514Y-27840528D01*
X31510514Y-27840528D02*
X31316990Y-27840528D01*
X31316990Y-27840528D02*
X31239580Y-27801824D01*
X31239580Y-27801824D02*
X31200876Y-27724414D01*
X31200876Y-27724414D02*
X31200876Y-27647004D01*
X31200876Y-27647004D02*
X31239580Y-27569595D01*
X31239580Y-27569595D02*
X31316990Y-27530890D01*
X31316990Y-27530890D02*
X31510514Y-27530890D01*
X31510514Y-27530890D02*
X31587923Y-27492185D01*
X31974970Y-27298662D02*
X31974970Y-28111462D01*
X31974970Y-27337366D02*
X32052380Y-27298662D01*
X32052380Y-27298662D02*
X32207199Y-27298662D01*
X32207199Y-27298662D02*
X32284608Y-27337366D01*
X32284608Y-27337366D02*
X32323313Y-27376071D01*
X32323313Y-27376071D02*
X32362018Y-27453481D01*
X32362018Y-27453481D02*
X32362018Y-27685709D01*
X32362018Y-27685709D02*
X32323313Y-27763119D01*
X32323313Y-27763119D02*
X32284608Y-27801824D01*
X32284608Y-27801824D02*
X32207199Y-27840528D01*
X32207199Y-27840528D02*
X32052380Y-27840528D01*
X32052380Y-27840528D02*
X31974970Y-27801824D01*
X33019998Y-27801824D02*
X32942589Y-27840528D01*
X32942589Y-27840528D02*
X32787770Y-27840528D01*
X32787770Y-27840528D02*
X32710360Y-27801824D01*
X32710360Y-27801824D02*
X32671656Y-27724414D01*
X32671656Y-27724414D02*
X32671656Y-27414776D01*
X32671656Y-27414776D02*
X32710360Y-27337366D01*
X32710360Y-27337366D02*
X32787770Y-27298662D01*
X32787770Y-27298662D02*
X32942589Y-27298662D01*
X32942589Y-27298662D02*
X33019998Y-27337366D01*
X33019998Y-27337366D02*
X33058703Y-27414776D01*
X33058703Y-27414776D02*
X33058703Y-27492185D01*
X33058703Y-27492185D02*
X32671656Y-27569595D01*
X143300229Y-147514225D02*
X142947373Y-145513107D01*
X142947373Y-145513107D02*
X144823429Y-145182295D01*
X158778140Y-154843871D02*
X159131000Y-156845000D01*
X156705136Y-143087235D02*
X157057988Y-145088365D01*
X145373235Y-159270864D02*
X147249294Y-158940065D01*
X154829076Y-143418032D02*
X156705136Y-143087235D01*
X145020383Y-157269736D02*
X145373235Y-159270864D01*
X159131000Y-156845000D02*
X157129871Y-157197860D01*
X126150761Y-123151704D02*
X124844616Y-121595103D01*
X124844616Y-121595103D02*
X126303929Y-120370593D01*
X143219856Y-121760398D02*
X144526000Y-123317000D01*
X135546257Y-112615360D02*
X136852401Y-114171961D01*
X133824360Y-132296743D02*
X135283673Y-131072233D01*
X134086942Y-113839871D02*
X135546257Y-112615360D01*
X132518215Y-130740141D02*
X133824360Y-132296743D01*
X144526000Y-123317000D02*
X142969398Y-124623144D01*
X97917000Y-106172000D02*
X97917000Y-104140000D01*
X97917000Y-104140000D02*
X99822000Y-104140000D01*
X111887000Y-116078000D02*
X111887000Y-118110000D01*
X111887000Y-104140000D02*
X111887000Y-106172000D01*
X97917000Y-118110000D02*
X99822000Y-118110000D01*
X109982000Y-104140000D02*
X111887000Y-104140000D01*
X97917000Y-116078000D02*
X97917000Y-118110000D01*
X111887000Y-118110000D02*
X109855000Y-118110000D01*
X78232000Y-106172000D02*
X78232000Y-104140000D01*
X78232000Y-104140000D02*
X80137000Y-104140000D01*
X92202000Y-116078000D02*
X92202000Y-118110000D01*
X92202000Y-104140000D02*
X92202000Y-106172000D01*
X78232000Y-118110000D02*
X80137000Y-118110000D01*
X90297000Y-104140000D02*
X92202000Y-104140000D01*
X78232000Y-116078000D02*
X78232000Y-118110000D01*
X92202000Y-118110000D02*
X90170000Y-118110000D01*
X156337000Y-64897000D02*
X156337000Y-66929000D01*
X142367000Y-76835000D02*
X142367000Y-78867000D01*
X142367000Y-78867000D02*
X144272000Y-78867000D01*
X156337000Y-76835000D02*
X156337000Y-78867000D01*
X142367000Y-66929000D02*
X142367000Y-64897000D01*
X142367000Y-64897000D02*
X144272000Y-64897000D01*
X154432000Y-64897000D02*
X156337000Y-64897000D01*
X156337000Y-78867000D02*
X154305000Y-78867000D01*
X156337000Y-96393000D02*
X156337000Y-98425000D01*
X142367000Y-84455000D02*
X144272000Y-84455000D01*
X156337000Y-98425000D02*
X154305000Y-98425000D01*
X142367000Y-96393000D02*
X142367000Y-98425000D01*
X142367000Y-86487000D02*
X142367000Y-84455000D01*
X142367000Y-98425000D02*
X144272000Y-98425000D01*
X156337000Y-84455000D02*
X156337000Y-86487000D01*
X154432000Y-84455000D02*
X156337000Y-84455000D01*
X142367000Y-45085000D02*
X144272000Y-45085000D01*
X142367000Y-59055000D02*
X144272000Y-59055000D01*
X142367000Y-47117000D02*
X142367000Y-45085000D01*
X154432000Y-45085000D02*
X156337000Y-45085000D01*
X156337000Y-57023000D02*
X156337000Y-59055000D01*
X156337000Y-59055000D02*
X154305000Y-59055000D01*
X156337000Y-45085000D02*
X156337000Y-47117000D01*
X142367000Y-57023000D02*
X142367000Y-59055000D01*
X136525000Y-64897000D02*
X136525000Y-66929000D01*
X122555000Y-76835000D02*
X122555000Y-78867000D01*
X122555000Y-78867000D02*
X124460000Y-78867000D01*
X136525000Y-76835000D02*
X136525000Y-78867000D01*
X122555000Y-66929000D02*
X122555000Y-64897000D01*
X122555000Y-64897000D02*
X124460000Y-64897000D01*
X134620000Y-64897000D02*
X136525000Y-64897000D01*
X136525000Y-78867000D02*
X134493000Y-78867000D01*
X136525000Y-96393000D02*
X136525000Y-98425000D01*
X122555000Y-84455000D02*
X124460000Y-84455000D01*
X136525000Y-98425000D02*
X134493000Y-98425000D01*
X122555000Y-96393000D02*
X122555000Y-98425000D01*
X122555000Y-86487000D02*
X122555000Y-84455000D01*
X122555000Y-98425000D02*
X124460000Y-98425000D01*
X136525000Y-84455000D02*
X136525000Y-86487000D01*
X134620000Y-84455000D02*
X136525000Y-84455000D01*
X143637000Y-39370000D02*
X141605000Y-39370000D01*
X141732000Y-25400000D02*
X143637000Y-25400000D01*
X143637000Y-37338000D02*
X143637000Y-39370000D01*
X129667000Y-25400000D02*
X131572000Y-25400000D01*
X129667000Y-39370000D02*
X131572000Y-39370000D01*
X129667000Y-27432000D02*
X129667000Y-25400000D01*
X129667000Y-37338000D02*
X129667000Y-39370000D01*
X143637000Y-25400000D02*
X143637000Y-27432000D01*
X122555000Y-45085000D02*
X124460000Y-45085000D01*
X122555000Y-59055000D02*
X124460000Y-59055000D01*
X122555000Y-47117000D02*
X122555000Y-45085000D01*
X134620000Y-45085000D02*
X136525000Y-45085000D01*
X136525000Y-57023000D02*
X136525000Y-59055000D01*
X136525000Y-59055000D02*
X134493000Y-59055000D01*
X136525000Y-45085000D02*
X136525000Y-47117000D01*
X122555000Y-57023000D02*
X122555000Y-59055000D01*
X116967000Y-64897000D02*
X116967000Y-66929000D01*
X102997000Y-76835000D02*
X102997000Y-78867000D01*
X102997000Y-78867000D02*
X104902000Y-78867000D01*
X116967000Y-76835000D02*
X116967000Y-78867000D01*
X102997000Y-66929000D02*
X102997000Y-64897000D01*
X102997000Y-64897000D02*
X104902000Y-64897000D01*
X115062000Y-64897000D02*
X116967000Y-64897000D01*
X116967000Y-78867000D02*
X114935000Y-78867000D01*
X116967000Y-96393000D02*
X116967000Y-98425000D01*
X102997000Y-84455000D02*
X104902000Y-84455000D01*
X116967000Y-98425000D02*
X114935000Y-98425000D01*
X102997000Y-96393000D02*
X102997000Y-98425000D01*
X102997000Y-86487000D02*
X102997000Y-84455000D01*
X102997000Y-98425000D02*
X104902000Y-98425000D01*
X116967000Y-84455000D02*
X116967000Y-86487000D01*
X115062000Y-84455000D02*
X116967000Y-84455000D01*
X116967000Y-39497000D02*
X114935000Y-39497000D01*
X115062000Y-25527000D02*
X116967000Y-25527000D01*
X116967000Y-37465000D02*
X116967000Y-39497000D01*
X102997000Y-25527000D02*
X104902000Y-25527000D01*
X102997000Y-39497000D02*
X104902000Y-39497000D01*
X102997000Y-27559000D02*
X102997000Y-25527000D01*
X102997000Y-37465000D02*
X102997000Y-39497000D01*
X116967000Y-25527000D02*
X116967000Y-27559000D01*
X102997000Y-45085000D02*
X104902000Y-45085000D01*
X102997000Y-59055000D02*
X104902000Y-59055000D01*
X102997000Y-47117000D02*
X102997000Y-45085000D01*
X115062000Y-45085000D02*
X116967000Y-45085000D01*
X116967000Y-57023000D02*
X116967000Y-59055000D01*
X116967000Y-59055000D02*
X114935000Y-59055000D01*
X116967000Y-45085000D02*
X116967000Y-47117000D01*
X102997000Y-57023000D02*
X102997000Y-59055000D01*
X97282000Y-64897000D02*
X97282000Y-66929000D01*
X83312000Y-76835000D02*
X83312000Y-78867000D01*
X83312000Y-78867000D02*
X85217000Y-78867000D01*
X97282000Y-76835000D02*
X97282000Y-78867000D01*
X83312000Y-66929000D02*
X83312000Y-64897000D01*
X83312000Y-64897000D02*
X85217000Y-64897000D01*
X95377000Y-64897000D02*
X97282000Y-64897000D01*
X97282000Y-78867000D02*
X95250000Y-78867000D01*
X97282000Y-96393000D02*
X97282000Y-98425000D01*
X83312000Y-84455000D02*
X85217000Y-84455000D01*
X97282000Y-98425000D02*
X95250000Y-98425000D01*
X83312000Y-96393000D02*
X83312000Y-98425000D01*
X83312000Y-86487000D02*
X83312000Y-84455000D01*
X83312000Y-98425000D02*
X85217000Y-98425000D01*
X97282000Y-84455000D02*
X97282000Y-86487000D01*
X95377000Y-84455000D02*
X97282000Y-84455000D01*
X97282000Y-39497000D02*
X95250000Y-39497000D01*
X95377000Y-25527000D02*
X97282000Y-25527000D01*
X97282000Y-37465000D02*
X97282000Y-39497000D01*
X83312000Y-25527000D02*
X85217000Y-25527000D01*
X83312000Y-39497000D02*
X85217000Y-39497000D01*
X83312000Y-27559000D02*
X83312000Y-25527000D01*
X83312000Y-37465000D02*
X83312000Y-39497000D01*
X97282000Y-25527000D02*
X97282000Y-27559000D01*
X83312000Y-45085000D02*
X85217000Y-45085000D01*
X83312000Y-59055000D02*
X85217000Y-59055000D01*
X83312000Y-47117000D02*
X83312000Y-45085000D01*
X95377000Y-45085000D02*
X97282000Y-45085000D01*
X97282000Y-57023000D02*
X97282000Y-59055000D01*
X97282000Y-59055000D02*
X95250000Y-59055000D01*
X97282000Y-45085000D02*
X97282000Y-47117000D01*
X83312000Y-57023000D02*
X83312000Y-59055000D01*
X77597000Y-64770000D02*
X77597000Y-66802000D01*
X63627000Y-76708000D02*
X63627000Y-78740000D01*
X63627000Y-78740000D02*
X65532000Y-78740000D01*
X77597000Y-76708000D02*
X77597000Y-78740000D01*
X63627000Y-66802000D02*
X63627000Y-64770000D01*
X63627000Y-64770000D02*
X65532000Y-64770000D01*
X75692000Y-64770000D02*
X77597000Y-64770000D01*
X77597000Y-78740000D02*
X75565000Y-78740000D01*
X77597000Y-96266000D02*
X77597000Y-98298000D01*
X63627000Y-84328000D02*
X65532000Y-84328000D01*
X77597000Y-98298000D02*
X75565000Y-98298000D01*
X63627000Y-96266000D02*
X63627000Y-98298000D01*
X63627000Y-86360000D02*
X63627000Y-84328000D01*
X63627000Y-98298000D02*
X65532000Y-98298000D01*
X77597000Y-84328000D02*
X77597000Y-86360000D01*
X75692000Y-84328000D02*
X77597000Y-84328000D01*
X77597000Y-39370000D02*
X75565000Y-39370000D01*
X75692000Y-25400000D02*
X77597000Y-25400000D01*
X77597000Y-37338000D02*
X77597000Y-39370000D01*
X63627000Y-25400000D02*
X65532000Y-25400000D01*
X63627000Y-39370000D02*
X65532000Y-39370000D01*
X63627000Y-27432000D02*
X63627000Y-25400000D01*
X63627000Y-37338000D02*
X63627000Y-39370000D01*
X77597000Y-25400000D02*
X77597000Y-27432000D01*
X63627000Y-44958000D02*
X65532000Y-44958000D01*
X63627000Y-58928000D02*
X65532000Y-58928000D01*
X63627000Y-46990000D02*
X63627000Y-44958000D01*
X75692000Y-44958000D02*
X77597000Y-44958000D01*
X77597000Y-56896000D02*
X77597000Y-58928000D01*
X77597000Y-58928000D02*
X75565000Y-58928000D01*
X77597000Y-44958000D02*
X77597000Y-46990000D01*
X63627000Y-56896000D02*
X63627000Y-58928000D01*
X43942000Y-39497000D02*
X45847000Y-39497000D01*
X43942000Y-37465000D02*
X43942000Y-39497000D01*
X57912000Y-39497000D02*
X55880000Y-39497000D01*
X43942000Y-25527000D02*
X45847000Y-25527000D01*
X43942000Y-27559000D02*
X43942000Y-25527000D01*
X57912000Y-37465000D02*
X57912000Y-39497000D01*
X57912000Y-25527000D02*
X57912000Y-27559000D01*
X56007000Y-25527000D02*
X57912000Y-25527000D01*
X56007000Y-84455000D02*
X57912000Y-84455000D01*
X43942000Y-86487000D02*
X43942000Y-84455000D01*
X57912000Y-96393000D02*
X57912000Y-98425000D01*
X43942000Y-98425000D02*
X45847000Y-98425000D01*
X43942000Y-96393000D02*
X43942000Y-98425000D01*
X57912000Y-84455000D02*
X57912000Y-86487000D01*
X43942000Y-84455000D02*
X45847000Y-84455000D01*
X57912000Y-98425000D02*
X55880000Y-98425000D01*
X57912000Y-76835000D02*
X57912000Y-78867000D01*
X43942000Y-64897000D02*
X45847000Y-64897000D01*
X57912000Y-78867000D02*
X55880000Y-78867000D01*
X43942000Y-66929000D02*
X43942000Y-64897000D01*
X57912000Y-64897000D02*
X57912000Y-66929000D01*
X43942000Y-76835000D02*
X43942000Y-78867000D01*
X56007000Y-64897000D02*
X57912000Y-64897000D01*
X43942000Y-78867000D02*
X45847000Y-78867000D01*
X43942000Y-57023000D02*
X43942000Y-59055000D01*
X43942000Y-59055000D02*
X45847000Y-59055000D01*
X43942000Y-47117000D02*
X43942000Y-45085000D01*
X57912000Y-45085000D02*
X57912000Y-47117000D01*
X57912000Y-59055000D02*
X55880000Y-59055000D01*
X56007000Y-45085000D02*
X57912000Y-45085000D01*
X57912000Y-57023000D02*
X57912000Y-59055000D01*
X43942000Y-45085000D02*
X45847000Y-45085000D01*
X38227000Y-102870000D02*
X36195000Y-102870000D01*
X38227000Y-100838000D02*
X38227000Y-102870000D01*
X24257000Y-90932000D02*
X24257000Y-88900000D01*
X36322000Y-88900000D02*
X38227000Y-88900000D01*
X24257000Y-102870000D02*
X26162000Y-102870000D01*
X24257000Y-88900000D02*
X26162000Y-88900000D01*
X38227000Y-88900000D02*
X38227000Y-90932000D01*
X24257000Y-100838000D02*
X24257000Y-102870000D01*
X38227000Y-82804000D02*
X36195000Y-82804000D01*
X38227000Y-80772000D02*
X38227000Y-82804000D01*
X24257000Y-70866000D02*
X24257000Y-68834000D01*
X36322000Y-68834000D02*
X38227000Y-68834000D01*
X24257000Y-82804000D02*
X26162000Y-82804000D01*
X24257000Y-68834000D02*
X26162000Y-68834000D01*
X38227000Y-68834000D02*
X38227000Y-70866000D01*
X24257000Y-80772000D02*
X24257000Y-82804000D01*
X24257000Y-62484000D02*
X26162000Y-62484000D01*
X38227000Y-48514000D02*
X38227000Y-50546000D01*
X38227000Y-62484000D02*
X36195000Y-62484000D01*
X24257000Y-48514000D02*
X26162000Y-48514000D01*
X24257000Y-60452000D02*
X24257000Y-62484000D01*
X24257000Y-50546000D02*
X24257000Y-48514000D01*
X38227000Y-60452000D02*
X38227000Y-62484000D01*
X36322000Y-48514000D02*
X38227000Y-48514000D01*
X38227000Y-42291000D02*
X36195000Y-42291000D01*
X38227000Y-40259000D02*
X38227000Y-42291000D01*
X38227000Y-28321000D02*
X38227000Y-30353000D01*
X36322000Y-28321000D02*
X38227000Y-28321000D01*
X24257000Y-28321000D02*
X26162000Y-28321000D01*
X24257000Y-30353000D02*
X24257000Y-28321000D01*
X24257000Y-42291000D02*
X26162000Y-42291000D01*
X24257000Y-40259000D02*
X24257000Y-42291000D01*
%TO.C,G\u002A\u002A\u002A*%
G36*
X173519696Y-40990747D02*
G01*
X173590629Y-41034382D01*
X173687534Y-41099774D01*
X173801323Y-41180924D01*
X173846641Y-41214305D01*
X174168858Y-41453741D01*
X173917264Y-41651996D01*
X173808614Y-41736585D01*
X173708399Y-41812770D01*
X173629033Y-41871220D01*
X173588284Y-41899327D01*
X173510899Y-41948402D01*
X173492611Y-41663112D01*
X173482763Y-41513860D01*
X173472041Y-41358283D01*
X173462218Y-41221902D01*
X173458777Y-41176346D01*
X173452476Y-41069883D01*
X173454855Y-41007939D01*
X173467228Y-40979945D01*
X173483828Y-40974869D01*
X173519696Y-40990747D01*
G37*
G36*
X179622489Y-42718391D02*
G01*
X179630720Y-42725107D01*
X179669262Y-42764274D01*
X179660379Y-42780331D01*
X179648225Y-42781215D01*
X179618380Y-42758941D01*
X179605904Y-42735599D01*
X179598778Y-42705598D01*
X179622489Y-42718391D01*
G37*
G36*
X179729287Y-42860493D02*
G01*
X179792608Y-42920970D01*
X179847491Y-43002301D01*
X179880895Y-43088560D01*
X179882267Y-43095295D01*
X179889777Y-43162493D01*
X179891530Y-43240696D01*
X179888451Y-43315867D01*
X179881462Y-43373971D01*
X179871489Y-43400972D01*
X179862696Y-43392593D01*
X179845430Y-43346054D01*
X179816695Y-43264784D01*
X179784051Y-43170274D01*
X179744610Y-43068731D01*
X179702540Y-42981852D01*
X179669896Y-42932268D01*
X179625691Y-42875166D01*
X179626056Y-42845337D01*
X179670571Y-42836795D01*
X179729287Y-42860493D01*
G37*
G36*
X184492079Y-42395858D02*
G01*
X184531948Y-42416743D01*
X184557040Y-42470049D01*
X184567353Y-42503315D01*
X184595526Y-42580629D01*
X184627109Y-42609294D01*
X184675841Y-42595272D01*
X184718760Y-42569026D01*
X184772104Y-42541197D01*
X184802738Y-42538191D01*
X184789663Y-42561114D01*
X184738170Y-42608010D01*
X184656613Y-42672825D01*
X184553342Y-42749502D01*
X184436710Y-42831987D01*
X184315069Y-42914224D01*
X184196771Y-42990158D01*
X184097061Y-43049820D01*
X183874141Y-43169902D01*
X183617562Y-43296502D01*
X183346990Y-43420469D01*
X183082091Y-43532651D01*
X182939916Y-43588290D01*
X182819950Y-43633627D01*
X182715822Y-43673110D01*
X182640761Y-43701714D01*
X182611827Y-43712877D01*
X182572711Y-43718373D01*
X182564786Y-43708203D01*
X182580884Y-43669392D01*
X182621843Y-43596827D01*
X182680285Y-43502028D01*
X182748830Y-43396517D01*
X182820101Y-43291813D01*
X182886718Y-43199438D01*
X182910569Y-43168316D01*
X183038158Y-43028528D01*
X183200527Y-42884229D01*
X183380025Y-42749349D01*
X183559002Y-42637820D01*
X183627707Y-42602283D01*
X183778841Y-42539019D01*
X183951640Y-42481612D01*
X184128128Y-42434845D01*
X184290324Y-42403499D01*
X184417057Y-42392350D01*
X184492079Y-42395858D01*
G37*
G36*
X176275489Y-42403364D02*
G01*
X176431681Y-42432997D01*
X176602261Y-42476647D01*
X176769176Y-42529712D01*
X176910356Y-42585760D01*
X177121546Y-42700549D01*
X177331785Y-42848837D01*
X177520909Y-43015278D01*
X177627545Y-43131465D01*
X177689271Y-43211204D01*
X177759166Y-43308931D01*
X177830660Y-43414424D01*
X177897181Y-43517457D01*
X177952159Y-43607808D01*
X177989022Y-43675252D01*
X178001199Y-43709566D01*
X178000296Y-43711407D01*
X177970976Y-43708586D01*
X177911714Y-43692081D01*
X177908381Y-43690990D01*
X177598716Y-43579283D01*
X177276752Y-43445564D01*
X176953907Y-43295646D01*
X176641599Y-43135343D01*
X176351249Y-42970465D01*
X176094275Y-42806828D01*
X175914155Y-42675832D01*
X175835730Y-42610314D01*
X175786101Y-42561195D01*
X175768294Y-42533518D01*
X175785334Y-42532326D01*
X175840248Y-42562664D01*
X175850081Y-42569026D01*
X175918711Y-42606418D01*
X175961203Y-42602327D01*
X175990343Y-42551319D01*
X176004770Y-42503315D01*
X176027315Y-42433159D01*
X176057408Y-42401264D01*
X176114905Y-42392639D01*
X176151738Y-42392350D01*
X176275489Y-42403364D01*
G37*
G36*
X185618710Y-42659264D02*
G01*
X185639053Y-42683950D01*
X185691467Y-42766093D01*
X185749841Y-42879197D01*
X185806499Y-43005599D01*
X185853766Y-43127638D01*
X185883967Y-43227648D01*
X185890027Y-43261498D01*
X185890740Y-43377704D01*
X185859429Y-43472932D01*
X185788922Y-43560925D01*
X185692169Y-43640777D01*
X185614227Y-43697312D01*
X185555626Y-43737861D01*
X185528766Y-43753852D01*
X185528605Y-43753863D01*
X185525006Y-43728349D01*
X185524862Y-43660690D01*
X185528124Y-43564212D01*
X185529396Y-43538491D01*
X185530560Y-43393494D01*
X185515645Y-43253978D01*
X185481619Y-43093782D01*
X185474653Y-43066248D01*
X185408632Y-42809378D01*
X185502408Y-42718874D01*
X185560145Y-42665333D01*
X185593744Y-42646784D01*
X185618710Y-42659264D01*
G37*
G36*
X175023094Y-42677939D02*
G01*
X175068973Y-42721337D01*
X175165290Y-42814303D01*
X175107008Y-43013131D01*
X175067262Y-43192811D01*
X175049155Y-43395073D01*
X175047371Y-43482891D01*
X175046587Y-43597955D01*
X175045569Y-43688755D01*
X175044473Y-43743374D01*
X175043816Y-43753843D01*
X175021857Y-43739291D01*
X174966477Y-43701161D01*
X174891442Y-43648947D01*
X174780647Y-43562702D01*
X174713658Y-43483648D01*
X174682862Y-43397867D01*
X174680651Y-43291444D01*
X174682855Y-43267539D01*
X174704524Y-43170099D01*
X174748095Y-43044434D01*
X174805627Y-42909200D01*
X174869173Y-42783058D01*
X174930790Y-42684665D01*
X174931321Y-42683950D01*
X174958256Y-42652698D01*
X174983849Y-42649337D01*
X175023094Y-42677939D01*
G37*
G36*
X181729497Y-42351520D02*
G01*
X181717862Y-42381727D01*
X181687290Y-42447416D01*
X181644277Y-42534653D01*
X181642161Y-42538845D01*
X181581843Y-42666915D01*
X181524309Y-42808803D01*
X181466328Y-42973898D01*
X181404673Y-43171595D01*
X181336114Y-43411284D01*
X181311755Y-43499984D01*
X181271123Y-43643744D01*
X181232622Y-43770221D01*
X181199705Y-43868751D01*
X181175827Y-43928676D01*
X181169261Y-43939843D01*
X181126255Y-43974891D01*
X181052397Y-44020867D01*
X180997701Y-44050348D01*
X180859899Y-44120178D01*
X180875815Y-43818913D01*
X180909983Y-43500873D01*
X180978037Y-43222578D01*
X181082174Y-42978109D01*
X181224593Y-42761551D01*
X181301950Y-42671419D01*
X181371985Y-42602100D01*
X181455225Y-42528995D01*
X181541832Y-42459467D01*
X181621969Y-42400875D01*
X181685797Y-42360580D01*
X181723480Y-42345942D01*
X181729497Y-42351520D01*
G37*
G36*
X178860606Y-42356862D02*
G01*
X178915752Y-42385595D01*
X178976466Y-42421462D01*
X179171278Y-42571719D01*
X179344775Y-42766008D01*
X179490178Y-42994716D01*
X179600709Y-43248228D01*
X179633229Y-43352937D01*
X179648127Y-43424628D01*
X179663133Y-43526561D01*
X179677251Y-43646939D01*
X179689484Y-43773966D01*
X179698838Y-43895844D01*
X179704316Y-44000777D01*
X179704923Y-44076968D01*
X179699663Y-44112619D01*
X179697454Y-44113838D01*
X179668937Y-44101354D01*
X179607399Y-44070807D01*
X179560055Y-44046432D01*
X179479483Y-43999959D01*
X179417051Y-43956001D01*
X179398412Y-43938437D01*
X179378669Y-43896773D01*
X179349449Y-43812686D01*
X179314447Y-43697746D01*
X179277357Y-43563526D01*
X179271301Y-43540360D01*
X179194734Y-43258174D01*
X179122677Y-43021613D01*
X179051919Y-42821264D01*
X178979247Y-42647712D01*
X178936499Y-42558678D01*
X178890518Y-42465655D01*
X178856289Y-42393134D01*
X178839935Y-42354176D01*
X178839344Y-42351421D01*
X178860606Y-42356862D01*
G37*
G36*
X180534379Y-42835110D02*
G01*
X180538926Y-42906950D01*
X180540942Y-43014671D01*
X180540144Y-43148442D01*
X180538995Y-43206126D01*
X180538280Y-43460274D01*
X180549907Y-43674860D01*
X180574412Y-43863162D01*
X180592605Y-43976462D01*
X180604647Y-44067400D01*
X180609005Y-44123386D01*
X180607491Y-44134804D01*
X180585430Y-44122190D01*
X180543320Y-44076688D01*
X180521098Y-44048735D01*
X180466559Y-43963879D01*
X180422994Y-43862349D01*
X180387086Y-43733260D01*
X180355520Y-43565728D01*
X180338080Y-43448002D01*
X180319722Y-43326877D01*
X180304838Y-43257254D01*
X180292303Y-43235249D01*
X180281902Y-43253644D01*
X180262170Y-43323119D01*
X180259400Y-43248963D01*
X180272779Y-43186047D01*
X180325987Y-43132808D01*
X180349123Y-43117643D01*
X180442885Y-43033785D01*
X180497217Y-42929098D01*
X180506740Y-42863277D01*
X180515679Y-42818783D01*
X180527582Y-42808984D01*
X180534379Y-42835110D01*
G37*
G36*
X184350701Y-41698326D02*
G01*
X184370846Y-41741201D01*
X184394127Y-41821254D01*
X184420067Y-41926547D01*
X184446751Y-42041357D01*
X184467495Y-42136856D01*
X184479407Y-42199394D01*
X184481148Y-42214636D01*
X184454918Y-42233013D01*
X184383998Y-42250279D01*
X184279257Y-42263794D01*
X184278354Y-42263876D01*
X184009844Y-42302384D01*
X183744188Y-42366557D01*
X183502552Y-42450831D01*
X183411871Y-42491588D01*
X183239030Y-42586053D01*
X183084138Y-42694869D01*
X182937881Y-42826686D01*
X182790944Y-42990152D01*
X182634011Y-43193918D01*
X182590985Y-43253772D01*
X182426044Y-43480089D01*
X182283397Y-43662706D01*
X182158650Y-43806674D01*
X182047409Y-43917047D01*
X181945281Y-43998878D01*
X181939863Y-44002636D01*
X181816053Y-44070774D01*
X181668935Y-44126708D01*
X181523122Y-44162283D01*
X181432658Y-44170712D01*
X181369448Y-44165205D01*
X181344607Y-44139317D01*
X181341039Y-44094289D01*
X181349139Y-44014056D01*
X181370243Y-43895838D01*
X181400885Y-43754732D01*
X181437601Y-43605837D01*
X181476925Y-43464251D01*
X181508477Y-43364803D01*
X181646658Y-43039370D01*
X181826733Y-42741141D01*
X182043755Y-42476746D01*
X182292778Y-42252813D01*
X182390951Y-42182270D01*
X182535248Y-42085096D01*
X182624661Y-42266416D01*
X182670998Y-42354694D01*
X182710208Y-42419209D01*
X182734569Y-42447392D01*
X182736097Y-42447736D01*
X182765605Y-42435758D01*
X182838447Y-42401867D01*
X182948306Y-42349131D01*
X183088865Y-42280615D01*
X183253807Y-42199385D01*
X183436816Y-42108508D01*
X183501303Y-42076321D01*
X183691070Y-41981832D01*
X183866775Y-41895010D01*
X184021708Y-41819119D01*
X184149155Y-41757422D01*
X184242407Y-41713186D01*
X184294750Y-41689672D01*
X184301513Y-41687135D01*
X184329116Y-41683385D01*
X184350701Y-41698326D01*
G37*
G36*
X176256185Y-41694925D02*
G01*
X176328486Y-41723741D01*
X176438095Y-41772188D01*
X176578905Y-41837461D01*
X176744810Y-41916757D01*
X176929704Y-42007271D01*
X177029165Y-42056759D01*
X177221661Y-42152729D01*
X177398265Y-42240151D01*
X177552840Y-42316036D01*
X177679248Y-42377396D01*
X177771353Y-42421241D01*
X177823017Y-42444584D01*
X177831767Y-42447633D01*
X177853852Y-42424714D01*
X177892515Y-42364387D01*
X177939837Y-42279136D01*
X177945263Y-42268711D01*
X178037724Y-42089892D01*
X178125897Y-42143276D01*
X178348061Y-42305781D01*
X178558346Y-42513382D01*
X178748838Y-42755739D01*
X178911623Y-43022509D01*
X179038784Y-43303352D01*
X179060786Y-43364803D01*
X179099594Y-43489710D01*
X179138591Y-43633962D01*
X179174334Y-43782517D01*
X179203380Y-43920335D01*
X179222284Y-44032374D01*
X179227801Y-44094289D01*
X179222814Y-44144353D01*
X179196011Y-44165352D01*
X179131243Y-44168894D01*
X179124190Y-44168776D01*
X179033258Y-44159002D01*
X178925420Y-44136605D01*
X178882487Y-44124650D01*
X178764958Y-44080003D01*
X178652470Y-44017418D01*
X178539714Y-43931786D01*
X178421383Y-43817997D01*
X178292167Y-43670939D01*
X178146760Y-43485504D01*
X177979852Y-43256581D01*
X177977856Y-43253772D01*
X177812666Y-43033225D01*
X177659332Y-42856021D01*
X177508979Y-42713935D01*
X177352735Y-42598741D01*
X177181724Y-42502214D01*
X177150913Y-42487244D01*
X176924729Y-42397520D01*
X176666277Y-42325184D01*
X176397632Y-42275968D01*
X176290486Y-42263876D01*
X176192557Y-42251863D01*
X176120701Y-42237066D01*
X176088665Y-42222426D01*
X176088140Y-42220577D01*
X176094920Y-42175342D01*
X176112639Y-42094775D01*
X176137363Y-41993910D01*
X176165162Y-41887781D01*
X176192102Y-41791424D01*
X176214252Y-41719873D01*
X176227297Y-41688543D01*
X176256185Y-41694925D01*
G37*
G36*
X185360067Y-43101694D02*
G01*
X185416710Y-43260183D01*
X185444771Y-43435279D01*
X185447600Y-43475639D01*
X185446935Y-43646873D01*
X185419953Y-43777032D01*
X185363041Y-43875775D01*
X185272585Y-43952759D01*
X185267954Y-43955687D01*
X185127078Y-44042563D01*
X185011182Y-44111536D01*
X184926259Y-44159195D01*
X184878301Y-44182124D01*
X184869759Y-44182481D01*
X184883160Y-44151389D01*
X184909369Y-44107206D01*
X184981546Y-43958398D01*
X185035608Y-43770525D01*
X185068060Y-43558145D01*
X185075925Y-43413006D01*
X185079969Y-43141625D01*
X185182307Y-43039287D01*
X185284645Y-42936949D01*
X185360067Y-43101694D01*
G37*
G36*
X175304516Y-42978401D02*
G01*
X175360229Y-43013712D01*
X175401551Y-43048482D01*
X175460810Y-43105900D01*
X175490430Y-43151748D01*
X175497944Y-43207764D01*
X175490887Y-43295688D01*
X175490025Y-43303761D01*
X175488537Y-43464921D01*
X175511482Y-43651103D01*
X175554639Y-43839705D01*
X175613789Y-44008124D01*
X175626851Y-44036736D01*
X175663272Y-44115222D01*
X175686271Y-44169454D01*
X175690889Y-44185800D01*
X175666342Y-44174742D01*
X175613283Y-44143218D01*
X175601816Y-44135972D01*
X175531450Y-44092633D01*
X175436884Y-44036290D01*
X175365602Y-43994756D01*
X175244124Y-43908930D01*
X175166768Y-43810853D01*
X175126330Y-43687415D01*
X175115535Y-43539755D01*
X175124099Y-43437366D01*
X175146792Y-43315791D01*
X175179054Y-43191406D01*
X175216323Y-43080589D01*
X175254040Y-42999716D01*
X175273037Y-42974212D01*
X175304516Y-42978401D01*
G37*
G36*
X184736552Y-43191460D02*
G01*
X184763129Y-43241194D01*
X184773609Y-43265919D01*
X184813275Y-43420891D01*
X184817968Y-43596162D01*
X184788464Y-43769475D01*
X184752672Y-43867626D01*
X184645441Y-44041816D01*
X184502859Y-44188141D01*
X184334611Y-44301605D01*
X184150381Y-44377212D01*
X183959854Y-44409965D01*
X183772715Y-44394870D01*
X183744267Y-44387826D01*
X183650501Y-44351226D01*
X183547529Y-44293875D01*
X183447471Y-44224884D01*
X183362448Y-44153364D01*
X183304579Y-44088427D01*
X183285733Y-44043146D01*
X183308596Y-44017195D01*
X183370785Y-43971416D01*
X183462704Y-43912353D01*
X183570580Y-43848906D01*
X183758744Y-43741909D01*
X183951075Y-43631328D01*
X184138807Y-43522308D01*
X184313173Y-43419993D01*
X184465405Y-43329527D01*
X184586737Y-43256054D01*
X184668347Y-43204755D01*
X184709986Y-43182236D01*
X184736552Y-43191460D01*
G37*
G36*
X175885873Y-43245002D02*
G01*
X175959101Y-43276994D01*
X176057701Y-43327783D01*
X176160138Y-43385861D01*
X176279958Y-43455319D01*
X176433508Y-43542444D01*
X176605517Y-43638673D01*
X176780715Y-43735444D01*
X176887923Y-43793956D01*
X177046587Y-43880430D01*
X177162239Y-43945049D01*
X177240860Y-43992206D01*
X177288430Y-44026294D01*
X177310928Y-44051707D01*
X177314336Y-44072837D01*
X177304633Y-44094077D01*
X177302018Y-44098155D01*
X177241682Y-44166005D01*
X177149650Y-44243462D01*
X177044731Y-44316928D01*
X176945734Y-44372806D01*
X176894048Y-44393093D01*
X176717026Y-44419813D01*
X176523645Y-44410508D01*
X176338368Y-44366866D01*
X176299150Y-44352016D01*
X176098116Y-44244478D01*
X175942568Y-44106559D01*
X175833710Y-43939807D01*
X175772748Y-43745769D01*
X175762171Y-43662477D01*
X175760403Y-43538341D01*
X175772622Y-43419694D01*
X175795984Y-43320465D01*
X175827650Y-43254584D01*
X175848957Y-43237042D01*
X175885873Y-43245002D01*
G37*
G36*
X182831957Y-44363435D02*
G01*
X182923319Y-44412532D01*
X182956314Y-44432210D01*
X183257449Y-44584319D01*
X183569942Y-44685669D01*
X183874134Y-44732996D01*
X183976212Y-44740405D01*
X183769283Y-44916406D01*
X183591758Y-45057923D01*
X183438622Y-45157385D01*
X183301970Y-45217973D01*
X183173898Y-45242869D01*
X183046503Y-45235252D01*
X183001001Y-45225591D01*
X182921090Y-45199233D01*
X182816666Y-45156220D01*
X182723386Y-45112264D01*
X182645203Y-45069712D01*
X182546671Y-45011643D01*
X182437416Y-44944303D01*
X182327066Y-44873938D01*
X182225249Y-44806794D01*
X182141592Y-44749118D01*
X182085722Y-44707156D01*
X182067267Y-44687155D01*
X182067583Y-44686771D01*
X182093872Y-44671787D01*
X182157833Y-44636739D01*
X182248113Y-44587753D01*
X182353362Y-44530956D01*
X182462228Y-44472472D01*
X182563358Y-44418427D01*
X182645403Y-44374947D01*
X182646565Y-44374336D01*
X182709250Y-44347265D01*
X182765824Y-44342655D01*
X182831957Y-44363435D01*
G37*
G36*
X177860766Y-44350427D02*
G01*
X177940447Y-44385439D01*
X178042872Y-44436615D01*
X178120878Y-44478662D01*
X178234180Y-44540503D01*
X178335553Y-44593903D01*
X178411289Y-44631741D01*
X178440528Y-44644714D01*
X178489394Y-44670970D01*
X178504340Y-44691085D01*
X178480828Y-44716333D01*
X178418632Y-44762624D01*
X178327563Y-44823849D01*
X178217434Y-44893902D01*
X178098057Y-44966674D01*
X177979245Y-45036058D01*
X177870809Y-45095946D01*
X177783326Y-45139879D01*
X177598331Y-45209250D01*
X177430943Y-45240389D01*
X177290086Y-45231800D01*
X177269212Y-45226217D01*
X177165748Y-45180396D01*
X177033836Y-45096600D01*
X176870658Y-44972934D01*
X176773712Y-44893250D01*
X176591675Y-44740405D01*
X176694229Y-44732996D01*
X176980713Y-44688876D01*
X177269458Y-44601399D01*
X177539240Y-44477581D01*
X177630907Y-44423389D01*
X177713818Y-44376088D01*
X177784485Y-44344874D01*
X177816491Y-44337451D01*
X177860766Y-44350427D01*
G37*
G36*
X187096176Y-44639265D02*
G01*
X187186214Y-44659955D01*
X187306349Y-44690562D01*
X187446552Y-44728198D01*
X187596791Y-44769976D01*
X187747037Y-44813007D01*
X187887259Y-44854404D01*
X188007429Y-44891279D01*
X188097514Y-44920745D01*
X188147486Y-44939915D01*
X188153706Y-44943720D01*
X188140153Y-44967083D01*
X188090315Y-45018555D01*
X188011258Y-45091460D01*
X187910050Y-45179124D01*
X187861911Y-45219338D01*
X187715548Y-45343614D01*
X187552098Y-45487650D01*
X187392388Y-45632830D01*
X187267432Y-45750663D01*
X187144723Y-45867516D01*
X187049293Y-45950582D01*
X186969356Y-46005612D01*
X186893125Y-46038353D01*
X186808815Y-46054555D01*
X186704639Y-46059967D01*
X186632370Y-46060427D01*
X186479668Y-46066922D01*
X186287752Y-46085084D01*
X186068031Y-46112927D01*
X185831919Y-46148466D01*
X185590826Y-46189715D01*
X185356166Y-46234688D01*
X185139349Y-46281401D01*
X184951788Y-46327866D01*
X184804894Y-46372100D01*
X184771679Y-46384170D01*
X184735444Y-46387561D01*
X184734127Y-46370060D01*
X184765060Y-46322512D01*
X184830628Y-46248998D01*
X184921758Y-46157887D01*
X185029375Y-46057546D01*
X185144408Y-45956345D01*
X185257782Y-45862650D01*
X185360426Y-45784830D01*
X185393281Y-45762127D01*
X185625375Y-45623612D01*
X185882774Y-45497842D01*
X186141980Y-45395567D01*
X186302314Y-45346242D01*
X186489702Y-45296310D01*
X186598271Y-45068905D01*
X186661552Y-44948381D01*
X186732625Y-44831424D01*
X186798427Y-44739148D01*
X186812802Y-44722095D01*
X186918764Y-44602691D01*
X187096176Y-44639265D01*
G37*
G36*
X173668820Y-44640278D02*
G01*
X173745098Y-44710154D01*
X173828761Y-44817864D01*
X173914014Y-44956205D01*
X173974631Y-45073884D01*
X174080618Y-45296204D01*
X174313201Y-45360647D01*
X174683602Y-45491535D01*
X175036599Y-45672425D01*
X175364012Y-45898509D01*
X175624714Y-46131274D01*
X175733737Y-46243791D01*
X175803184Y-46322538D01*
X175835225Y-46370441D01*
X175832029Y-46390424D01*
X175817188Y-46390756D01*
X175781663Y-46381891D01*
X175708725Y-46361707D01*
X175615711Y-46335022D01*
X175413694Y-46281773D01*
X175181623Y-46229803D01*
X174932303Y-46181207D01*
X174678543Y-46138080D01*
X174433148Y-46102515D01*
X174208926Y-46076607D01*
X174018682Y-46062450D01*
X173936471Y-46060427D01*
X173788335Y-46056577D01*
X173679227Y-46041129D01*
X173592894Y-46008239D01*
X173513082Y-45952060D01*
X173437623Y-45881022D01*
X173249434Y-45697677D01*
X173040717Y-45504420D01*
X172830509Y-45318484D01*
X172637849Y-45157099D01*
X172637547Y-45156856D01*
X172544841Y-45080592D01*
X172470218Y-45016530D01*
X172423190Y-44972992D01*
X172411825Y-44959353D01*
X172434448Y-44943448D01*
X172501779Y-44916547D01*
X172604650Y-44881289D01*
X172733887Y-44840318D01*
X172880321Y-44796275D01*
X173034780Y-44751801D01*
X173188094Y-44709539D01*
X173331091Y-44672130D01*
X173454600Y-44642216D01*
X173549451Y-44622439D01*
X173605723Y-44615439D01*
X173668820Y-44640278D01*
G37*
G36*
X182358404Y-45088825D02*
G01*
X182430375Y-45120057D01*
X182539525Y-45173742D01*
X182577965Y-45193147D01*
X182735068Y-45265240D01*
X182894750Y-45325600D01*
X183041995Y-45369357D01*
X183161787Y-45391641D01*
X183195677Y-45393469D01*
X183184045Y-45413006D01*
X183143728Y-45465294D01*
X183082165Y-45540845D01*
X183048549Y-45581051D01*
X182853534Y-45814307D01*
X182691620Y-46012556D01*
X182558567Y-46181958D01*
X182450138Y-46328676D01*
X182362093Y-46458870D01*
X182290194Y-46578703D01*
X182230203Y-46694336D01*
X182177881Y-46811931D01*
X182145295Y-46894125D01*
X182079961Y-47062343D01*
X182027551Y-47187861D01*
X181982905Y-47280534D01*
X181940868Y-47350220D01*
X181896281Y-47406775D01*
X181854367Y-47450102D01*
X181792268Y-47503895D01*
X181757443Y-47516455D01*
X181746181Y-47503146D01*
X181683601Y-47293928D01*
X181624708Y-47063733D01*
X181574029Y-46832588D01*
X181536088Y-46620523D01*
X181520689Y-46505066D01*
X181514751Y-46419148D01*
X181518631Y-46337882D01*
X181535342Y-46255166D01*
X181567896Y-46164900D01*
X181619307Y-46060984D01*
X181692587Y-45937316D01*
X181790750Y-45787795D01*
X181916808Y-45606321D01*
X182071166Y-45390410D01*
X182145656Y-45286199D01*
X182209932Y-45194708D01*
X182255680Y-45127859D01*
X182272276Y-45102030D01*
X182288684Y-45082592D01*
X182314284Y-45077263D01*
X182358404Y-45088825D01*
G37*
G36*
X178288386Y-45081322D02*
G01*
X178324840Y-45135114D01*
X178343109Y-45164202D01*
X178380578Y-45221355D01*
X178443741Y-45313624D01*
X178525699Y-45431102D01*
X178619557Y-45563883D01*
X178692390Y-45665852D01*
X178821181Y-45848794D01*
X178918330Y-45999042D01*
X178986769Y-46127415D01*
X179029431Y-46244736D01*
X179049248Y-46361826D01*
X179049153Y-46489506D01*
X179032079Y-46638599D01*
X179002648Y-46810755D01*
X178982612Y-46907081D01*
X178954629Y-47025485D01*
X178922079Y-47153466D01*
X178888346Y-47278524D01*
X178856809Y-47388155D01*
X178830852Y-47469861D01*
X178813855Y-47511139D01*
X178812827Y-47512505D01*
X178784902Y-47507128D01*
X178734875Y-47469559D01*
X178707402Y-47443030D01*
X178649520Y-47371743D01*
X178591148Y-47274619D01*
X178528429Y-47143929D01*
X178457508Y-46971942D01*
X178409193Y-46845116D01*
X178352430Y-46710607D01*
X178279352Y-46571654D01*
X178185300Y-46421290D01*
X178065614Y-46252550D01*
X177915637Y-46058465D01*
X177735734Y-45838108D01*
X177630309Y-45710337D01*
X177538099Y-45596497D01*
X177464718Y-45503694D01*
X177415782Y-45439031D01*
X177396907Y-45409612D01*
X177396871Y-45409407D01*
X177419353Y-45391724D01*
X177480092Y-45377506D01*
X177511917Y-45373926D01*
X177593102Y-45356021D01*
X177710809Y-45314915D01*
X177853306Y-45254991D01*
X177945275Y-45212091D01*
X178065185Y-45154496D01*
X178165618Y-45106904D01*
X178236767Y-45073917D01*
X178268822Y-45060135D01*
X178269540Y-45059989D01*
X178288386Y-45081322D01*
G37*
G36*
X180985458Y-44583614D02*
G01*
X181091305Y-44589780D01*
X181170924Y-44599436D01*
X181209249Y-44611996D01*
X181220782Y-44650621D01*
X181194689Y-44691116D01*
X181158021Y-44742723D01*
X181110144Y-44823970D01*
X181075689Y-44889242D01*
X181010200Y-45076266D01*
X181000242Y-45264405D01*
X181045822Y-45452345D01*
X181072613Y-45513202D01*
X181130191Y-45624404D01*
X181170575Y-45684144D01*
X181196435Y-45692869D01*
X181210446Y-45651022D01*
X181215281Y-45559051D01*
X181215383Y-45537003D01*
X181237389Y-45342201D01*
X181306160Y-45170152D01*
X181425822Y-45011045D01*
X181445109Y-44991026D01*
X181536777Y-44912963D01*
X181641879Y-44845515D01*
X181742510Y-44798761D01*
X181815050Y-44782700D01*
X181859162Y-44796992D01*
X181934331Y-44835134D01*
X182026127Y-44889031D01*
X182120123Y-44950589D01*
X182142589Y-44966453D01*
X182136744Y-44994763D01*
X182104569Y-45062464D01*
X182050190Y-45162450D01*
X181977734Y-45287619D01*
X181891325Y-45430868D01*
X181795090Y-45585093D01*
X181693155Y-45743190D01*
X181678362Y-45765687D01*
X181592545Y-45899748D01*
X181518589Y-46022688D01*
X181461828Y-46125040D01*
X181427596Y-46197343D01*
X181419923Y-46224221D01*
X181417733Y-46354935D01*
X181426988Y-46485328D01*
X181449777Y-46626375D01*
X181488191Y-46789050D01*
X181544319Y-46984325D01*
X181595903Y-47148261D01*
X181647766Y-47315515D01*
X181679289Y-47439890D01*
X181689821Y-47530482D01*
X181678708Y-47596388D01*
X181645296Y-47646705D01*
X181588934Y-47690530D01*
X181555534Y-47710775D01*
X181430746Y-47766844D01*
X181275343Y-47806039D01*
X181081959Y-47829600D01*
X180843230Y-47838766D01*
X180794144Y-47838983D01*
X180480377Y-47838983D01*
X180431031Y-47748666D01*
X180418681Y-47721930D01*
X180408466Y-47687556D01*
X180400133Y-47640161D01*
X180393431Y-47574362D01*
X180388107Y-47484777D01*
X180383909Y-47366023D01*
X180380586Y-47212718D01*
X180377885Y-47019479D01*
X180375554Y-46780924D01*
X180373550Y-46520908D01*
X180371651Y-46237858D01*
X180370530Y-46004490D01*
X180370405Y-45814909D01*
X180371492Y-45663221D01*
X180374006Y-45543530D01*
X180378165Y-45449943D01*
X180384185Y-45376563D01*
X180392283Y-45317496D01*
X180402675Y-45266847D01*
X180415577Y-45218721D01*
X180422182Y-45196572D01*
X180455429Y-45085097D01*
X180471933Y-45014582D01*
X180470816Y-44972716D01*
X180451200Y-44947191D01*
X180412207Y-44925698D01*
X180402527Y-44921050D01*
X180326105Y-44884349D01*
X180451160Y-44857352D01*
X180576214Y-44830354D01*
X180458107Y-44786584D01*
X180387465Y-44755997D01*
X180345263Y-44729213D01*
X180340000Y-44720767D01*
X180365309Y-44708736D01*
X180431316Y-44699186D01*
X180513687Y-44694556D01*
X180589879Y-44690942D01*
X180625299Y-44685395D01*
X180612701Y-44679089D01*
X180610952Y-44678816D01*
X180549245Y-44659335D01*
X180539726Y-44631999D01*
X180583754Y-44603766D01*
X180595506Y-44599743D01*
X180658405Y-44589001D01*
X180754221Y-44582929D01*
X180868167Y-44581231D01*
X180985458Y-44583614D01*
G37*
G36*
X179815161Y-44583889D02*
G01*
X179910492Y-44589708D01*
X179973076Y-44599685D01*
X179975085Y-44600298D01*
X180024947Y-44628202D01*
X180028222Y-44656314D01*
X179984517Y-44670769D01*
X179977091Y-44670930D01*
X179938381Y-44681904D01*
X179937762Y-44699879D01*
X179974143Y-44716202D01*
X180044590Y-44723138D01*
X180077818Y-44722503D01*
X180163861Y-44723054D01*
X180211668Y-44733002D01*
X180215971Y-44748732D01*
X180171507Y-44766630D01*
X180149331Y-44771592D01*
X180076852Y-44792977D01*
X180047710Y-44815492D01*
X180065250Y-44832496D01*
X180116040Y-44837670D01*
X180182556Y-44847582D01*
X180196771Y-44875721D01*
X180157998Y-44919694D01*
X180142806Y-44930894D01*
X180084562Y-44971690D01*
X180163648Y-45147842D01*
X180242735Y-45323994D01*
X180242735Y-46496107D01*
X180242665Y-46782084D01*
X180242289Y-47017761D01*
X180241360Y-47208417D01*
X180239631Y-47359331D01*
X180236856Y-47475782D01*
X180232786Y-47563051D01*
X180227176Y-47626416D01*
X180219778Y-47671156D01*
X180210345Y-47702551D01*
X180198629Y-47725881D01*
X180184384Y-47746424D01*
X180184213Y-47746654D01*
X180125690Y-47825088D01*
X179767364Y-47829375D01*
X179618691Y-47829086D01*
X179478179Y-47825134D01*
X179361584Y-47818190D01*
X179284658Y-47808923D01*
X179284228Y-47808838D01*
X179150862Y-47771088D01*
X179031162Y-47716868D01*
X178938473Y-47653715D01*
X178886135Y-47589169D01*
X178883448Y-47582402D01*
X178876197Y-47538956D01*
X178882068Y-47477193D01*
X178903053Y-47387809D01*
X178941140Y-47261498D01*
X178972615Y-47165357D01*
X179037967Y-46953750D01*
X179091329Y-46749706D01*
X179130788Y-46562957D01*
X179154432Y-46403234D01*
X179160348Y-46280267D01*
X179155703Y-46233644D01*
X179134938Y-46180237D01*
X179088269Y-46090386D01*
X179021113Y-45973563D01*
X178938883Y-45839240D01*
X178860809Y-45717815D01*
X178751165Y-45548181D01*
X178651559Y-45388588D01*
X178565680Y-45245447D01*
X178497218Y-45125169D01*
X178449862Y-45034161D01*
X178427299Y-44978836D01*
X178427622Y-44965081D01*
X178564275Y-44876341D01*
X178669113Y-44815584D01*
X178737288Y-44785522D01*
X178753791Y-44782700D01*
X178836390Y-44802019D01*
X178939410Y-44851374D01*
X179044853Y-44920639D01*
X179129269Y-44993998D01*
X179243061Y-45128903D01*
X179312882Y-45261486D01*
X179346407Y-45409954D01*
X179352370Y-45523047D01*
X179356640Y-45631763D01*
X179369734Y-45687580D01*
X179394295Y-45690710D01*
X179432965Y-45641364D01*
X179488387Y-45539754D01*
X179491212Y-45534164D01*
X179560611Y-45341658D01*
X179574566Y-45150504D01*
X179533214Y-44962216D01*
X179436691Y-44778309D01*
X179421224Y-44756353D01*
X179368258Y-44670965D01*
X179356795Y-44618891D01*
X179362112Y-44609474D01*
X179400544Y-44597801D01*
X179479774Y-44589185D01*
X179585092Y-44583848D01*
X179701791Y-44582009D01*
X179815161Y-44583889D01*
G37*
G36*
X185239150Y-47794497D02*
G01*
X185354859Y-47813277D01*
X185486141Y-47843904D01*
X185643753Y-47887886D01*
X185838451Y-47946729D01*
X185945671Y-47979899D01*
X186129341Y-48035622D01*
X186300454Y-48085144D01*
X186450211Y-48126106D01*
X186569813Y-48156151D01*
X186650462Y-48172922D01*
X186676105Y-48175636D01*
X186728678Y-48172055D01*
X186828230Y-48162331D01*
X186966609Y-48147374D01*
X187135664Y-48128094D01*
X187327243Y-48105400D01*
X187533194Y-48080202D01*
X187551488Y-48077926D01*
X187852183Y-48040550D01*
X188102196Y-48009703D01*
X188305975Y-47984886D01*
X188467972Y-47965596D01*
X188592636Y-47951335D01*
X188684419Y-47941600D01*
X188747769Y-47935893D01*
X188787138Y-47933711D01*
X188806975Y-47934556D01*
X188811282Y-47936231D01*
X188788407Y-47946888D01*
X188719107Y-47972438D01*
X188609863Y-48010743D01*
X188467154Y-48059667D01*
X188297464Y-48117074D01*
X188107273Y-48180826D01*
X187903061Y-48248789D01*
X187691312Y-48318824D01*
X187478504Y-48388796D01*
X187271120Y-48456568D01*
X187075642Y-48520004D01*
X186898549Y-48576966D01*
X186746323Y-48625319D01*
X186625446Y-48662926D01*
X186542399Y-48687650D01*
X186503662Y-48697355D01*
X186502246Y-48697405D01*
X186467389Y-48685669D01*
X186389901Y-48654655D01*
X186277891Y-48607770D01*
X186139468Y-48548422D01*
X185982741Y-48480018D01*
X185939672Y-48461027D01*
X185740841Y-48372898D01*
X185522000Y-48275447D01*
X185301943Y-48177071D01*
X185099464Y-48086170D01*
X184967024Y-48026402D01*
X184522385Y-47825088D01*
X184716915Y-47807697D01*
X184877896Y-47794164D01*
X185011425Y-47786448D01*
X185128257Y-47786057D01*
X185239150Y-47794497D01*
G37*
G36*
X174350618Y-47291452D02*
G01*
X174432738Y-47314582D01*
X174550371Y-47350066D01*
X174695866Y-47395397D01*
X174861567Y-47448066D01*
X175039821Y-47505564D01*
X175222973Y-47565383D01*
X175403371Y-47625015D01*
X175573360Y-47681951D01*
X175725287Y-47733684D01*
X175851497Y-47777705D01*
X175944336Y-47811506D01*
X175996151Y-47832577D01*
X176004396Y-47837921D01*
X175980643Y-47855252D01*
X175917939Y-47887901D01*
X175828548Y-47929599D01*
X175802919Y-47940942D01*
X175724219Y-47975489D01*
X175603516Y-48028582D01*
X175449652Y-48096325D01*
X175271473Y-48174824D01*
X175077822Y-48260184D01*
X174877544Y-48348508D01*
X174865383Y-48353873D01*
X174674514Y-48437605D01*
X174498184Y-48514073D01*
X174343353Y-48580327D01*
X174216983Y-48633420D01*
X174126033Y-48670401D01*
X174077465Y-48688324D01*
X174073370Y-48689377D01*
X174033391Y-48683054D01*
X173948590Y-48659855D01*
X173826296Y-48622125D01*
X173673838Y-48572205D01*
X173498545Y-48512438D01*
X173307747Y-48445167D01*
X173295252Y-48440686D01*
X172971659Y-48324467D01*
X172696953Y-48225619D01*
X172467665Y-48142868D01*
X172280321Y-48074936D01*
X172131453Y-48020550D01*
X172017588Y-47978432D01*
X171935256Y-47947309D01*
X171880985Y-47925904D01*
X171851306Y-47912941D01*
X171842746Y-47907145D01*
X171842876Y-47906946D01*
X171871784Y-47897928D01*
X171951345Y-47876128D01*
X172078325Y-47842388D01*
X172249493Y-47797547D01*
X172461615Y-47742445D01*
X172711460Y-47677921D01*
X172995795Y-47604815D01*
X173311386Y-47523967D01*
X173650123Y-47437462D01*
X173828209Y-47392671D01*
X173990657Y-47352992D01*
X174128902Y-47320420D01*
X174234378Y-47296954D01*
X174298517Y-47284592D01*
X174311667Y-47283184D01*
X174350618Y-47291452D01*
G37*
G36*
X182117803Y-47362029D02*
G01*
X182152643Y-47425360D01*
X182201862Y-47519063D01*
X182259794Y-47632505D01*
X182328779Y-47774323D01*
X182374369Y-47883057D01*
X182401569Y-47973400D01*
X182415384Y-48060045D01*
X182418345Y-48097987D01*
X182421178Y-48200461D01*
X182410228Y-48273086D01*
X182379139Y-48341095D01*
X182342635Y-48398501D01*
X182269403Y-48492577D01*
X182162999Y-48609279D01*
X182034622Y-48737763D01*
X181895473Y-48867185D01*
X181756751Y-48986699D01*
X181643983Y-49075020D01*
X181547664Y-49140503D01*
X181435714Y-49208397D01*
X181321021Y-49271842D01*
X181216476Y-49323979D01*
X181134968Y-49357946D01*
X181094609Y-49367429D01*
X181069145Y-49343355D01*
X181042411Y-49283515D01*
X181036210Y-49263217D01*
X181011638Y-49134062D01*
X181012209Y-49024348D01*
X181036994Y-48950580D01*
X181055461Y-48930281D01*
X181052342Y-48957254D01*
X181047954Y-48973428D01*
X181040170Y-49053378D01*
X181046539Y-49104935D01*
X181054476Y-49129010D01*
X181068477Y-49141135D01*
X181095717Y-49138374D01*
X181143370Y-49117792D01*
X181218610Y-49076450D01*
X181328614Y-49011414D01*
X181441856Y-48943138D01*
X181685322Y-48788243D01*
X181879266Y-48647065D01*
X182027116Y-48516434D01*
X182132303Y-48393180D01*
X182198256Y-48274134D01*
X182213569Y-48229946D01*
X182239471Y-48114857D01*
X182255253Y-47994400D01*
X182257505Y-47944121D01*
X182255973Y-47864389D01*
X182246934Y-47829222D01*
X182223726Y-47827611D01*
X182194978Y-47840808D01*
X182157788Y-47869137D01*
X182088187Y-47931035D01*
X181992670Y-48020379D01*
X181877731Y-48131045D01*
X181749864Y-48256909D01*
X181685566Y-48321162D01*
X181529744Y-48476982D01*
X181396539Y-48608875D01*
X181288075Y-48714879D01*
X181206479Y-48793030D01*
X181153876Y-48841366D01*
X181132393Y-48857923D01*
X181144155Y-48840737D01*
X181191289Y-48787846D01*
X181259791Y-48714366D01*
X181386765Y-48571166D01*
X181471647Y-48451561D01*
X181517271Y-48346422D01*
X181526471Y-48246618D01*
X181502079Y-48143022D01*
X181463610Y-48057663D01*
X181443652Y-48012677D01*
X181447761Y-47981249D01*
X181484293Y-47949227D01*
X181551895Y-47908150D01*
X181712180Y-47792456D01*
X181869405Y-47639370D01*
X182002911Y-47470766D01*
X182053115Y-47399662D01*
X182089712Y-47351739D01*
X182102530Y-47338764D01*
X182117803Y-47362029D01*
G37*
G36*
X178198152Y-47900989D02*
G01*
X178311491Y-47900989D01*
X178318762Y-47992336D01*
X178333141Y-48096070D01*
X178352876Y-48198260D01*
X178376215Y-48284972D01*
X178389191Y-48319316D01*
X178442313Y-48406860D01*
X178523679Y-48504869D01*
X178592359Y-48571899D01*
X178661942Y-48627581D01*
X178759645Y-48698333D01*
X178876791Y-48778661D01*
X179004704Y-48863073D01*
X179134709Y-48946076D01*
X179258130Y-49022177D01*
X179366291Y-49085882D01*
X179450515Y-49131699D01*
X179502127Y-49154135D01*
X179513062Y-49154827D01*
X179527796Y-49120701D01*
X179534089Y-49056483D01*
X179534092Y-49055009D01*
X179526447Y-49004733D01*
X179498647Y-48950953D01*
X179443390Y-48883118D01*
X179353377Y-48790678D01*
X179346510Y-48783921D01*
X179255536Y-48693561D01*
X179139731Y-48577086D01*
X179012840Y-48448389D01*
X178888606Y-48321367D01*
X178867133Y-48299286D01*
X178709183Y-48139584D01*
X178573026Y-48007782D01*
X178462254Y-47907116D01*
X178380460Y-47840822D01*
X178331236Y-47812136D01*
X178325284Y-47811193D01*
X178313081Y-47835964D01*
X178311491Y-47900989D01*
X178198152Y-47900989D01*
X178250899Y-47763163D01*
X178310115Y-47637506D01*
X178368150Y-47522062D01*
X178417009Y-47427357D01*
X178451623Y-47363044D01*
X178466924Y-47338775D01*
X178467000Y-47338764D01*
X178485929Y-47359642D01*
X178526099Y-47413590D01*
X178564388Y-47468098D01*
X178743578Y-47683009D01*
X178968420Y-47876667D01*
X179231056Y-48042832D01*
X179381798Y-48117129D01*
X179470319Y-48159185D01*
X179534585Y-48194179D01*
X179561703Y-48215037D01*
X179561882Y-48215921D01*
X179545587Y-48246831D01*
X179505162Y-48301015D01*
X179492407Y-48316480D01*
X179439151Y-48407253D01*
X179426245Y-48511258D01*
X179453760Y-48637742D01*
X179495658Y-48741449D01*
X179538039Y-48858234D01*
X179563766Y-48979108D01*
X179571361Y-49088913D01*
X179559347Y-49172489D01*
X179540830Y-49205068D01*
X179502962Y-49220007D01*
X179446365Y-49195513D01*
X179439232Y-49190926D01*
X179374072Y-49160907D01*
X179304739Y-49146512D01*
X179249949Y-49149522D01*
X179228403Y-49170883D01*
X179251371Y-49207196D01*
X179314338Y-49262183D01*
X179408394Y-49328112D01*
X179412974Y-49331058D01*
X179452990Y-49359551D01*
X179447195Y-49363702D01*
X179399110Y-49344773D01*
X179312254Y-49304024D01*
X179246684Y-49271484D01*
X179123909Y-49204056D01*
X178994272Y-49124212D01*
X178899310Y-49058907D01*
X178806371Y-48983796D01*
X178695996Y-48885230D01*
X178577302Y-48772432D01*
X178459402Y-48654623D01*
X178351412Y-48541024D01*
X178262446Y-48440858D01*
X178201620Y-48363346D01*
X178184448Y-48335659D01*
X178148622Y-48226640D01*
X178147029Y-48098915D01*
X178180759Y-47946437D01*
X178198152Y-47900989D01*
G37*
G36*
X186038183Y-41721040D02*
G01*
X186078424Y-41739863D01*
X186134866Y-41778341D01*
X186212107Y-41839985D01*
X186314743Y-41928306D01*
X186447370Y-42046812D01*
X186614585Y-42199015D01*
X186665991Y-42246096D01*
X186800713Y-42372784D01*
X186896950Y-42473385D01*
X186959578Y-42556580D01*
X186993473Y-42631050D01*
X187003514Y-42705479D01*
X186994575Y-42788547D01*
X186988201Y-42819743D01*
X186971380Y-42896429D01*
X186945613Y-43014179D01*
X186913795Y-43159756D01*
X186878821Y-43319921D01*
X186859929Y-43406488D01*
X186817998Y-43590988D01*
X186770238Y-43788779D01*
X186721791Y-43979271D01*
X186677796Y-44141875D01*
X186666582Y-44180953D01*
X186626899Y-44318510D01*
X186602105Y-44411937D01*
X186591052Y-44470319D01*
X186592593Y-44502743D01*
X186605580Y-44518293D01*
X186623172Y-44524621D01*
X186665363Y-44545129D01*
X186669936Y-44581234D01*
X186635990Y-44642428D01*
X186608442Y-44679979D01*
X186564270Y-44747589D01*
X186508107Y-44846920D01*
X186450598Y-44958930D01*
X186438617Y-44983814D01*
X186383333Y-45093806D01*
X186340934Y-45160440D01*
X186304869Y-45192430D01*
X186276925Y-45198939D01*
X186180563Y-45211613D01*
X186047930Y-45246785D01*
X185891460Y-45300183D01*
X185723588Y-45367531D01*
X185556749Y-45444557D01*
X185544546Y-45450645D01*
X185378743Y-45541279D01*
X185216393Y-45646512D01*
X185051713Y-45771384D01*
X184878919Y-45920939D01*
X184692226Y-46100218D01*
X184485852Y-46314264D01*
X184254012Y-46568119D01*
X184223461Y-46602331D01*
X183963308Y-46897328D01*
X183739076Y-47158947D01*
X183546979Y-47392697D01*
X183383231Y-47604090D01*
X183244045Y-47798638D01*
X183125634Y-47981852D01*
X183024214Y-48159242D01*
X182935998Y-48336320D01*
X182857199Y-48518597D01*
X182794671Y-48682082D01*
X182762553Y-48775945D01*
X182741867Y-48847417D01*
X182736579Y-48882587D01*
X182737182Y-48883722D01*
X182752648Y-48865354D01*
X182784574Y-48806466D01*
X182827469Y-48717601D01*
X182853358Y-48660642D01*
X182951596Y-48458074D01*
X183071039Y-48239804D01*
X183201699Y-48022392D01*
X183333584Y-47822396D01*
X183456703Y-47656375D01*
X183466816Y-47643905D01*
X183538012Y-47559312D01*
X183595440Y-47495632D01*
X183630781Y-47461868D01*
X183637603Y-47459051D01*
X183629225Y-47485978D01*
X183597463Y-47548072D01*
X183548535Y-47633456D01*
X183531739Y-47661341D01*
X183392347Y-47906789D01*
X183275834Y-48151102D01*
X183177243Y-48407576D01*
X183091615Y-48689508D01*
X183013992Y-49010195D01*
X182994261Y-49102753D01*
X182933994Y-49373219D01*
X182876836Y-49589879D01*
X182822253Y-49754391D01*
X182769710Y-49868407D01*
X182728664Y-49924499D01*
X182671714Y-49960679D01*
X182571614Y-50003714D01*
X182439806Y-50050024D01*
X182287732Y-50096031D01*
X182126834Y-50138157D01*
X181968555Y-50172822D01*
X181889358Y-50186992D01*
X181712029Y-50208876D01*
X181518840Y-50221357D01*
X181328668Y-50224037D01*
X181160392Y-50216518D01*
X181062538Y-50204416D01*
X180998345Y-50185500D01*
X180966149Y-50161177D01*
X180965273Y-50156967D01*
X180982919Y-50123912D01*
X181029998Y-50061785D01*
X181097727Y-49981866D01*
X181127337Y-49948864D01*
X181224960Y-49834182D01*
X181327357Y-49701970D01*
X181412930Y-49580159D01*
X181415518Y-49576175D01*
X181520067Y-49416086D01*
X181603796Y-49292850D01*
X181675181Y-49196090D01*
X181742701Y-49115426D01*
X181814831Y-49040482D01*
X181900049Y-48960878D01*
X181966231Y-48901935D01*
X182116401Y-48765231D01*
X182229745Y-48650728D01*
X182314682Y-48548350D01*
X182379634Y-48448022D01*
X182429536Y-48347608D01*
X182467921Y-48206140D01*
X182470284Y-48033771D01*
X182436371Y-47826655D01*
X182382064Y-47630558D01*
X182322083Y-47407211D01*
X182293390Y-47204969D01*
X182298348Y-47016865D01*
X182339319Y-46835929D01*
X182418664Y-46655194D01*
X182538745Y-46467690D01*
X182701925Y-46266449D01*
X182910565Y-46044501D01*
X182924342Y-46030614D01*
X183263854Y-45710693D01*
X183651011Y-45384526D01*
X184079021Y-45057081D01*
X184541092Y-44733328D01*
X185030433Y-44418238D01*
X185538471Y-44117787D01*
X185665576Y-44039411D01*
X185805802Y-43943074D01*
X185931101Y-43848152D01*
X185943679Y-43837878D01*
X186092876Y-43698338D01*
X186191405Y-43563217D01*
X186242419Y-43423063D01*
X186249072Y-43268427D01*
X186214517Y-43089860D01*
X186204629Y-43055972D01*
X186151395Y-42908079D01*
X186072289Y-42725478D01*
X185972674Y-42519431D01*
X185857913Y-42301202D01*
X185774004Y-42151667D01*
X185675462Y-41980654D01*
X185807567Y-41873030D01*
X185886871Y-41808779D01*
X185954866Y-41754308D01*
X185987919Y-41728324D01*
X186009547Y-41718364D01*
X186038183Y-41721040D01*
G37*
G36*
X174578753Y-41727013D02*
G01*
X174583306Y-41730303D01*
X174629218Y-41766485D01*
X174700486Y-41823725D01*
X174761273Y-41873030D01*
X174893378Y-41980654D01*
X174794849Y-42151667D01*
X174659470Y-42396893D01*
X174542265Y-42629877D01*
X174445970Y-42844063D01*
X174373320Y-43032893D01*
X174327051Y-43189810D01*
X174309899Y-43308258D01*
X174309856Y-43314123D01*
X174321969Y-43392585D01*
X174352629Y-43491655D01*
X174376350Y-43548712D01*
X174425012Y-43633165D01*
X174494827Y-43718238D01*
X174591028Y-43808138D01*
X174718850Y-43907068D01*
X174883527Y-44019233D01*
X175090294Y-44148837D01*
X175222029Y-44227993D01*
X175828837Y-44603983D01*
X176380707Y-44978392D01*
X176878241Y-45351672D01*
X177322046Y-45724273D01*
X177660459Y-46043761D01*
X177795104Y-46180046D01*
X177897089Y-46287779D01*
X177974101Y-46376633D01*
X178033830Y-46456280D01*
X178083964Y-46536391D01*
X178132191Y-46626640D01*
X178146454Y-46655153D01*
X178231265Y-46853254D01*
X178275819Y-47033450D01*
X178281439Y-47212724D01*
X178249447Y-47408057D01*
X178214827Y-47533294D01*
X178146581Y-47782677D01*
X178106789Y-47992906D01*
X178095823Y-48161282D01*
X178112005Y-48278558D01*
X178166560Y-48408213D01*
X178256455Y-48544823D01*
X178386124Y-48693991D01*
X178560004Y-48861321D01*
X178605237Y-48901661D01*
X178746645Y-49031532D01*
X178856678Y-49146753D01*
X178949883Y-49263983D01*
X179040809Y-49399880D01*
X179042064Y-49401880D01*
X179154294Y-49576188D01*
X179253558Y-49718036D01*
X179352538Y-49844268D01*
X179463917Y-49971731D01*
X179503246Y-50014452D01*
X179571882Y-50094227D01*
X179601722Y-50146021D01*
X179596896Y-50177159D01*
X179595668Y-50178457D01*
X179551427Y-50194831D01*
X179463191Y-50207018D01*
X179342393Y-50214909D01*
X179200469Y-50218395D01*
X179048852Y-50217370D01*
X178898977Y-50211723D01*
X178762278Y-50201347D01*
X178656963Y-50187353D01*
X178516526Y-50158337D01*
X178358562Y-50118860D01*
X178198852Y-50073549D01*
X178053180Y-50027030D01*
X177937327Y-49983930D01*
X177890905Y-49962780D01*
X177838590Y-49918136D01*
X177787584Y-49836552D01*
X177736535Y-49714295D01*
X177684091Y-49547631D01*
X177628899Y-49332825D01*
X177574351Y-49088612D01*
X177476606Y-48686973D01*
X177363046Y-48332589D01*
X177231378Y-48018805D01*
X177153517Y-47866773D01*
X177092335Y-47755130D01*
X177030535Y-47642468D01*
X176985839Y-47561084D01*
X176917089Y-47436029D01*
X177033570Y-47561084D01*
X177152142Y-47703944D01*
X177282730Y-47888592D01*
X177418637Y-48104478D01*
X177553164Y-48341055D01*
X177659992Y-48547626D01*
X177736644Y-48700477D01*
X177790900Y-48802751D01*
X177823020Y-48854627D01*
X177833261Y-48856282D01*
X177821882Y-48807893D01*
X177789143Y-48709638D01*
X177753935Y-48612049D01*
X177681988Y-48429995D01*
X177601190Y-48254526D01*
X177507578Y-48079821D01*
X177397187Y-47900058D01*
X177266055Y-47709416D01*
X177110216Y-47502072D01*
X176925708Y-47272206D01*
X176708567Y-47013995D01*
X176508572Y-46782965D01*
X176335987Y-46586147D01*
X176193207Y-46425113D01*
X176073945Y-46293380D01*
X175971915Y-46184463D01*
X175880830Y-46091880D01*
X175794404Y-46009147D01*
X175706352Y-45929780D01*
X175610385Y-45847295D01*
X175561708Y-45806399D01*
X175389828Y-45675739D01*
X175197354Y-45551430D01*
X174994698Y-45438437D01*
X174792274Y-45341726D01*
X174600496Y-45266264D01*
X174429777Y-45217016D01*
X174290533Y-45198948D01*
X174287816Y-45198939D01*
X174252162Y-45184988D01*
X174212372Y-45138026D01*
X174162834Y-45050391D01*
X174130223Y-44983814D01*
X174073870Y-44871574D01*
X174016482Y-44767750D01*
X173968700Y-44691383D01*
X173960398Y-44679979D01*
X173909263Y-44605027D01*
X173897112Y-44559198D01*
X173923408Y-44532535D01*
X173951924Y-44522985D01*
X173994096Y-44498901D01*
X173990422Y-44457216D01*
X173964692Y-44383430D01*
X173929401Y-44266510D01*
X173887481Y-44117480D01*
X173841862Y-43947364D01*
X173795473Y-43767186D01*
X173751247Y-43587969D01*
X173712113Y-43420739D01*
X173697994Y-43357161D01*
X173664108Y-43201632D01*
X173631504Y-43052159D01*
X173603428Y-42923605D01*
X173583124Y-42830833D01*
X173579686Y-42815174D01*
X173562859Y-42722144D01*
X173564407Y-42657713D01*
X173586245Y-42597392D01*
X173598561Y-42573600D01*
X173641523Y-42515020D01*
X173720298Y-42428055D01*
X173827735Y-42319579D01*
X173956681Y-42196466D01*
X174099986Y-42065588D01*
X174250498Y-41933818D01*
X174360986Y-41840869D01*
X174450885Y-41769066D01*
X174510202Y-41729609D01*
X174549352Y-41717318D01*
X174578753Y-41727013D01*
G37*
G36*
X184243608Y-50909711D02*
G01*
X184303255Y-50945700D01*
X184381552Y-51003494D01*
X184467801Y-51074724D01*
X184551304Y-51151021D01*
X184618863Y-51221162D01*
X184683184Y-51302281D01*
X184723473Y-51369415D01*
X184734811Y-51412801D01*
X184721059Y-51423884D01*
X184695963Y-51408315D01*
X184637898Y-51366939D01*
X184558009Y-51307760D01*
X184532694Y-51288670D01*
X184443457Y-51213766D01*
X184358372Y-51129747D01*
X184285625Y-51046477D01*
X184233403Y-50973817D01*
X184209891Y-50921630D01*
X184213308Y-50903895D01*
X184243608Y-50909711D01*
G37*
G36*
X176390347Y-48984086D02*
G01*
X176354431Y-49014692D01*
X176309940Y-49046350D01*
X176252160Y-49081289D01*
X176176379Y-49121736D01*
X176077884Y-49169920D01*
X175951961Y-49228069D01*
X175793899Y-49298412D01*
X175598983Y-49383177D01*
X175362501Y-49484592D01*
X175079740Y-49604886D01*
X175056430Y-49614776D01*
X174802474Y-49722746D01*
X174555785Y-49828073D01*
X174322835Y-49927962D01*
X174110099Y-50019617D01*
X173924053Y-50100243D01*
X173771172Y-50167045D01*
X173657928Y-50217226D01*
X173600941Y-50243190D01*
X173492126Y-50294123D01*
X173346934Y-50362086D01*
X173179327Y-50440544D01*
X173003265Y-50522962D01*
X172865692Y-50587364D01*
X172695566Y-50666414D01*
X172567807Y-50723843D01*
X172474788Y-50762317D01*
X172408883Y-50784499D01*
X172362464Y-50793055D01*
X172327906Y-50790650D01*
X172305111Y-50783226D01*
X172276206Y-50774643D01*
X172242496Y-50774787D01*
X172196903Y-50786631D01*
X172132348Y-50813148D01*
X172041752Y-50857309D01*
X171918037Y-50922088D01*
X171754125Y-51010458D01*
X171720339Y-51028810D01*
X171469783Y-51163845D01*
X171239221Y-51285851D01*
X171032702Y-51392825D01*
X170854273Y-51482763D01*
X170707982Y-51553662D01*
X170597875Y-51603519D01*
X170528002Y-51630331D01*
X170502409Y-51632095D01*
X170502363Y-51631573D01*
X170523320Y-51612382D01*
X170582837Y-51562727D01*
X170675886Y-51486626D01*
X170797439Y-51388099D01*
X170942465Y-51271164D01*
X171105938Y-51139841D01*
X171282828Y-50998147D01*
X171468106Y-50850103D01*
X171656743Y-50699727D01*
X171843711Y-50551037D01*
X172023982Y-50408053D01*
X172192526Y-50274794D01*
X172344315Y-50155278D01*
X172474319Y-50053525D01*
X172563499Y-49984341D01*
X172859975Y-49755754D01*
X174592165Y-49327641D01*
X174895711Y-49252721D01*
X175185335Y-49181434D01*
X175456187Y-49114961D01*
X175703419Y-49054482D01*
X175922180Y-49001179D01*
X176107621Y-48956233D01*
X176254891Y-48920825D01*
X176359141Y-48896135D01*
X176415522Y-48883346D01*
X176421619Y-48882137D01*
X176518884Y-48864746D01*
X176390347Y-48984086D01*
G37*
G36*
X184830898Y-48819418D02*
G01*
X184909628Y-48843042D01*
X185032777Y-48882896D01*
X185201503Y-48939375D01*
X185416960Y-49012872D01*
X185680307Y-49103782D01*
X185992698Y-49212497D01*
X186355292Y-49339413D01*
X186676105Y-49452138D01*
X187329168Y-49681930D01*
X188079497Y-50280498D01*
X188329118Y-50480245D01*
X188578252Y-50680755D01*
X188821834Y-50877876D01*
X189054798Y-51067454D01*
X189272080Y-51245335D01*
X189468613Y-51407366D01*
X189639333Y-51549393D01*
X189779173Y-51667261D01*
X189883069Y-51756819D01*
X189919959Y-51789686D01*
X190037445Y-51896313D01*
X189947749Y-51893012D01*
X189867778Y-51886249D01*
X189763439Y-51872667D01*
X189705208Y-51863387D01*
X189494617Y-51826008D01*
X189262231Y-51782819D01*
X189014471Y-51735179D01*
X188757761Y-51684445D01*
X188498522Y-51631976D01*
X188243178Y-51579130D01*
X187998151Y-51527264D01*
X187769863Y-51477736D01*
X187564738Y-51431904D01*
X187389196Y-51391126D01*
X187249662Y-51356759D01*
X187152557Y-51330162D01*
X187106849Y-51314040D01*
X187061120Y-51288707D01*
X186973171Y-51237408D01*
X186848157Y-51163240D01*
X186691236Y-51069300D01*
X186507564Y-50958684D01*
X186302295Y-50834490D01*
X186080587Y-50699814D01*
X185847595Y-50557752D01*
X185845426Y-50556427D01*
X184695163Y-49853753D01*
X184408871Y-49464694D01*
X184315266Y-49335834D01*
X184234307Y-49221227D01*
X184171412Y-49128802D01*
X184131999Y-49066485D01*
X184121005Y-49043476D01*
X184145120Y-49025191D01*
X184210487Y-48995530D01*
X184304997Y-48958655D01*
X184416539Y-48918729D01*
X184533002Y-48879915D01*
X184642278Y-48846377D01*
X184732254Y-48822277D01*
X184790820Y-48811779D01*
X184795432Y-48811631D01*
X184830898Y-48819418D01*
G37*
G36*
X180687754Y-50534810D02*
G01*
X180781695Y-50616002D01*
X180851236Y-50743777D01*
X180895300Y-50914266D01*
X180912807Y-51123599D01*
X180906727Y-51319672D01*
X180896342Y-51438297D01*
X180884873Y-51511517D01*
X180869534Y-51549484D01*
X180847543Y-51562348D01*
X180840037Y-51562834D01*
X180774052Y-51588788D01*
X180727353Y-51665307D01*
X180702197Y-51781360D01*
X180687374Y-51910208D01*
X180541166Y-51918619D01*
X180449831Y-51919834D01*
X180399624Y-51908039D01*
X180377498Y-51881528D01*
X180370067Y-51830571D01*
X180366729Y-51735326D01*
X180367007Y-51606899D01*
X180370423Y-51456394D01*
X180376501Y-51294917D01*
X180384763Y-51133572D01*
X180394731Y-50983464D01*
X180405929Y-50855697D01*
X180417879Y-50761376D01*
X180427509Y-50717895D01*
X180471168Y-50632356D01*
X180530181Y-50561819D01*
X180540907Y-50553102D01*
X180598895Y-50516986D01*
X180644596Y-50515427D01*
X180687754Y-50534810D01*
G37*
G36*
X179972638Y-50518054D02*
G01*
X180020169Y-50545784D01*
X180069940Y-50584670D01*
X180108764Y-50633068D01*
X180138190Y-50698199D01*
X180159767Y-50787282D01*
X180175045Y-50907536D01*
X180185573Y-51066183D01*
X180192899Y-51270440D01*
X180195161Y-51361357D01*
X180208049Y-51924103D01*
X179940545Y-51924103D01*
X179673042Y-51924103D01*
X179668480Y-51514202D01*
X179667251Y-51355515D01*
X179667041Y-51204397D01*
X179667806Y-51075432D01*
X179669502Y-50983208D01*
X179670164Y-50965350D01*
X179692281Y-50830982D01*
X179741235Y-50702557D01*
X179808668Y-50597639D01*
X179871951Y-50541428D01*
X179928450Y-50513490D01*
X179972638Y-50518054D01*
G37*
G36*
X181353574Y-50542886D02*
G01*
X181423667Y-50641741D01*
X181463006Y-50731334D01*
X181489804Y-50835788D01*
X181508679Y-50973419D01*
X181519820Y-51132816D01*
X181523419Y-51302568D01*
X181519665Y-51471264D01*
X181508749Y-51627494D01*
X181490862Y-51759845D01*
X181466193Y-51856909D01*
X181443510Y-51899508D01*
X181402675Y-51921420D01*
X181324018Y-51930984D01*
X181211405Y-51929893D01*
X181012899Y-51921788D01*
X181008680Y-51353135D01*
X181007693Y-51157397D01*
X181008462Y-51008407D01*
X181011633Y-50897344D01*
X181017857Y-50815389D01*
X181027780Y-50753720D01*
X181042052Y-50703517D01*
X181059662Y-50659690D01*
X181125185Y-50551881D01*
X181199340Y-50497068D01*
X181277134Y-50494366D01*
X181353574Y-50542886D01*
G37*
G36*
X179282546Y-50492316D02*
G01*
X179283982Y-50519378D01*
X179299612Y-50554663D01*
X179321240Y-50554046D01*
X179375575Y-50550898D01*
X179413434Y-50592483D01*
X179436953Y-50682493D01*
X179445574Y-50768918D01*
X179454876Y-50861443D01*
X179467989Y-50927120D01*
X179481749Y-50951456D01*
X179503546Y-50928900D01*
X179506302Y-50909771D01*
X179521308Y-50872789D01*
X179534092Y-50868086D01*
X179544520Y-50895276D01*
X179552670Y-50974525D01*
X179558358Y-51102352D01*
X179561401Y-51275276D01*
X179561882Y-51393899D01*
X179561882Y-51919712D01*
X179350638Y-51928855D01*
X179236563Y-51931344D01*
X179166314Y-51925641D01*
X179128527Y-51910137D01*
X179116883Y-51895789D01*
X179093905Y-51826036D01*
X179073194Y-51714910D01*
X179056157Y-51576611D01*
X179044201Y-51425340D01*
X179038732Y-51275298D01*
X179041156Y-51140684D01*
X179041502Y-51134734D01*
X179062263Y-50949772D01*
X179099271Y-50781707D01*
X179149004Y-50642091D01*
X179207937Y-50542475D01*
X179228985Y-50520184D01*
X179268880Y-50487159D01*
X179282546Y-50492316D01*
G37*
G36*
X183940714Y-50517520D02*
G01*
X184033595Y-50545679D01*
X184165333Y-50595353D01*
X184330854Y-50664188D01*
X184525085Y-50749828D01*
X184742953Y-50849919D01*
X184979384Y-50962104D01*
X185229306Y-51084031D01*
X185487643Y-51213342D01*
X185749324Y-51347684D01*
X186009274Y-51484701D01*
X186161991Y-51567046D01*
X186384311Y-51688012D01*
X186583527Y-52063115D01*
X186652723Y-52194436D01*
X186711780Y-52308484D01*
X186756115Y-52396248D01*
X186781143Y-52448719D01*
X186785004Y-52459059D01*
X186770054Y-52478907D01*
X186732210Y-52467498D01*
X186716400Y-52455190D01*
X186685911Y-52436908D01*
X186612015Y-52396800D01*
X186500912Y-52338106D01*
X186358801Y-52264067D01*
X186191883Y-52177921D01*
X186006358Y-52082909D01*
X185911882Y-52034782D01*
X185718505Y-51935246D01*
X185540098Y-51841124D01*
X185383033Y-51755959D01*
X185253682Y-51683291D01*
X185158419Y-51626663D01*
X185103614Y-51589614D01*
X185093742Y-51580118D01*
X185009167Y-51477344D01*
X184883977Y-51355099D01*
X184726365Y-51220499D01*
X184544527Y-51080657D01*
X184403531Y-50980943D01*
X184249433Y-50871713D01*
X184115842Y-50769110D01*
X184007746Y-50677694D01*
X183930130Y-50602020D01*
X183887983Y-50546646D01*
X183886290Y-50516130D01*
X183891764Y-50513231D01*
X183940714Y-50517520D01*
G37*
G36*
X176637337Y-50518742D02*
G01*
X176626398Y-50544346D01*
X176589020Y-50608415D01*
X176529905Y-50703378D01*
X176453755Y-50821664D01*
X176375389Y-50940531D01*
X176102035Y-51350915D01*
X175810241Y-51475701D01*
X175725993Y-51513521D01*
X175606299Y-51569757D01*
X175457879Y-51641047D01*
X175287454Y-51724028D01*
X175101743Y-51815338D01*
X174907469Y-51911614D01*
X174711351Y-52009494D01*
X174520111Y-52105614D01*
X174340468Y-52196614D01*
X174179144Y-52279130D01*
X174042859Y-52349800D01*
X173938334Y-52405261D01*
X173872290Y-52442151D01*
X173852440Y-52455229D01*
X173810883Y-52479288D01*
X173795152Y-52459626D01*
X173801633Y-52431270D01*
X173822948Y-52384797D01*
X173863195Y-52304805D01*
X173914654Y-52206545D01*
X173928813Y-52180079D01*
X173992142Y-52061372D01*
X174056349Y-51939601D01*
X174108222Y-51839834D01*
X174111105Y-51834216D01*
X174133907Y-51791904D01*
X174158929Y-51753860D01*
X174190903Y-51717156D01*
X174234568Y-51678865D01*
X174294657Y-51636063D01*
X174375907Y-51585821D01*
X174483053Y-51525214D01*
X174620831Y-51451314D01*
X174793976Y-51361196D01*
X175007224Y-51251932D01*
X175265311Y-51120597D01*
X175268337Y-51119059D01*
X175459467Y-51023660D01*
X175656044Y-50928638D01*
X175851470Y-50836887D01*
X176039149Y-50751299D01*
X176212482Y-50674767D01*
X176364873Y-50610185D01*
X176489723Y-50560445D01*
X176580435Y-50528441D01*
X176630412Y-50517066D01*
X176637337Y-50518742D01*
G37*
G36*
X182590830Y-50167662D02*
G01*
X182581611Y-50296068D01*
X182557201Y-50415013D01*
X182522019Y-50506706D01*
X182498198Y-50540616D01*
X182480921Y-50581579D01*
X182461266Y-50664943D01*
X182441886Y-50777757D01*
X182428198Y-50881981D01*
X182361536Y-51254034D01*
X182250208Y-51604257D01*
X182096796Y-51926320D01*
X181903884Y-52213891D01*
X181865407Y-52261213D01*
X181789086Y-52345356D01*
X181710802Y-52420765D01*
X181664485Y-52458481D01*
X181576652Y-52520676D01*
X181621244Y-52451657D01*
X181755360Y-52213575D01*
X181878798Y-51935267D01*
X181985899Y-51631859D01*
X182071006Y-51318478D01*
X182103698Y-51161946D01*
X182138998Y-50996064D01*
X182176205Y-50875684D01*
X182219713Y-50790783D01*
X182273914Y-50731337D01*
X182301163Y-50711393D01*
X182355876Y-50653321D01*
X182363112Y-50606919D01*
X182346538Y-50567968D01*
X182301348Y-50547787D01*
X182236663Y-50539956D01*
X182161350Y-50530272D01*
X182126882Y-50509928D01*
X182118557Y-50470145D01*
X182118556Y-50469422D01*
X182131059Y-50408103D01*
X182162670Y-50324671D01*
X182181083Y-50286215D01*
X182222815Y-50216114D01*
X182270963Y-50168644D01*
X182343014Y-50130089D01*
X182417298Y-50100964D01*
X182590985Y-50036931D01*
X182590830Y-50167662D01*
G37*
G36*
X181799685Y-50893797D02*
G01*
X181835336Y-50962739D01*
X181866473Y-51062628D01*
X181889521Y-51181177D01*
X181900904Y-51306100D01*
X181901507Y-51343664D01*
X181886568Y-51529873D01*
X181846284Y-51738229D01*
X181785493Y-51954597D01*
X181709038Y-52164846D01*
X181621757Y-52354840D01*
X181528491Y-52510448D01*
X181481268Y-52570779D01*
X181416301Y-52636978D01*
X181369280Y-52670140D01*
X181346578Y-52667492D01*
X181354569Y-52626264D01*
X181354762Y-52625799D01*
X181489585Y-52265640D01*
X181597229Y-51901053D01*
X181674152Y-51546188D01*
X181716808Y-51215195D01*
X181720132Y-51166828D01*
X181729556Y-51045549D01*
X181741279Y-50947944D01*
X181753673Y-50885346D01*
X181763095Y-50868086D01*
X181799685Y-50893797D01*
G37*
G36*
X178147491Y-50099441D02*
G01*
X178247696Y-50140040D01*
X178311411Y-50179114D01*
X178355719Y-50229943D01*
X178387757Y-50286215D01*
X178425159Y-50371120D01*
X178447501Y-50445771D01*
X178450284Y-50469422D01*
X178442215Y-50509534D01*
X178408206Y-50530085D01*
X178333553Y-50539856D01*
X178332177Y-50539956D01*
X178242081Y-50559857D01*
X178202650Y-50600238D01*
X178214641Y-50657115D01*
X178278811Y-50726504D01*
X178294354Y-50738794D01*
X178371853Y-50813027D01*
X178441537Y-50903621D01*
X178453681Y-50923767D01*
X178507382Y-51003203D01*
X178553846Y-51031512D01*
X178599670Y-51011396D01*
X178618545Y-50991308D01*
X178663291Y-50952555D01*
X178728617Y-50910038D01*
X178791495Y-50877564D01*
X178824068Y-50868086D01*
X178831913Y-50893416D01*
X178837424Y-50959589D01*
X178839344Y-51045360D01*
X178850542Y-51238580D01*
X178881917Y-51467270D01*
X178930134Y-51716537D01*
X178991862Y-51971487D01*
X179063767Y-52217226D01*
X179142516Y-52438862D01*
X179161728Y-52486012D01*
X179205663Y-52594868D01*
X179222979Y-52656243D01*
X179210098Y-52673238D01*
X179163440Y-52648951D01*
X179079426Y-52586482D01*
X179061663Y-52572671D01*
X178935710Y-52473530D01*
X178843487Y-52397552D01*
X178774246Y-52334566D01*
X178717241Y-52274401D01*
X178661726Y-52206887D01*
X178625957Y-52160331D01*
X178444709Y-51880906D01*
X178304050Y-51572853D01*
X178202404Y-51231766D01*
X178138194Y-50853237D01*
X178129734Y-50772954D01*
X178106787Y-50629702D01*
X178070489Y-50528347D01*
X178057343Y-50507508D01*
X178015964Y-50415097D01*
X177989975Y-50270238D01*
X177986544Y-50234172D01*
X177969752Y-50033885D01*
X178147491Y-50099441D01*
G37*
G36*
X186523117Y-52684441D02*
G01*
X186592219Y-52701721D01*
X186678267Y-52730820D01*
X186803839Y-52788844D01*
X186912942Y-52866955D01*
X187018561Y-52976187D01*
X187116140Y-53102920D01*
X187159589Y-53166980D01*
X187177186Y-53207466D01*
X187163807Y-53225203D01*
X187114329Y-53221017D01*
X187023626Y-53195732D01*
X186886576Y-53150175D01*
X186866183Y-53143183D01*
X186625518Y-53060523D01*
X186549240Y-52881048D01*
X186513789Y-52789995D01*
X186492513Y-52719834D01*
X186489722Y-52684954D01*
X186490258Y-52684275D01*
X186523117Y-52684441D01*
G37*
G36*
X182937900Y-50820667D02*
G01*
X182948439Y-50882333D01*
X182944328Y-50961712D01*
X182944080Y-50963267D01*
X182946415Y-51064423D01*
X182968431Y-51131969D01*
X182991856Y-51212642D01*
X183005088Y-51341180D01*
X183007834Y-51454726D01*
X183007834Y-51701535D01*
X183612265Y-52006318D01*
X184216696Y-52311102D01*
X184008271Y-52291290D01*
X183887633Y-52282744D01*
X183735558Y-52276132D01*
X183576179Y-52272367D01*
X183494158Y-52271841D01*
X183350372Y-52273642D01*
X183248136Y-52279982D01*
X183173477Y-52292865D01*
X183112422Y-52314297D01*
X183077308Y-52331663D01*
X182987068Y-52387618D01*
X182915112Y-52446294D01*
X182869721Y-52498960D01*
X182859179Y-52536886D01*
X182871669Y-52548464D01*
X182918400Y-52564935D01*
X182997613Y-52592093D01*
X183061799Y-52613819D01*
X183145576Y-52646189D01*
X183204536Y-52676789D01*
X183222683Y-52693706D01*
X183204163Y-52718151D01*
X183146303Y-52753157D01*
X183071453Y-52787009D01*
X182973346Y-52828799D01*
X182887123Y-52869886D01*
X182843898Y-52893855D01*
X182796571Y-52943349D01*
X182743132Y-53026715D01*
X182693528Y-53124613D01*
X182657702Y-53217706D01*
X182645485Y-53279655D01*
X182637237Y-53330374D01*
X182616887Y-53413890D01*
X182589056Y-53514541D01*
X182558365Y-53616665D01*
X182529433Y-53704602D01*
X182506882Y-53762690D01*
X182499018Y-53776099D01*
X182481427Y-53773960D01*
X182479825Y-53762470D01*
X182483894Y-53703055D01*
X182495449Y-53595526D01*
X182513515Y-53446701D01*
X182537117Y-53263400D01*
X182565279Y-53052439D01*
X182597024Y-52820637D01*
X182631377Y-52574813D01*
X182667363Y-52321784D01*
X182704006Y-52068369D01*
X182740329Y-51821385D01*
X182775358Y-51587651D01*
X182808116Y-51373986D01*
X182837629Y-51187207D01*
X182862919Y-51034132D01*
X182883011Y-50921580D01*
X182894030Y-50868086D01*
X182911000Y-50809061D01*
X182925571Y-50799396D01*
X182937900Y-50820667D01*
G37*
G36*
X177433464Y-50128721D02*
G01*
X177463569Y-50186191D01*
X177499803Y-50271800D01*
X177539493Y-50379343D01*
X177579963Y-50502609D01*
X177618540Y-50635393D01*
X177645706Y-50742049D01*
X177679000Y-50895514D01*
X177715402Y-51086921D01*
X177754232Y-51310831D01*
X177794808Y-51561807D01*
X177836448Y-51834412D01*
X177878471Y-52123208D01*
X177920195Y-52422757D01*
X177960939Y-52727622D01*
X178000022Y-53032365D01*
X178036761Y-53331548D01*
X178070475Y-53619735D01*
X178100483Y-53891488D01*
X178126104Y-54141368D01*
X178146655Y-54363938D01*
X178161455Y-54553762D01*
X178169823Y-54705400D01*
X178171077Y-54813416D01*
X178164536Y-54872372D01*
X178163678Y-54874748D01*
X178149567Y-54897757D01*
X178146789Y-54893749D01*
X178141036Y-54859814D01*
X178127726Y-54785611D01*
X178109445Y-54685518D01*
X178104291Y-54657534D01*
X178088216Y-54563379D01*
X178066525Y-54426167D01*
X178041030Y-54257925D01*
X178013546Y-54070677D01*
X177985888Y-53876448D01*
X177979090Y-53827714D01*
X177952583Y-53641696D01*
X177926460Y-53467200D01*
X177902318Y-53314235D01*
X177881753Y-53192809D01*
X177866362Y-53112932D01*
X177862461Y-53096524D01*
X177823510Y-53002661D01*
X177756062Y-52924865D01*
X177651269Y-52855618D01*
X177500284Y-52787398D01*
X177497387Y-52786252D01*
X177415234Y-52748983D01*
X177360752Y-52714936D01*
X177346157Y-52693706D01*
X177375871Y-52669722D01*
X177442584Y-52637919D01*
X177507041Y-52613819D01*
X177596977Y-52583313D01*
X177668644Y-52558607D01*
X177697172Y-52548464D01*
X177709844Y-52522656D01*
X177682983Y-52477142D01*
X177624827Y-52420622D01*
X177543616Y-52361796D01*
X177491532Y-52331300D01*
X177436279Y-52305203D01*
X177377593Y-52288055D01*
X177302535Y-52278176D01*
X177198167Y-52273885D01*
X177051548Y-52273500D01*
X177046893Y-52273528D01*
X176953127Y-52274563D01*
X176870646Y-52277367D01*
X176791799Y-52283372D01*
X176708930Y-52294008D01*
X176614387Y-52310708D01*
X176500516Y-52334900D01*
X176359663Y-52368018D01*
X176184177Y-52411491D01*
X175966402Y-52466751D01*
X175838031Y-52499564D01*
X175550658Y-52572779D01*
X175313536Y-52632444D01*
X175123218Y-52679350D01*
X174976258Y-52714290D01*
X174869209Y-52738054D01*
X174798624Y-52751435D01*
X174761056Y-52755222D01*
X174753059Y-52750208D01*
X174754596Y-52748327D01*
X174782805Y-52735613D01*
X174857044Y-52705488D01*
X174971368Y-52660232D01*
X175119834Y-52602122D01*
X175296496Y-52533441D01*
X175495410Y-52456466D01*
X175710632Y-52373477D01*
X175936216Y-52286755D01*
X176166218Y-52198578D01*
X176394694Y-52111226D01*
X176615699Y-52026978D01*
X176823288Y-51948114D01*
X177011517Y-51876914D01*
X177174441Y-51815657D01*
X177306116Y-51766623D01*
X177400597Y-51732091D01*
X177446569Y-51716057D01*
X177596136Y-51667089D01*
X177577830Y-51469065D01*
X177567626Y-51373819D01*
X177551181Y-51237781D01*
X177530302Y-51075151D01*
X177506798Y-50900130D01*
X177490724Y-50784716D01*
X177467145Y-50617861D01*
X177445209Y-50462279D01*
X177426553Y-50329610D01*
X177412813Y-50231494D01*
X177406672Y-50187232D01*
X177402341Y-50123034D01*
X177412163Y-50105600D01*
X177433464Y-50128721D01*
G37*
G36*
X179981432Y-52988522D02*
G01*
X179992401Y-53033998D01*
X180005292Y-53127093D01*
X180019549Y-53259900D01*
X180034613Y-53424513D01*
X180049929Y-53613027D01*
X180064939Y-53817536D01*
X180079087Y-54030133D01*
X180091816Y-54242912D01*
X180102569Y-54447967D01*
X180110788Y-54637393D01*
X180115918Y-54803284D01*
X180117432Y-54919301D01*
X180117680Y-55177189D01*
X180201050Y-55115552D01*
X180284420Y-55053914D01*
X180367790Y-55115552D01*
X180451160Y-55177189D01*
X180451408Y-54933196D01*
X180453581Y-54793106D01*
X180459461Y-54621576D01*
X180468463Y-54426854D01*
X180480002Y-54217185D01*
X180493490Y-54000815D01*
X180508344Y-53785991D01*
X180523977Y-53580960D01*
X180539804Y-53393966D01*
X180555239Y-53233257D01*
X180569696Y-53107079D01*
X180582590Y-53023678D01*
X180588760Y-52999152D01*
X180603830Y-52996031D01*
X180633265Y-53035835D01*
X180678522Y-53121174D01*
X180741058Y-53254657D01*
X180779364Y-53340504D01*
X180909179Y-53653023D01*
X181005780Y-53927581D01*
X181070846Y-54169479D01*
X181104052Y-54365561D01*
X181116345Y-54459452D01*
X181128456Y-54506861D01*
X181144444Y-54516723D01*
X181165506Y-54500879D01*
X181205071Y-54438135D01*
X181248128Y-54330049D01*
X181291597Y-54186469D01*
X181332395Y-54017241D01*
X181358526Y-53884247D01*
X181387317Y-53736335D01*
X181411051Y-53643743D01*
X181429708Y-53606442D01*
X181443262Y-53624400D01*
X181451691Y-53697589D01*
X181454971Y-53825976D01*
X181453105Y-54008348D01*
X181448514Y-54112338D01*
X181440415Y-54207010D01*
X181435239Y-54244563D01*
X181420602Y-54327933D01*
X181473808Y-54261625D01*
X181519781Y-54220943D01*
X181546973Y-54230278D01*
X181549280Y-54286248D01*
X181543422Y-54334130D01*
X181534248Y-54418533D01*
X181524380Y-54514884D01*
X181476086Y-54782653D01*
X181385626Y-55062810D01*
X181292285Y-55272790D01*
X181245274Y-55365787D01*
X181208131Y-55437439D01*
X181187502Y-55474978D01*
X181185797Y-55477437D01*
X181158949Y-55470735D01*
X181103050Y-55441684D01*
X181081562Y-55428805D01*
X181013729Y-55391273D01*
X180963502Y-55371139D01*
X180955900Y-55370055D01*
X180926143Y-55391816D01*
X180878772Y-55448583D01*
X180829484Y-55519834D01*
X180774292Y-55601336D01*
X180726455Y-55663682D01*
X180699717Y-55690599D01*
X180662297Y-55682125D01*
X180595412Y-55632358D01*
X180503120Y-55544339D01*
X180499690Y-55540819D01*
X180419784Y-55463057D01*
X180350781Y-55403836D01*
X180304030Y-55372617D01*
X180294849Y-55370055D01*
X180259258Y-55388014D01*
X180194123Y-55436458D01*
X180109860Y-55507236D01*
X180046280Y-55564585D01*
X179955064Y-55645958D01*
X179876015Y-55710612D01*
X179819480Y-55750407D01*
X179799032Y-55759114D01*
X179770598Y-55734497D01*
X179736875Y-55670130D01*
X179713569Y-55606461D01*
X179681118Y-55513754D01*
X179648832Y-55438015D01*
X179631517Y-55407259D01*
X179605090Y-55379973D01*
X179573919Y-55382149D01*
X179519702Y-55416123D01*
X179510396Y-55422720D01*
X179446849Y-55458032D01*
X179398709Y-55467682D01*
X179391712Y-55465200D01*
X179361787Y-55427962D01*
X179318467Y-55350937D01*
X179267371Y-55246564D01*
X179214119Y-55127284D01*
X179164329Y-55005535D01*
X179123621Y-54893758D01*
X179102953Y-54825929D01*
X179076924Y-54706095D01*
X179054901Y-54566150D01*
X179044307Y-54466882D01*
X179029495Y-54272353D01*
X179085363Y-54341412D01*
X179129176Y-54382918D01*
X179160523Y-54390883D01*
X179162097Y-54389606D01*
X179168602Y-54353722D01*
X179166350Y-54278520D01*
X179155887Y-54179481D01*
X179154245Y-54167702D01*
X179141804Y-54068146D01*
X179135621Y-53991990D01*
X179136850Y-53954087D01*
X179137552Y-53952812D01*
X179161765Y-53957985D01*
X179196372Y-54006972D01*
X179236193Y-54090238D01*
X179276049Y-54198244D01*
X179283331Y-54221206D01*
X179328782Y-54352514D01*
X179372070Y-54448114D01*
X179409546Y-54500668D01*
X179426239Y-54508567D01*
X179438376Y-54483223D01*
X179454606Y-54416047D01*
X179471847Y-54320319D01*
X179475592Y-54295927D01*
X179500806Y-54163880D01*
X179538414Y-54010045D01*
X179580946Y-53864544D01*
X179587610Y-53844340D01*
X179632254Y-53719990D01*
X179685938Y-53583343D01*
X179744704Y-53443001D01*
X179804593Y-53307567D01*
X179861647Y-53185644D01*
X179911907Y-53085835D01*
X179951414Y-53016741D01*
X179976210Y-52986966D01*
X179981432Y-52988522D01*
G37*
G36*
X179576317Y-55474614D02*
G01*
X179588552Y-55532058D01*
X179590222Y-55583111D01*
X179594795Y-55685027D01*
X179606063Y-55810321D01*
X179617746Y-55903932D01*
X179644720Y-56090436D01*
X179435217Y-56299939D01*
X179348053Y-56385682D01*
X179275438Y-56454455D01*
X179226159Y-56498097D01*
X179209592Y-56509442D01*
X179203697Y-56483963D01*
X179202506Y-56416391D01*
X179206134Y-56320020D01*
X179207735Y-56294070D01*
X179235913Y-56080020D01*
X179288783Y-55877010D01*
X179361442Y-55700552D01*
X179430635Y-55588779D01*
X179501514Y-55502827D01*
X179548689Y-55464821D01*
X179576317Y-55474614D01*
G37*
G36*
X181044913Y-55475893D02*
G01*
X181098075Y-55534765D01*
X181157937Y-55617240D01*
X181214925Y-55710518D01*
X181246617Y-55772434D01*
X181286976Y-55873753D01*
X181328261Y-56000290D01*
X181358025Y-56110652D01*
X181381526Y-56215861D01*
X181390975Y-56287765D01*
X181385841Y-56346968D01*
X181365592Y-56414076D01*
X181349039Y-56458602D01*
X181313895Y-56543567D01*
X181282324Y-56589161D01*
X181241047Y-56608977D01*
X181196203Y-56615060D01*
X181119721Y-56610934D01*
X181072111Y-56587926D01*
X181071590Y-56587270D01*
X181050813Y-56544229D01*
X181023514Y-56466791D01*
X180993740Y-56369599D01*
X180965540Y-56267297D01*
X180942959Y-56174528D01*
X180930046Y-56105934D01*
X180930420Y-56076499D01*
X180954118Y-56086826D01*
X180994329Y-56131059D01*
X181005819Y-56146573D01*
X181050003Y-56201767D01*
X181082473Y-56230415D01*
X181086564Y-56231543D01*
X181097890Y-56206194D01*
X181099935Y-56137972D01*
X181093755Y-56038613D01*
X181080407Y-55919855D01*
X181060948Y-55793434D01*
X181036434Y-55671086D01*
X181035907Y-55668797D01*
X181015344Y-55568738D01*
X181004643Y-55493409D01*
X181005454Y-55455566D01*
X181008026Y-55453425D01*
X181044913Y-55475893D01*
G37*
G36*
X179644028Y-56378468D02*
G01*
X179683063Y-56411534D01*
X179721498Y-56483404D01*
X179723836Y-56488600D01*
X179751810Y-56562047D01*
X179762312Y-56613345D01*
X179759625Y-56624746D01*
X179723549Y-56636710D01*
X179649417Y-56648062D01*
X179554746Y-56657448D01*
X179457056Y-56663510D01*
X179373865Y-56664893D01*
X179322691Y-56660240D01*
X179318720Y-56658878D01*
X179286592Y-56625589D01*
X179302168Y-56572701D01*
X179366352Y-56497993D01*
X179395222Y-56470991D01*
X179499308Y-56395321D01*
X179588700Y-56370493D01*
X179644028Y-56378468D01*
G37*
%TD*%
M02*
