%TF.GenerationSoftware,KiCad,Pcbnew,7.0.1*%
%TF.CreationDate,2023-03-23T04:50:55+01:00*%
%TF.ProjectId,Tiamat_v01_badge,5469616d-6174-45f7-9630-315f62616467,rev?*%
%TF.SameCoordinates,Original*%
%TF.FileFunction,Drillmap*%
%TF.FilePolarity,Positive*%
%FSLAX45Y45*%
G04 Gerber Fmt 4.5, Leading zero omitted, Abs format (unit mm)*
G04 Created by KiCad (PCBNEW 7.0.1) date 2023-03-23 04:50:55*
%MOMM*%
%LPD*%
G01*
G04 APERTURE LIST*
%ADD10C,0.150000*%
%ADD11C,0.200000*%
%ADD12C,0.175000*%
%ADD13C,0.300000*%
%ADD14C,0.304800*%
%ADD15C,0.398780*%
G04 APERTURE END LIST*
D10*
X2299000Y-2222500D02*
G75*
G03*
X2099000Y-2422500I0J-200000D01*
G01*
X7455110Y-10804285D02*
G75*
G03*
X7255115Y-10604500I-200000J-215D01*
G01*
X16392500Y-6933730D02*
G75*
G03*
X16192500Y-7133730I0J-200000D01*
G01*
X15992500Y-10196730D02*
G75*
G03*
X16192500Y-9996730I0J200000D01*
G01*
X19939000Y-3375000D02*
G75*
G03*
X19739000Y-3175000I-200000J0D01*
G01*
X15875000Y-2522500D02*
G75*
G03*
X15575000Y-2222500I-300000J0D01*
G01*
X15875000Y-2875000D02*
G75*
G03*
X16175000Y-3175000I300000J0D01*
G01*
X16175000Y-3175000D02*
X19739000Y-3175000D01*
X15875000Y-2522500D02*
X15875000Y-2875000D01*
X15780713Y-13068289D02*
G75*
G03*
X15691885Y-12865350I-491083J-94041D01*
G01*
X13822721Y-14494867D02*
G75*
G03*
X13688533Y-14251424I-487721J-110133D01*
G01*
X16132229Y-15977345D02*
G75*
G03*
X16292882Y-15742954I-35779J196775D01*
G01*
X14193123Y-16135210D02*
G75*
G03*
X14423985Y-16287933I195087J44050D01*
G01*
X14193120Y-16135211D02*
X13822720Y-14494867D01*
X12003903Y-12566979D02*
G75*
G03*
X11689325Y-12422074I-353533J-353581D01*
G01*
X19739000Y-6933730D02*
G75*
G03*
X19939000Y-6733730I0J200000D01*
G01*
X11689325Y-12422074D02*
X8780399Y-12194730D01*
X16132228Y-15977343D02*
X14423985Y-16287933D01*
X13688533Y-14251424D02*
X12003901Y-12566981D01*
X15780712Y-13068289D02*
X16292882Y-15742954D01*
X14073385Y-10673105D02*
X15691885Y-12865350D01*
X19939000Y-6733730D02*
X19939000Y-3375000D01*
X16392500Y-6933730D02*
X19739000Y-6933730D01*
X14316061Y-10196730D02*
G75*
G03*
X14073385Y-10673105I0J-300000D01*
G01*
X7456500Y-12094730D02*
G75*
G03*
X7556500Y-12194730I100000J0D01*
G01*
X16192500Y-9996730D02*
X16192500Y-7133730D01*
X7455114Y-10804285D02*
X7456500Y-12094730D01*
X2099000Y-10504500D02*
X2099000Y-2422500D01*
X7556500Y-12194730D02*
X8780399Y-12194730D01*
X2099000Y-10504500D02*
G75*
G03*
X2199000Y-10604500I100000J0D01*
G01*
X2199000Y-10604500D02*
X7255115Y-10604500D01*
X14316061Y-10196730D02*
X15992500Y-10196730D01*
X2299000Y-2222500D02*
X15575000Y-2222500D01*
D11*
D12*
X2527350Y-3443730D02*
X2702350Y-3618730D01*
X2702350Y-3443730D02*
X2527350Y-3618730D01*
X2527350Y-5463730D02*
X2702350Y-5638730D01*
X2702350Y-5463730D02*
X2527350Y-5638730D01*
X2527350Y-7483730D02*
X2702350Y-7658730D01*
X2702350Y-7483730D02*
X2527350Y-7658730D01*
X2527350Y-9503730D02*
X2702350Y-9678730D01*
X2702350Y-9503730D02*
X2527350Y-9678730D01*
X3543350Y-3443730D02*
X3718350Y-3618730D01*
X3718350Y-3443730D02*
X3543350Y-3618730D01*
X3543350Y-5463730D02*
X3718350Y-5638730D01*
X3718350Y-5463730D02*
X3543350Y-5638730D01*
X3543350Y-7483730D02*
X3718350Y-7658730D01*
X3718350Y-7483730D02*
X3543350Y-7658730D01*
X3543350Y-9503730D02*
X3718350Y-9678730D01*
X3718350Y-9503730D02*
X3543350Y-9678730D01*
X4495850Y-3153730D02*
X4670850Y-3328730D01*
X4670850Y-3153730D02*
X4495850Y-3328730D01*
X4495850Y-5122230D02*
X4670850Y-5297230D01*
X4670850Y-5122230D02*
X4495850Y-5297230D01*
X4495850Y-7090730D02*
X4670850Y-7265730D01*
X4670850Y-7090730D02*
X4495850Y-7265730D01*
X4495850Y-9059230D02*
X4670850Y-9234230D01*
X4670850Y-9059230D02*
X4495850Y-9234230D01*
X5511850Y-3153730D02*
X5686850Y-3328730D01*
X5686850Y-3153730D02*
X5511850Y-3328730D01*
X5511850Y-5122230D02*
X5686850Y-5297230D01*
X5686850Y-5122230D02*
X5511850Y-5297230D01*
X5511850Y-7090730D02*
X5686850Y-7265730D01*
X5686850Y-7090730D02*
X5511850Y-7265730D01*
X5511850Y-9059230D02*
X5686850Y-9234230D01*
X5686850Y-9059230D02*
X5511850Y-9234230D01*
X6464350Y-3153730D02*
X6639350Y-3328730D01*
X6639350Y-3153730D02*
X6464350Y-3328730D01*
X6464350Y-5122230D02*
X6639350Y-5297230D01*
X6639350Y-5122230D02*
X6464350Y-5297230D01*
X6464350Y-7090730D02*
X6639350Y-7265730D01*
X6639350Y-7090730D02*
X6464350Y-7265730D01*
X6464350Y-9059230D02*
X6639350Y-9234230D01*
X6639350Y-9059230D02*
X6464350Y-9234230D01*
X7480350Y-3153730D02*
X7655350Y-3328730D01*
X7655350Y-3153730D02*
X7480350Y-3328730D01*
X7480350Y-5122230D02*
X7655350Y-5297230D01*
X7655350Y-5122230D02*
X7480350Y-5297230D01*
X7480350Y-7090730D02*
X7655350Y-7265730D01*
X7655350Y-7090730D02*
X7480350Y-7265730D01*
X7480350Y-9059230D02*
X7655350Y-9234230D01*
X7655350Y-9059230D02*
X7480350Y-9234230D01*
X7924850Y-11027730D02*
X8099850Y-11202730D01*
X8099850Y-11027730D02*
X7924850Y-11202730D01*
X8432850Y-3153730D02*
X8607850Y-3328730D01*
X8607850Y-3153730D02*
X8432850Y-3328730D01*
X8432850Y-5122230D02*
X8607850Y-5297230D01*
X8607850Y-5122230D02*
X8432850Y-5297230D01*
X8432850Y-7090730D02*
X8607850Y-7265730D01*
X8607850Y-7090730D02*
X8432850Y-7265730D01*
X8432850Y-9059230D02*
X8607850Y-9234230D01*
X8607850Y-9059230D02*
X8432850Y-9234230D01*
X8940850Y-11027730D02*
X9115850Y-11202730D01*
X9115850Y-11027730D02*
X8940850Y-11202730D01*
X9448850Y-3153730D02*
X9623850Y-3328730D01*
X9623850Y-3153730D02*
X9448850Y-3328730D01*
X9448850Y-5122230D02*
X9623850Y-5297230D01*
X9623850Y-5122230D02*
X9448850Y-5297230D01*
X9448850Y-7090730D02*
X9623850Y-7265730D01*
X9623850Y-7090730D02*
X9448850Y-7265730D01*
X9448850Y-9059230D02*
X9623850Y-9234230D01*
X9623850Y-9059230D02*
X9448850Y-9234230D01*
X9893350Y-11027730D02*
X10068350Y-11202730D01*
X10068350Y-11027730D02*
X9893350Y-11202730D01*
X10401350Y-3153730D02*
X10576350Y-3328730D01*
X10576350Y-3153730D02*
X10401350Y-3328730D01*
X10401350Y-5122230D02*
X10576350Y-5297230D01*
X10576350Y-5122230D02*
X10401350Y-5297230D01*
X10401350Y-7090730D02*
X10576350Y-7265730D01*
X10576350Y-7090730D02*
X10401350Y-7265730D01*
X10401350Y-9059230D02*
X10576350Y-9234230D01*
X10576350Y-9059230D02*
X10401350Y-9234230D01*
X10909350Y-11027730D02*
X11084350Y-11202730D01*
X11084350Y-11027730D02*
X10909350Y-11202730D01*
X11417350Y-3153730D02*
X11592350Y-3328730D01*
X11592350Y-3153730D02*
X11417350Y-3328730D01*
X11417350Y-5122230D02*
X11592350Y-5297230D01*
X11592350Y-5122230D02*
X11417350Y-5297230D01*
X11417350Y-7090730D02*
X11592350Y-7265730D01*
X11592350Y-7090730D02*
X11417350Y-7265730D01*
X11417350Y-9059230D02*
X11592350Y-9234230D01*
X11592350Y-9059230D02*
X11417350Y-9234230D01*
X12369850Y-5122230D02*
X12544850Y-5297230D01*
X12544850Y-5122230D02*
X12369850Y-5297230D01*
X12369850Y-7090730D02*
X12544850Y-7265730D01*
X12544850Y-7090730D02*
X12369850Y-7265730D01*
X12369850Y-9059230D02*
X12544850Y-9234230D01*
X12544850Y-9059230D02*
X12369850Y-9234230D01*
X13059314Y-11773429D02*
X13234314Y-11948429D01*
X13234314Y-11773429D02*
X13059314Y-11948429D01*
X13068350Y-3153730D02*
X13243350Y-3328730D01*
X13243350Y-3153730D02*
X13068350Y-3328730D01*
X13385850Y-5122230D02*
X13560850Y-5297230D01*
X13560850Y-5122230D02*
X13385850Y-5297230D01*
X13385850Y-7090730D02*
X13560850Y-7265730D01*
X13560850Y-7090730D02*
X13385850Y-7265730D01*
X13385850Y-9059230D02*
X13560850Y-9234230D01*
X13560850Y-9059230D02*
X13385850Y-9234230D01*
X13712386Y-12551730D02*
X13887386Y-12726730D01*
X13887386Y-12551730D02*
X13712386Y-12726730D01*
X14084350Y-3153730D02*
X14259350Y-3328730D01*
X14259350Y-3153730D02*
X14084350Y-3328730D01*
X14338350Y-5122230D02*
X14513350Y-5297230D01*
X14513350Y-5122230D02*
X14338350Y-5297230D01*
X14338350Y-7090730D02*
X14513350Y-7265730D01*
X14513350Y-7090730D02*
X14338350Y-7265730D01*
X14338350Y-9059230D02*
X14513350Y-9234230D01*
X14513350Y-9059230D02*
X14338350Y-9234230D01*
X14923923Y-14535665D02*
X15098923Y-14710665D01*
X15098923Y-14535665D02*
X14923923Y-14710665D01*
X15100350Y-15536230D02*
X15275350Y-15711230D01*
X15275350Y-15536230D02*
X15100350Y-15711230D01*
X15354350Y-5122230D02*
X15529350Y-5297230D01*
X15529350Y-5122230D02*
X15354350Y-5297230D01*
X15354350Y-7090730D02*
X15529350Y-7265730D01*
X15529350Y-7090730D02*
X15354350Y-7265730D01*
X15354350Y-9059230D02*
X15529350Y-9234230D01*
X15529350Y-9059230D02*
X15354350Y-9234230D01*
D13*
X2891850Y-3277230D02*
G75*
G03*
X2891850Y-3277230I-150000J0D01*
G01*
X2891850Y-5297230D02*
G75*
G03*
X2891850Y-5297230I-150000J0D01*
G01*
X2891850Y-7317230D02*
G75*
G03*
X2891850Y-7317230I-150000J0D01*
G01*
X2891850Y-9337230D02*
G75*
G03*
X2891850Y-9337230I-150000J0D01*
G01*
X3526850Y-3023230D02*
G75*
G03*
X3526850Y-3023230I-150000J0D01*
G01*
X3526850Y-5043230D02*
G75*
G03*
X3526850Y-5043230I-150000J0D01*
G01*
X3526850Y-7063230D02*
G75*
G03*
X3526850Y-7063230I-150000J0D01*
G01*
X3526850Y-9083230D02*
G75*
G03*
X3526850Y-9083230I-150000J0D01*
G01*
X4860350Y-2987230D02*
G75*
G03*
X4860350Y-2987230I-150000J0D01*
G01*
X4860350Y-4955730D02*
G75*
G03*
X4860350Y-4955730I-150000J0D01*
G01*
X4860350Y-6924230D02*
G75*
G03*
X4860350Y-6924230I-150000J0D01*
G01*
X4860350Y-8892730D02*
G75*
G03*
X4860350Y-8892730I-150000J0D01*
G01*
X5495350Y-2733230D02*
G75*
G03*
X5495350Y-2733230I-150000J0D01*
G01*
X5495350Y-4701730D02*
G75*
G03*
X5495350Y-4701730I-150000J0D01*
G01*
X5495350Y-6670230D02*
G75*
G03*
X5495350Y-6670230I-150000J0D01*
G01*
X5495350Y-8638730D02*
G75*
G03*
X5495350Y-8638730I-150000J0D01*
G01*
X6828850Y-2987230D02*
G75*
G03*
X6828850Y-2987230I-150000J0D01*
G01*
X6828850Y-4955730D02*
G75*
G03*
X6828850Y-4955730I-150000J0D01*
G01*
X6828850Y-6924230D02*
G75*
G03*
X6828850Y-6924230I-150000J0D01*
G01*
X6828850Y-8892730D02*
G75*
G03*
X6828850Y-8892730I-150000J0D01*
G01*
X7463850Y-2733230D02*
G75*
G03*
X7463850Y-2733230I-150000J0D01*
G01*
X7463850Y-4701730D02*
G75*
G03*
X7463850Y-4701730I-150000J0D01*
G01*
X7463850Y-6670230D02*
G75*
G03*
X7463850Y-6670230I-150000J0D01*
G01*
X7463850Y-8638730D02*
G75*
G03*
X7463850Y-8638730I-150000J0D01*
G01*
X8289350Y-10861230D02*
G75*
G03*
X8289350Y-10861230I-150000J0D01*
G01*
X8797350Y-2987230D02*
G75*
G03*
X8797350Y-2987230I-150000J0D01*
G01*
X8797350Y-4955730D02*
G75*
G03*
X8797350Y-4955730I-150000J0D01*
G01*
X8797350Y-6924230D02*
G75*
G03*
X8797350Y-6924230I-150000J0D01*
G01*
X8797350Y-8892730D02*
G75*
G03*
X8797350Y-8892730I-150000J0D01*
G01*
X8924350Y-10607230D02*
G75*
G03*
X8924350Y-10607230I-150000J0D01*
G01*
X9432350Y-2733230D02*
G75*
G03*
X9432350Y-2733230I-150000J0D01*
G01*
X9432350Y-4701730D02*
G75*
G03*
X9432350Y-4701730I-150000J0D01*
G01*
X9432350Y-6670230D02*
G75*
G03*
X9432350Y-6670230I-150000J0D01*
G01*
X9432350Y-8638730D02*
G75*
G03*
X9432350Y-8638730I-150000J0D01*
G01*
X10257850Y-10861230D02*
G75*
G03*
X10257850Y-10861230I-150000J0D01*
G01*
X10765850Y-2987230D02*
G75*
G03*
X10765850Y-2987230I-150000J0D01*
G01*
X10765850Y-4955730D02*
G75*
G03*
X10765850Y-4955730I-150000J0D01*
G01*
X10765850Y-6924230D02*
G75*
G03*
X10765850Y-6924230I-150000J0D01*
G01*
X10765850Y-8892730D02*
G75*
G03*
X10765850Y-8892730I-150000J0D01*
G01*
X10892850Y-10607230D02*
G75*
G03*
X10892850Y-10607230I-150000J0D01*
G01*
X11400850Y-2733230D02*
G75*
G03*
X11400850Y-2733230I-150000J0D01*
G01*
X11400850Y-4701730D02*
G75*
G03*
X11400850Y-4701730I-150000J0D01*
G01*
X11400850Y-6670230D02*
G75*
G03*
X11400850Y-6670230I-150000J0D01*
G01*
X11400850Y-8638730D02*
G75*
G03*
X11400850Y-8638730I-150000J0D01*
G01*
X12734350Y-4955730D02*
G75*
G03*
X12734350Y-4955730I-150000J0D01*
G01*
X12734350Y-6924230D02*
G75*
G03*
X12734350Y-6924230I-150000J0D01*
G01*
X12734350Y-8892730D02*
G75*
G03*
X12734350Y-8892730I-150000J0D01*
G01*
X13369350Y-4701730D02*
G75*
G03*
X13369350Y-4701730I-150000J0D01*
G01*
X13369350Y-6670230D02*
G75*
G03*
X13369350Y-6670230I-150000J0D01*
G01*
X13369350Y-8638730D02*
G75*
G03*
X13369350Y-8638730I-150000J0D01*
G01*
X13432850Y-2987230D02*
G75*
G03*
X13432850Y-2987230I-150000J0D01*
G01*
X13573023Y-11794948D02*
G75*
G03*
X13573023Y-11794948I-150000J0D01*
G01*
X14067850Y-2733230D02*
G75*
G03*
X14067850Y-2733230I-150000J0D01*
G01*
X14175769Y-12118119D02*
G75*
G03*
X14175769Y-12118119I-150000J0D01*
G01*
X14702850Y-4955730D02*
G75*
G03*
X14702850Y-4955730I-150000J0D01*
G01*
X14702850Y-6924230D02*
G75*
G03*
X14702850Y-6924230I-150000J0D01*
G01*
X14702850Y-8892730D02*
G75*
G03*
X14702850Y-8892730I-150000J0D01*
G01*
X15337850Y-4701730D02*
G75*
G03*
X15337850Y-4701730I-150000J0D01*
G01*
X15337850Y-6670230D02*
G75*
G03*
X15337850Y-6670230I-150000J0D01*
G01*
X15337850Y-8638730D02*
G75*
G03*
X15337850Y-8638730I-150000J0D01*
G01*
X15433618Y-14704129D02*
G75*
G03*
X15433618Y-14704129I-150000J0D01*
G01*
X15794026Y-15285376D02*
G75*
G03*
X15794026Y-15285376I-150000J0D01*
G01*
D14*
X13241072Y-10734188D02*
X13241072Y-11038988D01*
X13088672Y-10886588D02*
X13393472Y-10886588D01*
X14775792Y-12563196D02*
X14775792Y-12867996D01*
X14623392Y-12715596D02*
X14928192Y-12715596D01*
D15*
X3263841Y-3672221D02*
X3263841Y-3390239D01*
X2981859Y-3390239D01*
X2981859Y-3672221D01*
X3263841Y-3672221D01*
X3263841Y-5692221D02*
X3263841Y-5410239D01*
X2981859Y-5410239D01*
X2981859Y-5692221D01*
X3263841Y-5692221D01*
X3263841Y-7712221D02*
X3263841Y-7430239D01*
X2981859Y-7430239D01*
X2981859Y-7712221D01*
X3263841Y-7712221D01*
X3263841Y-9732221D02*
X3263841Y-9450239D01*
X2981859Y-9450239D01*
X2981859Y-9732221D01*
X3263841Y-9732221D01*
X5232341Y-3382221D02*
X5232341Y-3100239D01*
X4950359Y-3100239D01*
X4950359Y-3382221D01*
X5232341Y-3382221D01*
X5232341Y-5350721D02*
X5232341Y-5068739D01*
X4950359Y-5068739D01*
X4950359Y-5350721D01*
X5232341Y-5350721D01*
X5232341Y-7319221D02*
X5232341Y-7037239D01*
X4950359Y-7037239D01*
X4950359Y-7319221D01*
X5232341Y-7319221D01*
X5232341Y-9287721D02*
X5232341Y-9005739D01*
X4950359Y-9005739D01*
X4950359Y-9287721D01*
X5232341Y-9287721D01*
X7200841Y-3382221D02*
X7200841Y-3100239D01*
X6918859Y-3100239D01*
X6918859Y-3382221D01*
X7200841Y-3382221D01*
X7200841Y-5350721D02*
X7200841Y-5068739D01*
X6918859Y-5068739D01*
X6918859Y-5350721D01*
X7200841Y-5350721D01*
X7200841Y-7319221D02*
X7200841Y-7037239D01*
X6918859Y-7037239D01*
X6918859Y-7319221D01*
X7200841Y-7319221D01*
X7200841Y-9287721D02*
X7200841Y-9005739D01*
X6918859Y-9005739D01*
X6918859Y-9287721D01*
X7200841Y-9287721D01*
X8661341Y-11256221D02*
X8661341Y-10974239D01*
X8379359Y-10974239D01*
X8379359Y-11256221D01*
X8661341Y-11256221D01*
X9169341Y-3382221D02*
X9169341Y-3100239D01*
X8887359Y-3100239D01*
X8887359Y-3382221D01*
X9169341Y-3382221D01*
X9169341Y-5350721D02*
X9169341Y-5068739D01*
X8887359Y-5068739D01*
X8887359Y-5350721D01*
X9169341Y-5350721D01*
X9169341Y-7319221D02*
X9169341Y-7037239D01*
X8887359Y-7037239D01*
X8887359Y-7319221D01*
X9169341Y-7319221D01*
X9169341Y-9287721D02*
X9169341Y-9005739D01*
X8887359Y-9005739D01*
X8887359Y-9287721D01*
X9169341Y-9287721D01*
X10629841Y-11256221D02*
X10629841Y-10974239D01*
X10347859Y-10974239D01*
X10347859Y-11256221D01*
X10629841Y-11256221D01*
X11137841Y-3382221D02*
X11137841Y-3100239D01*
X10855859Y-3100239D01*
X10855859Y-3382221D01*
X11137841Y-3382221D01*
X11137841Y-5350721D02*
X11137841Y-5068739D01*
X10855859Y-5068739D01*
X10855859Y-5350721D01*
X11137841Y-5350721D01*
X11137841Y-7319221D02*
X11137841Y-7037239D01*
X10855859Y-7037239D01*
X10855859Y-7319221D01*
X11137841Y-7319221D01*
X11137841Y-9287721D02*
X11137841Y-9005739D01*
X10855859Y-9005739D01*
X10855859Y-9287721D01*
X11137841Y-9287721D01*
X12214612Y-12007188D02*
X12214612Y-11725205D01*
X11932629Y-11725205D01*
X11932629Y-12007188D01*
X12214612Y-12007188D01*
X13106341Y-5350721D02*
X13106341Y-5068739D01*
X12824359Y-5068739D01*
X12824359Y-5350721D01*
X13106341Y-5350721D01*
X13106341Y-7319221D02*
X13106341Y-7037239D01*
X12824359Y-7037239D01*
X12824359Y-7319221D01*
X13106341Y-7319221D01*
X13106341Y-9287721D02*
X13106341Y-9005739D01*
X12824359Y-9005739D01*
X12824359Y-9287721D01*
X13106341Y-9287721D01*
X13614341Y-12391071D02*
X13614341Y-12109088D01*
X13332359Y-12109088D01*
X13332359Y-12391071D01*
X13614341Y-12391071D01*
X13749332Y-13836196D02*
X13749332Y-13554213D01*
X13467349Y-13554213D01*
X13467349Y-13836196D01*
X13749332Y-13836196D01*
X13804841Y-3382221D02*
X13804841Y-3100239D01*
X13522859Y-3100239D01*
X13522859Y-3382221D01*
X13804841Y-3382221D01*
X15074841Y-5350721D02*
X15074841Y-5068739D01*
X14792859Y-5068739D01*
X14792859Y-5350721D01*
X15074841Y-5350721D01*
X15074841Y-7319221D02*
X15074841Y-7037239D01*
X14792859Y-7037239D01*
X14792859Y-7319221D01*
X15074841Y-7319221D01*
X15074841Y-9287721D02*
X15074841Y-9005739D01*
X14792859Y-9005739D01*
X14792859Y-9287721D01*
X15074841Y-9287721D01*
X15240628Y-15264439D02*
X15240628Y-14982456D01*
X14958645Y-14982456D01*
X14958645Y-15264439D01*
X15240628Y-15264439D01*
D11*
X2339119Y-16611182D02*
X2339119Y-16411182D01*
X2339119Y-16411182D02*
X2386738Y-16411182D01*
X2386738Y-16411182D02*
X2415310Y-16420706D01*
X2415310Y-16420706D02*
X2434357Y-16439754D01*
X2434357Y-16439754D02*
X2443881Y-16458801D01*
X2443881Y-16458801D02*
X2453405Y-16496896D01*
X2453405Y-16496896D02*
X2453405Y-16525468D01*
X2453405Y-16525468D02*
X2443881Y-16563563D01*
X2443881Y-16563563D02*
X2434357Y-16582611D01*
X2434357Y-16582611D02*
X2415310Y-16601658D01*
X2415310Y-16601658D02*
X2386738Y-16611182D01*
X2386738Y-16611182D02*
X2339119Y-16611182D01*
X2539119Y-16611182D02*
X2539119Y-16477849D01*
X2539119Y-16515944D02*
X2548643Y-16496896D01*
X2548643Y-16496896D02*
X2558167Y-16487373D01*
X2558167Y-16487373D02*
X2577214Y-16477849D01*
X2577214Y-16477849D02*
X2596262Y-16477849D01*
X2662929Y-16611182D02*
X2662929Y-16477849D01*
X2662929Y-16411182D02*
X2653405Y-16420706D01*
X2653405Y-16420706D02*
X2662929Y-16430230D01*
X2662929Y-16430230D02*
X2672452Y-16420706D01*
X2672452Y-16420706D02*
X2662929Y-16411182D01*
X2662929Y-16411182D02*
X2662929Y-16430230D01*
X2786738Y-16611182D02*
X2767690Y-16601658D01*
X2767690Y-16601658D02*
X2758167Y-16582611D01*
X2758167Y-16582611D02*
X2758167Y-16411182D01*
X2891500Y-16611182D02*
X2872452Y-16601658D01*
X2872452Y-16601658D02*
X2862928Y-16582611D01*
X2862928Y-16582611D02*
X2862928Y-16411182D01*
X3120071Y-16611182D02*
X3120071Y-16411182D01*
X3120071Y-16411182D02*
X3186738Y-16554039D01*
X3186738Y-16554039D02*
X3253405Y-16411182D01*
X3253405Y-16411182D02*
X3253405Y-16611182D01*
X3434357Y-16611182D02*
X3434357Y-16506420D01*
X3434357Y-16506420D02*
X3424833Y-16487373D01*
X3424833Y-16487373D02*
X3405786Y-16477849D01*
X3405786Y-16477849D02*
X3367690Y-16477849D01*
X3367690Y-16477849D02*
X3348643Y-16487373D01*
X3434357Y-16601658D02*
X3415309Y-16611182D01*
X3415309Y-16611182D02*
X3367690Y-16611182D01*
X3367690Y-16611182D02*
X3348643Y-16601658D01*
X3348643Y-16601658D02*
X3339119Y-16582611D01*
X3339119Y-16582611D02*
X3339119Y-16563563D01*
X3339119Y-16563563D02*
X3348643Y-16544515D01*
X3348643Y-16544515D02*
X3367690Y-16534992D01*
X3367690Y-16534992D02*
X3415309Y-16534992D01*
X3415309Y-16534992D02*
X3434357Y-16525468D01*
X3529595Y-16477849D02*
X3529595Y-16677849D01*
X3529595Y-16487373D02*
X3548643Y-16477849D01*
X3548643Y-16477849D02*
X3586738Y-16477849D01*
X3586738Y-16477849D02*
X3605786Y-16487373D01*
X3605786Y-16487373D02*
X3615309Y-16496896D01*
X3615309Y-16496896D02*
X3624833Y-16515944D01*
X3624833Y-16515944D02*
X3624833Y-16573087D01*
X3624833Y-16573087D02*
X3615309Y-16592134D01*
X3615309Y-16592134D02*
X3605786Y-16601658D01*
X3605786Y-16601658D02*
X3586738Y-16611182D01*
X3586738Y-16611182D02*
X3548643Y-16611182D01*
X3548643Y-16611182D02*
X3529595Y-16601658D01*
X3710548Y-16592134D02*
X3720071Y-16601658D01*
X3720071Y-16601658D02*
X3710548Y-16611182D01*
X3710548Y-16611182D02*
X3701024Y-16601658D01*
X3701024Y-16601658D02*
X3710548Y-16592134D01*
X3710548Y-16592134D02*
X3710548Y-16611182D01*
X3710548Y-16487373D02*
X3720071Y-16496896D01*
X3720071Y-16496896D02*
X3710548Y-16506420D01*
X3710548Y-16506420D02*
X3701024Y-16496896D01*
X3701024Y-16496896D02*
X3710548Y-16487373D01*
X3710548Y-16487373D02*
X3710548Y-16506420D01*
D12*
X1916500Y-16851158D02*
X2091500Y-17026158D01*
X2091500Y-16851158D02*
X1916500Y-17026158D01*
D11*
X2443881Y-17031182D02*
X2329595Y-17031182D01*
X2386738Y-17031182D02*
X2386738Y-16831182D01*
X2386738Y-16831182D02*
X2367690Y-16859754D01*
X2367690Y-16859754D02*
X2348643Y-16878801D01*
X2348643Y-16878801D02*
X2329595Y-16888325D01*
X2529595Y-17012135D02*
X2539119Y-17021658D01*
X2539119Y-17021658D02*
X2529595Y-17031182D01*
X2529595Y-17031182D02*
X2520071Y-17021658D01*
X2520071Y-17021658D02*
X2529595Y-17012135D01*
X2529595Y-17012135D02*
X2529595Y-17031182D01*
X2605786Y-16831182D02*
X2739119Y-16831182D01*
X2739119Y-16831182D02*
X2653405Y-17031182D01*
X2910548Y-16831182D02*
X2815309Y-16831182D01*
X2815309Y-16831182D02*
X2805786Y-16926420D01*
X2805786Y-16926420D02*
X2815309Y-16916896D01*
X2815309Y-16916896D02*
X2834357Y-16907373D01*
X2834357Y-16907373D02*
X2881976Y-16907373D01*
X2881976Y-16907373D02*
X2901024Y-16916896D01*
X2901024Y-16916896D02*
X2910548Y-16926420D01*
X2910548Y-16926420D02*
X2920071Y-16945468D01*
X2920071Y-16945468D02*
X2920071Y-16993087D01*
X2920071Y-16993087D02*
X2910548Y-17012135D01*
X2910548Y-17012135D02*
X2901024Y-17021658D01*
X2901024Y-17021658D02*
X2881976Y-17031182D01*
X2881976Y-17031182D02*
X2834357Y-17031182D01*
X2834357Y-17031182D02*
X2815309Y-17021658D01*
X2815309Y-17021658D02*
X2805786Y-17012135D01*
X3043881Y-16831182D02*
X3062929Y-16831182D01*
X3062929Y-16831182D02*
X3081976Y-16840706D01*
X3081976Y-16840706D02*
X3091500Y-16850230D01*
X3091500Y-16850230D02*
X3101024Y-16869277D01*
X3101024Y-16869277D02*
X3110548Y-16907373D01*
X3110548Y-16907373D02*
X3110548Y-16954992D01*
X3110548Y-16954992D02*
X3101024Y-16993087D01*
X3101024Y-16993087D02*
X3091500Y-17012135D01*
X3091500Y-17012135D02*
X3081976Y-17021658D01*
X3081976Y-17021658D02*
X3062929Y-17031182D01*
X3062929Y-17031182D02*
X3043881Y-17031182D01*
X3043881Y-17031182D02*
X3024833Y-17021658D01*
X3024833Y-17021658D02*
X3015309Y-17012135D01*
X3015309Y-17012135D02*
X3005786Y-16993087D01*
X3005786Y-16993087D02*
X2996262Y-16954992D01*
X2996262Y-16954992D02*
X2996262Y-16907373D01*
X2996262Y-16907373D02*
X3005786Y-16869277D01*
X3005786Y-16869277D02*
X3015309Y-16850230D01*
X3015309Y-16850230D02*
X3024833Y-16840706D01*
X3024833Y-16840706D02*
X3043881Y-16831182D01*
X3196262Y-17031182D02*
X3196262Y-16897849D01*
X3196262Y-16916896D02*
X3205786Y-16907373D01*
X3205786Y-16907373D02*
X3224833Y-16897849D01*
X3224833Y-16897849D02*
X3253405Y-16897849D01*
X3253405Y-16897849D02*
X3272452Y-16907373D01*
X3272452Y-16907373D02*
X3281976Y-16926420D01*
X3281976Y-16926420D02*
X3281976Y-17031182D01*
X3281976Y-16926420D02*
X3291500Y-16907373D01*
X3291500Y-16907373D02*
X3310548Y-16897849D01*
X3310548Y-16897849D02*
X3339119Y-16897849D01*
X3339119Y-16897849D02*
X3358167Y-16907373D01*
X3358167Y-16907373D02*
X3367690Y-16926420D01*
X3367690Y-16926420D02*
X3367690Y-17031182D01*
X3462929Y-17031182D02*
X3462929Y-16897849D01*
X3462929Y-16916896D02*
X3472452Y-16907373D01*
X3472452Y-16907373D02*
X3491500Y-16897849D01*
X3491500Y-16897849D02*
X3520071Y-16897849D01*
X3520071Y-16897849D02*
X3539119Y-16907373D01*
X3539119Y-16907373D02*
X3548643Y-16926420D01*
X3548643Y-16926420D02*
X3548643Y-17031182D01*
X3548643Y-16926420D02*
X3558167Y-16907373D01*
X3558167Y-16907373D02*
X3577214Y-16897849D01*
X3577214Y-16897849D02*
X3605786Y-16897849D01*
X3605786Y-16897849D02*
X3624833Y-16907373D01*
X3624833Y-16907373D02*
X3634357Y-16926420D01*
X3634357Y-16926420D02*
X3634357Y-17031182D01*
X4024833Y-16821658D02*
X3853405Y-17078801D01*
X4281976Y-16831182D02*
X4301024Y-16831182D01*
X4301024Y-16831182D02*
X4320072Y-16840706D01*
X4320072Y-16840706D02*
X4329595Y-16850230D01*
X4329595Y-16850230D02*
X4339119Y-16869277D01*
X4339119Y-16869277D02*
X4348643Y-16907373D01*
X4348643Y-16907373D02*
X4348643Y-16954992D01*
X4348643Y-16954992D02*
X4339119Y-16993087D01*
X4339119Y-16993087D02*
X4329595Y-17012135D01*
X4329595Y-17012135D02*
X4320072Y-17021658D01*
X4320072Y-17021658D02*
X4301024Y-17031182D01*
X4301024Y-17031182D02*
X4281976Y-17031182D01*
X4281976Y-17031182D02*
X4262929Y-17021658D01*
X4262929Y-17021658D02*
X4253405Y-17012135D01*
X4253405Y-17012135D02*
X4243881Y-16993087D01*
X4243881Y-16993087D02*
X4234357Y-16954992D01*
X4234357Y-16954992D02*
X4234357Y-16907373D01*
X4234357Y-16907373D02*
X4243881Y-16869277D01*
X4243881Y-16869277D02*
X4253405Y-16850230D01*
X4253405Y-16850230D02*
X4262929Y-16840706D01*
X4262929Y-16840706D02*
X4281976Y-16831182D01*
X4434357Y-17012135D02*
X4443881Y-17021658D01*
X4443881Y-17021658D02*
X4434357Y-17031182D01*
X4434357Y-17031182D02*
X4424834Y-17021658D01*
X4424834Y-17021658D02*
X4434357Y-17012135D01*
X4434357Y-17012135D02*
X4434357Y-17031182D01*
X4567691Y-16831182D02*
X4586738Y-16831182D01*
X4586738Y-16831182D02*
X4605786Y-16840706D01*
X4605786Y-16840706D02*
X4615310Y-16850230D01*
X4615310Y-16850230D02*
X4624834Y-16869277D01*
X4624834Y-16869277D02*
X4634357Y-16907373D01*
X4634357Y-16907373D02*
X4634357Y-16954992D01*
X4634357Y-16954992D02*
X4624834Y-16993087D01*
X4624834Y-16993087D02*
X4615310Y-17012135D01*
X4615310Y-17012135D02*
X4605786Y-17021658D01*
X4605786Y-17021658D02*
X4586738Y-17031182D01*
X4586738Y-17031182D02*
X4567691Y-17031182D01*
X4567691Y-17031182D02*
X4548643Y-17021658D01*
X4548643Y-17021658D02*
X4539119Y-17012135D01*
X4539119Y-17012135D02*
X4529595Y-16993087D01*
X4529595Y-16993087D02*
X4520072Y-16954992D01*
X4520072Y-16954992D02*
X4520072Y-16907373D01*
X4520072Y-16907373D02*
X4529595Y-16869277D01*
X4529595Y-16869277D02*
X4539119Y-16850230D01*
X4539119Y-16850230D02*
X4548643Y-16840706D01*
X4548643Y-16840706D02*
X4567691Y-16831182D01*
X4805786Y-16831182D02*
X4767691Y-16831182D01*
X4767691Y-16831182D02*
X4748643Y-16840706D01*
X4748643Y-16840706D02*
X4739119Y-16850230D01*
X4739119Y-16850230D02*
X4720072Y-16878801D01*
X4720072Y-16878801D02*
X4710548Y-16916896D01*
X4710548Y-16916896D02*
X4710548Y-16993087D01*
X4710548Y-16993087D02*
X4720072Y-17012135D01*
X4720072Y-17012135D02*
X4729595Y-17021658D01*
X4729595Y-17021658D02*
X4748643Y-17031182D01*
X4748643Y-17031182D02*
X4786738Y-17031182D01*
X4786738Y-17031182D02*
X4805786Y-17021658D01*
X4805786Y-17021658D02*
X4815310Y-17012135D01*
X4815310Y-17012135D02*
X4824834Y-16993087D01*
X4824834Y-16993087D02*
X4824834Y-16945468D01*
X4824834Y-16945468D02*
X4815310Y-16926420D01*
X4815310Y-16926420D02*
X4805786Y-16916896D01*
X4805786Y-16916896D02*
X4786738Y-16907373D01*
X4786738Y-16907373D02*
X4748643Y-16907373D01*
X4748643Y-16907373D02*
X4729595Y-16916896D01*
X4729595Y-16916896D02*
X4720072Y-16926420D01*
X4720072Y-16926420D02*
X4710548Y-16945468D01*
X4939119Y-16916896D02*
X4920072Y-16907373D01*
X4920072Y-16907373D02*
X4910548Y-16897849D01*
X4910548Y-16897849D02*
X4901024Y-16878801D01*
X4901024Y-16878801D02*
X4901024Y-16869277D01*
X4901024Y-16869277D02*
X4910548Y-16850230D01*
X4910548Y-16850230D02*
X4920072Y-16840706D01*
X4920072Y-16840706D02*
X4939119Y-16831182D01*
X4939119Y-16831182D02*
X4977215Y-16831182D01*
X4977215Y-16831182D02*
X4996262Y-16840706D01*
X4996262Y-16840706D02*
X5005786Y-16850230D01*
X5005786Y-16850230D02*
X5015310Y-16869277D01*
X5015310Y-16869277D02*
X5015310Y-16878801D01*
X5015310Y-16878801D02*
X5005786Y-16897849D01*
X5005786Y-16897849D02*
X4996262Y-16907373D01*
X4996262Y-16907373D02*
X4977215Y-16916896D01*
X4977215Y-16916896D02*
X4939119Y-16916896D01*
X4939119Y-16916896D02*
X4920072Y-16926420D01*
X4920072Y-16926420D02*
X4910548Y-16935944D01*
X4910548Y-16935944D02*
X4901024Y-16954992D01*
X4901024Y-16954992D02*
X4901024Y-16993087D01*
X4901024Y-16993087D02*
X4910548Y-17012135D01*
X4910548Y-17012135D02*
X4920072Y-17021658D01*
X4920072Y-17021658D02*
X4939119Y-17031182D01*
X4939119Y-17031182D02*
X4977215Y-17031182D01*
X4977215Y-17031182D02*
X4996262Y-17021658D01*
X4996262Y-17021658D02*
X5005786Y-17012135D01*
X5005786Y-17012135D02*
X5015310Y-16993087D01*
X5015310Y-16993087D02*
X5015310Y-16954992D01*
X5015310Y-16954992D02*
X5005786Y-16935944D01*
X5005786Y-16935944D02*
X4996262Y-16926420D01*
X4996262Y-16926420D02*
X4977215Y-16916896D01*
X5110548Y-17031182D02*
X5148643Y-17031182D01*
X5148643Y-17031182D02*
X5167691Y-17021658D01*
X5167691Y-17021658D02*
X5177215Y-17012135D01*
X5177215Y-17012135D02*
X5196262Y-16983563D01*
X5196262Y-16983563D02*
X5205786Y-16945468D01*
X5205786Y-16945468D02*
X5205786Y-16869277D01*
X5205786Y-16869277D02*
X5196262Y-16850230D01*
X5196262Y-16850230D02*
X5186738Y-16840706D01*
X5186738Y-16840706D02*
X5167691Y-16831182D01*
X5167691Y-16831182D02*
X5129595Y-16831182D01*
X5129595Y-16831182D02*
X5110548Y-16840706D01*
X5110548Y-16840706D02*
X5101024Y-16850230D01*
X5101024Y-16850230D02*
X5091500Y-16869277D01*
X5091500Y-16869277D02*
X5091500Y-16916896D01*
X5091500Y-16916896D02*
X5101024Y-16935944D01*
X5101024Y-16935944D02*
X5110548Y-16945468D01*
X5110548Y-16945468D02*
X5129595Y-16954992D01*
X5129595Y-16954992D02*
X5167691Y-16954992D01*
X5167691Y-16954992D02*
X5186738Y-16945468D01*
X5186738Y-16945468D02*
X5196262Y-16935944D01*
X5196262Y-16935944D02*
X5205786Y-16916896D01*
X5281976Y-16831182D02*
X5281976Y-16869277D01*
X5358167Y-16831182D02*
X5358167Y-16869277D01*
X5653405Y-17107373D02*
X5643881Y-17097849D01*
X5643881Y-17097849D02*
X5624834Y-17069277D01*
X5624834Y-17069277D02*
X5615310Y-17050230D01*
X5615310Y-17050230D02*
X5605786Y-17021658D01*
X5605786Y-17021658D02*
X5596262Y-16974039D01*
X5596262Y-16974039D02*
X5596262Y-16935944D01*
X5596262Y-16935944D02*
X5605786Y-16888325D01*
X5605786Y-16888325D02*
X5615310Y-16859754D01*
X5615310Y-16859754D02*
X5624834Y-16840706D01*
X5624834Y-16840706D02*
X5643881Y-16812135D01*
X5643881Y-16812135D02*
X5653405Y-16802611D01*
X5815310Y-16831182D02*
X5777214Y-16831182D01*
X5777214Y-16831182D02*
X5758167Y-16840706D01*
X5758167Y-16840706D02*
X5748643Y-16850230D01*
X5748643Y-16850230D02*
X5729595Y-16878801D01*
X5729595Y-16878801D02*
X5720072Y-16916896D01*
X5720072Y-16916896D02*
X5720072Y-16993087D01*
X5720072Y-16993087D02*
X5729595Y-17012135D01*
X5729595Y-17012135D02*
X5739119Y-17021658D01*
X5739119Y-17021658D02*
X5758167Y-17031182D01*
X5758167Y-17031182D02*
X5796262Y-17031182D01*
X5796262Y-17031182D02*
X5815310Y-17021658D01*
X5815310Y-17021658D02*
X5824834Y-17012135D01*
X5824834Y-17012135D02*
X5834357Y-16993087D01*
X5834357Y-16993087D02*
X5834357Y-16945468D01*
X5834357Y-16945468D02*
X5824834Y-16926420D01*
X5824834Y-16926420D02*
X5815310Y-16916896D01*
X5815310Y-16916896D02*
X5796262Y-16907373D01*
X5796262Y-16907373D02*
X5758167Y-16907373D01*
X5758167Y-16907373D02*
X5739119Y-16916896D01*
X5739119Y-16916896D02*
X5729595Y-16926420D01*
X5729595Y-16926420D02*
X5720072Y-16945468D01*
X5910548Y-16850230D02*
X5920072Y-16840706D01*
X5920072Y-16840706D02*
X5939119Y-16831182D01*
X5939119Y-16831182D02*
X5986738Y-16831182D01*
X5986738Y-16831182D02*
X6005786Y-16840706D01*
X6005786Y-16840706D02*
X6015310Y-16850230D01*
X6015310Y-16850230D02*
X6024834Y-16869277D01*
X6024834Y-16869277D02*
X6024834Y-16888325D01*
X6024834Y-16888325D02*
X6015310Y-16916896D01*
X6015310Y-16916896D02*
X5901024Y-17031182D01*
X5901024Y-17031182D02*
X6024834Y-17031182D01*
X6262929Y-17031182D02*
X6262929Y-16831182D01*
X6348643Y-17031182D02*
X6348643Y-16926420D01*
X6348643Y-16926420D02*
X6339119Y-16907373D01*
X6339119Y-16907373D02*
X6320072Y-16897849D01*
X6320072Y-16897849D02*
X6291500Y-16897849D01*
X6291500Y-16897849D02*
X6272453Y-16907373D01*
X6272453Y-16907373D02*
X6262929Y-16916896D01*
X6472453Y-17031182D02*
X6453405Y-17021658D01*
X6453405Y-17021658D02*
X6443881Y-17012135D01*
X6443881Y-17012135D02*
X6434357Y-16993087D01*
X6434357Y-16993087D02*
X6434357Y-16935944D01*
X6434357Y-16935944D02*
X6443881Y-16916896D01*
X6443881Y-16916896D02*
X6453405Y-16907373D01*
X6453405Y-16907373D02*
X6472453Y-16897849D01*
X6472453Y-16897849D02*
X6501024Y-16897849D01*
X6501024Y-16897849D02*
X6520072Y-16907373D01*
X6520072Y-16907373D02*
X6529596Y-16916896D01*
X6529596Y-16916896D02*
X6539119Y-16935944D01*
X6539119Y-16935944D02*
X6539119Y-16993087D01*
X6539119Y-16993087D02*
X6529596Y-17012135D01*
X6529596Y-17012135D02*
X6520072Y-17021658D01*
X6520072Y-17021658D02*
X6501024Y-17031182D01*
X6501024Y-17031182D02*
X6472453Y-17031182D01*
X6653405Y-17031182D02*
X6634357Y-17021658D01*
X6634357Y-17021658D02*
X6624834Y-17002611D01*
X6624834Y-17002611D02*
X6624834Y-16831182D01*
X6805786Y-17021658D02*
X6786738Y-17031182D01*
X6786738Y-17031182D02*
X6748643Y-17031182D01*
X6748643Y-17031182D02*
X6729596Y-17021658D01*
X6729596Y-17021658D02*
X6720072Y-17002611D01*
X6720072Y-17002611D02*
X6720072Y-16926420D01*
X6720072Y-16926420D02*
X6729596Y-16907373D01*
X6729596Y-16907373D02*
X6748643Y-16897849D01*
X6748643Y-16897849D02*
X6786738Y-16897849D01*
X6786738Y-16897849D02*
X6805786Y-16907373D01*
X6805786Y-16907373D02*
X6815310Y-16926420D01*
X6815310Y-16926420D02*
X6815310Y-16945468D01*
X6815310Y-16945468D02*
X6720072Y-16964516D01*
X6891500Y-17021658D02*
X6910548Y-17031182D01*
X6910548Y-17031182D02*
X6948643Y-17031182D01*
X6948643Y-17031182D02*
X6967691Y-17021658D01*
X6967691Y-17021658D02*
X6977215Y-17002611D01*
X6977215Y-17002611D02*
X6977215Y-16993087D01*
X6977215Y-16993087D02*
X6967691Y-16974039D01*
X6967691Y-16974039D02*
X6948643Y-16964516D01*
X6948643Y-16964516D02*
X6920072Y-16964516D01*
X6920072Y-16964516D02*
X6901024Y-16954992D01*
X6901024Y-16954992D02*
X6891500Y-16935944D01*
X6891500Y-16935944D02*
X6891500Y-16926420D01*
X6891500Y-16926420D02*
X6901024Y-16907373D01*
X6901024Y-16907373D02*
X6920072Y-16897849D01*
X6920072Y-16897849D02*
X6948643Y-16897849D01*
X6948643Y-16897849D02*
X6967691Y-16907373D01*
X7043881Y-17107373D02*
X7053405Y-17097849D01*
X7053405Y-17097849D02*
X7072453Y-17069277D01*
X7072453Y-17069277D02*
X7081977Y-17050230D01*
X7081977Y-17050230D02*
X7091500Y-17021658D01*
X7091500Y-17021658D02*
X7101024Y-16974039D01*
X7101024Y-16974039D02*
X7101024Y-16935944D01*
X7101024Y-16935944D02*
X7091500Y-16888325D01*
X7091500Y-16888325D02*
X7081977Y-16859754D01*
X7081977Y-16859754D02*
X7072453Y-16840706D01*
X7072453Y-16840706D02*
X7053405Y-16812135D01*
X7053405Y-16812135D02*
X7043881Y-16802611D01*
X7405786Y-17107373D02*
X7396262Y-17097849D01*
X7396262Y-17097849D02*
X7377215Y-17069277D01*
X7377215Y-17069277D02*
X7367691Y-17050230D01*
X7367691Y-17050230D02*
X7358167Y-17021658D01*
X7358167Y-17021658D02*
X7348643Y-16974039D01*
X7348643Y-16974039D02*
X7348643Y-16935944D01*
X7348643Y-16935944D02*
X7358167Y-16888325D01*
X7358167Y-16888325D02*
X7367691Y-16859754D01*
X7367691Y-16859754D02*
X7377215Y-16840706D01*
X7377215Y-16840706D02*
X7396262Y-16812135D01*
X7396262Y-16812135D02*
X7405786Y-16802611D01*
X7481977Y-16897849D02*
X7481977Y-17031182D01*
X7481977Y-16916896D02*
X7491500Y-16907373D01*
X7491500Y-16907373D02*
X7510548Y-16897849D01*
X7510548Y-16897849D02*
X7539119Y-16897849D01*
X7539119Y-16897849D02*
X7558167Y-16907373D01*
X7558167Y-16907373D02*
X7567691Y-16926420D01*
X7567691Y-16926420D02*
X7567691Y-17031182D01*
X7691500Y-17031182D02*
X7672453Y-17021658D01*
X7672453Y-17021658D02*
X7662929Y-17012135D01*
X7662929Y-17012135D02*
X7653405Y-16993087D01*
X7653405Y-16993087D02*
X7653405Y-16935944D01*
X7653405Y-16935944D02*
X7662929Y-16916896D01*
X7662929Y-16916896D02*
X7672453Y-16907373D01*
X7672453Y-16907373D02*
X7691500Y-16897849D01*
X7691500Y-16897849D02*
X7720072Y-16897849D01*
X7720072Y-16897849D02*
X7739119Y-16907373D01*
X7739119Y-16907373D02*
X7748643Y-16916896D01*
X7748643Y-16916896D02*
X7758167Y-16935944D01*
X7758167Y-16935944D02*
X7758167Y-16993087D01*
X7758167Y-16993087D02*
X7748643Y-17012135D01*
X7748643Y-17012135D02*
X7739119Y-17021658D01*
X7739119Y-17021658D02*
X7720072Y-17031182D01*
X7720072Y-17031182D02*
X7691500Y-17031182D01*
X7815310Y-16897849D02*
X7891500Y-16897849D01*
X7843881Y-16831182D02*
X7843881Y-17002611D01*
X7843881Y-17002611D02*
X7853405Y-17021658D01*
X7853405Y-17021658D02*
X7872453Y-17031182D01*
X7872453Y-17031182D02*
X7891500Y-17031182D01*
X8110548Y-16897849D02*
X8110548Y-17097849D01*
X8110548Y-16907373D02*
X8129596Y-16897849D01*
X8129596Y-16897849D02*
X8167691Y-16897849D01*
X8167691Y-16897849D02*
X8186739Y-16907373D01*
X8186739Y-16907373D02*
X8196262Y-16916896D01*
X8196262Y-16916896D02*
X8205786Y-16935944D01*
X8205786Y-16935944D02*
X8205786Y-16993087D01*
X8205786Y-16993087D02*
X8196262Y-17012135D01*
X8196262Y-17012135D02*
X8186739Y-17021658D01*
X8186739Y-17021658D02*
X8167691Y-17031182D01*
X8167691Y-17031182D02*
X8129596Y-17031182D01*
X8129596Y-17031182D02*
X8110548Y-17021658D01*
X8320072Y-17031182D02*
X8301024Y-17021658D01*
X8301024Y-17021658D02*
X8291500Y-17002611D01*
X8291500Y-17002611D02*
X8291500Y-16831182D01*
X8481977Y-17031182D02*
X8481977Y-16926420D01*
X8481977Y-16926420D02*
X8472453Y-16907373D01*
X8472453Y-16907373D02*
X8453405Y-16897849D01*
X8453405Y-16897849D02*
X8415310Y-16897849D01*
X8415310Y-16897849D02*
X8396262Y-16907373D01*
X8481977Y-17021658D02*
X8462929Y-17031182D01*
X8462929Y-17031182D02*
X8415310Y-17031182D01*
X8415310Y-17031182D02*
X8396262Y-17021658D01*
X8396262Y-17021658D02*
X8386739Y-17002611D01*
X8386739Y-17002611D02*
X8386739Y-16983563D01*
X8386739Y-16983563D02*
X8396262Y-16964516D01*
X8396262Y-16964516D02*
X8415310Y-16954992D01*
X8415310Y-16954992D02*
X8462929Y-16954992D01*
X8462929Y-16954992D02*
X8481977Y-16945468D01*
X8548643Y-16897849D02*
X8624834Y-16897849D01*
X8577215Y-16831182D02*
X8577215Y-17002611D01*
X8577215Y-17002611D02*
X8586739Y-17021658D01*
X8586739Y-17021658D02*
X8605786Y-17031182D01*
X8605786Y-17031182D02*
X8624834Y-17031182D01*
X8767691Y-17021658D02*
X8748643Y-17031182D01*
X8748643Y-17031182D02*
X8710548Y-17031182D01*
X8710548Y-17031182D02*
X8691501Y-17021658D01*
X8691501Y-17021658D02*
X8681977Y-17002611D01*
X8681977Y-17002611D02*
X8681977Y-16926420D01*
X8681977Y-16926420D02*
X8691501Y-16907373D01*
X8691501Y-16907373D02*
X8710548Y-16897849D01*
X8710548Y-16897849D02*
X8748643Y-16897849D01*
X8748643Y-16897849D02*
X8767691Y-16907373D01*
X8767691Y-16907373D02*
X8777215Y-16926420D01*
X8777215Y-16926420D02*
X8777215Y-16945468D01*
X8777215Y-16945468D02*
X8681977Y-16964516D01*
X8948643Y-17031182D02*
X8948643Y-16831182D01*
X8948643Y-17021658D02*
X8929596Y-17031182D01*
X8929596Y-17031182D02*
X8891501Y-17031182D01*
X8891501Y-17031182D02*
X8872453Y-17021658D01*
X8872453Y-17021658D02*
X8862929Y-17012135D01*
X8862929Y-17012135D02*
X8853405Y-16993087D01*
X8853405Y-16993087D02*
X8853405Y-16935944D01*
X8853405Y-16935944D02*
X8862929Y-16916896D01*
X8862929Y-16916896D02*
X8872453Y-16907373D01*
X8872453Y-16907373D02*
X8891501Y-16897849D01*
X8891501Y-16897849D02*
X8929596Y-16897849D01*
X8929596Y-16897849D02*
X8948643Y-16907373D01*
X9024834Y-17107373D02*
X9034358Y-17097849D01*
X9034358Y-17097849D02*
X9053405Y-17069277D01*
X9053405Y-17069277D02*
X9062929Y-17050230D01*
X9062929Y-17050230D02*
X9072453Y-17021658D01*
X9072453Y-17021658D02*
X9081977Y-16974039D01*
X9081977Y-16974039D02*
X9081977Y-16935944D01*
X9081977Y-16935944D02*
X9072453Y-16888325D01*
X9072453Y-16888325D02*
X9062929Y-16859754D01*
X9062929Y-16859754D02*
X9053405Y-16840706D01*
X9053405Y-16840706D02*
X9034358Y-16812135D01*
X9034358Y-16812135D02*
X9024834Y-16802611D01*
X2091500Y-17233658D02*
G75*
G03*
X2091500Y-17233658I-100000J0D01*
G01*
X2320071Y-17126182D02*
X2443881Y-17126182D01*
X2443881Y-17126182D02*
X2377214Y-17202373D01*
X2377214Y-17202373D02*
X2405786Y-17202373D01*
X2405786Y-17202373D02*
X2424833Y-17211896D01*
X2424833Y-17211896D02*
X2434357Y-17221420D01*
X2434357Y-17221420D02*
X2443881Y-17240468D01*
X2443881Y-17240468D02*
X2443881Y-17288087D01*
X2443881Y-17288087D02*
X2434357Y-17307135D01*
X2434357Y-17307135D02*
X2424833Y-17316658D01*
X2424833Y-17316658D02*
X2405786Y-17326182D01*
X2405786Y-17326182D02*
X2348643Y-17326182D01*
X2348643Y-17326182D02*
X2329595Y-17316658D01*
X2329595Y-17316658D02*
X2320071Y-17307135D01*
X2529595Y-17307135D02*
X2539119Y-17316658D01*
X2539119Y-17316658D02*
X2529595Y-17326182D01*
X2529595Y-17326182D02*
X2520071Y-17316658D01*
X2520071Y-17316658D02*
X2529595Y-17307135D01*
X2529595Y-17307135D02*
X2529595Y-17326182D01*
X2662929Y-17126182D02*
X2681976Y-17126182D01*
X2681976Y-17126182D02*
X2701024Y-17135706D01*
X2701024Y-17135706D02*
X2710548Y-17145230D01*
X2710548Y-17145230D02*
X2720071Y-17164277D01*
X2720071Y-17164277D02*
X2729595Y-17202373D01*
X2729595Y-17202373D02*
X2729595Y-17249992D01*
X2729595Y-17249992D02*
X2720071Y-17288087D01*
X2720071Y-17288087D02*
X2710548Y-17307135D01*
X2710548Y-17307135D02*
X2701024Y-17316658D01*
X2701024Y-17316658D02*
X2681976Y-17326182D01*
X2681976Y-17326182D02*
X2662929Y-17326182D01*
X2662929Y-17326182D02*
X2643881Y-17316658D01*
X2643881Y-17316658D02*
X2634357Y-17307135D01*
X2634357Y-17307135D02*
X2624833Y-17288087D01*
X2624833Y-17288087D02*
X2615310Y-17249992D01*
X2615310Y-17249992D02*
X2615310Y-17202373D01*
X2615310Y-17202373D02*
X2624833Y-17164277D01*
X2624833Y-17164277D02*
X2634357Y-17145230D01*
X2634357Y-17145230D02*
X2643881Y-17135706D01*
X2643881Y-17135706D02*
X2662929Y-17126182D01*
X2853405Y-17126182D02*
X2872452Y-17126182D01*
X2872452Y-17126182D02*
X2891500Y-17135706D01*
X2891500Y-17135706D02*
X2901024Y-17145230D01*
X2901024Y-17145230D02*
X2910548Y-17164277D01*
X2910548Y-17164277D02*
X2920071Y-17202373D01*
X2920071Y-17202373D02*
X2920071Y-17249992D01*
X2920071Y-17249992D02*
X2910548Y-17288087D01*
X2910548Y-17288087D02*
X2901024Y-17307135D01*
X2901024Y-17307135D02*
X2891500Y-17316658D01*
X2891500Y-17316658D02*
X2872452Y-17326182D01*
X2872452Y-17326182D02*
X2853405Y-17326182D01*
X2853405Y-17326182D02*
X2834357Y-17316658D01*
X2834357Y-17316658D02*
X2824833Y-17307135D01*
X2824833Y-17307135D02*
X2815309Y-17288087D01*
X2815309Y-17288087D02*
X2805786Y-17249992D01*
X2805786Y-17249992D02*
X2805786Y-17202373D01*
X2805786Y-17202373D02*
X2815309Y-17164277D01*
X2815309Y-17164277D02*
X2824833Y-17145230D01*
X2824833Y-17145230D02*
X2834357Y-17135706D01*
X2834357Y-17135706D02*
X2853405Y-17126182D01*
X3043881Y-17126182D02*
X3062929Y-17126182D01*
X3062929Y-17126182D02*
X3081976Y-17135706D01*
X3081976Y-17135706D02*
X3091500Y-17145230D01*
X3091500Y-17145230D02*
X3101024Y-17164277D01*
X3101024Y-17164277D02*
X3110548Y-17202373D01*
X3110548Y-17202373D02*
X3110548Y-17249992D01*
X3110548Y-17249992D02*
X3101024Y-17288087D01*
X3101024Y-17288087D02*
X3091500Y-17307135D01*
X3091500Y-17307135D02*
X3081976Y-17316658D01*
X3081976Y-17316658D02*
X3062929Y-17326182D01*
X3062929Y-17326182D02*
X3043881Y-17326182D01*
X3043881Y-17326182D02*
X3024833Y-17316658D01*
X3024833Y-17316658D02*
X3015309Y-17307135D01*
X3015309Y-17307135D02*
X3005786Y-17288087D01*
X3005786Y-17288087D02*
X2996262Y-17249992D01*
X2996262Y-17249992D02*
X2996262Y-17202373D01*
X2996262Y-17202373D02*
X3005786Y-17164277D01*
X3005786Y-17164277D02*
X3015309Y-17145230D01*
X3015309Y-17145230D02*
X3024833Y-17135706D01*
X3024833Y-17135706D02*
X3043881Y-17126182D01*
X3196262Y-17326182D02*
X3196262Y-17192849D01*
X3196262Y-17211896D02*
X3205786Y-17202373D01*
X3205786Y-17202373D02*
X3224833Y-17192849D01*
X3224833Y-17192849D02*
X3253405Y-17192849D01*
X3253405Y-17192849D02*
X3272452Y-17202373D01*
X3272452Y-17202373D02*
X3281976Y-17221420D01*
X3281976Y-17221420D02*
X3281976Y-17326182D01*
X3281976Y-17221420D02*
X3291500Y-17202373D01*
X3291500Y-17202373D02*
X3310548Y-17192849D01*
X3310548Y-17192849D02*
X3339119Y-17192849D01*
X3339119Y-17192849D02*
X3358167Y-17202373D01*
X3358167Y-17202373D02*
X3367690Y-17221420D01*
X3367690Y-17221420D02*
X3367690Y-17326182D01*
X3462929Y-17326182D02*
X3462929Y-17192849D01*
X3462929Y-17211896D02*
X3472452Y-17202373D01*
X3472452Y-17202373D02*
X3491500Y-17192849D01*
X3491500Y-17192849D02*
X3520071Y-17192849D01*
X3520071Y-17192849D02*
X3539119Y-17202373D01*
X3539119Y-17202373D02*
X3548643Y-17221420D01*
X3548643Y-17221420D02*
X3548643Y-17326182D01*
X3548643Y-17221420D02*
X3558167Y-17202373D01*
X3558167Y-17202373D02*
X3577214Y-17192849D01*
X3577214Y-17192849D02*
X3605786Y-17192849D01*
X3605786Y-17192849D02*
X3624833Y-17202373D01*
X3624833Y-17202373D02*
X3634357Y-17221420D01*
X3634357Y-17221420D02*
X3634357Y-17326182D01*
X4024833Y-17116658D02*
X3853405Y-17373801D01*
X4281976Y-17126182D02*
X4301024Y-17126182D01*
X4301024Y-17126182D02*
X4320072Y-17135706D01*
X4320072Y-17135706D02*
X4329595Y-17145230D01*
X4329595Y-17145230D02*
X4339119Y-17164277D01*
X4339119Y-17164277D02*
X4348643Y-17202373D01*
X4348643Y-17202373D02*
X4348643Y-17249992D01*
X4348643Y-17249992D02*
X4339119Y-17288087D01*
X4339119Y-17288087D02*
X4329595Y-17307135D01*
X4329595Y-17307135D02*
X4320072Y-17316658D01*
X4320072Y-17316658D02*
X4301024Y-17326182D01*
X4301024Y-17326182D02*
X4281976Y-17326182D01*
X4281976Y-17326182D02*
X4262929Y-17316658D01*
X4262929Y-17316658D02*
X4253405Y-17307135D01*
X4253405Y-17307135D02*
X4243881Y-17288087D01*
X4243881Y-17288087D02*
X4234357Y-17249992D01*
X4234357Y-17249992D02*
X4234357Y-17202373D01*
X4234357Y-17202373D02*
X4243881Y-17164277D01*
X4243881Y-17164277D02*
X4253405Y-17145230D01*
X4253405Y-17145230D02*
X4262929Y-17135706D01*
X4262929Y-17135706D02*
X4281976Y-17126182D01*
X4434357Y-17307135D02*
X4443881Y-17316658D01*
X4443881Y-17316658D02*
X4434357Y-17326182D01*
X4434357Y-17326182D02*
X4424834Y-17316658D01*
X4424834Y-17316658D02*
X4434357Y-17307135D01*
X4434357Y-17307135D02*
X4434357Y-17326182D01*
X4634357Y-17326182D02*
X4520072Y-17326182D01*
X4577214Y-17326182D02*
X4577214Y-17126182D01*
X4577214Y-17126182D02*
X4558167Y-17154754D01*
X4558167Y-17154754D02*
X4539119Y-17173801D01*
X4539119Y-17173801D02*
X4520072Y-17183325D01*
X4824834Y-17326182D02*
X4710548Y-17326182D01*
X4767691Y-17326182D02*
X4767691Y-17126182D01*
X4767691Y-17126182D02*
X4748643Y-17154754D01*
X4748643Y-17154754D02*
X4729595Y-17173801D01*
X4729595Y-17173801D02*
X4710548Y-17183325D01*
X4939119Y-17211896D02*
X4920072Y-17202373D01*
X4920072Y-17202373D02*
X4910548Y-17192849D01*
X4910548Y-17192849D02*
X4901024Y-17173801D01*
X4901024Y-17173801D02*
X4901024Y-17164277D01*
X4901024Y-17164277D02*
X4910548Y-17145230D01*
X4910548Y-17145230D02*
X4920072Y-17135706D01*
X4920072Y-17135706D02*
X4939119Y-17126182D01*
X4939119Y-17126182D02*
X4977215Y-17126182D01*
X4977215Y-17126182D02*
X4996262Y-17135706D01*
X4996262Y-17135706D02*
X5005786Y-17145230D01*
X5005786Y-17145230D02*
X5015310Y-17164277D01*
X5015310Y-17164277D02*
X5015310Y-17173801D01*
X5015310Y-17173801D02*
X5005786Y-17192849D01*
X5005786Y-17192849D02*
X4996262Y-17202373D01*
X4996262Y-17202373D02*
X4977215Y-17211896D01*
X4977215Y-17211896D02*
X4939119Y-17211896D01*
X4939119Y-17211896D02*
X4920072Y-17221420D01*
X4920072Y-17221420D02*
X4910548Y-17230944D01*
X4910548Y-17230944D02*
X4901024Y-17249992D01*
X4901024Y-17249992D02*
X4901024Y-17288087D01*
X4901024Y-17288087D02*
X4910548Y-17307135D01*
X4910548Y-17307135D02*
X4920072Y-17316658D01*
X4920072Y-17316658D02*
X4939119Y-17326182D01*
X4939119Y-17326182D02*
X4977215Y-17326182D01*
X4977215Y-17326182D02*
X4996262Y-17316658D01*
X4996262Y-17316658D02*
X5005786Y-17307135D01*
X5005786Y-17307135D02*
X5015310Y-17288087D01*
X5015310Y-17288087D02*
X5015310Y-17249992D01*
X5015310Y-17249992D02*
X5005786Y-17230944D01*
X5005786Y-17230944D02*
X4996262Y-17221420D01*
X4996262Y-17221420D02*
X4977215Y-17211896D01*
X5205786Y-17326182D02*
X5091500Y-17326182D01*
X5148643Y-17326182D02*
X5148643Y-17126182D01*
X5148643Y-17126182D02*
X5129595Y-17154754D01*
X5129595Y-17154754D02*
X5110548Y-17173801D01*
X5110548Y-17173801D02*
X5091500Y-17183325D01*
X5281976Y-17126182D02*
X5281976Y-17164277D01*
X5358167Y-17126182D02*
X5358167Y-17164277D01*
X5653405Y-17402373D02*
X5643881Y-17392849D01*
X5643881Y-17392849D02*
X5624834Y-17364277D01*
X5624834Y-17364277D02*
X5615310Y-17345230D01*
X5615310Y-17345230D02*
X5605786Y-17316658D01*
X5605786Y-17316658D02*
X5596262Y-17269039D01*
X5596262Y-17269039D02*
X5596262Y-17230944D01*
X5596262Y-17230944D02*
X5605786Y-17183325D01*
X5605786Y-17183325D02*
X5615310Y-17154754D01*
X5615310Y-17154754D02*
X5624834Y-17135706D01*
X5624834Y-17135706D02*
X5643881Y-17107135D01*
X5643881Y-17107135D02*
X5653405Y-17097611D01*
X5815310Y-17126182D02*
X5777214Y-17126182D01*
X5777214Y-17126182D02*
X5758167Y-17135706D01*
X5758167Y-17135706D02*
X5748643Y-17145230D01*
X5748643Y-17145230D02*
X5729595Y-17173801D01*
X5729595Y-17173801D02*
X5720072Y-17211896D01*
X5720072Y-17211896D02*
X5720072Y-17288087D01*
X5720072Y-17288087D02*
X5729595Y-17307135D01*
X5729595Y-17307135D02*
X5739119Y-17316658D01*
X5739119Y-17316658D02*
X5758167Y-17326182D01*
X5758167Y-17326182D02*
X5796262Y-17326182D01*
X5796262Y-17326182D02*
X5815310Y-17316658D01*
X5815310Y-17316658D02*
X5824834Y-17307135D01*
X5824834Y-17307135D02*
X5834357Y-17288087D01*
X5834357Y-17288087D02*
X5834357Y-17240468D01*
X5834357Y-17240468D02*
X5824834Y-17221420D01*
X5824834Y-17221420D02*
X5815310Y-17211896D01*
X5815310Y-17211896D02*
X5796262Y-17202373D01*
X5796262Y-17202373D02*
X5758167Y-17202373D01*
X5758167Y-17202373D02*
X5739119Y-17211896D01*
X5739119Y-17211896D02*
X5729595Y-17221420D01*
X5729595Y-17221420D02*
X5720072Y-17240468D01*
X5910548Y-17145230D02*
X5920072Y-17135706D01*
X5920072Y-17135706D02*
X5939119Y-17126182D01*
X5939119Y-17126182D02*
X5986738Y-17126182D01*
X5986738Y-17126182D02*
X6005786Y-17135706D01*
X6005786Y-17135706D02*
X6015310Y-17145230D01*
X6015310Y-17145230D02*
X6024834Y-17164277D01*
X6024834Y-17164277D02*
X6024834Y-17183325D01*
X6024834Y-17183325D02*
X6015310Y-17211896D01*
X6015310Y-17211896D02*
X5901024Y-17326182D01*
X5901024Y-17326182D02*
X6024834Y-17326182D01*
X6262929Y-17326182D02*
X6262929Y-17126182D01*
X6348643Y-17326182D02*
X6348643Y-17221420D01*
X6348643Y-17221420D02*
X6339119Y-17202373D01*
X6339119Y-17202373D02*
X6320072Y-17192849D01*
X6320072Y-17192849D02*
X6291500Y-17192849D01*
X6291500Y-17192849D02*
X6272453Y-17202373D01*
X6272453Y-17202373D02*
X6262929Y-17211896D01*
X6472453Y-17326182D02*
X6453405Y-17316658D01*
X6453405Y-17316658D02*
X6443881Y-17307135D01*
X6443881Y-17307135D02*
X6434357Y-17288087D01*
X6434357Y-17288087D02*
X6434357Y-17230944D01*
X6434357Y-17230944D02*
X6443881Y-17211896D01*
X6443881Y-17211896D02*
X6453405Y-17202373D01*
X6453405Y-17202373D02*
X6472453Y-17192849D01*
X6472453Y-17192849D02*
X6501024Y-17192849D01*
X6501024Y-17192849D02*
X6520072Y-17202373D01*
X6520072Y-17202373D02*
X6529596Y-17211896D01*
X6529596Y-17211896D02*
X6539119Y-17230944D01*
X6539119Y-17230944D02*
X6539119Y-17288087D01*
X6539119Y-17288087D02*
X6529596Y-17307135D01*
X6529596Y-17307135D02*
X6520072Y-17316658D01*
X6520072Y-17316658D02*
X6501024Y-17326182D01*
X6501024Y-17326182D02*
X6472453Y-17326182D01*
X6653405Y-17326182D02*
X6634357Y-17316658D01*
X6634357Y-17316658D02*
X6624834Y-17297611D01*
X6624834Y-17297611D02*
X6624834Y-17126182D01*
X6805786Y-17316658D02*
X6786738Y-17326182D01*
X6786738Y-17326182D02*
X6748643Y-17326182D01*
X6748643Y-17326182D02*
X6729596Y-17316658D01*
X6729596Y-17316658D02*
X6720072Y-17297611D01*
X6720072Y-17297611D02*
X6720072Y-17221420D01*
X6720072Y-17221420D02*
X6729596Y-17202373D01*
X6729596Y-17202373D02*
X6748643Y-17192849D01*
X6748643Y-17192849D02*
X6786738Y-17192849D01*
X6786738Y-17192849D02*
X6805786Y-17202373D01*
X6805786Y-17202373D02*
X6815310Y-17221420D01*
X6815310Y-17221420D02*
X6815310Y-17240468D01*
X6815310Y-17240468D02*
X6720072Y-17259516D01*
X6891500Y-17316658D02*
X6910548Y-17326182D01*
X6910548Y-17326182D02*
X6948643Y-17326182D01*
X6948643Y-17326182D02*
X6967691Y-17316658D01*
X6967691Y-17316658D02*
X6977215Y-17297611D01*
X6977215Y-17297611D02*
X6977215Y-17288087D01*
X6977215Y-17288087D02*
X6967691Y-17269039D01*
X6967691Y-17269039D02*
X6948643Y-17259516D01*
X6948643Y-17259516D02*
X6920072Y-17259516D01*
X6920072Y-17259516D02*
X6901024Y-17249992D01*
X6901024Y-17249992D02*
X6891500Y-17230944D01*
X6891500Y-17230944D02*
X6891500Y-17221420D01*
X6891500Y-17221420D02*
X6901024Y-17202373D01*
X6901024Y-17202373D02*
X6920072Y-17192849D01*
X6920072Y-17192849D02*
X6948643Y-17192849D01*
X6948643Y-17192849D02*
X6967691Y-17202373D01*
X7043881Y-17402373D02*
X7053405Y-17392849D01*
X7053405Y-17392849D02*
X7072453Y-17364277D01*
X7072453Y-17364277D02*
X7081977Y-17345230D01*
X7081977Y-17345230D02*
X7091500Y-17316658D01*
X7091500Y-17316658D02*
X7101024Y-17269039D01*
X7101024Y-17269039D02*
X7101024Y-17230944D01*
X7101024Y-17230944D02*
X7091500Y-17183325D01*
X7091500Y-17183325D02*
X7081977Y-17154754D01*
X7081977Y-17154754D02*
X7072453Y-17135706D01*
X7072453Y-17135706D02*
X7053405Y-17107135D01*
X7053405Y-17107135D02*
X7043881Y-17097611D01*
X7405786Y-17402373D02*
X7396262Y-17392849D01*
X7396262Y-17392849D02*
X7377215Y-17364277D01*
X7377215Y-17364277D02*
X7367691Y-17345230D01*
X7367691Y-17345230D02*
X7358167Y-17316658D01*
X7358167Y-17316658D02*
X7348643Y-17269039D01*
X7348643Y-17269039D02*
X7348643Y-17230944D01*
X7348643Y-17230944D02*
X7358167Y-17183325D01*
X7358167Y-17183325D02*
X7367691Y-17154754D01*
X7367691Y-17154754D02*
X7377215Y-17135706D01*
X7377215Y-17135706D02*
X7396262Y-17107135D01*
X7396262Y-17107135D02*
X7405786Y-17097611D01*
X7481977Y-17192849D02*
X7481977Y-17326182D01*
X7481977Y-17211896D02*
X7491500Y-17202373D01*
X7491500Y-17202373D02*
X7510548Y-17192849D01*
X7510548Y-17192849D02*
X7539119Y-17192849D01*
X7539119Y-17192849D02*
X7558167Y-17202373D01*
X7558167Y-17202373D02*
X7567691Y-17221420D01*
X7567691Y-17221420D02*
X7567691Y-17326182D01*
X7691500Y-17326182D02*
X7672453Y-17316658D01*
X7672453Y-17316658D02*
X7662929Y-17307135D01*
X7662929Y-17307135D02*
X7653405Y-17288087D01*
X7653405Y-17288087D02*
X7653405Y-17230944D01*
X7653405Y-17230944D02*
X7662929Y-17211896D01*
X7662929Y-17211896D02*
X7672453Y-17202373D01*
X7672453Y-17202373D02*
X7691500Y-17192849D01*
X7691500Y-17192849D02*
X7720072Y-17192849D01*
X7720072Y-17192849D02*
X7739119Y-17202373D01*
X7739119Y-17202373D02*
X7748643Y-17211896D01*
X7748643Y-17211896D02*
X7758167Y-17230944D01*
X7758167Y-17230944D02*
X7758167Y-17288087D01*
X7758167Y-17288087D02*
X7748643Y-17307135D01*
X7748643Y-17307135D02*
X7739119Y-17316658D01*
X7739119Y-17316658D02*
X7720072Y-17326182D01*
X7720072Y-17326182D02*
X7691500Y-17326182D01*
X7815310Y-17192849D02*
X7891500Y-17192849D01*
X7843881Y-17126182D02*
X7843881Y-17297611D01*
X7843881Y-17297611D02*
X7853405Y-17316658D01*
X7853405Y-17316658D02*
X7872453Y-17326182D01*
X7872453Y-17326182D02*
X7891500Y-17326182D01*
X8110548Y-17192849D02*
X8110548Y-17392849D01*
X8110548Y-17202373D02*
X8129596Y-17192849D01*
X8129596Y-17192849D02*
X8167691Y-17192849D01*
X8167691Y-17192849D02*
X8186739Y-17202373D01*
X8186739Y-17202373D02*
X8196262Y-17211896D01*
X8196262Y-17211896D02*
X8205786Y-17230944D01*
X8205786Y-17230944D02*
X8205786Y-17288087D01*
X8205786Y-17288087D02*
X8196262Y-17307135D01*
X8196262Y-17307135D02*
X8186739Y-17316658D01*
X8186739Y-17316658D02*
X8167691Y-17326182D01*
X8167691Y-17326182D02*
X8129596Y-17326182D01*
X8129596Y-17326182D02*
X8110548Y-17316658D01*
X8320072Y-17326182D02*
X8301024Y-17316658D01*
X8301024Y-17316658D02*
X8291500Y-17297611D01*
X8291500Y-17297611D02*
X8291500Y-17126182D01*
X8481977Y-17326182D02*
X8481977Y-17221420D01*
X8481977Y-17221420D02*
X8472453Y-17202373D01*
X8472453Y-17202373D02*
X8453405Y-17192849D01*
X8453405Y-17192849D02*
X8415310Y-17192849D01*
X8415310Y-17192849D02*
X8396262Y-17202373D01*
X8481977Y-17316658D02*
X8462929Y-17326182D01*
X8462929Y-17326182D02*
X8415310Y-17326182D01*
X8415310Y-17326182D02*
X8396262Y-17316658D01*
X8396262Y-17316658D02*
X8386739Y-17297611D01*
X8386739Y-17297611D02*
X8386739Y-17278563D01*
X8386739Y-17278563D02*
X8396262Y-17259516D01*
X8396262Y-17259516D02*
X8415310Y-17249992D01*
X8415310Y-17249992D02*
X8462929Y-17249992D01*
X8462929Y-17249992D02*
X8481977Y-17240468D01*
X8548643Y-17192849D02*
X8624834Y-17192849D01*
X8577215Y-17126182D02*
X8577215Y-17297611D01*
X8577215Y-17297611D02*
X8586739Y-17316658D01*
X8586739Y-17316658D02*
X8605786Y-17326182D01*
X8605786Y-17326182D02*
X8624834Y-17326182D01*
X8767691Y-17316658D02*
X8748643Y-17326182D01*
X8748643Y-17326182D02*
X8710548Y-17326182D01*
X8710548Y-17326182D02*
X8691501Y-17316658D01*
X8691501Y-17316658D02*
X8681977Y-17297611D01*
X8681977Y-17297611D02*
X8681977Y-17221420D01*
X8681977Y-17221420D02*
X8691501Y-17202373D01*
X8691501Y-17202373D02*
X8710548Y-17192849D01*
X8710548Y-17192849D02*
X8748643Y-17192849D01*
X8748643Y-17192849D02*
X8767691Y-17202373D01*
X8767691Y-17202373D02*
X8777215Y-17221420D01*
X8777215Y-17221420D02*
X8777215Y-17240468D01*
X8777215Y-17240468D02*
X8681977Y-17259516D01*
X8948643Y-17326182D02*
X8948643Y-17126182D01*
X8948643Y-17316658D02*
X8929596Y-17326182D01*
X8929596Y-17326182D02*
X8891501Y-17326182D01*
X8891501Y-17326182D02*
X8872453Y-17316658D01*
X8872453Y-17316658D02*
X8862929Y-17307135D01*
X8862929Y-17307135D02*
X8853405Y-17288087D01*
X8853405Y-17288087D02*
X8853405Y-17230944D01*
X8853405Y-17230944D02*
X8862929Y-17211896D01*
X8862929Y-17211896D02*
X8872453Y-17202373D01*
X8872453Y-17202373D02*
X8891501Y-17192849D01*
X8891501Y-17192849D02*
X8929596Y-17192849D01*
X8929596Y-17192849D02*
X8948643Y-17202373D01*
X9024834Y-17402373D02*
X9034358Y-17392849D01*
X9034358Y-17392849D02*
X9053405Y-17364277D01*
X9053405Y-17364277D02*
X9062929Y-17345230D01*
X9062929Y-17345230D02*
X9072453Y-17316658D01*
X9072453Y-17316658D02*
X9081977Y-17269039D01*
X9081977Y-17269039D02*
X9081977Y-17230944D01*
X9081977Y-17230944D02*
X9072453Y-17183325D01*
X9072453Y-17183325D02*
X9062929Y-17154754D01*
X9062929Y-17154754D02*
X9053405Y-17135706D01*
X9053405Y-17135706D02*
X9034358Y-17107135D01*
X9034358Y-17107135D02*
X9024834Y-17097611D01*
X1991500Y-17453658D02*
X1991500Y-17653658D01*
X1891500Y-17553658D02*
X2091500Y-17553658D01*
X2320071Y-17446182D02*
X2443881Y-17446182D01*
X2443881Y-17446182D02*
X2377214Y-17522373D01*
X2377214Y-17522373D02*
X2405786Y-17522373D01*
X2405786Y-17522373D02*
X2424833Y-17531896D01*
X2424833Y-17531896D02*
X2434357Y-17541420D01*
X2434357Y-17541420D02*
X2443881Y-17560468D01*
X2443881Y-17560468D02*
X2443881Y-17608087D01*
X2443881Y-17608087D02*
X2434357Y-17627135D01*
X2434357Y-17627135D02*
X2424833Y-17636658D01*
X2424833Y-17636658D02*
X2405786Y-17646182D01*
X2405786Y-17646182D02*
X2348643Y-17646182D01*
X2348643Y-17646182D02*
X2329595Y-17636658D01*
X2329595Y-17636658D02*
X2320071Y-17627135D01*
X2529595Y-17627135D02*
X2539119Y-17636658D01*
X2539119Y-17636658D02*
X2529595Y-17646182D01*
X2529595Y-17646182D02*
X2520071Y-17636658D01*
X2520071Y-17636658D02*
X2529595Y-17627135D01*
X2529595Y-17627135D02*
X2529595Y-17646182D01*
X2662929Y-17446182D02*
X2681976Y-17446182D01*
X2681976Y-17446182D02*
X2701024Y-17455706D01*
X2701024Y-17455706D02*
X2710548Y-17465230D01*
X2710548Y-17465230D02*
X2720071Y-17484277D01*
X2720071Y-17484277D02*
X2729595Y-17522373D01*
X2729595Y-17522373D02*
X2729595Y-17569992D01*
X2729595Y-17569992D02*
X2720071Y-17608087D01*
X2720071Y-17608087D02*
X2710548Y-17627135D01*
X2710548Y-17627135D02*
X2701024Y-17636658D01*
X2701024Y-17636658D02*
X2681976Y-17646182D01*
X2681976Y-17646182D02*
X2662929Y-17646182D01*
X2662929Y-17646182D02*
X2643881Y-17636658D01*
X2643881Y-17636658D02*
X2634357Y-17627135D01*
X2634357Y-17627135D02*
X2624833Y-17608087D01*
X2624833Y-17608087D02*
X2615310Y-17569992D01*
X2615310Y-17569992D02*
X2615310Y-17522373D01*
X2615310Y-17522373D02*
X2624833Y-17484277D01*
X2624833Y-17484277D02*
X2634357Y-17465230D01*
X2634357Y-17465230D02*
X2643881Y-17455706D01*
X2643881Y-17455706D02*
X2662929Y-17446182D01*
X2901024Y-17512849D02*
X2901024Y-17646182D01*
X2853405Y-17436658D02*
X2805786Y-17579516D01*
X2805786Y-17579516D02*
X2929595Y-17579516D01*
X3034357Y-17531896D02*
X3015309Y-17522373D01*
X3015309Y-17522373D02*
X3005786Y-17512849D01*
X3005786Y-17512849D02*
X2996262Y-17493801D01*
X2996262Y-17493801D02*
X2996262Y-17484277D01*
X2996262Y-17484277D02*
X3005786Y-17465230D01*
X3005786Y-17465230D02*
X3015309Y-17455706D01*
X3015309Y-17455706D02*
X3034357Y-17446182D01*
X3034357Y-17446182D02*
X3072452Y-17446182D01*
X3072452Y-17446182D02*
X3091500Y-17455706D01*
X3091500Y-17455706D02*
X3101024Y-17465230D01*
X3101024Y-17465230D02*
X3110548Y-17484277D01*
X3110548Y-17484277D02*
X3110548Y-17493801D01*
X3110548Y-17493801D02*
X3101024Y-17512849D01*
X3101024Y-17512849D02*
X3091500Y-17522373D01*
X3091500Y-17522373D02*
X3072452Y-17531896D01*
X3072452Y-17531896D02*
X3034357Y-17531896D01*
X3034357Y-17531896D02*
X3015309Y-17541420D01*
X3015309Y-17541420D02*
X3005786Y-17550944D01*
X3005786Y-17550944D02*
X2996262Y-17569992D01*
X2996262Y-17569992D02*
X2996262Y-17608087D01*
X2996262Y-17608087D02*
X3005786Y-17627135D01*
X3005786Y-17627135D02*
X3015309Y-17636658D01*
X3015309Y-17636658D02*
X3034357Y-17646182D01*
X3034357Y-17646182D02*
X3072452Y-17646182D01*
X3072452Y-17646182D02*
X3091500Y-17636658D01*
X3091500Y-17636658D02*
X3101024Y-17627135D01*
X3101024Y-17627135D02*
X3110548Y-17608087D01*
X3110548Y-17608087D02*
X3110548Y-17569992D01*
X3110548Y-17569992D02*
X3101024Y-17550944D01*
X3101024Y-17550944D02*
X3091500Y-17541420D01*
X3091500Y-17541420D02*
X3072452Y-17531896D01*
X3196262Y-17646182D02*
X3196262Y-17512849D01*
X3196262Y-17531896D02*
X3205786Y-17522373D01*
X3205786Y-17522373D02*
X3224833Y-17512849D01*
X3224833Y-17512849D02*
X3253405Y-17512849D01*
X3253405Y-17512849D02*
X3272452Y-17522373D01*
X3272452Y-17522373D02*
X3281976Y-17541420D01*
X3281976Y-17541420D02*
X3281976Y-17646182D01*
X3281976Y-17541420D02*
X3291500Y-17522373D01*
X3291500Y-17522373D02*
X3310548Y-17512849D01*
X3310548Y-17512849D02*
X3339119Y-17512849D01*
X3339119Y-17512849D02*
X3358167Y-17522373D01*
X3358167Y-17522373D02*
X3367690Y-17541420D01*
X3367690Y-17541420D02*
X3367690Y-17646182D01*
X3462929Y-17646182D02*
X3462929Y-17512849D01*
X3462929Y-17531896D02*
X3472452Y-17522373D01*
X3472452Y-17522373D02*
X3491500Y-17512849D01*
X3491500Y-17512849D02*
X3520071Y-17512849D01*
X3520071Y-17512849D02*
X3539119Y-17522373D01*
X3539119Y-17522373D02*
X3548643Y-17541420D01*
X3548643Y-17541420D02*
X3548643Y-17646182D01*
X3548643Y-17541420D02*
X3558167Y-17522373D01*
X3558167Y-17522373D02*
X3577214Y-17512849D01*
X3577214Y-17512849D02*
X3605786Y-17512849D01*
X3605786Y-17512849D02*
X3624833Y-17522373D01*
X3624833Y-17522373D02*
X3634357Y-17541420D01*
X3634357Y-17541420D02*
X3634357Y-17646182D01*
X4024833Y-17436658D02*
X3853405Y-17693801D01*
X4281976Y-17446182D02*
X4301024Y-17446182D01*
X4301024Y-17446182D02*
X4320072Y-17455706D01*
X4320072Y-17455706D02*
X4329595Y-17465230D01*
X4329595Y-17465230D02*
X4339119Y-17484277D01*
X4339119Y-17484277D02*
X4348643Y-17522373D01*
X4348643Y-17522373D02*
X4348643Y-17569992D01*
X4348643Y-17569992D02*
X4339119Y-17608087D01*
X4339119Y-17608087D02*
X4329595Y-17627135D01*
X4329595Y-17627135D02*
X4320072Y-17636658D01*
X4320072Y-17636658D02*
X4301024Y-17646182D01*
X4301024Y-17646182D02*
X4281976Y-17646182D01*
X4281976Y-17646182D02*
X4262929Y-17636658D01*
X4262929Y-17636658D02*
X4253405Y-17627135D01*
X4253405Y-17627135D02*
X4243881Y-17608087D01*
X4243881Y-17608087D02*
X4234357Y-17569992D01*
X4234357Y-17569992D02*
X4234357Y-17522373D01*
X4234357Y-17522373D02*
X4243881Y-17484277D01*
X4243881Y-17484277D02*
X4253405Y-17465230D01*
X4253405Y-17465230D02*
X4262929Y-17455706D01*
X4262929Y-17455706D02*
X4281976Y-17446182D01*
X4434357Y-17627135D02*
X4443881Y-17636658D01*
X4443881Y-17636658D02*
X4434357Y-17646182D01*
X4434357Y-17646182D02*
X4424834Y-17636658D01*
X4424834Y-17636658D02*
X4434357Y-17627135D01*
X4434357Y-17627135D02*
X4434357Y-17646182D01*
X4634357Y-17646182D02*
X4520072Y-17646182D01*
X4577214Y-17646182D02*
X4577214Y-17446182D01*
X4577214Y-17446182D02*
X4558167Y-17474754D01*
X4558167Y-17474754D02*
X4539119Y-17493801D01*
X4539119Y-17493801D02*
X4520072Y-17503325D01*
X4710548Y-17465230D02*
X4720072Y-17455706D01*
X4720072Y-17455706D02*
X4739119Y-17446182D01*
X4739119Y-17446182D02*
X4786738Y-17446182D01*
X4786738Y-17446182D02*
X4805786Y-17455706D01*
X4805786Y-17455706D02*
X4815310Y-17465230D01*
X4815310Y-17465230D02*
X4824834Y-17484277D01*
X4824834Y-17484277D02*
X4824834Y-17503325D01*
X4824834Y-17503325D02*
X4815310Y-17531896D01*
X4815310Y-17531896D02*
X4701024Y-17646182D01*
X4701024Y-17646182D02*
X4824834Y-17646182D01*
X4948643Y-17446182D02*
X4967691Y-17446182D01*
X4967691Y-17446182D02*
X4986738Y-17455706D01*
X4986738Y-17455706D02*
X4996262Y-17465230D01*
X4996262Y-17465230D02*
X5005786Y-17484277D01*
X5005786Y-17484277D02*
X5015310Y-17522373D01*
X5015310Y-17522373D02*
X5015310Y-17569992D01*
X5015310Y-17569992D02*
X5005786Y-17608087D01*
X5005786Y-17608087D02*
X4996262Y-17627135D01*
X4996262Y-17627135D02*
X4986738Y-17636658D01*
X4986738Y-17636658D02*
X4967691Y-17646182D01*
X4967691Y-17646182D02*
X4948643Y-17646182D01*
X4948643Y-17646182D02*
X4929595Y-17636658D01*
X4929595Y-17636658D02*
X4920072Y-17627135D01*
X4920072Y-17627135D02*
X4910548Y-17608087D01*
X4910548Y-17608087D02*
X4901024Y-17569992D01*
X4901024Y-17569992D02*
X4901024Y-17522373D01*
X4901024Y-17522373D02*
X4910548Y-17484277D01*
X4910548Y-17484277D02*
X4920072Y-17465230D01*
X4920072Y-17465230D02*
X4929595Y-17455706D01*
X4929595Y-17455706D02*
X4948643Y-17446182D01*
X5139119Y-17446182D02*
X5158167Y-17446182D01*
X5158167Y-17446182D02*
X5177215Y-17455706D01*
X5177215Y-17455706D02*
X5186738Y-17465230D01*
X5186738Y-17465230D02*
X5196262Y-17484277D01*
X5196262Y-17484277D02*
X5205786Y-17522373D01*
X5205786Y-17522373D02*
X5205786Y-17569992D01*
X5205786Y-17569992D02*
X5196262Y-17608087D01*
X5196262Y-17608087D02*
X5186738Y-17627135D01*
X5186738Y-17627135D02*
X5177215Y-17636658D01*
X5177215Y-17636658D02*
X5158167Y-17646182D01*
X5158167Y-17646182D02*
X5139119Y-17646182D01*
X5139119Y-17646182D02*
X5120072Y-17636658D01*
X5120072Y-17636658D02*
X5110548Y-17627135D01*
X5110548Y-17627135D02*
X5101024Y-17608087D01*
X5101024Y-17608087D02*
X5091500Y-17569992D01*
X5091500Y-17569992D02*
X5091500Y-17522373D01*
X5091500Y-17522373D02*
X5101024Y-17484277D01*
X5101024Y-17484277D02*
X5110548Y-17465230D01*
X5110548Y-17465230D02*
X5120072Y-17455706D01*
X5120072Y-17455706D02*
X5139119Y-17446182D01*
X5281976Y-17446182D02*
X5281976Y-17484277D01*
X5358167Y-17446182D02*
X5358167Y-17484277D01*
X5653405Y-17722373D02*
X5643881Y-17712849D01*
X5643881Y-17712849D02*
X5624834Y-17684277D01*
X5624834Y-17684277D02*
X5615310Y-17665230D01*
X5615310Y-17665230D02*
X5605786Y-17636658D01*
X5605786Y-17636658D02*
X5596262Y-17589039D01*
X5596262Y-17589039D02*
X5596262Y-17550944D01*
X5596262Y-17550944D02*
X5605786Y-17503325D01*
X5605786Y-17503325D02*
X5615310Y-17474754D01*
X5615310Y-17474754D02*
X5624834Y-17455706D01*
X5624834Y-17455706D02*
X5643881Y-17427135D01*
X5643881Y-17427135D02*
X5653405Y-17417611D01*
X5720072Y-17465230D02*
X5729595Y-17455706D01*
X5729595Y-17455706D02*
X5748643Y-17446182D01*
X5748643Y-17446182D02*
X5796262Y-17446182D01*
X5796262Y-17446182D02*
X5815310Y-17455706D01*
X5815310Y-17455706D02*
X5824834Y-17465230D01*
X5824834Y-17465230D02*
X5834357Y-17484277D01*
X5834357Y-17484277D02*
X5834357Y-17503325D01*
X5834357Y-17503325D02*
X5824834Y-17531896D01*
X5824834Y-17531896D02*
X5710548Y-17646182D01*
X5710548Y-17646182D02*
X5834357Y-17646182D01*
X6072453Y-17646182D02*
X6072453Y-17446182D01*
X6158167Y-17646182D02*
X6158167Y-17541420D01*
X6158167Y-17541420D02*
X6148643Y-17522373D01*
X6148643Y-17522373D02*
X6129596Y-17512849D01*
X6129596Y-17512849D02*
X6101024Y-17512849D01*
X6101024Y-17512849D02*
X6081976Y-17522373D01*
X6081976Y-17522373D02*
X6072453Y-17531896D01*
X6281976Y-17646182D02*
X6262929Y-17636658D01*
X6262929Y-17636658D02*
X6253405Y-17627135D01*
X6253405Y-17627135D02*
X6243881Y-17608087D01*
X6243881Y-17608087D02*
X6243881Y-17550944D01*
X6243881Y-17550944D02*
X6253405Y-17531896D01*
X6253405Y-17531896D02*
X6262929Y-17522373D01*
X6262929Y-17522373D02*
X6281976Y-17512849D01*
X6281976Y-17512849D02*
X6310548Y-17512849D01*
X6310548Y-17512849D02*
X6329596Y-17522373D01*
X6329596Y-17522373D02*
X6339119Y-17531896D01*
X6339119Y-17531896D02*
X6348643Y-17550944D01*
X6348643Y-17550944D02*
X6348643Y-17608087D01*
X6348643Y-17608087D02*
X6339119Y-17627135D01*
X6339119Y-17627135D02*
X6329596Y-17636658D01*
X6329596Y-17636658D02*
X6310548Y-17646182D01*
X6310548Y-17646182D02*
X6281976Y-17646182D01*
X6462929Y-17646182D02*
X6443881Y-17636658D01*
X6443881Y-17636658D02*
X6434357Y-17617611D01*
X6434357Y-17617611D02*
X6434357Y-17446182D01*
X6615310Y-17636658D02*
X6596262Y-17646182D01*
X6596262Y-17646182D02*
X6558167Y-17646182D01*
X6558167Y-17646182D02*
X6539119Y-17636658D01*
X6539119Y-17636658D02*
X6529596Y-17617611D01*
X6529596Y-17617611D02*
X6529596Y-17541420D01*
X6529596Y-17541420D02*
X6539119Y-17522373D01*
X6539119Y-17522373D02*
X6558167Y-17512849D01*
X6558167Y-17512849D02*
X6596262Y-17512849D01*
X6596262Y-17512849D02*
X6615310Y-17522373D01*
X6615310Y-17522373D02*
X6624834Y-17541420D01*
X6624834Y-17541420D02*
X6624834Y-17560468D01*
X6624834Y-17560468D02*
X6529596Y-17579516D01*
X6701024Y-17636658D02*
X6720072Y-17646182D01*
X6720072Y-17646182D02*
X6758167Y-17646182D01*
X6758167Y-17646182D02*
X6777215Y-17636658D01*
X6777215Y-17636658D02*
X6786738Y-17617611D01*
X6786738Y-17617611D02*
X6786738Y-17608087D01*
X6786738Y-17608087D02*
X6777215Y-17589039D01*
X6777215Y-17589039D02*
X6758167Y-17579516D01*
X6758167Y-17579516D02*
X6729596Y-17579516D01*
X6729596Y-17579516D02*
X6710548Y-17569992D01*
X6710548Y-17569992D02*
X6701024Y-17550944D01*
X6701024Y-17550944D02*
X6701024Y-17541420D01*
X6701024Y-17541420D02*
X6710548Y-17522373D01*
X6710548Y-17522373D02*
X6729596Y-17512849D01*
X6729596Y-17512849D02*
X6758167Y-17512849D01*
X6758167Y-17512849D02*
X6777215Y-17522373D01*
X6853405Y-17722373D02*
X6862929Y-17712849D01*
X6862929Y-17712849D02*
X6881977Y-17684277D01*
X6881977Y-17684277D02*
X6891500Y-17665230D01*
X6891500Y-17665230D02*
X6901024Y-17636658D01*
X6901024Y-17636658D02*
X6910548Y-17589039D01*
X6910548Y-17589039D02*
X6910548Y-17550944D01*
X6910548Y-17550944D02*
X6901024Y-17503325D01*
X6901024Y-17503325D02*
X6891500Y-17474754D01*
X6891500Y-17474754D02*
X6881977Y-17455706D01*
X6881977Y-17455706D02*
X6862929Y-17427135D01*
X6862929Y-17427135D02*
X6853405Y-17417611D01*
X7215310Y-17722373D02*
X7205786Y-17712849D01*
X7205786Y-17712849D02*
X7186738Y-17684277D01*
X7186738Y-17684277D02*
X7177215Y-17665230D01*
X7177215Y-17665230D02*
X7167691Y-17636658D01*
X7167691Y-17636658D02*
X7158167Y-17589039D01*
X7158167Y-17589039D02*
X7158167Y-17550944D01*
X7158167Y-17550944D02*
X7167691Y-17503325D01*
X7167691Y-17503325D02*
X7177215Y-17474754D01*
X7177215Y-17474754D02*
X7186738Y-17455706D01*
X7186738Y-17455706D02*
X7205786Y-17427135D01*
X7205786Y-17427135D02*
X7215310Y-17417611D01*
X7291500Y-17512849D02*
X7291500Y-17646182D01*
X7291500Y-17531896D02*
X7301024Y-17522373D01*
X7301024Y-17522373D02*
X7320072Y-17512849D01*
X7320072Y-17512849D02*
X7348643Y-17512849D01*
X7348643Y-17512849D02*
X7367691Y-17522373D01*
X7367691Y-17522373D02*
X7377215Y-17541420D01*
X7377215Y-17541420D02*
X7377215Y-17646182D01*
X7501024Y-17646182D02*
X7481977Y-17636658D01*
X7481977Y-17636658D02*
X7472453Y-17627135D01*
X7472453Y-17627135D02*
X7462929Y-17608087D01*
X7462929Y-17608087D02*
X7462929Y-17550944D01*
X7462929Y-17550944D02*
X7472453Y-17531896D01*
X7472453Y-17531896D02*
X7481977Y-17522373D01*
X7481977Y-17522373D02*
X7501024Y-17512849D01*
X7501024Y-17512849D02*
X7529596Y-17512849D01*
X7529596Y-17512849D02*
X7548643Y-17522373D01*
X7548643Y-17522373D02*
X7558167Y-17531896D01*
X7558167Y-17531896D02*
X7567691Y-17550944D01*
X7567691Y-17550944D02*
X7567691Y-17608087D01*
X7567691Y-17608087D02*
X7558167Y-17627135D01*
X7558167Y-17627135D02*
X7548643Y-17636658D01*
X7548643Y-17636658D02*
X7529596Y-17646182D01*
X7529596Y-17646182D02*
X7501024Y-17646182D01*
X7624834Y-17512849D02*
X7701024Y-17512849D01*
X7653405Y-17446182D02*
X7653405Y-17617611D01*
X7653405Y-17617611D02*
X7662929Y-17636658D01*
X7662929Y-17636658D02*
X7681977Y-17646182D01*
X7681977Y-17646182D02*
X7701024Y-17646182D01*
X7920072Y-17512849D02*
X7920072Y-17712849D01*
X7920072Y-17522373D02*
X7939119Y-17512849D01*
X7939119Y-17512849D02*
X7977215Y-17512849D01*
X7977215Y-17512849D02*
X7996262Y-17522373D01*
X7996262Y-17522373D02*
X8005786Y-17531896D01*
X8005786Y-17531896D02*
X8015310Y-17550944D01*
X8015310Y-17550944D02*
X8015310Y-17608087D01*
X8015310Y-17608087D02*
X8005786Y-17627135D01*
X8005786Y-17627135D02*
X7996262Y-17636658D01*
X7996262Y-17636658D02*
X7977215Y-17646182D01*
X7977215Y-17646182D02*
X7939119Y-17646182D01*
X7939119Y-17646182D02*
X7920072Y-17636658D01*
X8129596Y-17646182D02*
X8110548Y-17636658D01*
X8110548Y-17636658D02*
X8101024Y-17617611D01*
X8101024Y-17617611D02*
X8101024Y-17446182D01*
X8291500Y-17646182D02*
X8291500Y-17541420D01*
X8291500Y-17541420D02*
X8281977Y-17522373D01*
X8281977Y-17522373D02*
X8262929Y-17512849D01*
X8262929Y-17512849D02*
X8224834Y-17512849D01*
X8224834Y-17512849D02*
X8205786Y-17522373D01*
X8291500Y-17636658D02*
X8272453Y-17646182D01*
X8272453Y-17646182D02*
X8224834Y-17646182D01*
X8224834Y-17646182D02*
X8205786Y-17636658D01*
X8205786Y-17636658D02*
X8196262Y-17617611D01*
X8196262Y-17617611D02*
X8196262Y-17598563D01*
X8196262Y-17598563D02*
X8205786Y-17579516D01*
X8205786Y-17579516D02*
X8224834Y-17569992D01*
X8224834Y-17569992D02*
X8272453Y-17569992D01*
X8272453Y-17569992D02*
X8291500Y-17560468D01*
X8358167Y-17512849D02*
X8434358Y-17512849D01*
X8386739Y-17446182D02*
X8386739Y-17617611D01*
X8386739Y-17617611D02*
X8396262Y-17636658D01*
X8396262Y-17636658D02*
X8415310Y-17646182D01*
X8415310Y-17646182D02*
X8434358Y-17646182D01*
X8577215Y-17636658D02*
X8558167Y-17646182D01*
X8558167Y-17646182D02*
X8520072Y-17646182D01*
X8520072Y-17646182D02*
X8501024Y-17636658D01*
X8501024Y-17636658D02*
X8491501Y-17617611D01*
X8491501Y-17617611D02*
X8491501Y-17541420D01*
X8491501Y-17541420D02*
X8501024Y-17522373D01*
X8501024Y-17522373D02*
X8520072Y-17512849D01*
X8520072Y-17512849D02*
X8558167Y-17512849D01*
X8558167Y-17512849D02*
X8577215Y-17522373D01*
X8577215Y-17522373D02*
X8586739Y-17541420D01*
X8586739Y-17541420D02*
X8586739Y-17560468D01*
X8586739Y-17560468D02*
X8491501Y-17579516D01*
X8758167Y-17646182D02*
X8758167Y-17446182D01*
X8758167Y-17636658D02*
X8739120Y-17646182D01*
X8739120Y-17646182D02*
X8701024Y-17646182D01*
X8701024Y-17646182D02*
X8681977Y-17636658D01*
X8681977Y-17636658D02*
X8672453Y-17627135D01*
X8672453Y-17627135D02*
X8662929Y-17608087D01*
X8662929Y-17608087D02*
X8662929Y-17550944D01*
X8662929Y-17550944D02*
X8672453Y-17531896D01*
X8672453Y-17531896D02*
X8681977Y-17522373D01*
X8681977Y-17522373D02*
X8701024Y-17512849D01*
X8701024Y-17512849D02*
X8739120Y-17512849D01*
X8739120Y-17512849D02*
X8758167Y-17522373D01*
X8834358Y-17722373D02*
X8843882Y-17712849D01*
X8843882Y-17712849D02*
X8862929Y-17684277D01*
X8862929Y-17684277D02*
X8872453Y-17665230D01*
X8872453Y-17665230D02*
X8881977Y-17636658D01*
X8881977Y-17636658D02*
X8891501Y-17589039D01*
X8891501Y-17589039D02*
X8891501Y-17550944D01*
X8891501Y-17550944D02*
X8881977Y-17503325D01*
X8881977Y-17503325D02*
X8872453Y-17474754D01*
X8872453Y-17474754D02*
X8862929Y-17455706D01*
X8862929Y-17455706D02*
X8843882Y-17427135D01*
X8843882Y-17427135D02*
X8834358Y-17417611D01*
X2062211Y-17944370D02*
X2062211Y-17802947D01*
X1920789Y-17802947D01*
X1920789Y-17944370D01*
X2062211Y-17944370D01*
X2320071Y-17766182D02*
X2443881Y-17766182D01*
X2443881Y-17766182D02*
X2377214Y-17842373D01*
X2377214Y-17842373D02*
X2405786Y-17842373D01*
X2405786Y-17842373D02*
X2424833Y-17851896D01*
X2424833Y-17851896D02*
X2434357Y-17861420D01*
X2434357Y-17861420D02*
X2443881Y-17880468D01*
X2443881Y-17880468D02*
X2443881Y-17928087D01*
X2443881Y-17928087D02*
X2434357Y-17947135D01*
X2434357Y-17947135D02*
X2424833Y-17956658D01*
X2424833Y-17956658D02*
X2405786Y-17966182D01*
X2405786Y-17966182D02*
X2348643Y-17966182D01*
X2348643Y-17966182D02*
X2329595Y-17956658D01*
X2329595Y-17956658D02*
X2320071Y-17947135D01*
X2529595Y-17947135D02*
X2539119Y-17956658D01*
X2539119Y-17956658D02*
X2529595Y-17966182D01*
X2529595Y-17966182D02*
X2520071Y-17956658D01*
X2520071Y-17956658D02*
X2529595Y-17947135D01*
X2529595Y-17947135D02*
X2529595Y-17966182D01*
X2634357Y-17966182D02*
X2672452Y-17966182D01*
X2672452Y-17966182D02*
X2691500Y-17956658D01*
X2691500Y-17956658D02*
X2701024Y-17947135D01*
X2701024Y-17947135D02*
X2720071Y-17918563D01*
X2720071Y-17918563D02*
X2729595Y-17880468D01*
X2729595Y-17880468D02*
X2729595Y-17804277D01*
X2729595Y-17804277D02*
X2720071Y-17785230D01*
X2720071Y-17785230D02*
X2710548Y-17775706D01*
X2710548Y-17775706D02*
X2691500Y-17766182D01*
X2691500Y-17766182D02*
X2653405Y-17766182D01*
X2653405Y-17766182D02*
X2634357Y-17775706D01*
X2634357Y-17775706D02*
X2624833Y-17785230D01*
X2624833Y-17785230D02*
X2615310Y-17804277D01*
X2615310Y-17804277D02*
X2615310Y-17851896D01*
X2615310Y-17851896D02*
X2624833Y-17870944D01*
X2624833Y-17870944D02*
X2634357Y-17880468D01*
X2634357Y-17880468D02*
X2653405Y-17889992D01*
X2653405Y-17889992D02*
X2691500Y-17889992D01*
X2691500Y-17889992D02*
X2710548Y-17880468D01*
X2710548Y-17880468D02*
X2720071Y-17870944D01*
X2720071Y-17870944D02*
X2729595Y-17851896D01*
X2843881Y-17851896D02*
X2824833Y-17842373D01*
X2824833Y-17842373D02*
X2815309Y-17832849D01*
X2815309Y-17832849D02*
X2805786Y-17813801D01*
X2805786Y-17813801D02*
X2805786Y-17804277D01*
X2805786Y-17804277D02*
X2815309Y-17785230D01*
X2815309Y-17785230D02*
X2824833Y-17775706D01*
X2824833Y-17775706D02*
X2843881Y-17766182D01*
X2843881Y-17766182D02*
X2881976Y-17766182D01*
X2881976Y-17766182D02*
X2901024Y-17775706D01*
X2901024Y-17775706D02*
X2910548Y-17785230D01*
X2910548Y-17785230D02*
X2920071Y-17804277D01*
X2920071Y-17804277D02*
X2920071Y-17813801D01*
X2920071Y-17813801D02*
X2910548Y-17832849D01*
X2910548Y-17832849D02*
X2901024Y-17842373D01*
X2901024Y-17842373D02*
X2881976Y-17851896D01*
X2881976Y-17851896D02*
X2843881Y-17851896D01*
X2843881Y-17851896D02*
X2824833Y-17861420D01*
X2824833Y-17861420D02*
X2815309Y-17870944D01*
X2815309Y-17870944D02*
X2805786Y-17889992D01*
X2805786Y-17889992D02*
X2805786Y-17928087D01*
X2805786Y-17928087D02*
X2815309Y-17947135D01*
X2815309Y-17947135D02*
X2824833Y-17956658D01*
X2824833Y-17956658D02*
X2843881Y-17966182D01*
X2843881Y-17966182D02*
X2881976Y-17966182D01*
X2881976Y-17966182D02*
X2901024Y-17956658D01*
X2901024Y-17956658D02*
X2910548Y-17947135D01*
X2910548Y-17947135D02*
X2920071Y-17928087D01*
X2920071Y-17928087D02*
X2920071Y-17889992D01*
X2920071Y-17889992D02*
X2910548Y-17870944D01*
X2910548Y-17870944D02*
X2901024Y-17861420D01*
X2901024Y-17861420D02*
X2881976Y-17851896D01*
X3034357Y-17851896D02*
X3015309Y-17842373D01*
X3015309Y-17842373D02*
X3005786Y-17832849D01*
X3005786Y-17832849D02*
X2996262Y-17813801D01*
X2996262Y-17813801D02*
X2996262Y-17804277D01*
X2996262Y-17804277D02*
X3005786Y-17785230D01*
X3005786Y-17785230D02*
X3015309Y-17775706D01*
X3015309Y-17775706D02*
X3034357Y-17766182D01*
X3034357Y-17766182D02*
X3072452Y-17766182D01*
X3072452Y-17766182D02*
X3091500Y-17775706D01*
X3091500Y-17775706D02*
X3101024Y-17785230D01*
X3101024Y-17785230D02*
X3110548Y-17804277D01*
X3110548Y-17804277D02*
X3110548Y-17813801D01*
X3110548Y-17813801D02*
X3101024Y-17832849D01*
X3101024Y-17832849D02*
X3091500Y-17842373D01*
X3091500Y-17842373D02*
X3072452Y-17851896D01*
X3072452Y-17851896D02*
X3034357Y-17851896D01*
X3034357Y-17851896D02*
X3015309Y-17861420D01*
X3015309Y-17861420D02*
X3005786Y-17870944D01*
X3005786Y-17870944D02*
X2996262Y-17889992D01*
X2996262Y-17889992D02*
X2996262Y-17928087D01*
X2996262Y-17928087D02*
X3005786Y-17947135D01*
X3005786Y-17947135D02*
X3015309Y-17956658D01*
X3015309Y-17956658D02*
X3034357Y-17966182D01*
X3034357Y-17966182D02*
X3072452Y-17966182D01*
X3072452Y-17966182D02*
X3091500Y-17956658D01*
X3091500Y-17956658D02*
X3101024Y-17947135D01*
X3101024Y-17947135D02*
X3110548Y-17928087D01*
X3110548Y-17928087D02*
X3110548Y-17889992D01*
X3110548Y-17889992D02*
X3101024Y-17870944D01*
X3101024Y-17870944D02*
X3091500Y-17861420D01*
X3091500Y-17861420D02*
X3072452Y-17851896D01*
X3196262Y-17966182D02*
X3196262Y-17832849D01*
X3196262Y-17851896D02*
X3205786Y-17842373D01*
X3205786Y-17842373D02*
X3224833Y-17832849D01*
X3224833Y-17832849D02*
X3253405Y-17832849D01*
X3253405Y-17832849D02*
X3272452Y-17842373D01*
X3272452Y-17842373D02*
X3281976Y-17861420D01*
X3281976Y-17861420D02*
X3281976Y-17966182D01*
X3281976Y-17861420D02*
X3291500Y-17842373D01*
X3291500Y-17842373D02*
X3310548Y-17832849D01*
X3310548Y-17832849D02*
X3339119Y-17832849D01*
X3339119Y-17832849D02*
X3358167Y-17842373D01*
X3358167Y-17842373D02*
X3367690Y-17861420D01*
X3367690Y-17861420D02*
X3367690Y-17966182D01*
X3462929Y-17966182D02*
X3462929Y-17832849D01*
X3462929Y-17851896D02*
X3472452Y-17842373D01*
X3472452Y-17842373D02*
X3491500Y-17832849D01*
X3491500Y-17832849D02*
X3520071Y-17832849D01*
X3520071Y-17832849D02*
X3539119Y-17842373D01*
X3539119Y-17842373D02*
X3548643Y-17861420D01*
X3548643Y-17861420D02*
X3548643Y-17966182D01*
X3548643Y-17861420D02*
X3558167Y-17842373D01*
X3558167Y-17842373D02*
X3577214Y-17832849D01*
X3577214Y-17832849D02*
X3605786Y-17832849D01*
X3605786Y-17832849D02*
X3624833Y-17842373D01*
X3624833Y-17842373D02*
X3634357Y-17861420D01*
X3634357Y-17861420D02*
X3634357Y-17966182D01*
X4024833Y-17756658D02*
X3853405Y-18013801D01*
X4281976Y-17766182D02*
X4301024Y-17766182D01*
X4301024Y-17766182D02*
X4320072Y-17775706D01*
X4320072Y-17775706D02*
X4329595Y-17785230D01*
X4329595Y-17785230D02*
X4339119Y-17804277D01*
X4339119Y-17804277D02*
X4348643Y-17842373D01*
X4348643Y-17842373D02*
X4348643Y-17889992D01*
X4348643Y-17889992D02*
X4339119Y-17928087D01*
X4339119Y-17928087D02*
X4329595Y-17947135D01*
X4329595Y-17947135D02*
X4320072Y-17956658D01*
X4320072Y-17956658D02*
X4301024Y-17966182D01*
X4301024Y-17966182D02*
X4281976Y-17966182D01*
X4281976Y-17966182D02*
X4262929Y-17956658D01*
X4262929Y-17956658D02*
X4253405Y-17947135D01*
X4253405Y-17947135D02*
X4243881Y-17928087D01*
X4243881Y-17928087D02*
X4234357Y-17889992D01*
X4234357Y-17889992D02*
X4234357Y-17842373D01*
X4234357Y-17842373D02*
X4243881Y-17804277D01*
X4243881Y-17804277D02*
X4253405Y-17785230D01*
X4253405Y-17785230D02*
X4262929Y-17775706D01*
X4262929Y-17775706D02*
X4281976Y-17766182D01*
X4434357Y-17947135D02*
X4443881Y-17956658D01*
X4443881Y-17956658D02*
X4434357Y-17966182D01*
X4434357Y-17966182D02*
X4424834Y-17956658D01*
X4424834Y-17956658D02*
X4434357Y-17947135D01*
X4434357Y-17947135D02*
X4434357Y-17966182D01*
X4634357Y-17966182D02*
X4520072Y-17966182D01*
X4577214Y-17966182D02*
X4577214Y-17766182D01*
X4577214Y-17766182D02*
X4558167Y-17794754D01*
X4558167Y-17794754D02*
X4539119Y-17813801D01*
X4539119Y-17813801D02*
X4520072Y-17823325D01*
X4815310Y-17766182D02*
X4720072Y-17766182D01*
X4720072Y-17766182D02*
X4710548Y-17861420D01*
X4710548Y-17861420D02*
X4720072Y-17851896D01*
X4720072Y-17851896D02*
X4739119Y-17842373D01*
X4739119Y-17842373D02*
X4786738Y-17842373D01*
X4786738Y-17842373D02*
X4805786Y-17851896D01*
X4805786Y-17851896D02*
X4815310Y-17861420D01*
X4815310Y-17861420D02*
X4824834Y-17880468D01*
X4824834Y-17880468D02*
X4824834Y-17928087D01*
X4824834Y-17928087D02*
X4815310Y-17947135D01*
X4815310Y-17947135D02*
X4805786Y-17956658D01*
X4805786Y-17956658D02*
X4786738Y-17966182D01*
X4786738Y-17966182D02*
X4739119Y-17966182D01*
X4739119Y-17966182D02*
X4720072Y-17956658D01*
X4720072Y-17956658D02*
X4710548Y-17947135D01*
X4891500Y-17766182D02*
X5024834Y-17766182D01*
X5024834Y-17766182D02*
X4939119Y-17966182D01*
X5139119Y-17766182D02*
X5158167Y-17766182D01*
X5158167Y-17766182D02*
X5177215Y-17775706D01*
X5177215Y-17775706D02*
X5186738Y-17785230D01*
X5186738Y-17785230D02*
X5196262Y-17804277D01*
X5196262Y-17804277D02*
X5205786Y-17842373D01*
X5205786Y-17842373D02*
X5205786Y-17889992D01*
X5205786Y-17889992D02*
X5196262Y-17928087D01*
X5196262Y-17928087D02*
X5186738Y-17947135D01*
X5186738Y-17947135D02*
X5177215Y-17956658D01*
X5177215Y-17956658D02*
X5158167Y-17966182D01*
X5158167Y-17966182D02*
X5139119Y-17966182D01*
X5139119Y-17966182D02*
X5120072Y-17956658D01*
X5120072Y-17956658D02*
X5110548Y-17947135D01*
X5110548Y-17947135D02*
X5101024Y-17928087D01*
X5101024Y-17928087D02*
X5091500Y-17889992D01*
X5091500Y-17889992D02*
X5091500Y-17842373D01*
X5091500Y-17842373D02*
X5101024Y-17804277D01*
X5101024Y-17804277D02*
X5110548Y-17785230D01*
X5110548Y-17785230D02*
X5120072Y-17775706D01*
X5120072Y-17775706D02*
X5139119Y-17766182D01*
X5281976Y-17766182D02*
X5281976Y-17804277D01*
X5358167Y-17766182D02*
X5358167Y-17804277D01*
X5653405Y-18042373D02*
X5643881Y-18032849D01*
X5643881Y-18032849D02*
X5624834Y-18004277D01*
X5624834Y-18004277D02*
X5615310Y-17985230D01*
X5615310Y-17985230D02*
X5605786Y-17956658D01*
X5605786Y-17956658D02*
X5596262Y-17909039D01*
X5596262Y-17909039D02*
X5596262Y-17870944D01*
X5596262Y-17870944D02*
X5605786Y-17823325D01*
X5605786Y-17823325D02*
X5615310Y-17794754D01*
X5615310Y-17794754D02*
X5624834Y-17775706D01*
X5624834Y-17775706D02*
X5643881Y-17747135D01*
X5643881Y-17747135D02*
X5653405Y-17737611D01*
X5710548Y-17766182D02*
X5834357Y-17766182D01*
X5834357Y-17766182D02*
X5767691Y-17842373D01*
X5767691Y-17842373D02*
X5796262Y-17842373D01*
X5796262Y-17842373D02*
X5815310Y-17851896D01*
X5815310Y-17851896D02*
X5824834Y-17861420D01*
X5824834Y-17861420D02*
X5834357Y-17880468D01*
X5834357Y-17880468D02*
X5834357Y-17928087D01*
X5834357Y-17928087D02*
X5824834Y-17947135D01*
X5824834Y-17947135D02*
X5815310Y-17956658D01*
X5815310Y-17956658D02*
X5796262Y-17966182D01*
X5796262Y-17966182D02*
X5739119Y-17966182D01*
X5739119Y-17966182D02*
X5720072Y-17956658D01*
X5720072Y-17956658D02*
X5710548Y-17947135D01*
X5901024Y-17766182D02*
X6024834Y-17766182D01*
X6024834Y-17766182D02*
X5958167Y-17842373D01*
X5958167Y-17842373D02*
X5986738Y-17842373D01*
X5986738Y-17842373D02*
X6005786Y-17851896D01*
X6005786Y-17851896D02*
X6015310Y-17861420D01*
X6015310Y-17861420D02*
X6024834Y-17880468D01*
X6024834Y-17880468D02*
X6024834Y-17928087D01*
X6024834Y-17928087D02*
X6015310Y-17947135D01*
X6015310Y-17947135D02*
X6005786Y-17956658D01*
X6005786Y-17956658D02*
X5986738Y-17966182D01*
X5986738Y-17966182D02*
X5929595Y-17966182D01*
X5929595Y-17966182D02*
X5910548Y-17956658D01*
X5910548Y-17956658D02*
X5901024Y-17947135D01*
X6262929Y-17966182D02*
X6262929Y-17766182D01*
X6348643Y-17966182D02*
X6348643Y-17861420D01*
X6348643Y-17861420D02*
X6339119Y-17842373D01*
X6339119Y-17842373D02*
X6320072Y-17832849D01*
X6320072Y-17832849D02*
X6291500Y-17832849D01*
X6291500Y-17832849D02*
X6272453Y-17842373D01*
X6272453Y-17842373D02*
X6262929Y-17851896D01*
X6472453Y-17966182D02*
X6453405Y-17956658D01*
X6453405Y-17956658D02*
X6443881Y-17947135D01*
X6443881Y-17947135D02*
X6434357Y-17928087D01*
X6434357Y-17928087D02*
X6434357Y-17870944D01*
X6434357Y-17870944D02*
X6443881Y-17851896D01*
X6443881Y-17851896D02*
X6453405Y-17842373D01*
X6453405Y-17842373D02*
X6472453Y-17832849D01*
X6472453Y-17832849D02*
X6501024Y-17832849D01*
X6501024Y-17832849D02*
X6520072Y-17842373D01*
X6520072Y-17842373D02*
X6529596Y-17851896D01*
X6529596Y-17851896D02*
X6539119Y-17870944D01*
X6539119Y-17870944D02*
X6539119Y-17928087D01*
X6539119Y-17928087D02*
X6529596Y-17947135D01*
X6529596Y-17947135D02*
X6520072Y-17956658D01*
X6520072Y-17956658D02*
X6501024Y-17966182D01*
X6501024Y-17966182D02*
X6472453Y-17966182D01*
X6653405Y-17966182D02*
X6634357Y-17956658D01*
X6634357Y-17956658D02*
X6624834Y-17937611D01*
X6624834Y-17937611D02*
X6624834Y-17766182D01*
X6805786Y-17956658D02*
X6786738Y-17966182D01*
X6786738Y-17966182D02*
X6748643Y-17966182D01*
X6748643Y-17966182D02*
X6729596Y-17956658D01*
X6729596Y-17956658D02*
X6720072Y-17937611D01*
X6720072Y-17937611D02*
X6720072Y-17861420D01*
X6720072Y-17861420D02*
X6729596Y-17842373D01*
X6729596Y-17842373D02*
X6748643Y-17832849D01*
X6748643Y-17832849D02*
X6786738Y-17832849D01*
X6786738Y-17832849D02*
X6805786Y-17842373D01*
X6805786Y-17842373D02*
X6815310Y-17861420D01*
X6815310Y-17861420D02*
X6815310Y-17880468D01*
X6815310Y-17880468D02*
X6720072Y-17899516D01*
X6891500Y-17956658D02*
X6910548Y-17966182D01*
X6910548Y-17966182D02*
X6948643Y-17966182D01*
X6948643Y-17966182D02*
X6967691Y-17956658D01*
X6967691Y-17956658D02*
X6977215Y-17937611D01*
X6977215Y-17937611D02*
X6977215Y-17928087D01*
X6977215Y-17928087D02*
X6967691Y-17909039D01*
X6967691Y-17909039D02*
X6948643Y-17899516D01*
X6948643Y-17899516D02*
X6920072Y-17899516D01*
X6920072Y-17899516D02*
X6901024Y-17889992D01*
X6901024Y-17889992D02*
X6891500Y-17870944D01*
X6891500Y-17870944D02*
X6891500Y-17861420D01*
X6891500Y-17861420D02*
X6901024Y-17842373D01*
X6901024Y-17842373D02*
X6920072Y-17832849D01*
X6920072Y-17832849D02*
X6948643Y-17832849D01*
X6948643Y-17832849D02*
X6967691Y-17842373D01*
X7043881Y-18042373D02*
X7053405Y-18032849D01*
X7053405Y-18032849D02*
X7072453Y-18004277D01*
X7072453Y-18004277D02*
X7081977Y-17985230D01*
X7081977Y-17985230D02*
X7091500Y-17956658D01*
X7091500Y-17956658D02*
X7101024Y-17909039D01*
X7101024Y-17909039D02*
X7101024Y-17870944D01*
X7101024Y-17870944D02*
X7091500Y-17823325D01*
X7091500Y-17823325D02*
X7081977Y-17794754D01*
X7081977Y-17794754D02*
X7072453Y-17775706D01*
X7072453Y-17775706D02*
X7053405Y-17747135D01*
X7053405Y-17747135D02*
X7043881Y-17737611D01*
X7405786Y-18042373D02*
X7396262Y-18032849D01*
X7396262Y-18032849D02*
X7377215Y-18004277D01*
X7377215Y-18004277D02*
X7367691Y-17985230D01*
X7367691Y-17985230D02*
X7358167Y-17956658D01*
X7358167Y-17956658D02*
X7348643Y-17909039D01*
X7348643Y-17909039D02*
X7348643Y-17870944D01*
X7348643Y-17870944D02*
X7358167Y-17823325D01*
X7358167Y-17823325D02*
X7367691Y-17794754D01*
X7367691Y-17794754D02*
X7377215Y-17775706D01*
X7377215Y-17775706D02*
X7396262Y-17747135D01*
X7396262Y-17747135D02*
X7405786Y-17737611D01*
X7481977Y-17832849D02*
X7481977Y-17966182D01*
X7481977Y-17851896D02*
X7491500Y-17842373D01*
X7491500Y-17842373D02*
X7510548Y-17832849D01*
X7510548Y-17832849D02*
X7539119Y-17832849D01*
X7539119Y-17832849D02*
X7558167Y-17842373D01*
X7558167Y-17842373D02*
X7567691Y-17861420D01*
X7567691Y-17861420D02*
X7567691Y-17966182D01*
X7691500Y-17966182D02*
X7672453Y-17956658D01*
X7672453Y-17956658D02*
X7662929Y-17947135D01*
X7662929Y-17947135D02*
X7653405Y-17928087D01*
X7653405Y-17928087D02*
X7653405Y-17870944D01*
X7653405Y-17870944D02*
X7662929Y-17851896D01*
X7662929Y-17851896D02*
X7672453Y-17842373D01*
X7672453Y-17842373D02*
X7691500Y-17832849D01*
X7691500Y-17832849D02*
X7720072Y-17832849D01*
X7720072Y-17832849D02*
X7739119Y-17842373D01*
X7739119Y-17842373D02*
X7748643Y-17851896D01*
X7748643Y-17851896D02*
X7758167Y-17870944D01*
X7758167Y-17870944D02*
X7758167Y-17928087D01*
X7758167Y-17928087D02*
X7748643Y-17947135D01*
X7748643Y-17947135D02*
X7739119Y-17956658D01*
X7739119Y-17956658D02*
X7720072Y-17966182D01*
X7720072Y-17966182D02*
X7691500Y-17966182D01*
X7815310Y-17832849D02*
X7891500Y-17832849D01*
X7843881Y-17766182D02*
X7843881Y-17937611D01*
X7843881Y-17937611D02*
X7853405Y-17956658D01*
X7853405Y-17956658D02*
X7872453Y-17966182D01*
X7872453Y-17966182D02*
X7891500Y-17966182D01*
X8110548Y-17832849D02*
X8110548Y-18032849D01*
X8110548Y-17842373D02*
X8129596Y-17832849D01*
X8129596Y-17832849D02*
X8167691Y-17832849D01*
X8167691Y-17832849D02*
X8186739Y-17842373D01*
X8186739Y-17842373D02*
X8196262Y-17851896D01*
X8196262Y-17851896D02*
X8205786Y-17870944D01*
X8205786Y-17870944D02*
X8205786Y-17928087D01*
X8205786Y-17928087D02*
X8196262Y-17947135D01*
X8196262Y-17947135D02*
X8186739Y-17956658D01*
X8186739Y-17956658D02*
X8167691Y-17966182D01*
X8167691Y-17966182D02*
X8129596Y-17966182D01*
X8129596Y-17966182D02*
X8110548Y-17956658D01*
X8320072Y-17966182D02*
X8301024Y-17956658D01*
X8301024Y-17956658D02*
X8291500Y-17937611D01*
X8291500Y-17937611D02*
X8291500Y-17766182D01*
X8481977Y-17966182D02*
X8481977Y-17861420D01*
X8481977Y-17861420D02*
X8472453Y-17842373D01*
X8472453Y-17842373D02*
X8453405Y-17832849D01*
X8453405Y-17832849D02*
X8415310Y-17832849D01*
X8415310Y-17832849D02*
X8396262Y-17842373D01*
X8481977Y-17956658D02*
X8462929Y-17966182D01*
X8462929Y-17966182D02*
X8415310Y-17966182D01*
X8415310Y-17966182D02*
X8396262Y-17956658D01*
X8396262Y-17956658D02*
X8386739Y-17937611D01*
X8386739Y-17937611D02*
X8386739Y-17918563D01*
X8386739Y-17918563D02*
X8396262Y-17899516D01*
X8396262Y-17899516D02*
X8415310Y-17889992D01*
X8415310Y-17889992D02*
X8462929Y-17889992D01*
X8462929Y-17889992D02*
X8481977Y-17880468D01*
X8548643Y-17832849D02*
X8624834Y-17832849D01*
X8577215Y-17766182D02*
X8577215Y-17937611D01*
X8577215Y-17937611D02*
X8586739Y-17956658D01*
X8586739Y-17956658D02*
X8605786Y-17966182D01*
X8605786Y-17966182D02*
X8624834Y-17966182D01*
X8767691Y-17956658D02*
X8748643Y-17966182D01*
X8748643Y-17966182D02*
X8710548Y-17966182D01*
X8710548Y-17966182D02*
X8691501Y-17956658D01*
X8691501Y-17956658D02*
X8681977Y-17937611D01*
X8681977Y-17937611D02*
X8681977Y-17861420D01*
X8681977Y-17861420D02*
X8691501Y-17842373D01*
X8691501Y-17842373D02*
X8710548Y-17832849D01*
X8710548Y-17832849D02*
X8748643Y-17832849D01*
X8748643Y-17832849D02*
X8767691Y-17842373D01*
X8767691Y-17842373D02*
X8777215Y-17861420D01*
X8777215Y-17861420D02*
X8777215Y-17880468D01*
X8777215Y-17880468D02*
X8681977Y-17899516D01*
X8948643Y-17966182D02*
X8948643Y-17766182D01*
X8948643Y-17956658D02*
X8929596Y-17966182D01*
X8929596Y-17966182D02*
X8891501Y-17966182D01*
X8891501Y-17966182D02*
X8872453Y-17956658D01*
X8872453Y-17956658D02*
X8862929Y-17947135D01*
X8862929Y-17947135D02*
X8853405Y-17928087D01*
X8853405Y-17928087D02*
X8853405Y-17870944D01*
X8853405Y-17870944D02*
X8862929Y-17851896D01*
X8862929Y-17851896D02*
X8872453Y-17842373D01*
X8872453Y-17842373D02*
X8891501Y-17832849D01*
X8891501Y-17832849D02*
X8929596Y-17832849D01*
X8929596Y-17832849D02*
X8948643Y-17842373D01*
X9024834Y-18042373D02*
X9034358Y-18032849D01*
X9034358Y-18032849D02*
X9053405Y-18004277D01*
X9053405Y-18004277D02*
X9062929Y-17985230D01*
X9062929Y-17985230D02*
X9072453Y-17956658D01*
X9072453Y-17956658D02*
X9081977Y-17909039D01*
X9081977Y-17909039D02*
X9081977Y-17870944D01*
X9081977Y-17870944D02*
X9072453Y-17823325D01*
X9072453Y-17823325D02*
X9062929Y-17794754D01*
X9062929Y-17794754D02*
X9053405Y-17775706D01*
X9053405Y-17775706D02*
X9034358Y-17747135D01*
X9034358Y-17747135D02*
X9024834Y-17737611D01*
M02*
