M48
; DRILL file {KiCad 7.0.1} date Thu Mar 23 04:50:54 2023
; FORMAT={-:-/ absolute / inch / decimal}
; #@! TF.CreationDate,2023-03-23T04:50:54+01:00
; #@! TF.GenerationSoftware,Kicad,Pcbnew,7.0.1
; #@! TF.FileFunction,NonPlated,1,2,NPTH
FMAT,2
INCH
; #@! TA.AperFunction,NonPlated,NPTH,ComponentDrill
T1C0.0689
; #@! TA.AperFunction,NonPlated,NPTH,ComponentDrill
T2C0.1181
; #@! TA.AperFunction,NonPlated,NPTH,ComponentDrill
T3C0.1200
; #@! TA.AperFunction,NonPlated,NPTH,ComponentDrill
T4C0.1570
%
G90
G05
T1
X1.0295Y-1.3902
X1.0295Y-2.1855
X1.0295Y-2.9808
X1.0295Y-3.7761
X1.4295Y-1.3902
X1.4295Y-2.1855
X1.4295Y-2.9808
X1.4295Y-3.7761
X1.8045Y-1.2761
X1.8045Y-2.0511
X1.8045Y-2.8261
X1.8045Y-3.6011
X2.2045Y-1.2761
X2.2045Y-2.0511
X2.2045Y-2.8261
X2.2045Y-3.6011
X2.5795Y-1.2761
X2.5795Y-2.0511
X2.5795Y-2.8261
X2.5795Y-3.6011
X2.9795Y-1.2761
X2.9795Y-2.0511
X2.9795Y-2.8261
X2.9795Y-3.6011
X3.1545Y-4.3761
X3.3545Y-1.2761
X3.3545Y-2.0511
X3.3545Y-2.8261
X3.3545Y-3.6011
X3.5545Y-4.3761
X3.7545Y-1.2761
X3.7545Y-2.0511
X3.7545Y-2.8261
X3.7545Y-3.6011
X3.9295Y-4.3761
X4.1295Y-1.2761
X4.1295Y-2.0511
X4.1295Y-2.8261
X4.1295Y-3.6011
X4.3295Y-4.3761
X4.5295Y-1.2761
X4.5295Y-2.0511
X4.5295Y-2.8261
X4.5295Y-3.6011
X4.9045Y-2.0511
X4.9045Y-2.8261
X4.9045Y-3.6011
X5.1759Y-4.6697
X5.1795Y-1.2761
X5.3045Y-2.0511
X5.3045Y-2.8261
X5.3045Y-3.6011
X5.433Y-4.9761
X5.5795Y-1.2761
X5.6795Y-2.0511
X5.6795Y-2.8261
X5.6795Y-3.6011
X5.91Y-5.7572
X5.9795Y-6.1511
X6.0795Y-2.0511
X6.0795Y-2.8261
X6.0795Y-3.6011
T2
X1.0795Y-1.2902
X1.0795Y-2.0855
X1.0795Y-2.8808
X1.0795Y-3.6761
X1.3295Y-1.1902
X1.3295Y-1.9855
X1.3295Y-2.7808
X1.3295Y-3.5761
X1.8545Y-1.1761
X1.8545Y-1.9511
X1.8545Y-2.7261
X1.8545Y-3.5011
X2.1045Y-1.0761
X2.1045Y-1.8511
X2.1045Y-2.6261
X2.1045Y-3.4011
X2.6295Y-1.1761
X2.6295Y-1.9511
X2.6295Y-2.7261
X2.6295Y-3.5011
X2.8795Y-1.0761
X2.8795Y-1.8511
X2.8795Y-2.6261
X2.8795Y-3.4011
X3.2045Y-4.2761
X3.4045Y-1.1761
X3.4045Y-1.9511
X3.4045Y-2.7261
X3.4045Y-3.5011
X3.4545Y-4.1761
X3.6545Y-1.0761
X3.6545Y-1.8511
X3.6545Y-2.6261
X3.6545Y-3.4011
X3.9795Y-4.2761
X4.1795Y-1.1761
X4.1795Y-1.9511
X4.1795Y-2.7261
X4.1795Y-3.5011
X4.2295Y-4.1761
X4.4295Y-1.0761
X4.4295Y-1.8511
X4.4295Y-2.6261
X4.4295Y-3.4011
X4.9545Y-1.9511
X4.9545Y-2.7261
X4.9545Y-3.5011
X5.2045Y-1.8511
X5.2045Y-2.6261
X5.2045Y-3.4011
X5.2295Y-1.1761
X5.2847Y-4.6437
X5.4795Y-1.0761
X5.522Y-4.7709
X5.7295Y-1.9511
X5.7295Y-2.7261
X5.7295Y-3.5011
X5.9795Y-1.8511
X5.9795Y-2.6261
X5.9795Y-3.4011
X6.0172Y-5.789
X6.1591Y-6.0179
T3
X5.213Y-4.2861
X5.8172Y-5.0061
T4
X1.2295Y-1.3902
X1.2295Y-2.1855
X1.2295Y-2.9808
X1.2295Y-3.7761
X2.0045Y-1.2761
X2.0045Y-2.0511
X2.0045Y-2.8261
X2.0045Y-3.6011
X2.7795Y-1.2761
X2.7795Y-2.0511
X2.7795Y-2.8261
X2.7795Y-3.6011
X3.3545Y-4.3761
X3.5545Y-1.2761
X3.5545Y-2.0511
X3.5545Y-2.8261
X3.5545Y-3.6011
X4.1295Y-4.3761
X4.3295Y-1.2761
X4.3295Y-2.0511
X4.3295Y-2.8261
X4.3295Y-3.6011
X4.7534Y-4.6717
X5.1045Y-2.0511
X5.1045Y-2.8261
X5.1045Y-3.6011
X5.3045Y-4.8229
X5.3576Y-5.3918
X5.3795Y-1.2761
X5.8795Y-2.0511
X5.8795Y-2.8261
X5.8795Y-3.6011
X5.9447Y-5.9541
T0
M30
