%TF.GenerationSoftware,KiCad,Pcbnew,7.0.1*%
%TF.CreationDate,2023-03-23T04:50:53+01:00*%
%TF.ProjectId,Tiamat_v01_badge,5469616d-6174-45f7-9630-315f62616467,rev?*%
%TF.SameCoordinates,Original*%
%TF.FileFunction,Paste,Bot*%
%TF.FilePolarity,Positive*%
%FSLAX46Y46*%
G04 Gerber Fmt 4.6, Leading zero omitted, Abs format (unit mm)*
G04 Created by KiCad (PCBNEW 7.0.1) date 2023-03-23 04:50:53*
%MOMM*%
%LPD*%
G01*
G04 APERTURE LIST*
G04 Aperture macros list*
%AMRoundRect*
0 Rectangle with rounded corners*
0 $1 Rounding radius*
0 $2 $3 $4 $5 $6 $7 $8 $9 X,Y pos of 4 corners*
0 Add a 4 corners polygon primitive as box body*
4,1,4,$2,$3,$4,$5,$6,$7,$8,$9,$2,$3,0*
0 Add four circle primitives for the rounded corners*
1,1,$1+$1,$2,$3*
1,1,$1+$1,$4,$5*
1,1,$1+$1,$6,$7*
1,1,$1+$1,$8,$9*
0 Add four rect primitives between the rounded corners*
20,1,$1+$1,$2,$3,$4,$5,0*
20,1,$1+$1,$4,$5,$6,$7,0*
20,1,$1+$1,$6,$7,$8,$9,0*
20,1,$1+$1,$8,$9,$2,$3,0*%
%AMRotRect*
0 Rectangle, with rotation*
0 The origin of the aperture is its center*
0 $1 length*
0 $2 width*
0 $3 Rotation angle, in degrees counterclockwise*
0 Add horizontal line*
21,1,$1,$2,0,0,$3*%
G04 Aperture macros list end*
%ADD10R,2.550000X2.500000*%
%ADD11RotRect,2.550000X2.500000X310.000000*%
%ADD12RotRect,2.550000X2.500000X280.000000*%
%ADD13RoundRect,0.350000X-0.422824X0.382387X-0.266541X-0.503940X0.422824X-0.382387X0.266541X0.503940X0*%
%ADD14RoundRect,0.350000X0.422824X-0.382387X0.266541X0.503940X-0.422824X0.382387X-0.266541X-0.503940X0*%
%ADD15RoundRect,0.350000X-0.450000X-0.350000X0.450000X-0.350000X0.450000X0.350000X-0.450000X0.350000X0*%
%ADD16RoundRect,0.350000X0.450000X0.350000X-0.450000X0.350000X-0.450000X-0.350000X0.450000X-0.350000X0*%
%ADD17RoundRect,0.350000X-0.557370X0.119744X0.021139X-0.569696X0.557370X-0.119744X-0.021139X0.569696X0*%
%ADD18RoundRect,0.350000X0.557370X-0.119744X-0.021139X0.569696X-0.557370X0.119744X0.021139X-0.569696X0*%
G04 APERTURE END LIST*
D10*
%TO.C,SW1*%
X37070500Y-30232300D03*
X24143500Y-32772300D03*
%TD*%
D11*
%TO.C,SW27*%
X132125103Y-115440689D03*
X142380171Y-123710665D03*
%TD*%
D12*
%TO.C,SW31*%
X152267481Y-143816048D03*
X157013643Y-156105591D03*
%TD*%
D10*
%TO.C,SW30*%
X142253500Y-88927300D03*
X155180500Y-86387300D03*
%TD*%
%TO.C,SW29*%
X142253500Y-69242300D03*
X155180500Y-66702300D03*
%TD*%
%TO.C,SW28*%
X155180500Y-47017300D03*
X142253500Y-49557300D03*
%TD*%
%TO.C,SW26*%
X135495500Y-86387300D03*
X122568500Y-88927300D03*
%TD*%
%TO.C,SW25*%
X122568500Y-69242300D03*
X135495500Y-66702300D03*
%TD*%
%TO.C,SW24*%
X122568500Y-49557300D03*
X135495500Y-47017300D03*
%TD*%
%TO.C,SW22*%
X97803500Y-108612300D03*
X110730500Y-106072300D03*
%TD*%
%TO.C,SW21*%
X102883500Y-88927300D03*
X115810500Y-86387300D03*
%TD*%
%TO.C,SW20*%
X102883500Y-69242300D03*
X115810500Y-66702300D03*
%TD*%
%TO.C,SW19*%
X115810500Y-47017300D03*
X102883500Y-49557300D03*
%TD*%
%TO.C,SW18*%
X102883500Y-29872300D03*
X115810500Y-27332300D03*
%TD*%
%TO.C,SW17*%
X78118500Y-108612300D03*
X91045500Y-106072300D03*
%TD*%
%TO.C,SW16*%
X83198500Y-88927300D03*
X96125500Y-86387300D03*
%TD*%
%TO.C,SW15*%
X83198500Y-69242300D03*
X96125500Y-66702300D03*
%TD*%
%TO.C,SW14*%
X83198500Y-49557300D03*
X96125500Y-47017300D03*
%TD*%
%TO.C,SW13*%
X96125500Y-27332300D03*
X83198500Y-29872300D03*
%TD*%
%TO.C,SW12*%
X63513500Y-88927300D03*
X76440500Y-86387300D03*
%TD*%
%TO.C,SW11*%
X63513500Y-69242300D03*
X76440500Y-66702300D03*
%TD*%
%TO.C,SW10*%
X63513500Y-49557300D03*
X76440500Y-47017300D03*
%TD*%
%TO.C,SW9*%
X63513500Y-29872300D03*
X76440500Y-27332300D03*
%TD*%
%TO.C,SW8*%
X43828500Y-88927300D03*
X56755500Y-86387300D03*
%TD*%
%TO.C,SW7*%
X43828500Y-69242300D03*
X56755500Y-66702300D03*
%TD*%
%TO.C,SW6*%
X56755500Y-47017300D03*
X43828500Y-49557300D03*
%TD*%
%TO.C,SW5*%
X43828500Y-29872300D03*
X56755500Y-27332300D03*
%TD*%
%TO.C,SW4*%
X37070500Y-90832300D03*
X24143500Y-93372300D03*
%TD*%
%TO.C,SW23*%
X142480500Y-27332300D03*
X129553500Y-29872300D03*
%TD*%
%TO.C,SW3*%
X24143500Y-73172300D03*
X37070500Y-70632300D03*
%TD*%
%TO.C,SW2*%
X24143500Y-52972300D03*
X37070500Y-50432300D03*
%TD*%
D13*
%TO.C,D31*%
X145223432Y-154371938D03*
D14*
X144563568Y-150629668D03*
%TD*%
D15*
%TO.C,D30*%
X151233500Y-97817300D03*
D16*
X147433500Y-97817300D03*
%TD*%
D15*
%TO.C,D29*%
X151233500Y-78132300D03*
D16*
X147433500Y-78132300D03*
%TD*%
D15*
%TO.C,D28*%
X151233500Y-58447300D03*
D16*
X147433500Y-58447300D03*
%TD*%
D17*
%TO.C,D27*%
X130948299Y-127921287D03*
D18*
X128505707Y-125010319D03*
%TD*%
D15*
%TO.C,D26*%
X131548500Y-97817300D03*
D16*
X127748500Y-97817300D03*
%TD*%
D15*
%TO.C,D25*%
X131548500Y-78132300D03*
D16*
X127748500Y-78132300D03*
%TD*%
D15*
%TO.C,D24*%
X131548500Y-58447300D03*
D16*
X127748500Y-58447300D03*
%TD*%
D15*
%TO.C,D23*%
X138533500Y-38762300D03*
D16*
X134733500Y-38762300D03*
%TD*%
%TO.C,D22*%
X102993500Y-117502300D03*
D15*
X106793500Y-117502300D03*
%TD*%
D16*
%TO.C,D21*%
X108063500Y-97817300D03*
D15*
X111863500Y-97817300D03*
%TD*%
D16*
%TO.C,D20*%
X108073500Y-78132300D03*
D15*
X111873500Y-78132300D03*
%TD*%
D16*
%TO.C,D19*%
X108063500Y-58447300D03*
D15*
X111863500Y-58447300D03*
%TD*%
D16*
%TO.C,D18*%
X108063500Y-38762300D03*
D15*
X111863500Y-38762300D03*
%TD*%
D16*
%TO.C,D17*%
X83298500Y-117502300D03*
D15*
X87098500Y-117502300D03*
%TD*%
D16*
%TO.C,D16*%
X88388500Y-97817300D03*
D15*
X92188500Y-97817300D03*
%TD*%
D16*
%TO.C,D15*%
X88388500Y-78132300D03*
D15*
X92188500Y-78132300D03*
%TD*%
D16*
%TO.C,D14*%
X88388500Y-58447300D03*
D15*
X92188500Y-58447300D03*
%TD*%
D16*
%TO.C,D13*%
X88388500Y-38762300D03*
D15*
X92188500Y-38762300D03*
%TD*%
D16*
%TO.C,D12*%
X68703500Y-97817300D03*
D15*
X72503500Y-97817300D03*
%TD*%
D16*
%TO.C,D11*%
X68703500Y-78132300D03*
D15*
X72503500Y-78132300D03*
%TD*%
D16*
%TO.C,D10*%
X68693500Y-58447300D03*
D15*
X72493500Y-58447300D03*
%TD*%
D16*
%TO.C,D9*%
X68703500Y-38762300D03*
D15*
X72503500Y-38762300D03*
%TD*%
D16*
%TO.C,D8*%
X49008500Y-97817300D03*
D15*
X52808500Y-97817300D03*
%TD*%
D16*
%TO.C,D7*%
X49008500Y-78132300D03*
D15*
X52808500Y-78132300D03*
%TD*%
D16*
%TO.C,D6*%
X49018500Y-58447300D03*
D15*
X52818500Y-58447300D03*
%TD*%
D16*
%TO.C,D5*%
X49008500Y-38762300D03*
D15*
X52808500Y-38762300D03*
%TD*%
D16*
%TO.C,D4*%
X29328500Y-102262300D03*
D15*
X33128500Y-102262300D03*
%TD*%
D16*
%TO.C,D3*%
X29328500Y-81942300D03*
D15*
X33128500Y-81942300D03*
%TD*%
D16*
%TO.C,D2*%
X29333495Y-61622296D03*
D15*
X33133495Y-61622296D03*
%TD*%
D16*
%TO.C,D1*%
X29328500Y-41302300D03*
D15*
X33128500Y-41302300D03*
%TD*%
M02*
