%TF.GenerationSoftware,KiCad,Pcbnew,7.0.1*%
%TF.CreationDate,2023-03-23T04:50:52+01:00*%
%TF.ProjectId,Tiamat_v01_badge,5469616d-6174-45f7-9630-315f62616467,rev?*%
%TF.SameCoordinates,Original*%
%TF.FileFunction,Copper,L1,Top*%
%TF.FilePolarity,Positive*%
%FSLAX46Y46*%
G04 Gerber Fmt 4.6, Leading zero omitted, Abs format (unit mm)*
G04 Created by KiCad (PCBNEW 7.0.1) date 2023-03-23 04:50:52*
%MOMM*%
%LPD*%
G01*
G04 APERTURE LIST*
%TA.AperFunction,ComponentPad*%
%ADD10C,4.400000*%
%TD*%
%TA.AperFunction,ComponentPad*%
%ADD11C,1.000000*%
%TD*%
%TA.AperFunction,ComponentPad*%
%ADD12R,1.000000X1.000000*%
%TD*%
%TA.AperFunction,ViaPad*%
%ADD13C,0.600000*%
%TD*%
%TA.AperFunction,Conductor*%
%ADD14C,0.254000*%
%TD*%
G04 APERTURE END LIST*
D10*
%TO.P,H6,1*%
%TO.N,N/C*%
X41275000Y-36195000D03*
%TD*%
%TO.P,H5,1*%
%TO.N,N/C*%
X41148000Y-94488000D03*
%TD*%
D11*
%TO.P,U1,40,GND*%
%TO.N,unconnected-(U1-GND-Pad40)*%
X167589616Y-42919456D03*
%TO.P,U1,39,GND*%
%TO.N,unconnected-(U1-GND-Pad39)*%
X166319616Y-42919456D03*
%TO.P,U1,38,VSYS*%
%TO.N,unconnected-(U1-VSYS-Pad38)*%
X167589616Y-44189456D03*
%TO.P,U1,37,AVDD*%
%TO.N,unconnected-(U1-AVDD-Pad37)*%
X166319616Y-44189456D03*
%TO.P,U1,36,GP23*%
%TO.N,unconnected-(U1-GP23-Pad36)*%
X167589616Y-45459456D03*
%TO.P,U1,35,BOOT*%
%TO.N,unconnected-(U1-BOOT-Pad35)*%
X166319616Y-45459456D03*
%TO.P,U1,34,GP22*%
%TO.N,unconnected-(U1-GP22-Pad34)*%
X167589616Y-46729456D03*
%TO.P,U1,33,RUN*%
%TO.N,unconnected-(U1-RUN-Pad33)*%
X166319616Y-46729456D03*
%TO.P,U1,32,GP21*%
%TO.N,unconnected-(U1-GP21-Pad32)*%
X167589616Y-47999456D03*
%TO.P,U1,31,GP29*%
%TO.N,unconnected-(U1-GP29-Pad31)*%
X166319616Y-47999456D03*
%TO.P,U1,30,GP20*%
%TO.N,unconnected-(U1-GP20-Pad30)*%
X167589616Y-49269456D03*
%TO.P,U1,29,GP28*%
%TO.N,COL1*%
X166319616Y-49269456D03*
%TO.P,U1,28,GP19*%
%TO.N,COL6*%
X167589616Y-50539456D03*
%TO.P,U1,27,GP27*%
%TO.N,COL2*%
X166319616Y-50539456D03*
%TO.P,U1,26,GP18*%
%TO.N,COL7*%
X167589616Y-51809456D03*
%TO.P,U1,25,GP26*%
%TO.N,COL3*%
X166319616Y-51809456D03*
%TO.P,U1,24,GP17*%
%TO.N,COL5*%
X167589616Y-53079456D03*
%TO.P,U1,23,GP25*%
%TO.N,unconnected-(U1-GP25-Pad23)*%
X166319616Y-53079456D03*
%TO.P,U1,22,GP16*%
%TO.N,COL4*%
X167589616Y-54349456D03*
D12*
%TO.P,U1,21,GP24*%
%TO.N,unconnected-(U1-GP24-Pad21)*%
X166319616Y-54349456D03*
D11*
%TO.P,U1,20,GND*%
%TO.N,unconnected-(U1-GND-Pad20)*%
X193319616Y-54349456D03*
%TO.P,U1,19,SWDIO*%
%TO.N,unconnected-(U1-SWDIO-Pad19)*%
X194589616Y-54349456D03*
%TO.P,U1,18,VSYS*%
%TO.N,unconnected-(U1-VSYS-Pad18)*%
X193319616Y-53079456D03*
%TO.P,U1,17,SWCLK*%
%TO.N,unconnected-(U1-SWCLK-Pad17)*%
X194589616Y-53079456D03*
%TO.P,U1,16,GP7*%
%TO.N,unconnected-(U1-GP7-Pad16)*%
X193319616Y-51809456D03*
%TO.P,U1,15,GP15*%
%TO.N,ROW3*%
X194589616Y-51809456D03*
%TO.P,U1,14,GP6*%
%TO.N,unconnected-(U1-GP6-Pad14)*%
X193319616Y-50539456D03*
%TO.P,U1,13,GP14*%
%TO.N,ROW4*%
X194589616Y-50539456D03*
%TO.P,U1,12,GP5*%
%TO.N,unconnected-(U1-GP5-Pad12)*%
X193319616Y-49269456D03*
%TO.P,U1,11,GP13*%
%TO.N,ROW5*%
X194589616Y-49269456D03*
%TO.P,U1,10,GP4*%
%TO.N,unconnected-(U1-GP4-Pad10)*%
X193319616Y-47999456D03*
%TO.P,U1,9,GP12*%
%TO.N,unconnected-(U1-GP12-Pad9)*%
X194589616Y-47999456D03*
%TO.P,U1,8,GP3*%
%TO.N,unconnected-(U1-GP3-Pad8)*%
X193319616Y-46729456D03*
%TO.P,U1,7,GP11*%
%TO.N,unconnected-(U1-GP11-Pad7)*%
X194589616Y-46729456D03*
%TO.P,U1,6,GP2*%
%TO.N,unconnected-(U1-GP2-Pad6)*%
X193319616Y-45459456D03*
%TO.P,U1,5,GP10*%
%TO.N,unconnected-(U1-GP10-Pad5)*%
X194589616Y-45459456D03*
%TO.P,U1,4,GP1*%
%TO.N,ROW2*%
X193319616Y-44189456D03*
%TO.P,U1,3,GP9*%
%TO.N,unconnected-(U1-GP9-Pad3)*%
X194589616Y-44189456D03*
%TO.P,U1,2,GP0*%
%TO.N,ROW1*%
X193319616Y-42919456D03*
D12*
%TO.P,U1,1,GP8*%
%TO.N,unconnected-(U1-GP8-Pad1)*%
X194589616Y-42919456D03*
%TD*%
D10*
%TO.P,H4,1*%
%TO.N,N/C*%
X118745000Y-105410000D03*
%TD*%
%TO.P,H3,1*%
%TO.N,N/C*%
X152400000Y-27305000D03*
%TD*%
%TO.P,H2,1*%
%TO.N,N/C*%
X195580000Y-65405000D03*
%TD*%
%TO.P,H1,1*%
%TO.N,N/C*%
X152908000Y-137033000D03*
%TD*%
D13*
%TO.N,COL7*%
X157480000Y-46990000D03*
%TO.N,COL6*%
X170180000Y-40640000D03*
X144780000Y-40640000D03*
X170180000Y-41910000D03*
%TO.N,COL5*%
X116840000Y-44450000D03*
%TO.N,COL4*%
X97155000Y-43815000D03*
%TO.N,COL3*%
X77470000Y-43180000D03*
%TO.N,COL2*%
X57785000Y-42545000D03*
%TO.N,COL1*%
X38100000Y-41910000D03*
%TO.N,ROW5*%
X141605000Y-154940000D03*
X127000000Y-130810000D03*
X106680000Y-120650000D03*
X89535000Y-117475000D03*
%TO.N,ROW4*%
X151130000Y-100330000D03*
X131445000Y-100330000D03*
X111760000Y-100330000D03*
X92075000Y-100330000D03*
X72390000Y-100330000D03*
X52705000Y-100330000D03*
X34925000Y-102235000D03*
%TO.N,ROW3*%
X151130000Y-80645000D03*
X131445000Y-80645000D03*
X111760000Y-80645000D03*
X92075000Y-80645000D03*
X72390000Y-80645000D03*
X52705000Y-80645000D03*
X34925000Y-81915000D03*
%TO.N,ROW2*%
X151130000Y-60960000D03*
X131445000Y-60960000D03*
X111760000Y-60960000D03*
X92075000Y-60960000D03*
X72390000Y-60960000D03*
X52705000Y-60960000D03*
X34925000Y-61595000D03*
%TO.N,ROW1*%
X72390000Y-41275000D03*
X138430000Y-41275000D03*
X111760000Y-41275000D03*
X92075000Y-41275000D03*
X34925000Y-41275000D03*
X52705000Y-41275000D03*
%TD*%
D14*
%TO.N,COL7*%
X169919456Y-51809456D02*
X167589616Y-51809456D01*
X170815000Y-55052632D02*
X170815000Y-52705000D01*
X163195000Y-55245000D02*
X164592000Y-56642000D01*
X163195000Y-52705000D02*
X163195000Y-55245000D01*
X164592000Y-56642000D02*
X169225632Y-56642000D01*
X157480000Y-46990000D02*
X163195000Y-52705000D01*
X169225632Y-56642000D02*
X170815000Y-55052632D01*
X170815000Y-52705000D02*
X169919456Y-51809456D01*
%TO.N,COL5*%
X169919456Y-53079456D02*
X167589616Y-53079456D01*
X170180000Y-53340000D02*
X169919456Y-53079456D01*
X169067816Y-56261000D02*
X170180000Y-55148816D01*
X164846000Y-56261000D02*
X169067816Y-56261000D01*
X170180000Y-55148816D02*
X170180000Y-53340000D01*
X163830000Y-52070000D02*
X163830000Y-55245000D01*
X116840000Y-44450000D02*
X156210000Y-44450000D01*
X156210000Y-44450000D02*
X163830000Y-52070000D01*
X163830000Y-55245000D02*
X164846000Y-56261000D01*
%TO.N,COL4*%
X169284456Y-54349456D02*
X167589616Y-54349456D01*
X169545000Y-55245000D02*
X169545000Y-54610000D01*
X168910000Y-55880000D02*
X169545000Y-55245000D01*
X165100000Y-55880000D02*
X168910000Y-55880000D01*
X164465000Y-55245000D02*
X165100000Y-55880000D01*
X164465000Y-51435000D02*
X164465000Y-55245000D01*
X156845000Y-43815000D02*
X164465000Y-51435000D01*
X169545000Y-54610000D02*
X169284456Y-54349456D01*
X97155000Y-43815000D02*
X156845000Y-43815000D01*
%TO.N,COL6*%
X170180000Y-47949072D02*
X167589616Y-50539456D01*
X170180000Y-41910000D02*
X170180000Y-47949072D01*
%TO.N,ROW5*%
X197485000Y-52164840D02*
X194589616Y-49269456D01*
X197485000Y-55245000D02*
X197485000Y-52164840D01*
X160020000Y-62865000D02*
X189865000Y-62865000D01*
X160020000Y-98425000D02*
X160020000Y-62865000D01*
X157480000Y-100965000D02*
X160020000Y-98425000D01*
X75565000Y-100965000D02*
X157480000Y-100965000D01*
X84455000Y-120650000D02*
X75565000Y-111760000D01*
X189865000Y-62865000D02*
X197485000Y-55245000D01*
X93345000Y-120650000D02*
X84455000Y-120650000D01*
X75565000Y-111760000D02*
X75565000Y-100965000D01*
X93345000Y-120650000D02*
X106045000Y-120650000D01*
X92710000Y-120650000D02*
X93345000Y-120650000D01*
%TO.N,ROW4*%
X196850000Y-52799840D02*
X194589616Y-50539456D01*
X196850000Y-55245000D02*
X196850000Y-52799840D01*
X156845000Y-100330000D02*
X159385000Y-97790000D01*
X159385000Y-97790000D02*
X159385000Y-62230000D01*
X159385000Y-62230000D02*
X189865000Y-62230000D01*
X147955000Y-100330000D02*
X156845000Y-100330000D01*
X189865000Y-62230000D02*
X196850000Y-55245000D01*
X147955000Y-100330000D02*
X151130000Y-100330000D01*
X130175000Y-100330000D02*
X147955000Y-100330000D01*
%TO.N,ROW3*%
X196215000Y-53434840D02*
X194589616Y-51809456D01*
X196215000Y-55245000D02*
X196215000Y-53434840D01*
X189865000Y-61595000D02*
X196215000Y-55245000D01*
X158750000Y-61595000D02*
X189865000Y-61595000D01*
X158750000Y-78740000D02*
X158750000Y-61595000D01*
X156845000Y-80645000D02*
X158750000Y-78740000D01*
X149860000Y-80645000D02*
X156845000Y-80645000D01*
X149860000Y-80645000D02*
X151130000Y-80645000D01*
X129540000Y-80645000D02*
X149860000Y-80645000D01*
%TO.N,ROW2*%
X176549072Y-60960000D02*
X193319616Y-44189456D01*
X149860000Y-60960000D02*
X176549072Y-60960000D01*
X149860000Y-60960000D02*
X151130000Y-60960000D01*
X129540000Y-60960000D02*
X149860000Y-60960000D01*
%TO.N,COL6*%
X144780000Y-40640000D02*
X170180000Y-40640000D01*
%TO.N,COL3*%
X157690160Y-43180000D02*
X166319616Y-51809456D01*
X77470000Y-43180000D02*
X157690160Y-43180000D01*
%TO.N,COL2*%
X158325160Y-42545000D02*
X166319616Y-50539456D01*
X57785000Y-42545000D02*
X158325160Y-42545000D01*
%TO.N,COL1*%
X38100000Y-41910000D02*
X158960160Y-41910000D01*
X158960160Y-41910000D02*
X166319616Y-49269456D01*
%TO.N,ROW5*%
X139065000Y-133985000D02*
X141605000Y-136525000D01*
X141605000Y-136525000D02*
X141605000Y-154940000D01*
X130175000Y-133985000D02*
X139065000Y-133985000D01*
X126365000Y-130175000D02*
X130175000Y-133985000D01*
X126365000Y-130175000D02*
X127000000Y-130810000D01*
X116840000Y-120650000D02*
X126365000Y-130175000D01*
X106045000Y-120650000D02*
X116840000Y-120650000D01*
X106045000Y-120650000D02*
X106680000Y-120650000D01*
X89535000Y-117475000D02*
X92710000Y-120650000D01*
%TO.N,ROW4*%
X130175000Y-100330000D02*
X131445000Y-100330000D01*
X109855000Y-100330000D02*
X130175000Y-100330000D01*
X109855000Y-100330000D02*
X111760000Y-100330000D01*
X90805000Y-100330000D02*
X109855000Y-100330000D01*
X90805000Y-100330000D02*
X92075000Y-100330000D01*
X71120000Y-100330000D02*
X90805000Y-100330000D01*
X71120000Y-100330000D02*
X72390000Y-100330000D01*
X51435000Y-100330000D02*
X71120000Y-100330000D01*
X51435000Y-100330000D02*
X52705000Y-100330000D01*
X42545000Y-100330000D02*
X51435000Y-100330000D01*
X40640000Y-102235000D02*
X42545000Y-100330000D01*
X34925000Y-102235000D02*
X40640000Y-102235000D01*
%TO.N,ROW3*%
X109855000Y-80645000D02*
X129540000Y-80645000D01*
X129540000Y-80645000D02*
X131445000Y-80645000D01*
X109855000Y-80645000D02*
X111760000Y-80645000D01*
X90805000Y-80645000D02*
X109855000Y-80645000D01*
X90805000Y-80645000D02*
X92075000Y-80645000D01*
X71755000Y-80645000D02*
X90805000Y-80645000D01*
X71755000Y-80645000D02*
X72390000Y-80645000D01*
X51435000Y-80645000D02*
X71755000Y-80645000D01*
X51435000Y-80645000D02*
X52705000Y-80645000D01*
X42545000Y-80645000D02*
X51435000Y-80645000D01*
X34925000Y-81915000D02*
X41275000Y-81915000D01*
X41275000Y-81915000D02*
X42545000Y-80645000D01*
%TO.N,ROW2*%
X129540000Y-60960000D02*
X131445000Y-60960000D01*
X111125000Y-60960000D02*
X129540000Y-60960000D01*
X111125000Y-60960000D02*
X111760000Y-60960000D01*
X90805000Y-60960000D02*
X111125000Y-60960000D01*
X90805000Y-60960000D02*
X92075000Y-60960000D01*
X71755000Y-60960000D02*
X90805000Y-60960000D01*
X71755000Y-60960000D02*
X72390000Y-60960000D01*
X52705000Y-60960000D02*
X71755000Y-60960000D01*
X41910000Y-60960000D02*
X52705000Y-60960000D01*
X41275000Y-61595000D02*
X41910000Y-60960000D01*
X34925000Y-61595000D02*
X41275000Y-61595000D01*
%TO.N,ROW1*%
X72390000Y-41275000D02*
X92075000Y-41275000D01*
X52705000Y-41275000D02*
X72390000Y-41275000D01*
X191675160Y-41275000D02*
X193319616Y-42919456D01*
X138430000Y-41275000D02*
X191675160Y-41275000D01*
X111760000Y-41275000D02*
X138430000Y-41275000D01*
X92075000Y-41275000D02*
X111760000Y-41275000D01*
X34925000Y-41275000D02*
X52705000Y-41275000D01*
%TD*%
M02*
