M48
; DRILL file {KiCad 7.0.1} date Thu Mar 23 04:50:54 2023
; FORMAT={-:-/ absolute / inch / decimal}
; #@! TF.CreationDate,2023-03-23T04:50:54+01:00
; #@! TF.GenerationSoftware,Kicad,Pcbnew,7.0.1
; #@! TF.FileFunction,Plated,1,2,PTH
FMAT,2
INCH
; #@! TA.AperFunction,Plated,PTH,ViaDrill
T1C0.0118
; #@! TA.AperFunction,Plated,PTH,ComponentDrill
T2C0.0236
; #@! TA.AperFunction,Plated,PTH,ComponentDrill
T3C0.1260
%
G90
G05
T1
X1.375Y-1.625
X1.375Y-2.425
X1.375Y-3.225
X1.375Y-4.025
X1.5Y-1.65
X2.075Y-1.625
X2.075Y-2.4
X2.075Y-3.175
X2.075Y-3.95
X2.275Y-1.675
X2.85Y-1.625
X2.85Y-2.4
X2.85Y-3.175
X2.85Y-3.95
X3.05Y-1.7
X3.525Y-4.625
X3.625Y-1.625
X3.625Y-2.4
X3.625Y-3.175
X3.625Y-3.95
X3.825Y-1.725
X4.2Y-4.75
X4.4Y-1.625
X4.4Y-2.4
X4.4Y-3.175
X4.4Y-3.95
X4.6Y-1.75
X5.0Y-5.15
X5.175Y-2.4
X5.175Y-3.175
X5.175Y-3.95
X5.45Y-1.625
X5.575Y-6.1
X5.7Y-1.6
X5.95Y-2.4
X5.95Y-3.175
X5.95Y-3.95
X6.2Y-1.85
X6.7Y-1.6
X6.7Y-1.65
T2
X6.548Y-1.6897
X6.548Y-1.7397
X6.548Y-1.7897
X6.548Y-1.8397
X6.548Y-1.8897
X6.548Y-1.9397
X6.548Y-1.9897
X6.548Y-2.0397
X6.548Y-2.0897
X6.548Y-2.1397
X6.598Y-1.6897
X6.598Y-1.7397
X6.598Y-1.7897
X6.598Y-1.8397
X6.598Y-1.8897
X6.598Y-1.9397
X6.598Y-1.9897
X6.598Y-2.0397
X6.598Y-2.0897
X6.598Y-2.1397
X7.611Y-1.6897
X7.611Y-1.7397
X7.611Y-1.7897
X7.611Y-1.8397
X7.611Y-1.8897
X7.611Y-1.9397
X7.611Y-1.9897
X7.611Y-2.0397
X7.611Y-2.0897
X7.611Y-2.1397
X7.661Y-1.6897
X7.661Y-1.7397
X7.661Y-1.7897
X7.661Y-1.8397
X7.661Y-1.8897
X7.661Y-1.9397
X7.661Y-1.9897
X7.661Y-2.0397
X7.661Y-2.0897
X7.661Y-2.1397
T3
X1.62Y-3.72
X1.625Y-1.425
X4.675Y-4.15
X6.0Y-1.075
X6.02Y-5.395
X7.7Y-2.575
T0
M30
