%TF.GenerationSoftware,KiCad,Pcbnew,7.0.1*%
%TF.CreationDate,2023-03-23T04:50:55+01:00*%
%TF.ProjectId,Tiamat_v01_badge,5469616d-6174-45f7-9630-315f62616467,rev?*%
%TF.SameCoordinates,Original*%
%TF.FileFunction,Drillmap*%
%TF.FilePolarity,Positive*%
%FSLAX45Y45*%
G04 Gerber Fmt 4.5, Leading zero omitted, Abs format (unit mm)*
G04 Created by KiCad (PCBNEW 7.0.1) date 2023-03-23 04:50:55*
%MOMM*%
%LPD*%
G01*
G04 APERTURE LIST*
%ADD10C,0.150000*%
%ADD11C,0.200000*%
%ADD12C,0.030000*%
%ADD13C,0.060000*%
%ADD14C,0.320000*%
G04 APERTURE END LIST*
D10*
X2299000Y-2222500D02*
G75*
G03*
X2099000Y-2422500I0J-200000D01*
G01*
X7455110Y-10804285D02*
G75*
G03*
X7255115Y-10604500I-200000J-215D01*
G01*
X16392500Y-6933730D02*
G75*
G03*
X16192500Y-7133730I0J-200000D01*
G01*
X15992500Y-10196730D02*
G75*
G03*
X16192500Y-9996730I0J200000D01*
G01*
X19939000Y-3375000D02*
G75*
G03*
X19739000Y-3175000I-200000J0D01*
G01*
X15875000Y-2522500D02*
G75*
G03*
X15575000Y-2222500I-300000J0D01*
G01*
X15875000Y-2875000D02*
G75*
G03*
X16175000Y-3175000I300000J0D01*
G01*
X16175000Y-3175000D02*
X19739000Y-3175000D01*
X15875000Y-2522500D02*
X15875000Y-2875000D01*
X15780713Y-13068289D02*
G75*
G03*
X15691885Y-12865350I-491083J-94041D01*
G01*
X13822721Y-14494867D02*
G75*
G03*
X13688533Y-14251424I-487721J-110133D01*
G01*
X16132229Y-15977345D02*
G75*
G03*
X16292882Y-15742954I-35779J196775D01*
G01*
X14193123Y-16135210D02*
G75*
G03*
X14423985Y-16287933I195087J44050D01*
G01*
X14193120Y-16135211D02*
X13822720Y-14494867D01*
X12003903Y-12566979D02*
G75*
G03*
X11689325Y-12422074I-353533J-353581D01*
G01*
X19739000Y-6933730D02*
G75*
G03*
X19939000Y-6733730I0J200000D01*
G01*
X11689325Y-12422074D02*
X8780399Y-12194730D01*
X16132228Y-15977343D02*
X14423985Y-16287933D01*
X13688533Y-14251424D02*
X12003901Y-12566981D01*
X15780712Y-13068289D02*
X16292882Y-15742954D01*
X14073385Y-10673105D02*
X15691885Y-12865350D01*
X19939000Y-6733730D02*
X19939000Y-3375000D01*
X16392500Y-6933730D02*
X19739000Y-6933730D01*
X14316061Y-10196730D02*
G75*
G03*
X14073385Y-10673105I0J-300000D01*
G01*
X7456500Y-12094730D02*
G75*
G03*
X7556500Y-12194730I100000J0D01*
G01*
X16192500Y-9996730D02*
X16192500Y-7133730D01*
X7455114Y-10804285D02*
X7456500Y-12094730D01*
X2099000Y-10504500D02*
X2099000Y-2422500D01*
X7556500Y-12194730D02*
X8780399Y-12194730D01*
X2099000Y-10504500D02*
G75*
G03*
X2199000Y-10604500I100000J0D01*
G01*
X2199000Y-10604500D02*
X7255115Y-10604500D01*
X14316061Y-10196730D02*
X15992500Y-10196730D01*
X2299000Y-2222500D02*
X15575000Y-2222500D01*
D11*
D12*
X3477500Y-4112500D02*
X3507500Y-4142500D01*
X3507500Y-4112500D02*
X3477500Y-4142500D01*
X3477500Y-6144500D02*
X3507500Y-6174500D01*
X3507500Y-6144500D02*
X3477500Y-6174500D01*
X3477500Y-8176500D02*
X3507500Y-8206500D01*
X3507500Y-8176500D02*
X3477500Y-8206500D01*
X3477500Y-10208500D02*
X3507500Y-10238500D01*
X3507500Y-10208500D02*
X3477500Y-10238500D01*
X3795000Y-4176000D02*
X3825000Y-4206000D01*
X3825000Y-4176000D02*
X3795000Y-4206000D01*
X5255500Y-4112500D02*
X5285500Y-4142500D01*
X5285500Y-4112500D02*
X5255500Y-4142500D01*
X5255500Y-6081000D02*
X5285500Y-6111000D01*
X5285500Y-6081000D02*
X5255500Y-6111000D01*
X5255500Y-8049500D02*
X5285500Y-8079500D01*
X5285500Y-8049500D02*
X5255500Y-8079500D01*
X5255500Y-10018000D02*
X5285500Y-10048000D01*
X5285500Y-10018000D02*
X5255500Y-10048000D01*
X5763500Y-4239500D02*
X5793500Y-4269500D01*
X5793500Y-4239500D02*
X5763500Y-4269500D01*
X7224000Y-4112500D02*
X7254000Y-4142500D01*
X7254000Y-4112500D02*
X7224000Y-4142500D01*
X7224000Y-6081000D02*
X7254000Y-6111000D01*
X7254000Y-6081000D02*
X7224000Y-6111000D01*
X7224000Y-8049500D02*
X7254000Y-8079500D01*
X7254000Y-8049500D02*
X7224000Y-8079500D01*
X7224000Y-10018000D02*
X7254000Y-10048000D01*
X7254000Y-10018000D02*
X7224000Y-10048000D01*
X7732000Y-4303000D02*
X7762000Y-4333000D01*
X7762000Y-4303000D02*
X7732000Y-4333000D01*
X8938500Y-11732500D02*
X8968500Y-11762500D01*
X8968500Y-11732500D02*
X8938500Y-11762500D01*
X9192500Y-4112500D02*
X9222500Y-4142500D01*
X9222500Y-4112500D02*
X9192500Y-4142500D01*
X9192500Y-6081000D02*
X9222500Y-6111000D01*
X9222500Y-6081000D02*
X9192500Y-6111000D01*
X9192500Y-8049500D02*
X9222500Y-8079500D01*
X9222500Y-8049500D02*
X9192500Y-8079500D01*
X9192500Y-10018000D02*
X9222500Y-10048000D01*
X9222500Y-10018000D02*
X9192500Y-10048000D01*
X9700500Y-4366500D02*
X9730500Y-4396500D01*
X9730500Y-4366500D02*
X9700500Y-4396500D01*
X10653000Y-12050000D02*
X10683000Y-12080000D01*
X10683000Y-12050000D02*
X10653000Y-12080000D01*
X11161000Y-4112500D02*
X11191000Y-4142500D01*
X11191000Y-4112500D02*
X11161000Y-4142500D01*
X11161000Y-6081000D02*
X11191000Y-6111000D01*
X11191000Y-6081000D02*
X11161000Y-6111000D01*
X11161000Y-8049500D02*
X11191000Y-8079500D01*
X11191000Y-8049500D02*
X11161000Y-8079500D01*
X11161000Y-10018000D02*
X11191000Y-10048000D01*
X11191000Y-10018000D02*
X11161000Y-10048000D01*
X11669000Y-4430000D02*
X11699000Y-4460000D01*
X11699000Y-4430000D02*
X11669000Y-4460000D01*
X12685000Y-13066000D02*
X12715000Y-13096000D01*
X12715000Y-13066000D02*
X12685000Y-13096000D01*
X13129500Y-6081000D02*
X13159500Y-6111000D01*
X13159500Y-6081000D02*
X13129500Y-6111000D01*
X13129500Y-8049500D02*
X13159500Y-8079500D01*
X13159500Y-8049500D02*
X13129500Y-8079500D01*
X13129500Y-10018000D02*
X13159500Y-10048000D01*
X13159500Y-10018000D02*
X13129500Y-10048000D01*
X13828000Y-4112500D02*
X13858000Y-4142500D01*
X13858000Y-4112500D02*
X13828000Y-4142500D01*
X14145500Y-15479000D02*
X14175500Y-15509000D01*
X14175500Y-15479000D02*
X14145500Y-15509000D01*
X14463000Y-4049000D02*
X14493000Y-4079000D01*
X14493000Y-4049000D02*
X14463000Y-4079000D01*
X15098000Y-6081000D02*
X15128000Y-6111000D01*
X15128000Y-6081000D02*
X15098000Y-6111000D01*
X15098000Y-8049500D02*
X15128000Y-8079500D01*
X15128000Y-8049500D02*
X15098000Y-8079500D01*
X15098000Y-10018000D02*
X15128000Y-10048000D01*
X15128000Y-10018000D02*
X15098000Y-10048000D01*
X15733000Y-4684000D02*
X15763000Y-4714000D01*
X15763000Y-4684000D02*
X15733000Y-4714000D01*
X17003000Y-4049000D02*
X17033000Y-4079000D01*
X17033000Y-4049000D02*
X17003000Y-4079000D01*
X17003000Y-4176000D02*
X17033000Y-4206000D01*
X17033000Y-4176000D02*
X17003000Y-4206000D01*
D13*
X16661962Y-4291946D02*
G75*
G03*
X16661962Y-4291946I-30000J0D01*
G01*
X16661962Y-4418946D02*
G75*
G03*
X16661962Y-4418946I-30000J0D01*
G01*
X16661962Y-4545946D02*
G75*
G03*
X16661962Y-4545946I-30000J0D01*
G01*
X16661962Y-4672946D02*
G75*
G03*
X16661962Y-4672946I-30000J0D01*
G01*
X16661962Y-4799946D02*
G75*
G03*
X16661962Y-4799946I-30000J0D01*
G01*
X16661962Y-4926946D02*
G75*
G03*
X16661962Y-4926946I-30000J0D01*
G01*
X16661962Y-5053946D02*
G75*
G03*
X16661962Y-5053946I-30000J0D01*
G01*
X16661962Y-5180946D02*
G75*
G03*
X16661962Y-5180946I-30000J0D01*
G01*
X16661962Y-5307946D02*
G75*
G03*
X16661962Y-5307946I-30000J0D01*
G01*
X16661962Y-5434946D02*
G75*
G03*
X16661962Y-5434946I-30000J0D01*
G01*
X16788962Y-4291946D02*
G75*
G03*
X16788962Y-4291946I-30000J0D01*
G01*
X16788962Y-4418946D02*
G75*
G03*
X16788962Y-4418946I-30000J0D01*
G01*
X16788962Y-4545946D02*
G75*
G03*
X16788962Y-4545946I-30000J0D01*
G01*
X16788962Y-4672946D02*
G75*
G03*
X16788962Y-4672946I-30000J0D01*
G01*
X16788962Y-4799946D02*
G75*
G03*
X16788962Y-4799946I-30000J0D01*
G01*
X16788962Y-4926946D02*
G75*
G03*
X16788962Y-4926946I-30000J0D01*
G01*
X16788962Y-5053946D02*
G75*
G03*
X16788962Y-5053946I-30000J0D01*
G01*
X16788962Y-5180946D02*
G75*
G03*
X16788962Y-5180946I-30000J0D01*
G01*
X16788962Y-5307946D02*
G75*
G03*
X16788962Y-5307946I-30000J0D01*
G01*
X16788962Y-5434946D02*
G75*
G03*
X16788962Y-5434946I-30000J0D01*
G01*
X19361962Y-4291946D02*
G75*
G03*
X19361962Y-4291946I-30000J0D01*
G01*
X19361962Y-4418946D02*
G75*
G03*
X19361962Y-4418946I-30000J0D01*
G01*
X19361962Y-4545946D02*
G75*
G03*
X19361962Y-4545946I-30000J0D01*
G01*
X19361962Y-4672946D02*
G75*
G03*
X19361962Y-4672946I-30000J0D01*
G01*
X19361962Y-4799946D02*
G75*
G03*
X19361962Y-4799946I-30000J0D01*
G01*
X19361962Y-4926946D02*
G75*
G03*
X19361962Y-4926946I-30000J0D01*
G01*
X19361962Y-5053946D02*
G75*
G03*
X19361962Y-5053946I-30000J0D01*
G01*
X19361962Y-5180946D02*
G75*
G03*
X19361962Y-5180946I-30000J0D01*
G01*
X19361962Y-5307946D02*
G75*
G03*
X19361962Y-5307946I-30000J0D01*
G01*
X19361962Y-5434946D02*
G75*
G03*
X19361962Y-5434946I-30000J0D01*
G01*
X19488962Y-4291946D02*
G75*
G03*
X19488962Y-4291946I-30000J0D01*
G01*
X19488962Y-4418946D02*
G75*
G03*
X19488962Y-4418946I-30000J0D01*
G01*
X19488962Y-4545946D02*
G75*
G03*
X19488962Y-4545946I-30000J0D01*
G01*
X19488962Y-4672946D02*
G75*
G03*
X19488962Y-4672946I-30000J0D01*
G01*
X19488962Y-4799946D02*
G75*
G03*
X19488962Y-4799946I-30000J0D01*
G01*
X19488962Y-4926946D02*
G75*
G03*
X19488962Y-4926946I-30000J0D01*
G01*
X19488962Y-5053946D02*
G75*
G03*
X19488962Y-5053946I-30000J0D01*
G01*
X19488962Y-5180946D02*
G75*
G03*
X19488962Y-5180946I-30000J0D01*
G01*
X19488962Y-5307946D02*
G75*
G03*
X19488962Y-5307946I-30000J0D01*
G01*
X19488962Y-5434946D02*
G75*
G03*
X19488962Y-5434946I-30000J0D01*
G01*
D14*
X4114800Y-9288800D02*
X4114800Y-9608800D01*
X3954800Y-9448800D02*
X4274800Y-9448800D01*
X4127500Y-3459500D02*
X4127500Y-3779500D01*
X3967500Y-3619500D02*
X4287500Y-3619500D01*
X11874500Y-10381000D02*
X11874500Y-10701000D01*
X11714500Y-10541000D02*
X12034500Y-10541000D01*
X15240000Y-2570500D02*
X15240000Y-2890500D01*
X15080000Y-2730500D02*
X15400000Y-2730500D01*
X15290800Y-13543300D02*
X15290800Y-13863300D01*
X15130800Y-13703300D02*
X15450800Y-13703300D01*
X19558000Y-6380500D02*
X19558000Y-6700500D01*
X19398000Y-6540500D02*
X19718000Y-6540500D01*
D11*
X2339119Y-16611182D02*
X2339119Y-16411182D01*
X2339119Y-16411182D02*
X2386738Y-16411182D01*
X2386738Y-16411182D02*
X2415310Y-16420706D01*
X2415310Y-16420706D02*
X2434357Y-16439754D01*
X2434357Y-16439754D02*
X2443881Y-16458801D01*
X2443881Y-16458801D02*
X2453405Y-16496896D01*
X2453405Y-16496896D02*
X2453405Y-16525468D01*
X2453405Y-16525468D02*
X2443881Y-16563563D01*
X2443881Y-16563563D02*
X2434357Y-16582611D01*
X2434357Y-16582611D02*
X2415310Y-16601658D01*
X2415310Y-16601658D02*
X2386738Y-16611182D01*
X2386738Y-16611182D02*
X2339119Y-16611182D01*
X2539119Y-16611182D02*
X2539119Y-16477849D01*
X2539119Y-16515944D02*
X2548643Y-16496896D01*
X2548643Y-16496896D02*
X2558167Y-16487373D01*
X2558167Y-16487373D02*
X2577214Y-16477849D01*
X2577214Y-16477849D02*
X2596262Y-16477849D01*
X2662929Y-16611182D02*
X2662929Y-16477849D01*
X2662929Y-16411182D02*
X2653405Y-16420706D01*
X2653405Y-16420706D02*
X2662929Y-16430230D01*
X2662929Y-16430230D02*
X2672452Y-16420706D01*
X2672452Y-16420706D02*
X2662929Y-16411182D01*
X2662929Y-16411182D02*
X2662929Y-16430230D01*
X2786738Y-16611182D02*
X2767690Y-16601658D01*
X2767690Y-16601658D02*
X2758167Y-16582611D01*
X2758167Y-16582611D02*
X2758167Y-16411182D01*
X2891500Y-16611182D02*
X2872452Y-16601658D01*
X2872452Y-16601658D02*
X2862928Y-16582611D01*
X2862928Y-16582611D02*
X2862928Y-16411182D01*
X3120071Y-16611182D02*
X3120071Y-16411182D01*
X3120071Y-16411182D02*
X3186738Y-16554039D01*
X3186738Y-16554039D02*
X3253405Y-16411182D01*
X3253405Y-16411182D02*
X3253405Y-16611182D01*
X3434357Y-16611182D02*
X3434357Y-16506420D01*
X3434357Y-16506420D02*
X3424833Y-16487373D01*
X3424833Y-16487373D02*
X3405786Y-16477849D01*
X3405786Y-16477849D02*
X3367690Y-16477849D01*
X3367690Y-16477849D02*
X3348643Y-16487373D01*
X3434357Y-16601658D02*
X3415309Y-16611182D01*
X3415309Y-16611182D02*
X3367690Y-16611182D01*
X3367690Y-16611182D02*
X3348643Y-16601658D01*
X3348643Y-16601658D02*
X3339119Y-16582611D01*
X3339119Y-16582611D02*
X3339119Y-16563563D01*
X3339119Y-16563563D02*
X3348643Y-16544515D01*
X3348643Y-16544515D02*
X3367690Y-16534992D01*
X3367690Y-16534992D02*
X3415309Y-16534992D01*
X3415309Y-16534992D02*
X3434357Y-16525468D01*
X3529595Y-16477849D02*
X3529595Y-16677849D01*
X3529595Y-16487373D02*
X3548643Y-16477849D01*
X3548643Y-16477849D02*
X3586738Y-16477849D01*
X3586738Y-16477849D02*
X3605786Y-16487373D01*
X3605786Y-16487373D02*
X3615309Y-16496896D01*
X3615309Y-16496896D02*
X3624833Y-16515944D01*
X3624833Y-16515944D02*
X3624833Y-16573087D01*
X3624833Y-16573087D02*
X3615309Y-16592134D01*
X3615309Y-16592134D02*
X3605786Y-16601658D01*
X3605786Y-16601658D02*
X3586738Y-16611182D01*
X3586738Y-16611182D02*
X3548643Y-16611182D01*
X3548643Y-16611182D02*
X3529595Y-16601658D01*
X3710548Y-16592134D02*
X3720071Y-16601658D01*
X3720071Y-16601658D02*
X3710548Y-16611182D01*
X3710548Y-16611182D02*
X3701024Y-16601658D01*
X3701024Y-16601658D02*
X3710548Y-16592134D01*
X3710548Y-16592134D02*
X3710548Y-16611182D01*
X3710548Y-16487373D02*
X3720071Y-16496896D01*
X3720071Y-16496896D02*
X3710548Y-16506420D01*
X3710548Y-16506420D02*
X3701024Y-16496896D01*
X3701024Y-16496896D02*
X3710548Y-16487373D01*
X3710548Y-16487373D02*
X3710548Y-16506420D01*
D12*
X2061500Y-16923658D02*
X2091500Y-16953658D01*
X2091500Y-16923658D02*
X2061500Y-16953658D01*
D11*
X2377214Y-16831182D02*
X2396262Y-16831182D01*
X2396262Y-16831182D02*
X2415310Y-16840706D01*
X2415310Y-16840706D02*
X2424833Y-16850230D01*
X2424833Y-16850230D02*
X2434357Y-16869277D01*
X2434357Y-16869277D02*
X2443881Y-16907373D01*
X2443881Y-16907373D02*
X2443881Y-16954992D01*
X2443881Y-16954992D02*
X2434357Y-16993087D01*
X2434357Y-16993087D02*
X2424833Y-17012135D01*
X2424833Y-17012135D02*
X2415310Y-17021658D01*
X2415310Y-17021658D02*
X2396262Y-17031182D01*
X2396262Y-17031182D02*
X2377214Y-17031182D01*
X2377214Y-17031182D02*
X2358167Y-17021658D01*
X2358167Y-17021658D02*
X2348643Y-17012135D01*
X2348643Y-17012135D02*
X2339119Y-16993087D01*
X2339119Y-16993087D02*
X2329595Y-16954992D01*
X2329595Y-16954992D02*
X2329595Y-16907373D01*
X2329595Y-16907373D02*
X2339119Y-16869277D01*
X2339119Y-16869277D02*
X2348643Y-16850230D01*
X2348643Y-16850230D02*
X2358167Y-16840706D01*
X2358167Y-16840706D02*
X2377214Y-16831182D01*
X2529595Y-17012135D02*
X2539119Y-17021658D01*
X2539119Y-17021658D02*
X2529595Y-17031182D01*
X2529595Y-17031182D02*
X2520071Y-17021658D01*
X2520071Y-17021658D02*
X2529595Y-17012135D01*
X2529595Y-17012135D02*
X2529595Y-17031182D01*
X2605786Y-16831182D02*
X2729595Y-16831182D01*
X2729595Y-16831182D02*
X2662929Y-16907373D01*
X2662929Y-16907373D02*
X2691500Y-16907373D01*
X2691500Y-16907373D02*
X2710548Y-16916896D01*
X2710548Y-16916896D02*
X2720071Y-16926420D01*
X2720071Y-16926420D02*
X2729595Y-16945468D01*
X2729595Y-16945468D02*
X2729595Y-16993087D01*
X2729595Y-16993087D02*
X2720071Y-17012135D01*
X2720071Y-17012135D02*
X2710548Y-17021658D01*
X2710548Y-17021658D02*
X2691500Y-17031182D01*
X2691500Y-17031182D02*
X2634357Y-17031182D01*
X2634357Y-17031182D02*
X2615310Y-17021658D01*
X2615310Y-17021658D02*
X2605786Y-17012135D01*
X2853405Y-16831182D02*
X2872452Y-16831182D01*
X2872452Y-16831182D02*
X2891500Y-16840706D01*
X2891500Y-16840706D02*
X2901024Y-16850230D01*
X2901024Y-16850230D02*
X2910548Y-16869277D01*
X2910548Y-16869277D02*
X2920071Y-16907373D01*
X2920071Y-16907373D02*
X2920071Y-16954992D01*
X2920071Y-16954992D02*
X2910548Y-16993087D01*
X2910548Y-16993087D02*
X2901024Y-17012135D01*
X2901024Y-17012135D02*
X2891500Y-17021658D01*
X2891500Y-17021658D02*
X2872452Y-17031182D01*
X2872452Y-17031182D02*
X2853405Y-17031182D01*
X2853405Y-17031182D02*
X2834357Y-17021658D01*
X2834357Y-17021658D02*
X2824833Y-17012135D01*
X2824833Y-17012135D02*
X2815309Y-16993087D01*
X2815309Y-16993087D02*
X2805786Y-16954992D01*
X2805786Y-16954992D02*
X2805786Y-16907373D01*
X2805786Y-16907373D02*
X2815309Y-16869277D01*
X2815309Y-16869277D02*
X2824833Y-16850230D01*
X2824833Y-16850230D02*
X2834357Y-16840706D01*
X2834357Y-16840706D02*
X2853405Y-16831182D01*
X3043881Y-16831182D02*
X3062929Y-16831182D01*
X3062929Y-16831182D02*
X3081976Y-16840706D01*
X3081976Y-16840706D02*
X3091500Y-16850230D01*
X3091500Y-16850230D02*
X3101024Y-16869277D01*
X3101024Y-16869277D02*
X3110548Y-16907373D01*
X3110548Y-16907373D02*
X3110548Y-16954992D01*
X3110548Y-16954992D02*
X3101024Y-16993087D01*
X3101024Y-16993087D02*
X3091500Y-17012135D01*
X3091500Y-17012135D02*
X3081976Y-17021658D01*
X3081976Y-17021658D02*
X3062929Y-17031182D01*
X3062929Y-17031182D02*
X3043881Y-17031182D01*
X3043881Y-17031182D02*
X3024833Y-17021658D01*
X3024833Y-17021658D02*
X3015309Y-17012135D01*
X3015309Y-17012135D02*
X3005786Y-16993087D01*
X3005786Y-16993087D02*
X2996262Y-16954992D01*
X2996262Y-16954992D02*
X2996262Y-16907373D01*
X2996262Y-16907373D02*
X3005786Y-16869277D01*
X3005786Y-16869277D02*
X3015309Y-16850230D01*
X3015309Y-16850230D02*
X3024833Y-16840706D01*
X3024833Y-16840706D02*
X3043881Y-16831182D01*
X3196262Y-17031182D02*
X3196262Y-16897849D01*
X3196262Y-16916896D02*
X3205786Y-16907373D01*
X3205786Y-16907373D02*
X3224833Y-16897849D01*
X3224833Y-16897849D02*
X3253405Y-16897849D01*
X3253405Y-16897849D02*
X3272452Y-16907373D01*
X3272452Y-16907373D02*
X3281976Y-16926420D01*
X3281976Y-16926420D02*
X3281976Y-17031182D01*
X3281976Y-16926420D02*
X3291500Y-16907373D01*
X3291500Y-16907373D02*
X3310548Y-16897849D01*
X3310548Y-16897849D02*
X3339119Y-16897849D01*
X3339119Y-16897849D02*
X3358167Y-16907373D01*
X3358167Y-16907373D02*
X3367690Y-16926420D01*
X3367690Y-16926420D02*
X3367690Y-17031182D01*
X3462929Y-17031182D02*
X3462929Y-16897849D01*
X3462929Y-16916896D02*
X3472452Y-16907373D01*
X3472452Y-16907373D02*
X3491500Y-16897849D01*
X3491500Y-16897849D02*
X3520071Y-16897849D01*
X3520071Y-16897849D02*
X3539119Y-16907373D01*
X3539119Y-16907373D02*
X3548643Y-16926420D01*
X3548643Y-16926420D02*
X3548643Y-17031182D01*
X3548643Y-16926420D02*
X3558167Y-16907373D01*
X3558167Y-16907373D02*
X3577214Y-16897849D01*
X3577214Y-16897849D02*
X3605786Y-16897849D01*
X3605786Y-16897849D02*
X3624833Y-16907373D01*
X3624833Y-16907373D02*
X3634357Y-16926420D01*
X3634357Y-16926420D02*
X3634357Y-17031182D01*
X4024833Y-16821658D02*
X3853405Y-17078801D01*
X4281976Y-16831182D02*
X4301024Y-16831182D01*
X4301024Y-16831182D02*
X4320072Y-16840706D01*
X4320072Y-16840706D02*
X4329595Y-16850230D01*
X4329595Y-16850230D02*
X4339119Y-16869277D01*
X4339119Y-16869277D02*
X4348643Y-16907373D01*
X4348643Y-16907373D02*
X4348643Y-16954992D01*
X4348643Y-16954992D02*
X4339119Y-16993087D01*
X4339119Y-16993087D02*
X4329595Y-17012135D01*
X4329595Y-17012135D02*
X4320072Y-17021658D01*
X4320072Y-17021658D02*
X4301024Y-17031182D01*
X4301024Y-17031182D02*
X4281976Y-17031182D01*
X4281976Y-17031182D02*
X4262929Y-17021658D01*
X4262929Y-17021658D02*
X4253405Y-17012135D01*
X4253405Y-17012135D02*
X4243881Y-16993087D01*
X4243881Y-16993087D02*
X4234357Y-16954992D01*
X4234357Y-16954992D02*
X4234357Y-16907373D01*
X4234357Y-16907373D02*
X4243881Y-16869277D01*
X4243881Y-16869277D02*
X4253405Y-16850230D01*
X4253405Y-16850230D02*
X4262929Y-16840706D01*
X4262929Y-16840706D02*
X4281976Y-16831182D01*
X4434357Y-17012135D02*
X4443881Y-17021658D01*
X4443881Y-17021658D02*
X4434357Y-17031182D01*
X4434357Y-17031182D02*
X4424834Y-17021658D01*
X4424834Y-17021658D02*
X4434357Y-17012135D01*
X4434357Y-17012135D02*
X4434357Y-17031182D01*
X4567691Y-16831182D02*
X4586738Y-16831182D01*
X4586738Y-16831182D02*
X4605786Y-16840706D01*
X4605786Y-16840706D02*
X4615310Y-16850230D01*
X4615310Y-16850230D02*
X4624834Y-16869277D01*
X4624834Y-16869277D02*
X4634357Y-16907373D01*
X4634357Y-16907373D02*
X4634357Y-16954992D01*
X4634357Y-16954992D02*
X4624834Y-16993087D01*
X4624834Y-16993087D02*
X4615310Y-17012135D01*
X4615310Y-17012135D02*
X4605786Y-17021658D01*
X4605786Y-17021658D02*
X4586738Y-17031182D01*
X4586738Y-17031182D02*
X4567691Y-17031182D01*
X4567691Y-17031182D02*
X4548643Y-17021658D01*
X4548643Y-17021658D02*
X4539119Y-17012135D01*
X4539119Y-17012135D02*
X4529595Y-16993087D01*
X4529595Y-16993087D02*
X4520072Y-16954992D01*
X4520072Y-16954992D02*
X4520072Y-16907373D01*
X4520072Y-16907373D02*
X4529595Y-16869277D01*
X4529595Y-16869277D02*
X4539119Y-16850230D01*
X4539119Y-16850230D02*
X4548643Y-16840706D01*
X4548643Y-16840706D02*
X4567691Y-16831182D01*
X4824834Y-17031182D02*
X4710548Y-17031182D01*
X4767691Y-17031182D02*
X4767691Y-16831182D01*
X4767691Y-16831182D02*
X4748643Y-16859754D01*
X4748643Y-16859754D02*
X4729595Y-16878801D01*
X4729595Y-16878801D02*
X4710548Y-16888325D01*
X5015310Y-17031182D02*
X4901024Y-17031182D01*
X4958167Y-17031182D02*
X4958167Y-16831182D01*
X4958167Y-16831182D02*
X4939119Y-16859754D01*
X4939119Y-16859754D02*
X4920072Y-16878801D01*
X4920072Y-16878801D02*
X4901024Y-16888325D01*
X5129595Y-16916896D02*
X5110548Y-16907373D01*
X5110548Y-16907373D02*
X5101024Y-16897849D01*
X5101024Y-16897849D02*
X5091500Y-16878801D01*
X5091500Y-16878801D02*
X5091500Y-16869277D01*
X5091500Y-16869277D02*
X5101024Y-16850230D01*
X5101024Y-16850230D02*
X5110548Y-16840706D01*
X5110548Y-16840706D02*
X5129595Y-16831182D01*
X5129595Y-16831182D02*
X5167691Y-16831182D01*
X5167691Y-16831182D02*
X5186738Y-16840706D01*
X5186738Y-16840706D02*
X5196262Y-16850230D01*
X5196262Y-16850230D02*
X5205786Y-16869277D01*
X5205786Y-16869277D02*
X5205786Y-16878801D01*
X5205786Y-16878801D02*
X5196262Y-16897849D01*
X5196262Y-16897849D02*
X5186738Y-16907373D01*
X5186738Y-16907373D02*
X5167691Y-16916896D01*
X5167691Y-16916896D02*
X5129595Y-16916896D01*
X5129595Y-16916896D02*
X5110548Y-16926420D01*
X5110548Y-16926420D02*
X5101024Y-16935944D01*
X5101024Y-16935944D02*
X5091500Y-16954992D01*
X5091500Y-16954992D02*
X5091500Y-16993087D01*
X5091500Y-16993087D02*
X5101024Y-17012135D01*
X5101024Y-17012135D02*
X5110548Y-17021658D01*
X5110548Y-17021658D02*
X5129595Y-17031182D01*
X5129595Y-17031182D02*
X5167691Y-17031182D01*
X5167691Y-17031182D02*
X5186738Y-17021658D01*
X5186738Y-17021658D02*
X5196262Y-17012135D01*
X5196262Y-17012135D02*
X5205786Y-16993087D01*
X5205786Y-16993087D02*
X5205786Y-16954992D01*
X5205786Y-16954992D02*
X5196262Y-16935944D01*
X5196262Y-16935944D02*
X5186738Y-16926420D01*
X5186738Y-16926420D02*
X5167691Y-16916896D01*
X5281976Y-16831182D02*
X5281976Y-16869277D01*
X5358167Y-16831182D02*
X5358167Y-16869277D01*
X5653405Y-17107373D02*
X5643881Y-17097849D01*
X5643881Y-17097849D02*
X5624834Y-17069277D01*
X5624834Y-17069277D02*
X5615310Y-17050230D01*
X5615310Y-17050230D02*
X5605786Y-17021658D01*
X5605786Y-17021658D02*
X5596262Y-16974039D01*
X5596262Y-16974039D02*
X5596262Y-16935944D01*
X5596262Y-16935944D02*
X5605786Y-16888325D01*
X5605786Y-16888325D02*
X5615310Y-16859754D01*
X5615310Y-16859754D02*
X5624834Y-16840706D01*
X5624834Y-16840706D02*
X5643881Y-16812135D01*
X5643881Y-16812135D02*
X5653405Y-16802611D01*
X5815310Y-16897849D02*
X5815310Y-17031182D01*
X5767691Y-16821658D02*
X5720072Y-16964516D01*
X5720072Y-16964516D02*
X5843881Y-16964516D01*
X5958167Y-16831182D02*
X5977215Y-16831182D01*
X5977215Y-16831182D02*
X5996262Y-16840706D01*
X5996262Y-16840706D02*
X6005786Y-16850230D01*
X6005786Y-16850230D02*
X6015310Y-16869277D01*
X6015310Y-16869277D02*
X6024834Y-16907373D01*
X6024834Y-16907373D02*
X6024834Y-16954992D01*
X6024834Y-16954992D02*
X6015310Y-16993087D01*
X6015310Y-16993087D02*
X6005786Y-17012135D01*
X6005786Y-17012135D02*
X5996262Y-17021658D01*
X5996262Y-17021658D02*
X5977215Y-17031182D01*
X5977215Y-17031182D02*
X5958167Y-17031182D01*
X5958167Y-17031182D02*
X5939119Y-17021658D01*
X5939119Y-17021658D02*
X5929595Y-17012135D01*
X5929595Y-17012135D02*
X5920072Y-16993087D01*
X5920072Y-16993087D02*
X5910548Y-16954992D01*
X5910548Y-16954992D02*
X5910548Y-16907373D01*
X5910548Y-16907373D02*
X5920072Y-16869277D01*
X5920072Y-16869277D02*
X5929595Y-16850230D01*
X5929595Y-16850230D02*
X5939119Y-16840706D01*
X5939119Y-16840706D02*
X5958167Y-16831182D01*
X6262929Y-17031182D02*
X6262929Y-16831182D01*
X6348643Y-17031182D02*
X6348643Y-16926420D01*
X6348643Y-16926420D02*
X6339119Y-16907373D01*
X6339119Y-16907373D02*
X6320072Y-16897849D01*
X6320072Y-16897849D02*
X6291500Y-16897849D01*
X6291500Y-16897849D02*
X6272453Y-16907373D01*
X6272453Y-16907373D02*
X6262929Y-16916896D01*
X6472453Y-17031182D02*
X6453405Y-17021658D01*
X6453405Y-17021658D02*
X6443881Y-17012135D01*
X6443881Y-17012135D02*
X6434357Y-16993087D01*
X6434357Y-16993087D02*
X6434357Y-16935944D01*
X6434357Y-16935944D02*
X6443881Y-16916896D01*
X6443881Y-16916896D02*
X6453405Y-16907373D01*
X6453405Y-16907373D02*
X6472453Y-16897849D01*
X6472453Y-16897849D02*
X6501024Y-16897849D01*
X6501024Y-16897849D02*
X6520072Y-16907373D01*
X6520072Y-16907373D02*
X6529596Y-16916896D01*
X6529596Y-16916896D02*
X6539119Y-16935944D01*
X6539119Y-16935944D02*
X6539119Y-16993087D01*
X6539119Y-16993087D02*
X6529596Y-17012135D01*
X6529596Y-17012135D02*
X6520072Y-17021658D01*
X6520072Y-17021658D02*
X6501024Y-17031182D01*
X6501024Y-17031182D02*
X6472453Y-17031182D01*
X6653405Y-17031182D02*
X6634357Y-17021658D01*
X6634357Y-17021658D02*
X6624834Y-17002611D01*
X6624834Y-17002611D02*
X6624834Y-16831182D01*
X6805786Y-17021658D02*
X6786738Y-17031182D01*
X6786738Y-17031182D02*
X6748643Y-17031182D01*
X6748643Y-17031182D02*
X6729596Y-17021658D01*
X6729596Y-17021658D02*
X6720072Y-17002611D01*
X6720072Y-17002611D02*
X6720072Y-16926420D01*
X6720072Y-16926420D02*
X6729596Y-16907373D01*
X6729596Y-16907373D02*
X6748643Y-16897849D01*
X6748643Y-16897849D02*
X6786738Y-16897849D01*
X6786738Y-16897849D02*
X6805786Y-16907373D01*
X6805786Y-16907373D02*
X6815310Y-16926420D01*
X6815310Y-16926420D02*
X6815310Y-16945468D01*
X6815310Y-16945468D02*
X6720072Y-16964516D01*
X6891500Y-17021658D02*
X6910548Y-17031182D01*
X6910548Y-17031182D02*
X6948643Y-17031182D01*
X6948643Y-17031182D02*
X6967691Y-17021658D01*
X6967691Y-17021658D02*
X6977215Y-17002611D01*
X6977215Y-17002611D02*
X6977215Y-16993087D01*
X6977215Y-16993087D02*
X6967691Y-16974039D01*
X6967691Y-16974039D02*
X6948643Y-16964516D01*
X6948643Y-16964516D02*
X6920072Y-16964516D01*
X6920072Y-16964516D02*
X6901024Y-16954992D01*
X6901024Y-16954992D02*
X6891500Y-16935944D01*
X6891500Y-16935944D02*
X6891500Y-16926420D01*
X6891500Y-16926420D02*
X6901024Y-16907373D01*
X6901024Y-16907373D02*
X6920072Y-16897849D01*
X6920072Y-16897849D02*
X6948643Y-16897849D01*
X6948643Y-16897849D02*
X6967691Y-16907373D01*
X7043881Y-17107373D02*
X7053405Y-17097849D01*
X7053405Y-17097849D02*
X7072453Y-17069277D01*
X7072453Y-17069277D02*
X7081977Y-17050230D01*
X7081977Y-17050230D02*
X7091500Y-17021658D01*
X7091500Y-17021658D02*
X7101024Y-16974039D01*
X7101024Y-16974039D02*
X7101024Y-16935944D01*
X7101024Y-16935944D02*
X7091500Y-16888325D01*
X7091500Y-16888325D02*
X7081977Y-16859754D01*
X7081977Y-16859754D02*
X7072453Y-16840706D01*
X7072453Y-16840706D02*
X7053405Y-16812135D01*
X7053405Y-16812135D02*
X7043881Y-16802611D01*
D13*
X2091500Y-17202658D02*
G75*
G03*
X2091500Y-17202658I-30000J0D01*
G01*
D11*
X2377214Y-17095182D02*
X2396262Y-17095182D01*
X2396262Y-17095182D02*
X2415310Y-17104706D01*
X2415310Y-17104706D02*
X2424833Y-17114230D01*
X2424833Y-17114230D02*
X2434357Y-17133277D01*
X2434357Y-17133277D02*
X2443881Y-17171373D01*
X2443881Y-17171373D02*
X2443881Y-17218992D01*
X2443881Y-17218992D02*
X2434357Y-17257087D01*
X2434357Y-17257087D02*
X2424833Y-17276135D01*
X2424833Y-17276135D02*
X2415310Y-17285658D01*
X2415310Y-17285658D02*
X2396262Y-17295182D01*
X2396262Y-17295182D02*
X2377214Y-17295182D01*
X2377214Y-17295182D02*
X2358167Y-17285658D01*
X2358167Y-17285658D02*
X2348643Y-17276135D01*
X2348643Y-17276135D02*
X2339119Y-17257087D01*
X2339119Y-17257087D02*
X2329595Y-17218992D01*
X2329595Y-17218992D02*
X2329595Y-17171373D01*
X2329595Y-17171373D02*
X2339119Y-17133277D01*
X2339119Y-17133277D02*
X2348643Y-17114230D01*
X2348643Y-17114230D02*
X2358167Y-17104706D01*
X2358167Y-17104706D02*
X2377214Y-17095182D01*
X2529595Y-17276135D02*
X2539119Y-17285658D01*
X2539119Y-17285658D02*
X2529595Y-17295182D01*
X2529595Y-17295182D02*
X2520071Y-17285658D01*
X2520071Y-17285658D02*
X2529595Y-17276135D01*
X2529595Y-17276135D02*
X2529595Y-17295182D01*
X2710548Y-17095182D02*
X2672452Y-17095182D01*
X2672452Y-17095182D02*
X2653405Y-17104706D01*
X2653405Y-17104706D02*
X2643881Y-17114230D01*
X2643881Y-17114230D02*
X2624833Y-17142801D01*
X2624833Y-17142801D02*
X2615310Y-17180896D01*
X2615310Y-17180896D02*
X2615310Y-17257087D01*
X2615310Y-17257087D02*
X2624833Y-17276135D01*
X2624833Y-17276135D02*
X2634357Y-17285658D01*
X2634357Y-17285658D02*
X2653405Y-17295182D01*
X2653405Y-17295182D02*
X2691500Y-17295182D01*
X2691500Y-17295182D02*
X2710548Y-17285658D01*
X2710548Y-17285658D02*
X2720071Y-17276135D01*
X2720071Y-17276135D02*
X2729595Y-17257087D01*
X2729595Y-17257087D02*
X2729595Y-17209468D01*
X2729595Y-17209468D02*
X2720071Y-17190420D01*
X2720071Y-17190420D02*
X2710548Y-17180896D01*
X2710548Y-17180896D02*
X2691500Y-17171373D01*
X2691500Y-17171373D02*
X2653405Y-17171373D01*
X2653405Y-17171373D02*
X2634357Y-17180896D01*
X2634357Y-17180896D02*
X2624833Y-17190420D01*
X2624833Y-17190420D02*
X2615310Y-17209468D01*
X2853405Y-17095182D02*
X2872452Y-17095182D01*
X2872452Y-17095182D02*
X2891500Y-17104706D01*
X2891500Y-17104706D02*
X2901024Y-17114230D01*
X2901024Y-17114230D02*
X2910548Y-17133277D01*
X2910548Y-17133277D02*
X2920071Y-17171373D01*
X2920071Y-17171373D02*
X2920071Y-17218992D01*
X2920071Y-17218992D02*
X2910548Y-17257087D01*
X2910548Y-17257087D02*
X2901024Y-17276135D01*
X2901024Y-17276135D02*
X2891500Y-17285658D01*
X2891500Y-17285658D02*
X2872452Y-17295182D01*
X2872452Y-17295182D02*
X2853405Y-17295182D01*
X2853405Y-17295182D02*
X2834357Y-17285658D01*
X2834357Y-17285658D02*
X2824833Y-17276135D01*
X2824833Y-17276135D02*
X2815309Y-17257087D01*
X2815309Y-17257087D02*
X2805786Y-17218992D01*
X2805786Y-17218992D02*
X2805786Y-17171373D01*
X2805786Y-17171373D02*
X2815309Y-17133277D01*
X2815309Y-17133277D02*
X2824833Y-17114230D01*
X2824833Y-17114230D02*
X2834357Y-17104706D01*
X2834357Y-17104706D02*
X2853405Y-17095182D01*
X3043881Y-17095182D02*
X3062929Y-17095182D01*
X3062929Y-17095182D02*
X3081976Y-17104706D01*
X3081976Y-17104706D02*
X3091500Y-17114230D01*
X3091500Y-17114230D02*
X3101024Y-17133277D01*
X3101024Y-17133277D02*
X3110548Y-17171373D01*
X3110548Y-17171373D02*
X3110548Y-17218992D01*
X3110548Y-17218992D02*
X3101024Y-17257087D01*
X3101024Y-17257087D02*
X3091500Y-17276135D01*
X3091500Y-17276135D02*
X3081976Y-17285658D01*
X3081976Y-17285658D02*
X3062929Y-17295182D01*
X3062929Y-17295182D02*
X3043881Y-17295182D01*
X3043881Y-17295182D02*
X3024833Y-17285658D01*
X3024833Y-17285658D02*
X3015309Y-17276135D01*
X3015309Y-17276135D02*
X3005786Y-17257087D01*
X3005786Y-17257087D02*
X2996262Y-17218992D01*
X2996262Y-17218992D02*
X2996262Y-17171373D01*
X2996262Y-17171373D02*
X3005786Y-17133277D01*
X3005786Y-17133277D02*
X3015309Y-17114230D01*
X3015309Y-17114230D02*
X3024833Y-17104706D01*
X3024833Y-17104706D02*
X3043881Y-17095182D01*
X3196262Y-17295182D02*
X3196262Y-17161849D01*
X3196262Y-17180896D02*
X3205786Y-17171373D01*
X3205786Y-17171373D02*
X3224833Y-17161849D01*
X3224833Y-17161849D02*
X3253405Y-17161849D01*
X3253405Y-17161849D02*
X3272452Y-17171373D01*
X3272452Y-17171373D02*
X3281976Y-17190420D01*
X3281976Y-17190420D02*
X3281976Y-17295182D01*
X3281976Y-17190420D02*
X3291500Y-17171373D01*
X3291500Y-17171373D02*
X3310548Y-17161849D01*
X3310548Y-17161849D02*
X3339119Y-17161849D01*
X3339119Y-17161849D02*
X3358167Y-17171373D01*
X3358167Y-17171373D02*
X3367690Y-17190420D01*
X3367690Y-17190420D02*
X3367690Y-17295182D01*
X3462929Y-17295182D02*
X3462929Y-17161849D01*
X3462929Y-17180896D02*
X3472452Y-17171373D01*
X3472452Y-17171373D02*
X3491500Y-17161849D01*
X3491500Y-17161849D02*
X3520071Y-17161849D01*
X3520071Y-17161849D02*
X3539119Y-17171373D01*
X3539119Y-17171373D02*
X3548643Y-17190420D01*
X3548643Y-17190420D02*
X3548643Y-17295182D01*
X3548643Y-17190420D02*
X3558167Y-17171373D01*
X3558167Y-17171373D02*
X3577214Y-17161849D01*
X3577214Y-17161849D02*
X3605786Y-17161849D01*
X3605786Y-17161849D02*
X3624833Y-17171373D01*
X3624833Y-17171373D02*
X3634357Y-17190420D01*
X3634357Y-17190420D02*
X3634357Y-17295182D01*
X4024833Y-17085658D02*
X3853405Y-17342801D01*
X4281976Y-17095182D02*
X4301024Y-17095182D01*
X4301024Y-17095182D02*
X4320072Y-17104706D01*
X4320072Y-17104706D02*
X4329595Y-17114230D01*
X4329595Y-17114230D02*
X4339119Y-17133277D01*
X4339119Y-17133277D02*
X4348643Y-17171373D01*
X4348643Y-17171373D02*
X4348643Y-17218992D01*
X4348643Y-17218992D02*
X4339119Y-17257087D01*
X4339119Y-17257087D02*
X4329595Y-17276135D01*
X4329595Y-17276135D02*
X4320072Y-17285658D01*
X4320072Y-17285658D02*
X4301024Y-17295182D01*
X4301024Y-17295182D02*
X4281976Y-17295182D01*
X4281976Y-17295182D02*
X4262929Y-17285658D01*
X4262929Y-17285658D02*
X4253405Y-17276135D01*
X4253405Y-17276135D02*
X4243881Y-17257087D01*
X4243881Y-17257087D02*
X4234357Y-17218992D01*
X4234357Y-17218992D02*
X4234357Y-17171373D01*
X4234357Y-17171373D02*
X4243881Y-17133277D01*
X4243881Y-17133277D02*
X4253405Y-17114230D01*
X4253405Y-17114230D02*
X4262929Y-17104706D01*
X4262929Y-17104706D02*
X4281976Y-17095182D01*
X4434357Y-17276135D02*
X4443881Y-17285658D01*
X4443881Y-17285658D02*
X4434357Y-17295182D01*
X4434357Y-17295182D02*
X4424834Y-17285658D01*
X4424834Y-17285658D02*
X4434357Y-17276135D01*
X4434357Y-17276135D02*
X4434357Y-17295182D01*
X4567691Y-17095182D02*
X4586738Y-17095182D01*
X4586738Y-17095182D02*
X4605786Y-17104706D01*
X4605786Y-17104706D02*
X4615310Y-17114230D01*
X4615310Y-17114230D02*
X4624834Y-17133277D01*
X4624834Y-17133277D02*
X4634357Y-17171373D01*
X4634357Y-17171373D02*
X4634357Y-17218992D01*
X4634357Y-17218992D02*
X4624834Y-17257087D01*
X4624834Y-17257087D02*
X4615310Y-17276135D01*
X4615310Y-17276135D02*
X4605786Y-17285658D01*
X4605786Y-17285658D02*
X4586738Y-17295182D01*
X4586738Y-17295182D02*
X4567691Y-17295182D01*
X4567691Y-17295182D02*
X4548643Y-17285658D01*
X4548643Y-17285658D02*
X4539119Y-17276135D01*
X4539119Y-17276135D02*
X4529595Y-17257087D01*
X4529595Y-17257087D02*
X4520072Y-17218992D01*
X4520072Y-17218992D02*
X4520072Y-17171373D01*
X4520072Y-17171373D02*
X4529595Y-17133277D01*
X4529595Y-17133277D02*
X4539119Y-17114230D01*
X4539119Y-17114230D02*
X4548643Y-17104706D01*
X4548643Y-17104706D02*
X4567691Y-17095182D01*
X4710548Y-17114230D02*
X4720072Y-17104706D01*
X4720072Y-17104706D02*
X4739119Y-17095182D01*
X4739119Y-17095182D02*
X4786738Y-17095182D01*
X4786738Y-17095182D02*
X4805786Y-17104706D01*
X4805786Y-17104706D02*
X4815310Y-17114230D01*
X4815310Y-17114230D02*
X4824834Y-17133277D01*
X4824834Y-17133277D02*
X4824834Y-17152325D01*
X4824834Y-17152325D02*
X4815310Y-17180896D01*
X4815310Y-17180896D02*
X4701024Y-17295182D01*
X4701024Y-17295182D02*
X4824834Y-17295182D01*
X4891500Y-17095182D02*
X5015310Y-17095182D01*
X5015310Y-17095182D02*
X4948643Y-17171373D01*
X4948643Y-17171373D02*
X4977215Y-17171373D01*
X4977215Y-17171373D02*
X4996262Y-17180896D01*
X4996262Y-17180896D02*
X5005786Y-17190420D01*
X5005786Y-17190420D02*
X5015310Y-17209468D01*
X5015310Y-17209468D02*
X5015310Y-17257087D01*
X5015310Y-17257087D02*
X5005786Y-17276135D01*
X5005786Y-17276135D02*
X4996262Y-17285658D01*
X4996262Y-17285658D02*
X4977215Y-17295182D01*
X4977215Y-17295182D02*
X4920072Y-17295182D01*
X4920072Y-17295182D02*
X4901024Y-17285658D01*
X4901024Y-17285658D02*
X4891500Y-17276135D01*
X5186738Y-17095182D02*
X5148643Y-17095182D01*
X5148643Y-17095182D02*
X5129595Y-17104706D01*
X5129595Y-17104706D02*
X5120072Y-17114230D01*
X5120072Y-17114230D02*
X5101024Y-17142801D01*
X5101024Y-17142801D02*
X5091500Y-17180896D01*
X5091500Y-17180896D02*
X5091500Y-17257087D01*
X5091500Y-17257087D02*
X5101024Y-17276135D01*
X5101024Y-17276135D02*
X5110548Y-17285658D01*
X5110548Y-17285658D02*
X5129595Y-17295182D01*
X5129595Y-17295182D02*
X5167691Y-17295182D01*
X5167691Y-17295182D02*
X5186738Y-17285658D01*
X5186738Y-17285658D02*
X5196262Y-17276135D01*
X5196262Y-17276135D02*
X5205786Y-17257087D01*
X5205786Y-17257087D02*
X5205786Y-17209468D01*
X5205786Y-17209468D02*
X5196262Y-17190420D01*
X5196262Y-17190420D02*
X5186738Y-17180896D01*
X5186738Y-17180896D02*
X5167691Y-17171373D01*
X5167691Y-17171373D02*
X5129595Y-17171373D01*
X5129595Y-17171373D02*
X5110548Y-17180896D01*
X5110548Y-17180896D02*
X5101024Y-17190420D01*
X5101024Y-17190420D02*
X5091500Y-17209468D01*
X5281976Y-17095182D02*
X5281976Y-17133277D01*
X5358167Y-17095182D02*
X5358167Y-17133277D01*
X5653405Y-17371373D02*
X5643881Y-17361849D01*
X5643881Y-17361849D02*
X5624834Y-17333277D01*
X5624834Y-17333277D02*
X5615310Y-17314230D01*
X5615310Y-17314230D02*
X5605786Y-17285658D01*
X5605786Y-17285658D02*
X5596262Y-17238039D01*
X5596262Y-17238039D02*
X5596262Y-17199944D01*
X5596262Y-17199944D02*
X5605786Y-17152325D01*
X5605786Y-17152325D02*
X5615310Y-17123754D01*
X5615310Y-17123754D02*
X5624834Y-17104706D01*
X5624834Y-17104706D02*
X5643881Y-17076135D01*
X5643881Y-17076135D02*
X5653405Y-17066611D01*
X5815310Y-17161849D02*
X5815310Y-17295182D01*
X5767691Y-17085658D02*
X5720072Y-17228516D01*
X5720072Y-17228516D02*
X5843881Y-17228516D01*
X5958167Y-17095182D02*
X5977215Y-17095182D01*
X5977215Y-17095182D02*
X5996262Y-17104706D01*
X5996262Y-17104706D02*
X6005786Y-17114230D01*
X6005786Y-17114230D02*
X6015310Y-17133277D01*
X6015310Y-17133277D02*
X6024834Y-17171373D01*
X6024834Y-17171373D02*
X6024834Y-17218992D01*
X6024834Y-17218992D02*
X6015310Y-17257087D01*
X6015310Y-17257087D02*
X6005786Y-17276135D01*
X6005786Y-17276135D02*
X5996262Y-17285658D01*
X5996262Y-17285658D02*
X5977215Y-17295182D01*
X5977215Y-17295182D02*
X5958167Y-17295182D01*
X5958167Y-17295182D02*
X5939119Y-17285658D01*
X5939119Y-17285658D02*
X5929595Y-17276135D01*
X5929595Y-17276135D02*
X5920072Y-17257087D01*
X5920072Y-17257087D02*
X5910548Y-17218992D01*
X5910548Y-17218992D02*
X5910548Y-17171373D01*
X5910548Y-17171373D02*
X5920072Y-17133277D01*
X5920072Y-17133277D02*
X5929595Y-17114230D01*
X5929595Y-17114230D02*
X5939119Y-17104706D01*
X5939119Y-17104706D02*
X5958167Y-17095182D01*
X6262929Y-17295182D02*
X6262929Y-17095182D01*
X6348643Y-17295182D02*
X6348643Y-17190420D01*
X6348643Y-17190420D02*
X6339119Y-17171373D01*
X6339119Y-17171373D02*
X6320072Y-17161849D01*
X6320072Y-17161849D02*
X6291500Y-17161849D01*
X6291500Y-17161849D02*
X6272453Y-17171373D01*
X6272453Y-17171373D02*
X6262929Y-17180896D01*
X6472453Y-17295182D02*
X6453405Y-17285658D01*
X6453405Y-17285658D02*
X6443881Y-17276135D01*
X6443881Y-17276135D02*
X6434357Y-17257087D01*
X6434357Y-17257087D02*
X6434357Y-17199944D01*
X6434357Y-17199944D02*
X6443881Y-17180896D01*
X6443881Y-17180896D02*
X6453405Y-17171373D01*
X6453405Y-17171373D02*
X6472453Y-17161849D01*
X6472453Y-17161849D02*
X6501024Y-17161849D01*
X6501024Y-17161849D02*
X6520072Y-17171373D01*
X6520072Y-17171373D02*
X6529596Y-17180896D01*
X6529596Y-17180896D02*
X6539119Y-17199944D01*
X6539119Y-17199944D02*
X6539119Y-17257087D01*
X6539119Y-17257087D02*
X6529596Y-17276135D01*
X6529596Y-17276135D02*
X6520072Y-17285658D01*
X6520072Y-17285658D02*
X6501024Y-17295182D01*
X6501024Y-17295182D02*
X6472453Y-17295182D01*
X6653405Y-17295182D02*
X6634357Y-17285658D01*
X6634357Y-17285658D02*
X6624834Y-17266611D01*
X6624834Y-17266611D02*
X6624834Y-17095182D01*
X6805786Y-17285658D02*
X6786738Y-17295182D01*
X6786738Y-17295182D02*
X6748643Y-17295182D01*
X6748643Y-17295182D02*
X6729596Y-17285658D01*
X6729596Y-17285658D02*
X6720072Y-17266611D01*
X6720072Y-17266611D02*
X6720072Y-17190420D01*
X6720072Y-17190420D02*
X6729596Y-17171373D01*
X6729596Y-17171373D02*
X6748643Y-17161849D01*
X6748643Y-17161849D02*
X6786738Y-17161849D01*
X6786738Y-17161849D02*
X6805786Y-17171373D01*
X6805786Y-17171373D02*
X6815310Y-17190420D01*
X6815310Y-17190420D02*
X6815310Y-17209468D01*
X6815310Y-17209468D02*
X6720072Y-17228516D01*
X6891500Y-17285658D02*
X6910548Y-17295182D01*
X6910548Y-17295182D02*
X6948643Y-17295182D01*
X6948643Y-17295182D02*
X6967691Y-17285658D01*
X6967691Y-17285658D02*
X6977215Y-17266611D01*
X6977215Y-17266611D02*
X6977215Y-17257087D01*
X6977215Y-17257087D02*
X6967691Y-17238039D01*
X6967691Y-17238039D02*
X6948643Y-17228516D01*
X6948643Y-17228516D02*
X6920072Y-17228516D01*
X6920072Y-17228516D02*
X6901024Y-17218992D01*
X6901024Y-17218992D02*
X6891500Y-17199944D01*
X6891500Y-17199944D02*
X6891500Y-17190420D01*
X6891500Y-17190420D02*
X6901024Y-17171373D01*
X6901024Y-17171373D02*
X6920072Y-17161849D01*
X6920072Y-17161849D02*
X6948643Y-17161849D01*
X6948643Y-17161849D02*
X6967691Y-17171373D01*
X7043881Y-17371373D02*
X7053405Y-17361849D01*
X7053405Y-17361849D02*
X7072453Y-17333277D01*
X7072453Y-17333277D02*
X7081977Y-17314230D01*
X7081977Y-17314230D02*
X7091500Y-17285658D01*
X7091500Y-17285658D02*
X7101024Y-17238039D01*
X7101024Y-17238039D02*
X7101024Y-17199944D01*
X7101024Y-17199944D02*
X7091500Y-17152325D01*
X7091500Y-17152325D02*
X7081977Y-17123754D01*
X7081977Y-17123754D02*
X7072453Y-17104706D01*
X7072453Y-17104706D02*
X7053405Y-17076135D01*
X7053405Y-17076135D02*
X7043881Y-17066611D01*
X1991500Y-17366658D02*
X1991500Y-17566658D01*
X1891500Y-17466658D02*
X2091500Y-17466658D01*
X2320071Y-17359182D02*
X2443881Y-17359182D01*
X2443881Y-17359182D02*
X2377214Y-17435373D01*
X2377214Y-17435373D02*
X2405786Y-17435373D01*
X2405786Y-17435373D02*
X2424833Y-17444896D01*
X2424833Y-17444896D02*
X2434357Y-17454420D01*
X2434357Y-17454420D02*
X2443881Y-17473468D01*
X2443881Y-17473468D02*
X2443881Y-17521087D01*
X2443881Y-17521087D02*
X2434357Y-17540135D01*
X2434357Y-17540135D02*
X2424833Y-17549658D01*
X2424833Y-17549658D02*
X2405786Y-17559182D01*
X2405786Y-17559182D02*
X2348643Y-17559182D01*
X2348643Y-17559182D02*
X2329595Y-17549658D01*
X2329595Y-17549658D02*
X2320071Y-17540135D01*
X2529595Y-17540135D02*
X2539119Y-17549658D01*
X2539119Y-17549658D02*
X2529595Y-17559182D01*
X2529595Y-17559182D02*
X2520071Y-17549658D01*
X2520071Y-17549658D02*
X2529595Y-17540135D01*
X2529595Y-17540135D02*
X2529595Y-17559182D01*
X2615310Y-17378230D02*
X2624833Y-17368706D01*
X2624833Y-17368706D02*
X2643881Y-17359182D01*
X2643881Y-17359182D02*
X2691500Y-17359182D01*
X2691500Y-17359182D02*
X2710548Y-17368706D01*
X2710548Y-17368706D02*
X2720071Y-17378230D01*
X2720071Y-17378230D02*
X2729595Y-17397277D01*
X2729595Y-17397277D02*
X2729595Y-17416325D01*
X2729595Y-17416325D02*
X2720071Y-17444896D01*
X2720071Y-17444896D02*
X2605786Y-17559182D01*
X2605786Y-17559182D02*
X2729595Y-17559182D01*
X2853405Y-17359182D02*
X2872452Y-17359182D01*
X2872452Y-17359182D02*
X2891500Y-17368706D01*
X2891500Y-17368706D02*
X2901024Y-17378230D01*
X2901024Y-17378230D02*
X2910548Y-17397277D01*
X2910548Y-17397277D02*
X2920071Y-17435373D01*
X2920071Y-17435373D02*
X2920071Y-17482992D01*
X2920071Y-17482992D02*
X2910548Y-17521087D01*
X2910548Y-17521087D02*
X2901024Y-17540135D01*
X2901024Y-17540135D02*
X2891500Y-17549658D01*
X2891500Y-17549658D02*
X2872452Y-17559182D01*
X2872452Y-17559182D02*
X2853405Y-17559182D01*
X2853405Y-17559182D02*
X2834357Y-17549658D01*
X2834357Y-17549658D02*
X2824833Y-17540135D01*
X2824833Y-17540135D02*
X2815309Y-17521087D01*
X2815309Y-17521087D02*
X2805786Y-17482992D01*
X2805786Y-17482992D02*
X2805786Y-17435373D01*
X2805786Y-17435373D02*
X2815309Y-17397277D01*
X2815309Y-17397277D02*
X2824833Y-17378230D01*
X2824833Y-17378230D02*
X2834357Y-17368706D01*
X2834357Y-17368706D02*
X2853405Y-17359182D01*
X3043881Y-17359182D02*
X3062929Y-17359182D01*
X3062929Y-17359182D02*
X3081976Y-17368706D01*
X3081976Y-17368706D02*
X3091500Y-17378230D01*
X3091500Y-17378230D02*
X3101024Y-17397277D01*
X3101024Y-17397277D02*
X3110548Y-17435373D01*
X3110548Y-17435373D02*
X3110548Y-17482992D01*
X3110548Y-17482992D02*
X3101024Y-17521087D01*
X3101024Y-17521087D02*
X3091500Y-17540135D01*
X3091500Y-17540135D02*
X3081976Y-17549658D01*
X3081976Y-17549658D02*
X3062929Y-17559182D01*
X3062929Y-17559182D02*
X3043881Y-17559182D01*
X3043881Y-17559182D02*
X3024833Y-17549658D01*
X3024833Y-17549658D02*
X3015309Y-17540135D01*
X3015309Y-17540135D02*
X3005786Y-17521087D01*
X3005786Y-17521087D02*
X2996262Y-17482992D01*
X2996262Y-17482992D02*
X2996262Y-17435373D01*
X2996262Y-17435373D02*
X3005786Y-17397277D01*
X3005786Y-17397277D02*
X3015309Y-17378230D01*
X3015309Y-17378230D02*
X3024833Y-17368706D01*
X3024833Y-17368706D02*
X3043881Y-17359182D01*
X3196262Y-17559182D02*
X3196262Y-17425849D01*
X3196262Y-17444896D02*
X3205786Y-17435373D01*
X3205786Y-17435373D02*
X3224833Y-17425849D01*
X3224833Y-17425849D02*
X3253405Y-17425849D01*
X3253405Y-17425849D02*
X3272452Y-17435373D01*
X3272452Y-17435373D02*
X3281976Y-17454420D01*
X3281976Y-17454420D02*
X3281976Y-17559182D01*
X3281976Y-17454420D02*
X3291500Y-17435373D01*
X3291500Y-17435373D02*
X3310548Y-17425849D01*
X3310548Y-17425849D02*
X3339119Y-17425849D01*
X3339119Y-17425849D02*
X3358167Y-17435373D01*
X3358167Y-17435373D02*
X3367690Y-17454420D01*
X3367690Y-17454420D02*
X3367690Y-17559182D01*
X3462929Y-17559182D02*
X3462929Y-17425849D01*
X3462929Y-17444896D02*
X3472452Y-17435373D01*
X3472452Y-17435373D02*
X3491500Y-17425849D01*
X3491500Y-17425849D02*
X3520071Y-17425849D01*
X3520071Y-17425849D02*
X3539119Y-17435373D01*
X3539119Y-17435373D02*
X3548643Y-17454420D01*
X3548643Y-17454420D02*
X3548643Y-17559182D01*
X3548643Y-17454420D02*
X3558167Y-17435373D01*
X3558167Y-17435373D02*
X3577214Y-17425849D01*
X3577214Y-17425849D02*
X3605786Y-17425849D01*
X3605786Y-17425849D02*
X3624833Y-17435373D01*
X3624833Y-17435373D02*
X3634357Y-17454420D01*
X3634357Y-17454420D02*
X3634357Y-17559182D01*
X4024833Y-17349658D02*
X3853405Y-17606801D01*
X4281976Y-17359182D02*
X4301024Y-17359182D01*
X4301024Y-17359182D02*
X4320072Y-17368706D01*
X4320072Y-17368706D02*
X4329595Y-17378230D01*
X4329595Y-17378230D02*
X4339119Y-17397277D01*
X4339119Y-17397277D02*
X4348643Y-17435373D01*
X4348643Y-17435373D02*
X4348643Y-17482992D01*
X4348643Y-17482992D02*
X4339119Y-17521087D01*
X4339119Y-17521087D02*
X4329595Y-17540135D01*
X4329595Y-17540135D02*
X4320072Y-17549658D01*
X4320072Y-17549658D02*
X4301024Y-17559182D01*
X4301024Y-17559182D02*
X4281976Y-17559182D01*
X4281976Y-17559182D02*
X4262929Y-17549658D01*
X4262929Y-17549658D02*
X4253405Y-17540135D01*
X4253405Y-17540135D02*
X4243881Y-17521087D01*
X4243881Y-17521087D02*
X4234357Y-17482992D01*
X4234357Y-17482992D02*
X4234357Y-17435373D01*
X4234357Y-17435373D02*
X4243881Y-17397277D01*
X4243881Y-17397277D02*
X4253405Y-17378230D01*
X4253405Y-17378230D02*
X4262929Y-17368706D01*
X4262929Y-17368706D02*
X4281976Y-17359182D01*
X4434357Y-17540135D02*
X4443881Y-17549658D01*
X4443881Y-17549658D02*
X4434357Y-17559182D01*
X4434357Y-17559182D02*
X4424834Y-17549658D01*
X4424834Y-17549658D02*
X4434357Y-17540135D01*
X4434357Y-17540135D02*
X4434357Y-17559182D01*
X4634357Y-17559182D02*
X4520072Y-17559182D01*
X4577214Y-17559182D02*
X4577214Y-17359182D01*
X4577214Y-17359182D02*
X4558167Y-17387754D01*
X4558167Y-17387754D02*
X4539119Y-17406801D01*
X4539119Y-17406801D02*
X4520072Y-17416325D01*
X4710548Y-17378230D02*
X4720072Y-17368706D01*
X4720072Y-17368706D02*
X4739119Y-17359182D01*
X4739119Y-17359182D02*
X4786738Y-17359182D01*
X4786738Y-17359182D02*
X4805786Y-17368706D01*
X4805786Y-17368706D02*
X4815310Y-17378230D01*
X4815310Y-17378230D02*
X4824834Y-17397277D01*
X4824834Y-17397277D02*
X4824834Y-17416325D01*
X4824834Y-17416325D02*
X4815310Y-17444896D01*
X4815310Y-17444896D02*
X4701024Y-17559182D01*
X4701024Y-17559182D02*
X4824834Y-17559182D01*
X4996262Y-17359182D02*
X4958167Y-17359182D01*
X4958167Y-17359182D02*
X4939119Y-17368706D01*
X4939119Y-17368706D02*
X4929595Y-17378230D01*
X4929595Y-17378230D02*
X4910548Y-17406801D01*
X4910548Y-17406801D02*
X4901024Y-17444896D01*
X4901024Y-17444896D02*
X4901024Y-17521087D01*
X4901024Y-17521087D02*
X4910548Y-17540135D01*
X4910548Y-17540135D02*
X4920072Y-17549658D01*
X4920072Y-17549658D02*
X4939119Y-17559182D01*
X4939119Y-17559182D02*
X4977215Y-17559182D01*
X4977215Y-17559182D02*
X4996262Y-17549658D01*
X4996262Y-17549658D02*
X5005786Y-17540135D01*
X5005786Y-17540135D02*
X5015310Y-17521087D01*
X5015310Y-17521087D02*
X5015310Y-17473468D01*
X5015310Y-17473468D02*
X5005786Y-17454420D01*
X5005786Y-17454420D02*
X4996262Y-17444896D01*
X4996262Y-17444896D02*
X4977215Y-17435373D01*
X4977215Y-17435373D02*
X4939119Y-17435373D01*
X4939119Y-17435373D02*
X4920072Y-17444896D01*
X4920072Y-17444896D02*
X4910548Y-17454420D01*
X4910548Y-17454420D02*
X4901024Y-17473468D01*
X5139119Y-17359182D02*
X5158167Y-17359182D01*
X5158167Y-17359182D02*
X5177215Y-17368706D01*
X5177215Y-17368706D02*
X5186738Y-17378230D01*
X5186738Y-17378230D02*
X5196262Y-17397277D01*
X5196262Y-17397277D02*
X5205786Y-17435373D01*
X5205786Y-17435373D02*
X5205786Y-17482992D01*
X5205786Y-17482992D02*
X5196262Y-17521087D01*
X5196262Y-17521087D02*
X5186738Y-17540135D01*
X5186738Y-17540135D02*
X5177215Y-17549658D01*
X5177215Y-17549658D02*
X5158167Y-17559182D01*
X5158167Y-17559182D02*
X5139119Y-17559182D01*
X5139119Y-17559182D02*
X5120072Y-17549658D01*
X5120072Y-17549658D02*
X5110548Y-17540135D01*
X5110548Y-17540135D02*
X5101024Y-17521087D01*
X5101024Y-17521087D02*
X5091500Y-17482992D01*
X5091500Y-17482992D02*
X5091500Y-17435373D01*
X5091500Y-17435373D02*
X5101024Y-17397277D01*
X5101024Y-17397277D02*
X5110548Y-17378230D01*
X5110548Y-17378230D02*
X5120072Y-17368706D01*
X5120072Y-17368706D02*
X5139119Y-17359182D01*
X5281976Y-17359182D02*
X5281976Y-17397277D01*
X5358167Y-17359182D02*
X5358167Y-17397277D01*
X5653405Y-17635373D02*
X5643881Y-17625849D01*
X5643881Y-17625849D02*
X5624834Y-17597277D01*
X5624834Y-17597277D02*
X5615310Y-17578230D01*
X5615310Y-17578230D02*
X5605786Y-17549658D01*
X5605786Y-17549658D02*
X5596262Y-17502039D01*
X5596262Y-17502039D02*
X5596262Y-17463944D01*
X5596262Y-17463944D02*
X5605786Y-17416325D01*
X5605786Y-17416325D02*
X5615310Y-17387754D01*
X5615310Y-17387754D02*
X5624834Y-17368706D01*
X5624834Y-17368706D02*
X5643881Y-17340135D01*
X5643881Y-17340135D02*
X5653405Y-17330611D01*
X5815310Y-17359182D02*
X5777214Y-17359182D01*
X5777214Y-17359182D02*
X5758167Y-17368706D01*
X5758167Y-17368706D02*
X5748643Y-17378230D01*
X5748643Y-17378230D02*
X5729595Y-17406801D01*
X5729595Y-17406801D02*
X5720072Y-17444896D01*
X5720072Y-17444896D02*
X5720072Y-17521087D01*
X5720072Y-17521087D02*
X5729595Y-17540135D01*
X5729595Y-17540135D02*
X5739119Y-17549658D01*
X5739119Y-17549658D02*
X5758167Y-17559182D01*
X5758167Y-17559182D02*
X5796262Y-17559182D01*
X5796262Y-17559182D02*
X5815310Y-17549658D01*
X5815310Y-17549658D02*
X5824834Y-17540135D01*
X5824834Y-17540135D02*
X5834357Y-17521087D01*
X5834357Y-17521087D02*
X5834357Y-17473468D01*
X5834357Y-17473468D02*
X5824834Y-17454420D01*
X5824834Y-17454420D02*
X5815310Y-17444896D01*
X5815310Y-17444896D02*
X5796262Y-17435373D01*
X5796262Y-17435373D02*
X5758167Y-17435373D01*
X5758167Y-17435373D02*
X5739119Y-17444896D01*
X5739119Y-17444896D02*
X5729595Y-17454420D01*
X5729595Y-17454420D02*
X5720072Y-17473468D01*
X6072453Y-17559182D02*
X6072453Y-17359182D01*
X6158167Y-17559182D02*
X6158167Y-17454420D01*
X6158167Y-17454420D02*
X6148643Y-17435373D01*
X6148643Y-17435373D02*
X6129596Y-17425849D01*
X6129596Y-17425849D02*
X6101024Y-17425849D01*
X6101024Y-17425849D02*
X6081976Y-17435373D01*
X6081976Y-17435373D02*
X6072453Y-17444896D01*
X6281976Y-17559182D02*
X6262929Y-17549658D01*
X6262929Y-17549658D02*
X6253405Y-17540135D01*
X6253405Y-17540135D02*
X6243881Y-17521087D01*
X6243881Y-17521087D02*
X6243881Y-17463944D01*
X6243881Y-17463944D02*
X6253405Y-17444896D01*
X6253405Y-17444896D02*
X6262929Y-17435373D01*
X6262929Y-17435373D02*
X6281976Y-17425849D01*
X6281976Y-17425849D02*
X6310548Y-17425849D01*
X6310548Y-17425849D02*
X6329596Y-17435373D01*
X6329596Y-17435373D02*
X6339119Y-17444896D01*
X6339119Y-17444896D02*
X6348643Y-17463944D01*
X6348643Y-17463944D02*
X6348643Y-17521087D01*
X6348643Y-17521087D02*
X6339119Y-17540135D01*
X6339119Y-17540135D02*
X6329596Y-17549658D01*
X6329596Y-17549658D02*
X6310548Y-17559182D01*
X6310548Y-17559182D02*
X6281976Y-17559182D01*
X6462929Y-17559182D02*
X6443881Y-17549658D01*
X6443881Y-17549658D02*
X6434357Y-17530611D01*
X6434357Y-17530611D02*
X6434357Y-17359182D01*
X6615310Y-17549658D02*
X6596262Y-17559182D01*
X6596262Y-17559182D02*
X6558167Y-17559182D01*
X6558167Y-17559182D02*
X6539119Y-17549658D01*
X6539119Y-17549658D02*
X6529596Y-17530611D01*
X6529596Y-17530611D02*
X6529596Y-17454420D01*
X6529596Y-17454420D02*
X6539119Y-17435373D01*
X6539119Y-17435373D02*
X6558167Y-17425849D01*
X6558167Y-17425849D02*
X6596262Y-17425849D01*
X6596262Y-17425849D02*
X6615310Y-17435373D01*
X6615310Y-17435373D02*
X6624834Y-17454420D01*
X6624834Y-17454420D02*
X6624834Y-17473468D01*
X6624834Y-17473468D02*
X6529596Y-17492516D01*
X6701024Y-17549658D02*
X6720072Y-17559182D01*
X6720072Y-17559182D02*
X6758167Y-17559182D01*
X6758167Y-17559182D02*
X6777215Y-17549658D01*
X6777215Y-17549658D02*
X6786738Y-17530611D01*
X6786738Y-17530611D02*
X6786738Y-17521087D01*
X6786738Y-17521087D02*
X6777215Y-17502039D01*
X6777215Y-17502039D02*
X6758167Y-17492516D01*
X6758167Y-17492516D02*
X6729596Y-17492516D01*
X6729596Y-17492516D02*
X6710548Y-17482992D01*
X6710548Y-17482992D02*
X6701024Y-17463944D01*
X6701024Y-17463944D02*
X6701024Y-17454420D01*
X6701024Y-17454420D02*
X6710548Y-17435373D01*
X6710548Y-17435373D02*
X6729596Y-17425849D01*
X6729596Y-17425849D02*
X6758167Y-17425849D01*
X6758167Y-17425849D02*
X6777215Y-17435373D01*
X6853405Y-17635373D02*
X6862929Y-17625849D01*
X6862929Y-17625849D02*
X6881977Y-17597277D01*
X6881977Y-17597277D02*
X6891500Y-17578230D01*
X6891500Y-17578230D02*
X6901024Y-17549658D01*
X6901024Y-17549658D02*
X6910548Y-17502039D01*
X6910548Y-17502039D02*
X6910548Y-17463944D01*
X6910548Y-17463944D02*
X6901024Y-17416325D01*
X6901024Y-17416325D02*
X6891500Y-17387754D01*
X6891500Y-17387754D02*
X6881977Y-17368706D01*
X6881977Y-17368706D02*
X6862929Y-17340135D01*
X6862929Y-17340135D02*
X6853405Y-17330611D01*
M02*
