%TF.GenerationSoftware,KiCad,Pcbnew,7.0.1*%
%TF.CreationDate,2023-03-23T04:50:53+01:00*%
%TF.ProjectId,Tiamat_v01_badge,5469616d-6174-45f7-9630-315f62616467,rev?*%
%TF.SameCoordinates,Original*%
%TF.FileFunction,Soldermask,Top*%
%TF.FilePolarity,Negative*%
%FSLAX46Y46*%
G04 Gerber Fmt 4.6, Leading zero omitted, Abs format (unit mm)*
G04 Created by KiCad (PCBNEW 7.0.1) date 2023-03-23 04:50:53*
%MOMM*%
%LPD*%
G01*
G04 APERTURE LIST*
%ADD10C,1.750000*%
%ADD11C,3.000000*%
%ADD12C,3.987800*%
%ADD13C,4.400000*%
%ADD14C,3.048000*%
%ADD15C,1.000000*%
%ADD16R,1.000000X1.000000*%
G04 APERTURE END LIST*
D10*
%TO.C,SW1*%
X36308500Y-35312300D03*
X26148500Y-35312300D03*
D11*
X27418500Y-32772300D03*
D12*
X31228500Y-35312300D03*
D11*
X33768500Y-30232300D03*
%TD*%
D13*
%TO.C,H6*%
X41275000Y-36195000D03*
%TD*%
%TO.C,H5*%
X41148000Y-94488000D03*
%TD*%
D11*
%TO.C,SW27*%
X140257686Y-121181186D03*
D12*
X134733500Y-122500794D03*
D11*
X134230232Y-117949484D03*
D10*
X131468139Y-118609288D03*
X137998861Y-126392300D03*
D14*
X147757919Y-127155961D03*
X132410722Y-108865884D03*
D12*
X136083402Y-136952044D03*
X120736205Y-118661967D03*
%TD*%
D11*
%TO.C,SW31*%
X156440257Y-152853756D03*
D12*
X150996367Y-151234477D03*
D11*
X152836179Y-147041293D03*
D10*
X150114234Y-146231654D03*
X151878500Y-156237300D03*
%TD*%
D11*
%TO.C,SW30*%
X151878500Y-86387300D03*
D12*
X149338500Y-91467300D03*
D11*
X145528500Y-88927300D03*
D10*
X144258500Y-91467300D03*
X154418500Y-91467300D03*
%TD*%
D11*
%TO.C,SW29*%
X151878500Y-66702300D03*
D12*
X149338500Y-71782300D03*
D11*
X145528500Y-69242300D03*
D10*
X144258500Y-71782300D03*
X154418500Y-71782300D03*
%TD*%
%TO.C,SW28*%
X154418500Y-52097300D03*
X144258500Y-52097300D03*
D11*
X145528500Y-49557300D03*
D12*
X149338500Y-52097300D03*
D11*
X151878500Y-47017300D03*
%TD*%
D10*
%TO.C,SW26*%
X134733500Y-91467300D03*
X124573500Y-91467300D03*
D11*
X125843500Y-88927300D03*
D12*
X129653500Y-91467300D03*
D11*
X132193500Y-86387300D03*
%TD*%
%TO.C,SW25*%
X132193500Y-66702300D03*
D12*
X129653500Y-71782300D03*
D11*
X125843500Y-69242300D03*
D10*
X124573500Y-71782300D03*
X134733500Y-71782300D03*
%TD*%
D11*
%TO.C,SW24*%
X132193500Y-47017300D03*
D12*
X129653500Y-52097300D03*
D11*
X125843500Y-49557300D03*
D10*
X124573500Y-52097300D03*
X134733500Y-52097300D03*
%TD*%
D11*
%TO.C,SW22*%
X107428500Y-106072300D03*
D12*
X104888500Y-111152300D03*
D11*
X101078500Y-108612300D03*
D10*
X99808500Y-111152300D03*
X109968500Y-111152300D03*
%TD*%
D11*
%TO.C,SW21*%
X112508500Y-86387300D03*
D12*
X109968500Y-91467300D03*
D11*
X106158500Y-88927300D03*
D10*
X104888500Y-91467300D03*
X115048500Y-91467300D03*
%TD*%
D11*
%TO.C,SW20*%
X112508500Y-66702300D03*
D12*
X109968500Y-71782300D03*
D11*
X106158500Y-69242300D03*
D10*
X104888500Y-71782300D03*
X115048500Y-71782300D03*
%TD*%
%TO.C,SW19*%
X115048500Y-52097300D03*
X104888500Y-52097300D03*
D11*
X106158500Y-49557300D03*
D12*
X109968500Y-52097300D03*
D11*
X112508500Y-47017300D03*
%TD*%
%TO.C,SW18*%
X112508500Y-27332300D03*
D12*
X109968500Y-32412300D03*
D11*
X106158500Y-29872300D03*
D10*
X104888500Y-32412300D03*
X115048500Y-32412300D03*
%TD*%
D11*
%TO.C,SW17*%
X87743500Y-106072300D03*
D12*
X85203500Y-111152300D03*
D11*
X81393500Y-108612300D03*
D10*
X80123500Y-111152300D03*
X90283500Y-111152300D03*
%TD*%
D11*
%TO.C,SW16*%
X92823500Y-86387300D03*
D12*
X90283500Y-91467300D03*
D11*
X86473500Y-88927300D03*
D10*
X85203500Y-91467300D03*
X95363500Y-91467300D03*
%TD*%
D11*
%TO.C,SW15*%
X92823500Y-66702300D03*
D12*
X90283500Y-71782300D03*
D11*
X86473500Y-69242300D03*
D10*
X85203500Y-71782300D03*
X95363500Y-71782300D03*
%TD*%
D11*
%TO.C,SW14*%
X92823500Y-47017300D03*
D12*
X90283500Y-52097300D03*
D11*
X86473500Y-49557300D03*
D10*
X85203500Y-52097300D03*
X95363500Y-52097300D03*
%TD*%
%TO.C,SW13*%
X95363500Y-32412300D03*
X85203500Y-32412300D03*
D11*
X86473500Y-29872300D03*
D12*
X90283500Y-32412300D03*
D11*
X92823500Y-27332300D03*
%TD*%
%TO.C,SW12*%
X73138500Y-86387300D03*
D12*
X70598500Y-91467300D03*
D11*
X66788500Y-88927300D03*
D10*
X65518500Y-91467300D03*
X75678500Y-91467300D03*
%TD*%
D11*
%TO.C,SW11*%
X73138500Y-66702300D03*
D12*
X70598500Y-71782300D03*
D11*
X66788500Y-69242300D03*
D10*
X65518500Y-71782300D03*
X75678500Y-71782300D03*
%TD*%
D11*
%TO.C,SW10*%
X73138500Y-47017300D03*
D12*
X70598500Y-52097300D03*
D11*
X66788500Y-49557300D03*
D10*
X65518500Y-52097300D03*
X75678500Y-52097300D03*
%TD*%
D11*
%TO.C,SW9*%
X73138500Y-27332300D03*
D12*
X70598500Y-32412300D03*
D11*
X66788500Y-29872300D03*
D10*
X65518500Y-32412300D03*
X75678500Y-32412300D03*
%TD*%
D11*
%TO.C,SW8*%
X53453500Y-86387300D03*
D12*
X50913500Y-91467300D03*
D11*
X47103500Y-88927300D03*
D10*
X45833500Y-91467300D03*
X55993500Y-91467300D03*
%TD*%
D11*
%TO.C,SW7*%
X53453500Y-66702300D03*
D12*
X50913500Y-71782300D03*
D11*
X47103500Y-69242300D03*
D10*
X45833500Y-71782300D03*
X55993500Y-71782300D03*
%TD*%
%TO.C,SW6*%
X55993500Y-52097300D03*
X45833500Y-52097300D03*
D11*
X47103500Y-49557300D03*
D12*
X50913500Y-52097300D03*
D11*
X53453500Y-47017300D03*
%TD*%
%TO.C,SW5*%
X53453500Y-27332300D03*
D12*
X50913500Y-32412300D03*
D11*
X47103500Y-29872300D03*
D10*
X45833500Y-32412300D03*
X55993500Y-32412300D03*
%TD*%
%TO.C,SW4*%
X36308500Y-95912300D03*
X26148500Y-95912300D03*
D11*
X27418500Y-93372300D03*
D12*
X31228500Y-95912300D03*
D11*
X33768500Y-90832300D03*
%TD*%
D15*
%TO.C,U1*%
X167589616Y-42919456D03*
X166319616Y-42919456D03*
X167589616Y-44189456D03*
X166319616Y-44189456D03*
X167589616Y-45459456D03*
X166319616Y-45459456D03*
X167589616Y-46729456D03*
X166319616Y-46729456D03*
X167589616Y-47999456D03*
X166319616Y-47999456D03*
X167589616Y-49269456D03*
X166319616Y-49269456D03*
X167589616Y-50539456D03*
X166319616Y-50539456D03*
X167589616Y-51809456D03*
X166319616Y-51809456D03*
X167589616Y-53079456D03*
X166319616Y-53079456D03*
X167589616Y-54349456D03*
D16*
X166319616Y-54349456D03*
D15*
X193319616Y-54349456D03*
X194589616Y-54349456D03*
X193319616Y-53079456D03*
X194589616Y-53079456D03*
X193319616Y-51809456D03*
X194589616Y-51809456D03*
X193319616Y-50539456D03*
X194589616Y-50539456D03*
X193319616Y-49269456D03*
X194589616Y-49269456D03*
X193319616Y-47999456D03*
X194589616Y-47999456D03*
X193319616Y-46729456D03*
X194589616Y-46729456D03*
X193319616Y-45459456D03*
X194589616Y-45459456D03*
X193319616Y-44189456D03*
X194589616Y-44189456D03*
X193319616Y-42919456D03*
D16*
X194589616Y-42919456D03*
%TD*%
D10*
%TO.C,SW23*%
X141718500Y-32412300D03*
X131558500Y-32412300D03*
D11*
X132828500Y-29872300D03*
D12*
X136638500Y-32412300D03*
D11*
X139178500Y-27332300D03*
%TD*%
%TO.C,SW3*%
X33768500Y-70632300D03*
D12*
X31228500Y-75712300D03*
D11*
X27418500Y-73172300D03*
D10*
X26148500Y-75712300D03*
X36308500Y-75712300D03*
%TD*%
D11*
%TO.C,SW2*%
X33768500Y-50432300D03*
D12*
X31228500Y-55512300D03*
D11*
X27418500Y-52972300D03*
D10*
X26148500Y-55512300D03*
X36308500Y-55512300D03*
%TD*%
D13*
%TO.C,H4*%
X118745000Y-105410000D03*
%TD*%
%TO.C,H3*%
X152400000Y-27305000D03*
%TD*%
%TO.C,H2*%
X195580000Y-65405000D03*
%TD*%
%TO.C,H1*%
X152908000Y-137033000D03*
%TD*%
M02*
